<svg width="32" height="32" viewBox="0 0 32 32" fill="none" xmlns="http://www.w3.org/2000/svg">
    <path d="M16.8208 1.81066V9.45333C16.8208 11.0613 18.7549 11.8667 19.8878 10.7307L25.263 5.328C26.0563 4.53066 25.9422 3.2 25.0163 2.56533C23.2201 1.33333 21.1639 0.455996 18.9486 0.0319957C17.8422 -0.178671 16.8208 0.679996 16.8208 1.81066Z" fill="#FFCC00"/>
    <path d="M10.6867 12.0107L5.30349 6.6C4.51287 5.80534 3.18896 5.91734 2.55752 6.84534C1.32913 8.65334 0.453605 10.7227 0.0344137 12.9547C-0.175182 14.0667 0.676467 15.0933 1.80139 15.0933H9.41847C11.0183 15.0933 11.8195 13.1467 10.6867 12.0107Z" fill="#FFCC00"/>
    <path d="M9.4106 16.8987H1.79882C0.673904 16.8987 -0.177746 17.9253 0.0318503 19.0373C0.451042 21.2667 1.32392 23.336 2.55231 25.144C3.18375 26.0747 4.50765 26.1867 5.30093 25.392L10.6841 19.9813C11.8117 18.8453 11.0104 16.8987 9.4106 16.8987Z" fill="#FFCC00"/>
    <path d="M15.0219 9.45335V1.80801C15.0219 0.677346 14.0004 -0.178654 12.8941 0.032013C10.6787 0.453346 8.61991 1.33068 6.82376 2.56268C5.89782 3.19735 5.78639 4.52801 6.57702 5.32535L11.9549 10.7307C13.0878 11.8693 15.0219 11.064 15.0219 9.45335Z" fill="#FFCC00"/>
    <path d="M11.9549 21.2533L6.56639 26.6693C5.77577 27.464 5.8872 28.7947 6.81048 29.4293C8.60929 30.664 10.6708 31.544 12.8941 31.968C13.9978 32.1787 15.0219 31.3227 15.0219 30.192V22.5307C15.0219 20.9227 13.0877 20.1173 11.9549 21.2533Z" fill="#FFCC00"/>
    <path d="M22.4241 15.0933H30.0385C31.1635 15.0933 32.0151 14.064 31.8055 12.9547C31.3837 10.7253 30.5108 8.65599 29.2824 6.84799C28.651 5.91732 27.3271 5.80532 26.5364 6.60265L21.1533 12.0107C20.0204 13.1467 20.8216 15.0933 22.4241 15.0933Z" fill="#FFCC00"/>
    <path d="M21.1586 19.9813L26.5391 25.3893C27.3324 26.1867 28.6563 26.072 29.2877 25.1413C30.5135 23.3333 31.3864 21.2667 31.8055 19.0347C32.0151 17.9253 31.1635 16.896 30.0386 16.896H22.4294C20.8296 16.8987 20.0284 18.8453 21.1586 19.9813Z" fill="#FFCC00"/>
    <path d="M16.8208 22.5333V30.1893C16.8208 31.32 17.8449 32.176 18.9486 31.9653C21.1693 31.5413 23.2281 30.664 25.0269 29.4267C25.9528 28.792 26.0642 27.4613 25.271 26.6667L19.8878 21.256C18.7549 20.12 16.8208 20.9253 16.8208 22.5333Z" fill="#FFCC00"/>
</svg>
