<svg width="258" height="280" viewBox="0 0 258 280" fill="none" xmlns="http://www.w3.org/2000/svg">
    <path d="M258 0H10C4.47716 0 0 4.47715 0 10V270C0 275.523 4.47714 280 10 280H258V0Z" fill="#FBEC51"/>
    <path d="M68.4055 207.834C68.4055 190.877 58.5952 176.963 46.0945 175.529C46.6452 175.108 47.1158 174.527 47.4696 173.836C48.5858 173.403 49.3997 172.057 49.3997 170.462C49.3997 168.647 48.3446 167.153 46.9895 166.963C46.8536 166.781 46.7094 166.61 46.5557 166.454V165.292H43.818V165.297C41.5552 165.397 39.7451 167.816 39.7451 170.789C39.7451 172.81 40.5833 174.576 41.8311 175.53C29.3293 176.963 19.5189 190.878 19.5189 207.835C19.5189 225.259 29.8779 239.472 42.8703 240.23V240.264H49.1881V239.518C60.1767 236.341 68.4055 223.364 68.4055 207.834ZM46.3419 167.408C46.7673 167.408 47.1653 167.556 47.5096 167.814C48.213 168.341 48.6868 169.329 48.6868 170.463C48.6868 171.368 48.3847 172.181 47.9045 172.74C47.4896 173.223 46.9421 173.518 46.3419 173.518C45.0468 173.518 43.997 172.15 43.997 170.463C43.997 168.775 45.0468 167.408 46.3419 167.408Z" fill="url(#paint0_linear)"/>
    <path d="M49.5081 175.299C50.4852 174.273 51.1128 172.684 51.1128 170.9C51.1128 167.803 49.2238 165.292 46.8947 165.292C44.5645 165.292 42.6765 167.802 42.6765 170.9C42.6765 172.866 43.4378 174.594 44.5897 175.595C32.7819 177.892 23.7159 191.41 23.7159 207.743C23.7159 225.689 34.6593 240.237 48.1593 240.237C61.6592 240.237 72.6026 225.69 72.6026 207.743C72.6015 190.4 62.3805 176.23 49.5081 175.299ZM48.5362 172.891C48.1214 173.385 47.5738 173.685 46.9736 173.685C45.6785 173.685 44.6287 172.29 44.6287 170.568C44.6287 168.847 45.6785 167.452 46.9736 167.452C47.399 167.452 47.797 167.603 48.1414 167.867C48.8447 168.405 49.3186 169.413 49.3186 170.57C49.3186 171.492 49.0164 172.321 48.5362 172.891Z" fill="url(#paint1_linear)"/>
    <path d="M46.6082 167.925C46.4629 167.925 46.345 167.83 46.345 167.713V0.211279C46.345 0.094653 46.4629 0 46.6082 0C46.7535 0 46.8714 0.094653 46.8714 0.211279V167.713C46.8714 167.83 46.7535 167.925 46.6082 167.925Z" fill="url(#paint2_linear)"/>
    <path d="M47.417 222.908C47.4813 225.177 46.2672 226.967 44.7057 226.906C43.1441 226.845 41.8258 224.956 41.7616 222.687C41.6974 220.418 42.9114 218.627 44.473 218.689C46.0345 218.75 47.3528 220.639 47.417 222.908Z" fill="url(#paint3_linear)"/>
    <path d="M62.8375 220.899C62.9018 223.168 61.6877 224.958 60.1262 224.897C58.5646 224.836 57.2464 222.947 57.1821 220.678C57.1179 218.408 58.332 216.618 59.8935 216.679C61.455 216.741 62.7733 218.63 62.8375 220.899Z" fill="url(#paint4_linear)"/>
    <path d="M62.6269 190.555L44.4666 190.712C43.7485 190.718 43.2093 191.461 43.262 192.372C43.3146 193.283 43.9401 194.017 44.6572 194.01L47.2095 193.988L49.1427 205.996L45.6364 206.253C45.0225 206.298 44.4403 205.788 44.2412 205.032L39.3745 186.524C39.2008 185.865 38.7322 185.383 38.1941 185.309L33.5653 184.678C32.8462 184.58 32.2386 185.235 32.2091 186.141C32.1796 187.046 32.7388 187.86 33.4579 187.958L36.3009 188.346C36.839 188.419 37.3086 188.901 37.4813 189.561L42.0879 207.08C41.0297 208.238 40.379 209.836 40.3064 211.592C40.2326 213.369 40.7591 214.829 41.2129 215.741L41.3877 216.091C41.5604 216.437 41.87 216.638 42.1806 216.606L62.8091 214.461C63.2502 214.416 63.5535 213.922 63.4882 213.36L63.3419 212.107C63.2766 211.544 62.8659 211.125 62.4247 211.171L43.8348 213.105C43.3399 213.156 42.885 212.626 42.9082 211.996C42.9082 211.992 42.9082 211.988 42.9082 211.982C42.944 211.12 43.2694 210.318 43.8053 209.702C43.8201 209.702 43.8359 209.702 43.8506 209.701L61.7677 208.39C62.3731 208.345 62.8449 207.771 62.9038 207.009L64.0179 192.47C64.0968 191.462 63.4324 190.547 62.6269 190.555ZM48.5226 193.978L54.3623 193.927V205.615L50.4411 205.901L48.5226 193.978ZM61.1296 195.797L60.5115 203.867C60.4536 204.629 59.9808 205.203 59.3754 205.248L55.6669 205.519V193.916L59.7376 193.881C60.541 193.874 61.2065 194.789 61.1296 195.797Z" fill="url(#paint5_linear)"/>
    <path d="M84.4948 106.692C84.4948 95.2652 77.8843 85.8886 69.4596 84.922C69.8313 84.6377 70.1472 84.246 70.3862 83.7806C71.138 83.4889 71.6877 82.5823 71.6877 81.5072C71.6877 80.2837 70.977 79.2771 70.063 79.1497C69.9714 79.0265 69.8745 78.9117 69.7703 78.8064V78.023H67.9255V78.0262C66.4008 78.0936 65.1804 79.7235 65.1804 81.7263C65.1804 83.0888 65.7459 84.2786 66.5861 84.922C58.1614 85.8875 51.5499 95.2652 51.5499 106.692C51.5499 118.434 58.531 128.012 67.2863 128.523V128.546H71.5434V128.044C78.9489 125.903 84.4948 117.157 84.4948 106.692ZM69.626 79.4487C69.9124 79.4487 70.1809 79.5487 70.4126 79.7225C70.8864 80.0784 71.2054 80.7439 71.2054 81.5072C71.2054 82.1169 71.0022 82.6644 70.6779 83.0414C70.3989 83.3668 70.0293 83.5658 69.625 83.5658C68.7521 83.5658 68.0445 82.6444 68.0445 81.5072C68.0455 80.3701 68.7531 79.4487 69.626 79.4487Z" fill="url(#paint6_linear)"/>
    <path d="M71.7594 84.7653C72.4175 84.0735 72.8408 83.0026 72.8408 81.8001C72.8408 79.7132 71.5677 78.0211 69.9978 78.0211C68.4278 78.0211 67.1548 79.7132 67.1548 81.8001C67.1548 83.1248 67.6676 84.2893 68.4436 84.9643C60.4864 86.5121 54.3772 95.6212 54.3772 106.629C54.3772 118.723 61.7521 128.526 70.8496 128.526C79.9472 128.526 87.3221 118.722 87.3221 106.629C87.3221 94.941 80.4336 85.3928 71.7594 84.7653ZM71.1044 83.1427C70.8254 83.4754 70.4558 83.6776 70.0515 83.6776C69.1786 83.6776 68.471 82.7373 68.471 81.5769C68.471 80.4166 69.1786 79.4763 70.0515 79.4763C70.3379 79.4763 70.6064 79.5784 70.838 79.7553C71.3119 80.1175 71.6309 80.7977 71.6309 81.5769C71.632 82.1992 71.4277 82.7583 71.1044 83.1427Z" fill="url(#paint7_linear)"/>
    <path d="M69.805 79.7953C69.707 79.7953 69.6281 79.7506 69.6281 79.6952V0.100114C69.6281 0.0446935 69.707 0 69.805 0C69.9029 0 69.9818 0.0446935 69.9818 0.100114V79.6946C69.9829 79.7506 69.9029 79.7953 69.805 79.7953Z" fill="url(#paint8_linear)"/>
    <path d="M156.753 54.7769C156.753 46.9261 152.211 40.4841 146.423 39.8207C146.678 39.6259 146.896 39.3564 147.06 39.0373C147.577 38.8372 147.954 38.2139 147.954 37.4758C147.954 36.6355 147.466 35.9437 146.838 35.8553C146.775 35.771 146.709 35.6921 146.637 35.6194V35.0814H145.369V35.0835C144.321 35.1298 143.483 36.2501 143.483 37.6253C143.483 38.5614 143.872 39.3785 144.449 39.8207C138.661 40.4841 134.119 46.9261 134.119 54.7769C134.119 62.8436 138.916 69.4246 144.931 69.7752V69.791H147.856V69.4456C152.942 67.9757 156.753 61.9665 156.753 54.7769ZM146.537 36.0606C146.734 36.0606 146.918 36.129 147.078 36.2491C147.403 36.4934 147.624 36.9504 147.624 37.4758C147.624 37.8949 147.483 38.2708 147.261 38.5298C147.07 38.7541 146.816 38.8899 146.538 38.8899C145.939 38.8899 145.452 38.2571 145.452 37.4758C145.452 36.6945 145.938 36.0606 146.537 36.0606Z" fill="url(#paint9_linear)"/>
    <path d="M148.004 39.7124C148.455 39.2365 148.746 38.5015 148.746 37.676C148.746 36.2419 147.872 35.0794 146.793 35.0794C145.715 35.0794 144.84 36.2419 144.84 37.676C144.84 38.5858 145.192 39.386 145.725 39.8504C140.258 40.9138 136.061 47.1716 136.061 54.7339C136.061 63.0428 141.128 69.7785 147.378 69.7785C153.629 69.7785 158.695 63.0428 158.695 54.7339C158.695 46.704 153.962 40.1441 148.004 39.7124ZM147.553 38.5984C147.361 38.8269 147.108 38.9659 146.83 38.9659C146.23 38.9659 145.744 38.3194 145.744 37.5223C145.744 36.7252 146.23 36.0787 146.83 36.0787C147.027 36.0787 147.211 36.1492 147.371 36.2703C147.696 36.5199 147.916 36.9863 147.916 37.5212C147.915 37.9498 147.775 38.3341 147.553 38.5984Z" fill="url(#paint10_linear)"/>
    <path d="M146.661 36.2987C146.594 36.2987 146.539 36.2782 146.539 36.253V0.04577C146.539 0.0205173 146.594 0 146.661 0C146.728 0 146.783 0.0205173 146.783 0.04577V36.253C146.782 36.2782 146.728 36.2987 146.661 36.2987Z" fill="url(#paint11_linear)"/>
    <path d="M202.371 99.9539C202.371 93.4825 198.627 88.1724 193.856 87.6249C194.066 87.4638 194.245 87.2427 194.38 86.9784C194.806 86.8131 195.117 86.2992 195.117 85.6906C195.117 84.9978 194.715 84.4271 194.197 84.3555C194.145 84.286 194.089 84.2207 194.032 84.1607V83.7174H192.987V83.7195C192.124 83.7574 191.433 84.6808 191.433 85.8149C191.433 86.5867 191.753 87.2606 192.229 87.6249C187.458 88.1714 183.714 93.4825 183.714 99.9539C183.714 106.604 187.667 112.028 192.626 112.318V112.33H195.037V112.046C199.23 110.834 202.371 105.881 202.371 99.9539ZM193.95 84.525C194.113 84.525 194.265 84.5819 194.396 84.6798C194.664 84.8809 194.845 85.2578 194.845 85.6906C194.845 86.036 194.73 86.3466 194.547 86.5593C194.39 86.7436 194.18 86.8562 193.952 86.8562C193.458 86.8562 193.056 86.334 193.056 85.6906C193.056 85.0473 193.456 84.525 193.95 84.525Z" fill="url(#paint12_linear)"/>
    <path d="M195.158 87.5355C195.531 87.1438 195.771 86.5373 195.771 85.856C195.771 84.6736 195.05 83.7154 194.161 83.7154C193.272 83.7154 192.551 84.6736 192.551 85.856C192.551 86.6068 192.842 87.266 193.281 87.6482C188.774 88.5253 185.314 93.6837 185.314 99.9172C185.314 106.767 189.491 112.319 194.643 112.319C199.795 112.319 203.972 106.767 203.972 99.9172C203.972 93.2983 200.071 87.8914 195.158 87.5355ZM194.787 86.6163C194.629 86.8048 194.42 86.9195 194.191 86.9195C193.698 86.9195 193.296 86.3867 193.296 85.7297C193.296 85.0727 193.698 84.5399 194.191 84.5399C194.354 84.5399 194.506 84.5978 194.637 84.6978C194.905 84.9031 195.086 85.2885 195.086 85.7297C195.086 86.0824 194.971 86.3994 194.787 86.6163Z" fill="url(#paint13_linear)"/>
    <path d="M194.052 84.721C193.996 84.721 193.952 84.6733 193.952 84.6142V0.106821C193.952 0.0476769 193.997 0 194.052 0C194.107 0 194.152 0.0476769 194.152 0.106821V84.6148C194.153 84.6733 194.107 84.721 194.052 84.721Z" fill="url(#paint14_linear)"/>
    <path d="M228.332 181.311C228.332 172.095 223 164.533 216.206 163.754C216.506 163.524 216.761 163.209 216.953 162.833C217.56 162.598 218.002 161.867 218.002 161C218.002 160.013 217.428 159.202 216.692 159.098C216.619 158.999 216.54 158.907 216.456 158.822V158.19H214.969V158.192C213.739 158.246 212.755 159.561 212.755 161.176C212.755 162.274 213.211 163.234 213.889 163.753C207.095 164.532 201.762 172.094 201.762 181.311C201.762 190.781 207.393 198.505 214.454 198.917V198.935H217.887V198.53C223.859 196.805 228.332 189.751 228.332 181.311ZM216.34 159.339C216.571 159.339 216.787 159.42 216.974 159.56C217.357 159.846 217.615 160.383 217.615 160.999C217.615 161.491 217.45 161.933 217.189 162.236C216.964 162.499 216.666 162.66 216.34 162.66C215.636 162.66 215.066 161.916 215.066 160.999C215.066 160.082 215.636 159.339 216.34 159.339Z" fill="url(#paint15_linear)"/>
    <path d="M218.061 163.626C218.592 163.068 218.933 162.205 218.933 161.235C218.933 159.551 217.906 158.188 216.641 158.188C215.374 158.188 214.348 159.552 214.348 161.235C214.348 162.304 214.762 163.243 215.389 163.787C208.971 165.036 204.044 172.383 204.044 181.26C204.044 191.014 209.992 198.92 217.329 198.92C224.666 198.92 230.612 191.014 230.612 181.26C230.612 171.834 225.057 164.133 218.061 163.626ZM217.533 162.319C217.307 162.587 217.009 162.75 216.683 162.75C215.979 162.75 215.409 161.992 215.409 161.056C215.409 160.12 215.979 159.362 216.683 159.362C216.914 159.362 217.13 159.444 217.318 159.587C217.7 159.88 217.958 160.427 217.958 161.056C217.957 161.557 217.793 162.008 217.533 162.319Z" fill="url(#paint16_linear)"/>
    <path d="M216.485 159.619C216.406 159.619 216.342 159.529 216.342 159.418V0.201209C216.342 0.0902246 216.406 0 216.485 0C216.564 0 216.628 0.0902246 216.628 0.201209V159.418C216.627 159.529 216.564 159.619 216.485 159.619Z" fill="url(#paint17_linear)"/>
    <path d="M96.1016 231.777V224.114V85.2137V77.5514C96.0921 76.6795 96.1995 74.7653 97.443 72.9068C98.2875 71.5864 99.4795 70.5376 100.868 69.8964C101.963 69.391 103.181 69.1383 104.448 69.2046C103.547 68.9908 97.8748 67.8579 93.9514 71.7886C91.577 74.1672 91.1474 77.0933 91.0453 78.121V85.7792V224.618V232.276C91.0453 237.245 95.3571 241.114 100.298 240.579C101.737 240.424 103.175 240.268 104.615 240.112C100.035 240.448 96.1016 236.638 96.1016 231.777Z" fill="url(#paint18_radial)"/>
    <path d="M177.947 87.6166C177.947 83.4658 175.055 79.9384 171.144 79.3161L104.121 68.6634C103.847 68.6202 103.575 68.5918 103.306 68.5781C102.033 68.5118 100.809 68.7655 99.709 69.2731C98.3128 69.9175 97.1156 70.9704 96.268 72.2971C95.4193 73.6239 94.9202 75.2244 94.9202 76.9628V84.6599V224.196V231.894C94.9202 236.777 98.8719 240.605 103.472 240.268C103.575 240.26 103.68 240.251 103.784 240.239C104.122 240.2 104.46 240.162 104.798 240.123C126.797 237.622 148.796 235.121 170.795 232.619C171.25 232.567 171.692 232.476 172.12 232.348C175.507 231.342 177.934 228.08 177.934 224.274C177.938 181.287 177.942 138.301 177.946 95.3137C177.946 95.2926 177.946 95.2726 177.945 95.2516C177.947 92.7066 177.947 90.1616 177.947 87.6166Z" fill="url(#paint19_radial)"/>
    <path d="M176.915 89.2118C176.915 87.3607 175.563 85.7876 173.733 85.5107L102.889 74.7769C100.624 74.4336 98.5854 76.1868 98.5854 78.478V94.0575V219.555V235.135C98.5854 237.362 100.518 239.096 102.732 238.856C126.343 236.296 149.954 233.737 173.565 231.178C175.465 230.971 176.904 229.368 176.905 227.456C176.91 186.568 176.913 145.68 176.917 104.791C176.917 104.77 176.916 104.749 176.916 104.729C176.914 99.5561 176.914 94.384 176.915 89.2118Z" fill="url(#paint20_radial)"/>
    <path d="M176.296 104.634C152.097 101.821 127.898 99.0084 103.699 96.1949V108.543V109.315V122.854V123.623V135.579V136.349V148.875V149.645V162.417V163.187V175.311V176.081V190.047V190.817V204.69V205.461V219.544V220.316V234.867C127.898 232.244 152.097 229.621 176.296 226.998C176.296 186.21 176.296 145.422 176.296 104.634Z" fill="black"/>
    <path d="M134.354 149.54L157.954 150.052V138.623L134.354 137.633V149.54Z" fill="url(#paint21_linear)"/>
    <path d="M145.384 150.549L121.783 150.037V162.32L145.384 162.192V150.549Z" fill="url(#paint22_linear)"/>
    <path d="M145.641 125.563L122.04 124.471V136.346L145.641 137.336V125.563Z" fill="url(#paint23_linear)"/>
    <path d="M134.097 174.873L157.697 174.533V162.896L134.097 163.023V174.873Z" fill="url(#paint24_linear)"/>
    <path d="M158.211 201.752L176.297 200.777C176.297 196.859 176.297 192.94 176.297 189.021L158.211 189.468V201.752Z" fill="url(#paint25_linear)"/>
    <path d="M170.011 214.833L176.296 214.386C176.296 210.107 176.296 205.828 176.296 201.549L170.011 201.888V214.833Z" fill="url(#paint26_linear)"/>
    <path d="M170.011 126.69L146.411 125.599V137.369L170.011 138.359V126.69Z" fill="url(#paint27_linear)"/>
    <path d="M145.129 175.484L121.528 175.824V189.606L145.129 189.023V175.484Z" fill="url(#paint28_linear)"/>
    <path d="M133.841 203.066L157.442 201.794V189.488L133.841 190.071V203.066Z" fill="url(#paint29_linear)"/>
    <path d="M169.755 151.077L146.154 150.565V162.189L169.755 162.062V151.077Z" fill="url(#paint30_linear)"/>
    <path d="M169.498 175.133L145.897 175.473V189.004L169.498 188.42V175.133Z" fill="url(#paint31_linear)"/>
    <path d="M145.641 216.564L169.241 214.887V201.929L145.641 203.201V216.564Z" fill="url(#paint32_linear)"/>
    <path d="M170.268 188.401L176.296 188.253C176.296 183.847 176.296 179.441 176.296 175.035L170.268 175.121V188.401Z" fill="url(#paint33_linear)"/>
    <path d="M144.871 203.242L121.271 204.515V218.296L144.871 216.618V203.242Z" fill="url(#paint34_linear)"/>
    <path d="M134.61 124.283L158.211 125.374V113.929L134.61 111.93V124.283Z" fill="url(#paint35_linear)"/>
    <path d="M109.984 149.011L133.584 149.523V137.601L109.984 136.612V149.011Z" fill="url(#paint36_linear)"/>
    <path d="M133.841 111.865L110.24 109.868V123.155L133.841 124.247V111.865Z" fill="url(#paint37_linear)"/>
    <path d="M109.727 175.224L133.328 174.885V163.027L109.727 163.155V175.224Z" fill="url(#paint38_linear)"/>
    <path d="M109.47 204.38L133.071 203.107V190.09L109.47 190.674V204.38Z" fill="url(#paint39_linear)"/>
    <path d="M158.724 150.068L176.296 150.45C176.296 146.764 176.296 143.078 176.296 139.393L158.724 138.655V150.068Z" fill="url(#paint40_linear)"/>
    <path d="M109.47 123.12V109.802L103.699 109.314V122.853L109.47 123.12Z" fill="url(#paint41_linear)"/>
    <path d="M108.957 175.235V163.159L103.699 163.187V175.311L108.957 175.235Z" fill="url(#paint42_linear)"/>
    <path d="M120.758 189.625V175.835L103.699 176.081V190.047L120.758 189.625Z" fill="url(#paint43_linear)"/>
    <path d="M108.7 204.421V190.693L103.699 190.817V204.691L108.7 204.421Z" fill="url(#paint44_linear)"/>
    <path d="M145.384 101.04C137.603 100.135 129.822 99.2307 122.04 98.3262V110.094L145.384 112.07V101.04Z" fill="url(#paint45_linear)"/>
    <path d="M170.011 103.903C162.059 102.978 154.106 102.054 146.154 101.129V112.136L170.011 114.155V103.903Z" fill="url(#paint46_linear)"/>
    <path d="M109.214 148.994V136.579L103.699 136.348V148.874L109.214 148.994Z" fill="url(#paint47_linear)"/>
    <path d="M121.015 162.324V150.02L103.699 149.644V162.418L121.015 162.324Z" fill="url(#paint48_linear)"/>
    <path d="M158.467 228.93C164.41 228.285 170.353 227.642 176.296 226.997C176.296 223.051 176.296 219.103 176.296 215.157L158.467 216.424V228.93Z" fill="url(#paint49_linear)"/>
    <path d="M121.27 136.315V124.435L103.699 123.623V135.578L121.27 136.315Z" fill="url(#paint50_linear)"/>
    <path d="M121.27 110.029V98.2357C115.413 97.5544 109.555 96.8742 103.699 96.1929V108.541L121.27 110.029Z" fill="url(#paint51_linear)"/>
    <path d="M170.525 162.057L176.297 162.026C176.297 158.424 176.297 154.822 176.297 151.219L170.525 151.094V162.057Z" fill="url(#paint52_linear)"/>
    <path d="M170.78 138.39L176.296 138.622C176.296 134.742 176.296 130.862 176.296 126.98L170.78 126.725V138.39Z" fill="url(#paint53_linear)"/>
    <path d="M120.501 218.35V204.556L103.699 205.461V219.545L120.501 218.35Z" fill="url(#paint54_linear)"/>
    <path d="M158.467 174.522L176.296 174.265C176.296 170.442 176.296 166.619 176.296 162.797L158.467 162.892V174.522Z" fill="url(#paint55_linear)"/>
    <path d="M103.699 234.866C105.367 234.685 107.033 234.505 108.701 234.324V219.96L103.699 220.316V234.866Z" fill="url(#paint56_linear)"/>
    <path d="M133.841 231.599C141.793 230.736 149.746 229.875 157.698 229.013V216.478L133.841 218.174V231.599Z" fill="url(#paint57_linear)"/>
    <path d="M170.78 103.992V114.221L176.296 114.687C176.296 111.336 176.296 107.984 176.296 104.633C174.457 104.42 172.619 104.206 170.78 103.992Z" fill="url(#paint58_linear)"/>
    <path d="M109.47 234.241C117.337 233.388 125.203 232.535 133.071 231.683V218.229L109.47 219.907V234.241Z" fill="url(#paint59_linear)"/>
    <path d="M158.98 125.409L176.296 126.21C176.296 122.626 176.296 119.042 176.296 115.459L158.98 113.993V125.409Z" fill="url(#paint60_linear)"/>
    <path d="M164.716 93.9565C164.161 93.887 163.606 93.8175 163.052 93.748C163.052 92.3465 163.052 92.4444 163.052 91.0429C163.606 91.1261 164.161 91.2093 164.716 91.2925C164.716 92.6803 164.716 92.5697 164.716 93.9565Z" fill="#999999"/>
    <path d="M166.838 94.2481C166.283 94.1786 165.728 94.1092 165.173 94.0397C165.173 92.6382 165.173 91.362 165.173 89.9615C165.728 90.0447 166.283 90.1279 166.838 90.2111C166.838 91.5989 166.838 92.8603 166.838 94.2481Z" fill="#999999"/>
    <path d="M168.961 94.5398C168.406 94.4703 167.851 94.4008 167.296 94.3313C167.296 92.9298 167.296 89.6151 167.296 88.2137C167.851 88.2968 168.406 88.38 168.961 88.4632C168.961 89.851 168.961 93.152 168.961 94.5398Z" fill="#999999"/>
    <path d="M176.286 99.2033C152.095 96.135 127.904 93.0667 103.712 89.9984V115.46C127.904 117.105 152.095 118.749 176.286 120.394V99.2033Z" fill="#FEDC00"/>
    <path d="M168.434 102.317C150.845 100.033 133.256 97.7502 115.668 95.4664C114.679 95.4537 112.547 95.5832 110.863 97.0732C107.893 99.7014 107.951 105.12 110.673 107.98C112.068 109.445 113.843 109.902 114.808 110.066L167.274 114.9C170.922 115.236 174.089 112.411 174.17 108.748C174.172 108.75 174.175 108.753 174.177 108.755C174.104 108.052 173.847 106.538 172.731 105.065C171.189 103.028 169.059 102.46 168.434 102.317Z" fill="#FEDC00"/>
    <path d="M167.298 102.696C149.992 100.479 132.686 98.263 115.379 96.0465C114.406 96.0339 112.309 96.1592 110.653 97.5996C107.731 100.143 107.79 105.386 110.468 108.156C111.841 109.575 113.588 110.018 114.538 110.176L166.162 114.873C169.751 115.2 172.866 112.466 172.945 108.922C172.948 108.924 172.951 108.926 172.953 108.928C172.88 108.248 172.626 106.782 171.528 105.357C170.01 103.385 167.914 102.834 167.298 102.696Z" fill="url(#paint61_linear)"/>
    <path d="M121.093 108.029L119.292 105.919C119.734 105.017 119.933 103.936 119.801 102.816C119.482 100.13 117.378 98.2262 115.101 98.5631C112.825 98.9011 111.237 101.352 111.556 104.038C111.875 106.725 113.979 108.628 116.255 108.291C117.151 108.159 117.941 107.698 118.549 107.025L120.204 108.965L121.093 108.029ZM116.095 106.934C114.454 107.177 112.935 105.804 112.706 103.867C112.476 101.929 113.621 100.162 115.262 99.9183C116.904 99.675 118.422 101.048 118.652 102.986C118.881 104.923 117.737 106.691 116.095 106.934Z" fill="#48433F"/>
    <path d="M157.68 135.073C144.017 134.524 130.352 133.973 116.689 133.423V204.933C130.352 204.219 144.017 203.505 157.68 202.791C157.68 178.482 157.68 159.382 157.68 135.073Z" fill="url(#paint62_radial)"/>
    <path d="M165.881 129.005C149.484 128.345 133.086 127.685 116.69 127.026V133.423C130.353 133.973 144.017 134.524 157.68 135.073C157.68 135.074 157.68 135.074 157.68 135.075C157.68 159.383 157.68 178.484 157.68 202.791C157.641 202.793 157.603 202.795 157.564 202.797C157.603 202.803 157.641 202.809 157.68 202.814C160.415 205.305 163.15 207.796 165.885 210.286C165.883 210.292 165.882 210.298 165.88 210.304C165.886 210.304 165.893 210.303 165.9 210.303C165.9 181.12 165.9 158.189 165.9 129.005C165.893 129.006 165.887 129.006 165.881 129.005Z" fill="url(#paint63_radial)"/>
    <path d="M166.016 130.853H165.82V210.305H166.016V130.853Z" fill="url(#paint64_linear)"/>
    <path d="M116.787 133.423H116.591V212.875H116.787V133.423Z" fill="url(#paint65_linear)"/>
    <path d="M150.606 154.288C140.746 153.891 130.887 153.494 121.027 153.097V204.698C130.887 204.183 140.746 203.667 150.606 203.152C150.606 185.611 150.606 171.828 150.606 154.288Z" fill="#15B1D7"/>
    <path d="M108.76 87.3018L108.944 82.5214L108.262 83.3374L108.134 83.1458L108.971 82.1686L109.156 82.1886L108.958 87.3239L108.76 87.3018Z" fill="#999999"/>
    <path d="M110 84.86C110.046 83.667 110.484 82.2528 111.571 82.3687C112.65 82.4834 112.976 83.9797 112.93 85.1727C112.885 86.3583 112.445 87.7882 111.365 87.6724C110.28 87.5566 109.953 86.0456 110 84.86ZM112.714 85.1495C112.756 84.0566 112.511 82.7004 111.561 82.5993C110.611 82.4982 110.258 83.7902 110.215 84.8831C110.173 85.9687 110.424 87.3407 111.374 87.4418C112.318 87.5429 112.672 86.2351 112.714 85.1495Z" fill="#999999"/>
    <path d="M113.679 87.6408C113.684 87.5103 113.781 87.4039 113.891 87.4166C114.002 87.4281 114.09 87.5534 114.085 87.6851C114.08 87.824 113.983 87.9293 113.871 87.9178C113.762 87.9051 113.673 87.7798 113.679 87.6408ZM113.807 84.3072C113.812 84.1682 113.909 84.0629 114.021 84.0745C114.131 84.0861 114.22 84.2114 114.215 84.3504C114.209 84.4809 114.112 84.5873 114.002 84.5746C113.89 84.5641 113.803 84.4388 113.807 84.3072Z" fill="#999999"/>
    <path d="M114.769 87.1702L114.946 87.0659C115.14 87.5113 115.516 87.8841 116.077 87.9441C116.757 88.0168 117.211 87.6019 117.241 86.8395C117.274 86.0003 116.725 85.6013 116.095 85.5349C115.929 85.517 115.812 85.5044 115.75 85.5055L115.759 85.2591C115.82 85.2738 115.932 85.2854 116.105 85.3033C116.679 85.3643 117.246 85.1001 117.277 84.323C117.304 83.6143 116.826 83.1616 116.265 83.1016C115.771 83.0489 115.441 83.2532 115.115 83.6744L114.966 83.5038C115.255 83.1016 115.706 82.8099 116.273 82.8699C116.914 82.9383 117.507 83.4732 117.474 84.343C117.441 85.1748 116.874 85.4307 116.55 85.4654C116.888 85.5402 117.471 85.9814 117.438 86.8585C117.406 87.6903 116.906 88.2631 116.068 88.1736C115.42 88.1052 114.967 87.6545 114.769 87.1702Z" fill="#999999"/>
    <path d="M118.293 85.7445C118.339 84.5515 118.777 83.1374 119.864 83.2532C120.943 83.368 121.269 84.8642 121.223 86.0572C121.178 87.2428 120.738 88.6728 119.658 88.5569C118.573 88.4422 118.247 86.9301 118.293 85.7445ZM121.007 86.0351C121.049 84.9421 120.804 83.5859 119.854 83.4848C118.905 83.3838 118.551 84.6757 118.509 85.7687C118.467 86.8543 118.717 88.2263 119.667 88.3274C120.611 88.4274 120.965 87.1197 121.007 86.0351Z" fill="#999999"/>
    <path d="M157.68 202.814C157.641 202.808 157.603 202.803 157.564 202.797C143.938 203.509 130.313 204.221 116.689 204.934V212.87C116.645 219.741 116.602 231.984 116.557 238.856C122.222 244.049 127.888 249.242 133.553 254.435C141.595 239.018 149.637 218.232 157.68 202.814Z" fill="url(#paint66_linear)"/>
    <path d="M157.68 202.814C157.641 202.809 157.604 202.803 157.565 202.797C143.939 203.509 130.314 204.221 116.69 204.934V212.87C116.663 212.872 116.635 212.874 116.607 212.876C119.439 215.514 122.272 218.15 125.105 220.788C141.027 218.997 156.948 217.207 172.869 215.416C167.806 211.215 162.743 207.014 157.68 202.814Z" fill="url(#paint67_linear)"/>
    <path d="M133.504 241.02C133.504 244.406 133.504 251.047 133.504 254.433C148.66 251.389 163.816 248.345 178.972 245.301C178.972 242.257 178.972 235.957 178.972 232.913C163.816 235.615 148.66 238.318 133.504 241.02Z" fill="url(#paint68_linear)"/>
    <path d="M125.055 220.812C125.055 223.881 125.055 230.137 125.055 233.206C140.936 230.904 156.818 228.602 172.7 226.3C172.7 222.678 172.7 219.056 172.7 215.434C156.818 217.227 140.936 219.019 125.055 220.812Z" fill="url(#paint69_linear)"/>
    <path d="M125.055 233.157C127.871 235.778 130.687 238.399 133.504 241.021C148.66 238.318 163.816 235.616 178.972 232.914C176.881 230.71 174.79 228.506 172.7 226.301C156.818 228.585 140.936 230.871 125.055 233.157Z" fill="url(#paint70_linear)"/>
    <g opacity="0.25">
        <path opacity="0.25" d="M150.606 176.773C140.746 176.758 130.887 176.742 121.027 176.726V181.064C130.887 181.043 140.746 181.023 150.606 181.002C150.606 179.591 150.606 178.183 150.606 176.773Z" fill="white"/>
        <path opacity="0.25" d="M150.606 168.173C140.746 167.813 130.887 167.452 121.027 167.092V171.432C130.887 171.756 140.746 172.079 150.606 172.404C150.606 171.003 150.606 169.594 150.606 168.173Z" fill="white"/>
        <path opacity="0.25" d="M150.606 185.391C140.746 185.715 130.887 186.038 121.027 186.363V190.703C130.887 190.343 140.746 189.982 150.606 189.622C150.606 188.2 150.606 186.791 150.606 185.391Z" fill="white"/>
        <path opacity="0.25" d="M150.606 159.385C140.746 158.806 130.887 158.226 121.028 157.647V161.986C130.887 162.529 140.746 163.071 150.606 163.615C150.606 162.223 150.606 160.815 150.606 159.385Z" fill="white"/>
        <path opacity="0.25" d="M121.027 200.148C130.887 199.569 140.746 198.989 150.606 198.41C150.606 196.979 150.606 195.572 150.606 194.181C140.746 194.724 130.887 195.267 121.027 195.81V200.148Z" fill="white"/>
    </g>
    <path d="M107.376 162.23V122.72H111.039C111.039 135.874 111.039 149.028 111.039 162.182C109.817 162.197 108.596 162.213 107.376 162.23Z" fill="url(#paint71_linear)"/>
    <path d="M200.085 148.386C192.129 140.795 184.173 133.203 176.217 125.612L161.728 124.895C169.991 132.729 178.252 140.563 186.515 148.397C191.037 148.393 195.562 148.39 200.085 148.386Z" fill="url(#paint72_linear)"/>
    <path d="M161.727 124.895L147.233 124.177C155.72 132.255 164.207 140.331 172.694 148.408C177.3 148.404 181.907 148.401 186.514 148.396C178.251 140.563 169.99 132.729 161.727 124.895Z" fill="url(#paint73_linear)"/>
    <path d="M147.233 124.177L132.694 123.457C141.498 131.778 150.301 140.098 159.104 148.418C163.634 148.415 168.164 148.411 172.694 148.408C164.207 140.331 155.72 132.255 147.233 124.177Z" fill="url(#paint74_linear)"/>
    <path d="M132.694 123.457L118.178 122.738C127.224 131.302 136.27 139.865 145.316 148.429C149.913 148.426 154.511 148.422 159.108 148.418C150.304 140.098 141.499 131.778 132.694 123.457Z" fill="url(#paint75_linear)"/>
    <path d="M144.176 148.431C144.556 148.431 144.936 148.43 145.316 148.43C136.27 139.867 127.224 131.303 118.178 122.739L103.718 122.023L103.741 122.045C103.872 122.172 104.002 122.298 104.133 122.424C113.145 131.149 122.206 139.821 131.317 148.442C135.603 148.438 139.889 148.434 144.176 148.431Z" fill="url(#paint76_linear)"/>
    <path d="M145.334 156.912C145.334 157.039 145.339 157.164 145.346 157.29C145.339 157.164 145.335 157.038 145.334 156.912Z" fill="#999999"/>
    <path d="M145.317 148.771L145.334 156.912L145.317 148.771Z" fill="#999999"/>
    <path d="M152.175 163.722C148.575 163.73 145.619 160.949 145.354 157.414C145.287 158.087 145.125 158.732 144.883 159.337C145.77 162.085 148.351 164.071 151.395 164.064C152.353 164.062 153.266 163.866 154.096 163.515C154.253 163.448 154.408 163.376 154.559 163.298C153.814 163.571 153.012 163.72 152.175 163.722Z" fill="#B3B3B3"/>
    <path d="M165.904 163.693C162.167 163.701 159.131 160.678 159.124 156.941C159.124 156.875 159.124 156.808 159.124 156.743C159.126 157.64 158.958 158.498 158.65 159.287C159.511 162.044 162.086 164.041 165.125 164.035C166.096 164.033 167.019 163.827 167.854 163.459C167.979 163.403 168.104 163.343 168.225 163.281C167.5 163.545 166.719 163.691 165.904 163.693Z" fill="#FEDC00"/>
    <path d="M172.704 156.738L172.698 153.646V153.641V153.646L172.704 156.738Z" fill="#999999"/>
    <path d="M179.66 163.663C175.827 163.672 172.713 160.571 172.704 156.738V156.863C172.706 157.704 172.555 158.51 172.277 159.255C173.196 162.021 175.806 164.013 178.879 164.006C179.901 164.004 180.871 163.779 181.742 163.378C181.831 163.337 181.92 163.293 182.007 163.248C181.276 163.515 180.486 163.661 179.66 163.663Z" fill="#B3B3B3"/>
    <path d="M193.545 163.634C189.68 163.642 186.54 160.515 186.532 156.649V156.762C186.534 157.61 186.381 158.422 186.103 159.171C187.026 161.967 189.661 163.982 192.765 163.975C193.68 163.973 194.552 163.786 195.345 163.452C195.443 163.41 195.539 163.367 195.635 163.322C195.697 163.293 195.759 163.261 195.82 163.229C195.11 163.489 194.345 163.632 193.545 163.634Z" fill="#FEDC00"/>
    <path d="M138.368 163.752C134.495 163.76 131.348 160.626 131.34 156.754C131.332 153.983 131.324 151.212 131.317 148.442C122.205 139.822 113.145 131.149 104.133 122.424C103.995 122.294 103.857 122.163 103.719 122.031C103.712 122.025 103.705 122.019 103.699 122.012C103.701 122.377 103.703 122.742 103.705 123.106C108.153 127.411 112.612 131.703 117.085 135.983C121.557 140.262 126.04 144.529 130.536 148.783C130.539 148.785 130.541 148.788 130.542 148.79V149.009L130.56 157.094C130.568 160.968 133.714 164.1 137.588 164.092C138.522 164.09 139.413 163.905 140.228 163.574C140.415 163.497 140.597 163.413 140.776 163.321C140.025 163.598 139.214 163.75 138.368 163.752Z" fill="#FEDC00"/>
    <path d="M159.117 153.481V153.479L159.106 148.609V148.418H158.857L145.317 148.429V148.637V148.77L145.335 156.911C145.335 157.08 145.342 157.247 145.355 157.414C145.62 160.948 148.575 163.729 152.176 163.722C153.014 163.72 153.816 163.57 154.56 163.298C154.667 163.259 154.773 163.217 154.878 163.172C156.601 162.442 157.97 161.036 158.652 159.287C158.959 158.498 159.127 157.64 159.125 156.743L159.117 153.481Z" fill="url(#paint77_linear)"/>
    <path d="M172.704 156.738L172.698 153.647V153.642L172.686 148.409H172.487L159.105 148.42V148.61V148.762L159.116 153.481L159.123 156.943C159.132 160.68 162.167 163.702 165.903 163.695C166.718 163.693 167.499 163.547 168.224 163.283C168.363 163.233 168.499 163.178 168.633 163.119C170.312 162.38 171.634 160.983 172.277 159.257C172.554 158.512 172.706 157.707 172.704 156.864V156.738Z" fill="url(#paint78_linear)"/>
    <path d="M186.532 156.649L186.515 148.739L186.514 148.397H186.359L172.686 148.408V148.58V148.749L172.697 153.646L172.703 156.737C172.712 160.57 175.825 163.671 179.659 163.662C180.485 163.66 181.275 163.514 182.007 163.245C182.182 163.181 182.355 163.11 182.522 163.032C184.17 162.273 185.466 160.881 186.101 159.169C186.379 158.418 186.532 157.607 186.53 156.76L186.532 156.649Z" fill="url(#paint79_linear)"/>
    <path d="M186.514 148.397L186.515 148.739L186.532 156.649C186.54 160.515 189.68 163.641 193.545 163.634C194.345 163.632 195.11 163.489 195.82 163.23C195.923 163.192 196.025 163.152 196.125 163.11C196.223 163.069 196.319 163.026 196.415 162.981C198.293 162.082 199.685 160.331 200.093 158.23L200.085 148.386L186.514 148.397Z" fill="url(#paint80_linear)"/>
    <path d="M145.346 157.29C145.339 157.164 145.334 157.039 145.334 156.912L145.316 148.771V148.639V148.43H145.104C140.508 148.433 135.911 148.437 131.315 148.441C131.323 151.211 131.332 153.982 131.339 156.753C131.347 160.625 134.494 163.759 138.367 163.751C139.214 163.748 140.025 163.597 140.776 163.321C140.853 163.293 140.93 163.263 141.007 163.231C142.769 162.513 144.173 161.101 144.883 159.335C145.125 158.731 145.287 158.087 145.354 157.413C145.351 157.373 145.348 157.331 145.346 157.29Z" fill="url(#paint81_linear)"/>
    <path fill-rule="evenodd" clip-rule="evenodd" d="M228.746 181.244C228.746 189.761 223.642 196.665 217.345 196.665C211.05 196.665 205.945 189.761 205.945 181.244C205.945 172.728 211.049 165.824 217.345 165.824C223.641 165.824 228.746 172.728 228.746 181.244Z" fill="#777777"/>
    <path d="M217.345 197.197C210.842 197.197 205.552 190.041 205.552 181.244C205.552 172.448 210.842 165.292 217.345 165.292C223.848 165.292 229.138 172.448 229.138 181.244C229.138 190.041 223.848 197.197 217.345 197.197ZM217.345 166.356C211.276 166.356 206.338 173.034 206.338 181.244C206.338 189.454 211.276 196.133 217.345 196.133C223.414 196.133 228.351 189.454 228.351 181.244C228.351 173.034 223.414 166.356 217.345 166.356Z" fill="black"/>
    <path d="M207.124 181.244C207.124 173.608 211.7 167.419 217.345 167.419C222.99 167.419 227.566 173.608 227.566 181.244C227.566 188.88 222.99 195.07 217.345 195.07C211.7 195.07 207.124 188.88 207.124 181.244Z" fill="url(#paint82_linear)"/>
    <path d="M217.345 195.601C211.493 195.601 206.731 189.161 206.731 181.244C206.731 173.328 211.493 166.887 217.345 166.887C223.197 166.887 227.959 173.328 227.959 181.244C227.959 189.161 223.197 195.601 217.345 195.601ZM217.345 167.951C211.925 167.951 207.518 173.914 207.518 181.244C207.518 188.574 211.926 194.538 217.345 194.538C222.764 194.538 227.172 188.575 227.172 181.244C227.172 173.914 222.764 167.951 217.345 167.951Z" fill="black"/>
    <path d="M222.027 182.524C222.029 182.516 222.032 182.509 222.034 182.502C222.037 182.492 222.039 182.483 222.042 182.472C222.044 182.465 222.045 182.456 222.047 182.449C222.049 182.439 222.052 182.43 222.053 182.421C222.054 182.412 222.055 182.404 222.056 182.395C222.057 182.386 222.058 182.376 222.059 182.367C222.06 182.358 222.06 182.35 222.06 182.34C222.06 182.331 222.061 182.322 222.061 182.312C222.061 182.304 222.061 182.296 222.06 182.288C222.06 182.269 222.058 182.251 222.056 182.232C222.055 182.224 222.055 182.215 222.053 182.208C222.052 182.199 222.049 182.19 222.048 182.181C222.046 182.172 222.045 182.164 222.043 182.154C222.041 182.147 222.039 182.138 222.037 182.131C222.035 182.121 222.032 182.111 222.028 182.101C222.027 182.098 222.027 182.096 222.026 182.093L217.702 168.8C217.64 168.609 217.503 168.485 217.349 168.482C217.198 168.487 217.054 168.595 216.988 168.784L212.271 182.077C212.258 182.112 212.25 182.148 212.242 182.185C212.241 182.189 212.241 182.194 212.24 182.198C212.238 182.212 212.236 182.226 212.235 182.239C212.235 182.245 212.234 182.251 212.234 182.256C212.233 182.269 212.233 182.282 212.232 182.295C212.232 182.302 212.232 182.307 212.232 182.313C212.232 182.326 212.233 182.339 212.233 182.352C212.233 182.357 212.234 182.364 212.234 182.369C212.235 182.383 212.237 182.395 212.239 182.409C212.24 182.414 212.24 182.419 212.241 182.425C212.243 182.439 212.246 182.454 212.251 182.469C212.252 182.472 212.252 182.476 212.253 182.479C212.261 182.514 212.273 182.548 212.287 182.581L217.005 193.215C217.006 193.218 217.007 193.22 217.008 193.222C217.014 193.236 217.022 193.25 217.03 193.264C217.032 193.267 217.034 193.271 217.036 193.274C217.046 193.29 217.056 193.305 217.067 193.32C217.07 193.323 217.072 193.327 217.075 193.33C217.084 193.341 217.092 193.351 217.102 193.361C217.106 193.365 217.109 193.369 217.113 193.372C217.123 193.382 217.132 193.39 217.143 193.399C217.146 193.401 217.148 193.404 217.151 193.406C217.165 193.417 217.178 193.425 217.193 193.433C217.195 193.434 217.197 193.435 217.198 193.437C217.211 193.443 217.224 193.449 217.236 193.453C217.241 193.454 217.245 193.457 217.248 193.458C217.26 193.462 217.271 193.464 217.283 193.467C217.287 193.468 217.291 193.469 217.295 193.469C217.311 193.471 217.326 193.473 217.343 193.473C217.345 193.473 217.348 193.473 217.35 193.473C217.355 193.473 217.361 193.472 217.367 193.471C217.375 193.47 217.384 193.47 217.392 193.468C217.4 193.467 217.406 193.466 217.413 193.464C217.423 193.462 217.432 193.459 217.442 193.455C217.447 193.453 217.452 193.452 217.458 193.45C217.472 193.444 217.486 193.438 217.5 193.429C217.503 193.427 217.506 193.425 217.509 193.423C217.52 193.417 217.53 193.409 217.541 193.401C217.545 193.398 217.549 193.394 217.553 193.39C217.563 193.382 217.573 193.372 217.582 193.363C217.585 193.36 217.588 193.357 217.59 193.354C217.602 193.342 217.613 193.327 217.624 193.312C217.626 193.309 217.628 193.306 217.63 193.304C217.64 193.29 217.648 193.276 217.657 193.263C217.659 193.26 217.66 193.256 217.662 193.253C217.672 193.232 217.683 193.211 217.691 193.189L222.012 182.564C222.013 182.561 222.014 182.556 222.016 182.553C222.018 182.548 222.02 182.543 222.022 182.536C222.025 182.532 222.026 182.528 222.027 182.524ZM216.952 191.023L213.453 183.134L216.952 184.318V191.023ZM217.738 184.31L220.878 183.151L217.738 190.873V184.31ZM217.738 183.207V171.542L221.125 181.957L217.738 183.207ZM216.952 171.352V183.222L213.191 181.95L216.952 171.352Z" fill="black"/>
    <path d="M70.6715 94.1292C65.6258 94.1292 61.4087 99.6857 61.4087 106.515C61.4087 113.345 65.6247 119.051 70.6715 119.051C75.7184 119.051 79.8238 113.345 79.8238 106.515C79.8238 99.6857 75.7173 94.1292 70.6715 94.1292ZM72.3352 112.144H71.5034V113.27C71.5034 114.754 69.8397 114.76 69.8397 113.27V112.144H67.3442C66.247 112.144 66.2428 109.892 67.3442 109.892H68.176V103.136H67.3442C66.247 103.136 66.2428 100.884 67.3442 100.884H69.8397V99.7583C69.8397 98.2736 71.5034 98.2684 71.5034 99.7583V100.884H72.3352C74.4706 100.884 75.6446 104.319 74.1821 106.514C75.6446 108.709 74.4706 112.144 72.3352 112.144Z" fill="url(#paint83_linear)"/>
    <path d="M72.3351 107.641H69.8396V109.893H72.3351C73.4344 109.893 73.4344 107.641 72.3351 107.641Z" fill="url(#paint84_linear)"/>
    <path d="M72.3351 103.137H69.8396V105.389H72.3351C73.4344 105.388 73.4344 103.137 72.3351 103.137Z" fill="url(#paint85_linear)"/>
    <path d="M60.5769 91.8769C59.2007 91.8769 58.0814 93.3921 58.0814 95.2548C58.0814 97.1174 59.2007 98.6327 60.5769 98.6327C61.9531 98.6327 63.0724 97.1174 63.0724 95.2548C63.0724 93.3921 61.9531 91.8769 60.5769 91.8769Z" fill="url(#paint86_linear)"/>
    <path d="M70.6716 87.3734C67.8897 87.3734 65.1109 88.4958 62.825 90.5322C63.3125 90.9587 63.7305 91.5136 64.0495 92.1696C65.9986 90.5417 68.3403 89.6109 70.6716 89.6109C77.5537 89.6109 83.1628 97.2017 83.1628 106.515C83.1628 108.618 82.8448 110.82 82.2836 112.745C82.8195 113.055 83.2902 113.521 83.6829 114.09C84.42 111.755 84.8149 109.091 84.8149 106.515C84.8149 95.9602 78.4698 87.3734 70.6716 87.3734Z" fill="url(#paint87_linear)"/>
    <path d="M77.182 121.01C75.233 122.638 73.0018 123.569 70.6706 123.569C63.7884 123.569 58.0688 115.827 58.0688 106.514C58.0688 104.411 58.3868 102.36 58.948 100.433C58.412 100.124 57.9414 99.6572 57.5476 99.0886C56.8105 101.424 56.4156 104.088 56.4156 106.664C56.4156 117.218 62.8713 125.805 70.6706 125.805C73.4525 125.805 76.1207 124.683 78.4066 122.646C77.9202 122.221 77.5021 121.666 77.182 121.01Z" fill="url(#paint88_linear)"/>
    <path d="M80.6546 114.547C79.2783 114.547 78.1591 116.062 78.1591 117.925C78.1591 119.788 79.2783 121.303 80.6546 121.303C82.0308 121.303 83.1501 119.788 83.1501 117.925C83.1511 116.062 82.0308 114.547 80.6546 114.547Z" fill="url(#paint89_linear)"/>
    <path d="M155.283 48.5825L147.157 43.8137C147.086 43.7716 147.001 43.7716 146.93 43.8137L138.804 48.5825C138.714 48.6362 138.656 48.7468 138.656 48.87V60.4525C138.656 60.5746 138.714 60.6863 138.804 60.74L146.93 65.5098C146.966 65.5309 147.005 65.5414 147.044 65.5414C147.082 65.5414 147.121 65.5309 147.157 65.5098L155.283 60.74C155.373 60.6873 155.431 60.5757 155.431 60.4525V48.87C155.431 48.7468 155.373 48.6352 155.283 48.5825ZM147.044 44.4539L154.566 48.8689L152.385 50.1493C152.371 50.1367 152.357 50.1251 152.341 50.1156L144.869 45.7301L147.044 44.4539ZM144.277 46.0902L151.789 50.4989L150.251 51.4023L142.742 46.9947L144.277 46.0902ZM151.965 51.1033V54.4412L150.528 55.2846V51.9467L151.965 51.1033ZM154.907 60.2514L147.306 64.7128V53.8378L149.119 52.7733C149.249 52.6964 149.304 52.5058 149.241 52.3479C149.178 52.1889 149.021 52.1226 148.891 52.1994L147.045 53.284L146.318 52.8575C146.187 52.7807 146.031 52.847 145.968 53.006C145.905 53.165 145.96 53.3556 146.091 53.4314L146.783 53.8378V64.7128L139.182 60.2514V49.3765L144.97 52.7743C145.007 52.7965 145.046 52.8059 145.084 52.8059C145.182 52.8059 145.275 52.7396 145.32 52.6259C145.383 52.4669 145.328 52.2763 145.198 52.2005L139.522 48.8689L142.126 47.34L150.001 51.9625C150.002 51.9646 150.003 51.9667 150.004 51.9678V55.7921C150.004 55.9016 150.051 56.0038 150.128 56.0617C150.17 56.0943 150.218 56.1101 150.267 56.1101C150.306 56.1101 150.345 56.0996 150.38 56.0785L152.342 54.9276C152.433 54.875 152.49 54.7634 152.49 54.6402V50.7948L154.908 49.3754V60.2514H154.907Z" fill="url(#paint90_linear)"/>
    <path d="M141.344 59.0152L140.152 58.315C140.021 58.2381 139.864 58.3044 139.802 58.4634C139.739 58.6224 139.794 58.813 139.924 58.8888L141.116 59.589C141.153 59.6101 141.192 59.6206 141.23 59.6206C141.328 59.6206 141.421 59.5543 141.466 59.4406C141.529 59.2826 141.474 59.092 141.344 59.0152Z" fill="url(#paint91_linear)"/>
    <path d="M142.441 58.1476L140.153 56.804C140.022 56.7271 139.865 56.7935 139.803 56.9525C139.74 57.1115 139.795 57.302 139.925 57.3779L142.214 58.7214C142.25 58.7425 142.289 58.753 142.327 58.753C142.425 58.753 142.518 58.6867 142.563 58.573C142.626 58.414 142.572 58.2234 142.441 58.1476Z" fill="url(#paint92_linear)"/>
    <path d="M200.708 95.1537C200.708 97.4839 199.874 99.177 199.84 99.2476C199.769 99.3887 199.647 99.4655 199.521 99.4655C199.454 99.4655 199.388 99.4445 199.327 99.3992C199.151 99.2686 199.094 98.9896 199.201 98.7748C199.208 98.759 199.961 97.2185 199.961 95.1537C199.961 93.9765 199.332 93.1215 198.467 93.1215C197.642 93.1215 196.973 93.9375 196.973 94.9431C196.973 95.3706 197.142 96.4583 197.207 96.8405C197.249 97.0869 197.12 97.3281 196.918 97.3796C196.716 97.4302 196.518 97.2733 196.476 97.0269C196.449 96.8763 196.224 95.5422 196.224 94.9431C196.224 93.4374 197.229 92.2117 198.467 92.2117C199.745 92.2117 200.708 93.4763 200.708 95.1537ZM198.53 95.8697C198.678 97.3817 198.894 100.33 198.647 100.63L193.218 107.245C192.884 107.652 192.342 107.652 192.008 107.244L188.378 102.821C188.044 102.415 188.044 101.755 188.378 101.347L193.807 94.7336C193.894 94.6283 194.833 94.6241 195.888 94.6904C195.882 94.7757 195.867 94.8557 195.867 94.9421C195.867 95.2716 195.927 95.7834 195.99 96.233C195.88 96.433 195.814 96.6731 195.814 96.9321C195.814 97.6229 196.274 98.1831 196.841 98.1831C197.407 98.1831 197.868 97.6229 197.868 96.9321C197.868 96.5067 197.693 96.1319 197.426 95.9066C197.372 95.5107 197.328 95.1284 197.328 94.9421C197.328 94.902 197.335 94.8641 197.338 94.8241C197.468 94.841 197.596 94.8578 197.717 94.8768C198.435 94.9852 198.442 94.9831 198.53 95.8697ZM195.636 100.82C195.552 100.534 195.412 100.192 195.108 99.7983L195.519 99.296L195.06 98.738L194.616 99.2802C194.021 98.7832 193.407 98.8243 192.99 99.3308C192.536 99.8836 192.644 100.586 192.977 101.402C193.205 101.966 193.247 102.292 193.069 102.509C192.887 102.731 192.592 102.634 192.325 102.31C192.02 101.939 191.843 101.482 191.754 101.111L191.065 101.608C191.145 101.944 191.36 102.423 191.665 102.817L191.216 103.365L191.674 103.924L192.156 103.336C192.793 103.884 193.435 103.81 193.852 103.303C194.278 102.782 194.315 102.201 193.949 101.277C193.696 100.614 193.636 100.289 193.785 100.107C193.917 99.9468 194.151 99.9004 194.455 100.272C194.793 100.684 194.904 101.083 194.966 101.293L195.636 100.82Z" fill="url(#paint93_linear)"/>
    <defs>
        <linearGradient id="paint0_linear" x1="49.8556" y1="167.341" x2="40.2573" y2="233.291" gradientUnits="userSpaceOnUse">
            <stop offset="0.0351"/>
            <stop offset="0.4595" stop-color="#55504C"/>
            <stop offset="0.4919" stop-color="#45413E"/>
            <stop offset="0.5572" stop-color="#2C2A27"/>
            <stop offset="0.63" stop-color="#181716"/>
            <stop offset="0.7135" stop-color="#0B0A09"/>
            <stop offset="0.8169" stop-color="#020202"/>
            <stop offset="1"/>
        </linearGradient>
        <linearGradient id="paint1_linear" x1="77.292" y1="159.827" x2="25.5537" y2="244.923" gradientUnits="userSpaceOnUse">
            <stop stop-color="#55504C"/>
            <stop offset="1" stop-color="#1F1B18"/>
        </linearGradient>
        <linearGradient id="paint2_linear" x1="58.9216" y1="19.9292" x2="39.2275" y2="178.912" gradientUnits="userSpaceOnUse">
            <stop stop-color="#55504C"/>
            <stop offset="1" stop-color="#1F1B18"/>
        </linearGradient>
        <linearGradient id="paint3_linear" x1="80.4827" y1="166.011" x2="45.2156" y2="221.806" gradientUnits="userSpaceOnUse">
            <stop stop-color="#FFE469"/>
            <stop offset="1" stop-color="#FEDC00"/>
        </linearGradient>
        <linearGradient id="paint4_linear" x1="90.5937" y1="172.401" x2="55.3264" y2="228.197" gradientUnits="userSpaceOnUse">
            <stop stop-color="#FFE469"/>
            <stop offset="1" stop-color="#FEDC00"/>
        </linearGradient>
        <linearGradient id="paint5_linear" x1="72.4081" y1="160.907" x2="37.1408" y2="216.703" gradientUnits="userSpaceOnUse">
            <stop stop-color="#FFE469"/>
            <stop offset="1" stop-color="#FEDC00"/>
        </linearGradient>
        <linearGradient id="paint6_linear" x1="71.9937" y1="79.4032" x2="65.5254" y2="123.847" gradientUnits="userSpaceOnUse">
            <stop offset="0.0351"/>
            <stop offset="0.4595" stop-color="#55504C"/>
            <stop offset="0.4919" stop-color="#45413E"/>
            <stop offset="0.5572" stop-color="#2C2A27"/>
            <stop offset="0.63" stop-color="#181716"/>
            <stop offset="0.7135" stop-color="#0B0A09"/>
            <stop offset="0.8169" stop-color="#020202"/>
            <stop offset="1"/>
        </linearGradient>
        <linearGradient id="paint7_linear" x1="90.4831" y1="74.3388" x2="55.6169" y2="131.685" gradientUnits="userSpaceOnUse">
            <stop stop-color="#55504C"/>
            <stop offset="1" stop-color="#1F1B18"/>
        </linearGradient>
        <linearGradient id="paint8_linear" x1="78.1032" y1="9.47009" x2="71.4538" y2="85.5952" gradientUnits="userSpaceOnUse">
            <stop stop-color="#55504C"/>
            <stop offset="1" stop-color="#1F1B18"/>
        </linearGradient>
        <linearGradient id="paint9_linear" x1="148.164" y1="36.0293" x2="143.72" y2="66.5631" gradientUnits="userSpaceOnUse">
            <stop offset="0.0351"/>
            <stop offset="0.4595" stop-color="#55504C"/>
            <stop offset="0.4919" stop-color="#45413E"/>
            <stop offset="0.5572" stop-color="#2C2A27"/>
            <stop offset="0.63" stop-color="#181716"/>
            <stop offset="0.7135" stop-color="#0B0A09"/>
            <stop offset="0.8169" stop-color="#020202"/>
            <stop offset="1"/>
        </linearGradient>
        <linearGradient id="paint10_linear" x1="160.867" y1="32.5496" x2="136.913" y2="71.9476" gradientUnits="userSpaceOnUse">
            <stop stop-color="#55504C"/>
            <stop offset="1" stop-color="#1F1B18"/>
        </linearGradient>
        <linearGradient id="paint11_linear" x1="152.362" y1="4.30797" x2="150.35" y2="39.0849" gradientUnits="userSpaceOnUse">
            <stop stop-color="#55504C"/>
            <stop offset="1" stop-color="#1F1B18"/>
        </linearGradient>
        <linearGradient id="paint12_linear" x1="195.291" y1="84.4993" x2="191.628" y2="109.669" gradientUnits="userSpaceOnUse">
            <stop offset="0.0351"/>
            <stop offset="0.4595" stop-color="#55504C"/>
            <stop offset="0.4919" stop-color="#45413E"/>
            <stop offset="0.5572" stop-color="#2C2A27"/>
            <stop offset="0.63" stop-color="#181716"/>
            <stop offset="0.7135" stop-color="#0B0A09"/>
            <stop offset="0.8169" stop-color="#020202"/>
            <stop offset="1"/>
        </linearGradient>
        <linearGradient id="paint13_linear" x1="205.762" y1="81.6307" x2="186.016" y2="114.108" gradientUnits="userSpaceOnUse">
            <stop stop-color="#55504C"/>
            <stop offset="1" stop-color="#1F1B18"/>
        </linearGradient>
        <linearGradient id="paint14_linear" x1="202.751" y1="10.0554" x2="195.602" y2="90.8621" gradientUnits="userSpaceOnUse">
            <stop stop-color="#55504C"/>
            <stop offset="1" stop-color="#1F1B18"/>
        </linearGradient>
        <linearGradient id="paint15_linear" x1="218.249" y1="159.302" x2="213.033" y2="195.146" gradientUnits="userSpaceOnUse">
            <stop offset="0.0351"/>
            <stop offset="0.4595" stop-color="#55504C"/>
            <stop offset="0.4919" stop-color="#45413E"/>
            <stop offset="0.5572" stop-color="#2C2A27"/>
            <stop offset="0.63" stop-color="#181716"/>
            <stop offset="0.7135" stop-color="#0B0A09"/>
            <stop offset="0.8169" stop-color="#020202"/>
            <stop offset="1"/>
        </linearGradient>
        <linearGradient id="paint16_linear" x1="233.161" y1="155.218" x2="205.041" y2="201.467" gradientUnits="userSpaceOnUse">
            <stop stop-color="#55504C"/>
            <stop offset="1" stop-color="#1F1B18"/>
        </linearGradient>
        <linearGradient id="paint17_linear" x1="228.873" y1="18.9448" x2="211.158" y2="170.307" gradientUnits="userSpaceOnUse">
            <stop stop-color="#55504C"/>
            <stop offset="1" stop-color="#1F1B18"/>
        </linearGradient>
        <radialGradient id="paint18_radial" cx="0" cy="0" r="1" gradientUnits="userSpaceOnUse" gradientTransform="translate(106.048 70.4628) scale(142.781)">
            <stop offset="0.3297" stop-color="#808080"/>
            <stop offset="1" stop-color="#1C1C19"/>
        </radialGradient>
        <radialGradient id="paint19_radial" cx="0" cy="0" r="1" gradientUnits="userSpaceOnUse" gradientTransform="translate(191.969 79.8341) scale(148.603)">
            <stop stop-color="#808080"/>
            <stop offset="0.0424" stop-color="#7B7B7B"/>
            <stop offset="0.4849" stop-color="#484846"/>
            <stop offset="0.8175" stop-color="#282825"/>
            <stop offset="1" stop-color="#1C1C19"/>
        </radialGradient>
        <radialGradient id="paint20_radial" cx="0" cy="0" r="1" gradientUnits="userSpaceOnUse" gradientTransform="translate(240.3 77.8335) scale(183.547)">
            <stop stop-color="#55504C"/>
            <stop offset="1"/>
        </radialGradient>
        <linearGradient id="paint21_linear" x1="164.4" y1="105.783" x2="106.392" y2="226.781" gradientUnits="userSpaceOnUse">
            <stop stop-color="#55504C"/>
            <stop offset="1" stop-color="#1F1B18"/>
        </linearGradient>
        <linearGradient id="paint22_linear" x1="158.963" y1="103.177" x2="100.955" y2="224.175" gradientUnits="userSpaceOnUse">
            <stop stop-color="#55504C"/>
            <stop offset="1" stop-color="#1F1B18"/>
        </linearGradient>
        <linearGradient id="paint23_linear" x1="149.344" y1="98.5653" x2="91.3359" y2="219.563" gradientUnits="userSpaceOnUse">
            <stop stop-color="#55504C"/>
            <stop offset="1" stop-color="#1F1B18"/>
        </linearGradient>
        <linearGradient id="paint24_linear" x1="173.912" y1="110.344" x2="115.903" y2="231.341" gradientUnits="userSpaceOnUse">
            <stop stop-color="#55504C"/>
            <stop offset="1" stop-color="#1F1B18"/>
        </linearGradient>
        <linearGradient id="paint25_linear" x1="201.547" y1="123.592" x2="143.538" y2="244.59" gradientUnits="userSpaceOnUse">
            <stop stop-color="#55504C"/>
            <stop offset="1" stop-color="#1F1B18"/>
        </linearGradient>
        <linearGradient id="paint26_linear" x1="211.417" y1="128.324" x2="153.408" y2="249.322" gradientUnits="userSpaceOnUse">
            <stop stop-color="#55504C"/>
            <stop offset="1" stop-color="#1F1B18"/>
        </linearGradient>
        <linearGradient id="paint27_linear" x1="169.579" y1="108.266" x2="111.57" y2="229.264" gradientUnits="userSpaceOnUse">
            <stop stop-color="#55504C"/>
            <stop offset="1" stop-color="#1F1B18"/>
        </linearGradient>
        <linearGradient id="paint28_linear" x1="169.011" y1="107.994" x2="111.002" y2="228.991" gradientUnits="userSpaceOnUse">
            <stop stop-color="#55504C"/>
            <stop offset="1" stop-color="#1F1B18"/>
        </linearGradient>
        <linearGradient id="paint29_linear" x1="184.289" y1="115.318" x2="126.28" y2="236.316" gradientUnits="userSpaceOnUse">
            <stop stop-color="#55504C"/>
            <stop offset="1" stop-color="#1F1B18"/>
        </linearGradient>
        <linearGradient id="paint30_linear" x1="178.856" y1="112.714" x2="120.848" y2="233.712" gradientUnits="userSpaceOnUse">
            <stop stop-color="#55504C"/>
            <stop offset="1" stop-color="#1F1B18"/>
        </linearGradient>
        <linearGradient id="paint31_linear" x1="188.64" y1="117.405" x2="130.632" y2="238.403" gradientUnits="userSpaceOnUse">
            <stop stop-color="#55504C"/>
            <stop offset="1" stop-color="#1F1B18"/>
        </linearGradient>
        <linearGradient id="paint32_linear" x1="198.995" y1="122.369" x2="140.986" y2="243.366" gradientUnits="userSpaceOnUse">
            <stop stop-color="#55504C"/>
            <stop offset="1" stop-color="#1F1B18"/>
        </linearGradient>
        <linearGradient id="paint33_linear" x1="201.211" y1="123.431" x2="143.202" y2="244.429" gradientUnits="userSpaceOnUse">
            <stop stop-color="#55504C"/>
            <stop offset="1" stop-color="#1F1B18"/>
        </linearGradient>
        <linearGradient id="paint34_linear" x1="179.773" y1="113.153" x2="121.764" y2="234.151" gradientUnits="userSpaceOnUse">
            <stop stop-color="#55504C"/>
            <stop offset="1" stop-color="#1F1B18"/>
        </linearGradient>
        <linearGradient id="paint35_linear" x1="154.789" y1="101.176" x2="96.7805" y2="222.173" gradientUnits="userSpaceOnUse">
            <stop stop-color="#55504C"/>
            <stop offset="1" stop-color="#1F1B18"/>
        </linearGradient>
        <linearGradient id="paint36_linear" x1="144.282" y1="96.1385" x2="86.2738" y2="217.136" gradientUnits="userSpaceOnUse">
            <stop stop-color="#55504C"/>
            <stop offset="1" stop-color="#1F1B18"/>
        </linearGradient>
        <linearGradient id="paint37_linear" x1="134.351" y1="91.3775" x2="76.3429" y2="212.375" gradientUnits="userSpaceOnUse">
            <stop stop-color="#55504C"/>
            <stop offset="1" stop-color="#1F1B18"/>
        </linearGradient>
        <linearGradient id="paint38_linear" x1="154.19" y1="100.889" x2="96.1817" y2="221.886" gradientUnits="userSpaceOnUse">
            <stop stop-color="#55504C"/>
            <stop offset="1" stop-color="#1F1B18"/>
        </linearGradient>
        <linearGradient id="paint39_linear" x1="164.847" y1="105.997" x2="106.838" y2="226.995" gradientUnits="userSpaceOnUse">
            <stop stop-color="#55504C"/>
            <stop offset="1" stop-color="#1F1B18"/>
        </linearGradient>
        <linearGradient id="paint40_linear" x1="182.042" y1="114.241" x2="124.033" y2="235.239" gradientUnits="userSpaceOnUse">
            <stop stop-color="#55504C"/>
            <stop offset="1" stop-color="#1F1B18"/>
        </linearGradient>
        <linearGradient id="paint41_linear" x1="121.457" y1="85.1954" x2="63.4481" y2="206.193" gradientUnits="userSpaceOnUse">
            <stop stop-color="#55504C"/>
            <stop offset="1" stop-color="#1F1B18"/>
        </linearGradient>
        <linearGradient id="paint42_linear" x1="141.906" y1="94.9994" x2="83.898" y2="215.997" gradientUnits="userSpaceOnUse">
            <stop stop-color="#55504C"/>
            <stop offset="1" stop-color="#1F1B18"/>
        </linearGradient>
        <linearGradient id="paint43_linear" x1="152.022" y1="99.8488" x2="94.013" y2="220.847" gradientUnits="userSpaceOnUse">
            <stop stop-color="#55504C"/>
            <stop offset="1" stop-color="#1F1B18"/>
        </linearGradient>
        <linearGradient id="paint44_linear" x1="152.876" y1="100.258" x2="94.8674" y2="221.256" gradientUnits="userSpaceOnUse">
            <stop stop-color="#55504C"/>
            <stop offset="1" stop-color="#1F1B18"/>
        </linearGradient>
        <linearGradient id="paint45_linear" x1="139.219" y1="93.7112" x2="81.2109" y2="214.709" gradientUnits="userSpaceOnUse">
            <stop stop-color="#55504C"/>
            <stop offset="1" stop-color="#1F1B18"/>
        </linearGradient>
        <linearGradient id="paint46_linear" x1="159.988" y1="103.668" x2="101.979" y2="224.666" gradientUnits="userSpaceOnUse">
            <stop stop-color="#55504C"/>
            <stop offset="1" stop-color="#1F1B18"/>
        </linearGradient>
        <linearGradient id="paint47_linear" x1="131.665" y1="90.0895" x2="73.6564" y2="211.087" gradientUnits="userSpaceOnUse">
            <stop stop-color="#55504C"/>
            <stop offset="1" stop-color="#1F1B18"/>
        </linearGradient>
        <linearGradient id="paint48_linear" x1="141.652" y1="94.8775" x2="83.6433" y2="215.875" gradientUnits="userSpaceOnUse">
            <stop stop-color="#55504C"/>
            <stop offset="1" stop-color="#1F1B18"/>
        </linearGradient>
        <linearGradient id="paint49_linear" x1="212.015" y1="128.611" x2="154.007" y2="249.609" gradientUnits="userSpaceOnUse">
            <stop stop-color="#55504C"/>
            <stop offset="1" stop-color="#1F1B18"/>
        </linearGradient>
        <linearGradient id="paint50_linear" x1="131.615" y1="90.0656" x2="73.6063" y2="211.063" gradientUnits="userSpaceOnUse">
            <stop stop-color="#55504C"/>
            <stop offset="1" stop-color="#1F1B18"/>
        </linearGradient>
        <linearGradient id="paint51_linear" x1="121.145" y1="85.0462" x2="63.1368" y2="206.044" gradientUnits="userSpaceOnUse">
            <stop stop-color="#55504C"/>
            <stop offset="1" stop-color="#1F1B18"/>
        </linearGradient>
        <linearGradient id="paint52_linear" x1="191.52" y1="118.785" x2="133.511" y2="239.783" gradientUnits="userSpaceOnUse">
            <stop stop-color="#55504C"/>
            <stop offset="1" stop-color="#1F1B18"/>
        </linearGradient>
        <linearGradient id="paint53_linear" x1="182.313" y1="114.371" x2="124.304" y2="235.369" gradientUnits="userSpaceOnUse">
            <stop stop-color="#55504C"/>
            <stop offset="1" stop-color="#1F1B18"/>
        </linearGradient>
        <linearGradient id="paint54_linear" x1="163.243" y1="105.228" x2="105.234" y2="226.226" gradientUnits="userSpaceOnUse">
            <stop stop-color="#55504C"/>
            <stop offset="1" stop-color="#1F1B18"/>
        </linearGradient>
        <linearGradient id="paint55_linear" x1="191.303" y1="118.681" x2="133.295" y2="239.679" gradientUnits="userSpaceOnUse">
            <stop stop-color="#55504C"/>
            <stop offset="1" stop-color="#1F1B18"/>
        </linearGradient>
        <linearGradient id="paint56_linear" x1="164.454" y1="105.809" x2="106.445" y2="226.807" gradientUnits="userSpaceOnUse">
            <stop stop-color="#55504C"/>
            <stop offset="1" stop-color="#1F1B18"/>
        </linearGradient>
        <linearGradient id="paint57_linear" x1="195.176" y1="120.538" x2="137.168" y2="241.536" gradientUnits="userSpaceOnUse">
            <stop stop-color="#55504C"/>
            <stop offset="1" stop-color="#1F1B18"/>
        </linearGradient>
        <linearGradient id="paint58_linear" x1="173.217" y1="110.01" x2="115.208" y2="231.008" gradientUnits="userSpaceOnUse">
            <stop stop-color="#55504C"/>
            <stop offset="1" stop-color="#1F1B18"/>
        </linearGradient>
        <linearGradient id="paint59_linear" x1="176.114" y1="111.399" x2="118.105" y2="232.397" gradientUnits="userSpaceOnUse">
            <stop stop-color="#55504C"/>
            <stop offset="1" stop-color="#1F1B18"/>
        </linearGradient>
        <linearGradient id="paint60_linear" x1="172.615" y1="109.722" x2="114.606" y2="230.719" gradientUnits="userSpaceOnUse">
            <stop stop-color="#55504C"/>
            <stop offset="1" stop-color="#1F1B18"/>
        </linearGradient>
        <linearGradient id="paint61_linear" x1="99.1137" y1="116.138" x2="184.988" y2="94.198" gradientUnits="userSpaceOnUse">
            <stop stop-color="#FFF4AE"/>
            <stop offset="1" stop-color="#FFE46B"/>
        </linearGradient>
        <radialGradient id="paint62_radial" cx="0" cy="0" r="1" gradientUnits="userSpaceOnUse" gradientTransform="translate(126.581 226.09) scale(96.2334)">
            <stop stop-color="#55504C"/>
            <stop offset="1"/>
        </radialGradient>
        <radialGradient id="paint63_radial" cx="0" cy="0" r="1" gradientUnits="userSpaceOnUse" gradientTransform="translate(147.664 225.839) scale(85.9681)">
            <stop stop-color="#55504C"/>
            <stop offset="1"/>
        </radialGradient>
        <linearGradient id="paint64_linear" x1="165.918" y1="217.564" x2="165.918" y2="179.465" gradientUnits="userSpaceOnUse">
            <stop offset="0.0351" stop-color="#181411"/>
            <stop offset="0.4432" stop-color="#68615E"/>
            <stop offset="1" stop-color="#181411"/>
        </linearGradient>
        <linearGradient id="paint65_linear" x1="116.689" y1="218.736" x2="116.689" y2="154.233" gradientUnits="userSpaceOnUse">
            <stop offset="0.0351" stop-color="#181411"/>
            <stop offset="0.4432" stop-color="#68615E"/>
            <stop offset="1" stop-color="#181411"/>
        </linearGradient>
        <linearGradient id="paint66_linear" x1="155.329" y1="224.37" x2="109.841" y2="232.372" gradientUnits="userSpaceOnUse">
            <stop stop-color="#55504C"/>
            <stop offset="1" stop-color="#1F1B18"/>
        </linearGradient>
        <linearGradient id="paint67_linear" x1="170.656" y1="219.658" x2="115.629" y2="204.884" gradientUnits="userSpaceOnUse">
            <stop stop-color="#55504C"/>
            <stop offset="1" stop-color="#1F1B18"/>
        </linearGradient>
        <linearGradient id="paint68_linear" x1="109.952" y1="258.513" x2="201.183" y2="228.253" gradientUnits="userSpaceOnUse">
            <stop stop-color="#55504C"/>
            <stop offset="1" stop-color="#1F1B18"/>
        </linearGradient>
        <linearGradient id="paint69_linear" x1="103.364" y1="238.652" x2="194.595" y2="208.392" gradientUnits="userSpaceOnUse">
            <stop stop-color="#55504C"/>
            <stop offset="1" stop-color="#1F1B18"/>
        </linearGradient>
        <linearGradient id="paint70_linear" x1="157.114" y1="239.485" x2="135.635" y2="212.32" gradientUnits="userSpaceOnUse">
            <stop stop-color="#55504C"/>
            <stop offset="1" stop-color="#1F1B18"/>
        </linearGradient>
        <linearGradient id="paint71_linear" x1="124.64" y1="176.315" x2="112.42" y2="149.519" gradientUnits="userSpaceOnUse">
            <stop stop-color="#FA961B"/>
            <stop offset="1" stop-color="#A84B05"/>
        </linearGradient>
        <linearGradient id="paint72_linear" x1="203.023" y1="155.482" x2="171.22" y2="128.35" gradientUnits="userSpaceOnUse">
            <stop stop-color="#FFE469"/>
            <stop offset="1" stop-color="#FEDC00"/>
        </linearGradient>
        <linearGradient id="paint73_linear" x1="185.159" y1="153.131" x2="161.135" y2="131.073" gradientUnits="userSpaceOnUse">
            <stop stop-color="white"/>
            <stop offset="1" stop-color="#E6E6E6"/>
        </linearGradient>
        <linearGradient id="paint74_linear" x1="179.284" y1="151.266" x2="147.246" y2="132.903" gradientUnits="userSpaceOnUse">
            <stop stop-color="#FFE469"/>
            <stop offset="1" stop-color="#FEDC00"/>
        </linearGradient>
        <linearGradient id="paint75_linear" x1="157.327" y1="155.351" x2="133.729" y2="130.379" gradientUnits="userSpaceOnUse">
            <stop stop-color="white"/>
            <stop offset="1" stop-color="#E6E6E6"/>
        </linearGradient>
        <linearGradient id="paint76_linear" x1="157.81" y1="162.041" x2="121.189" y2="132.743" gradientUnits="userSpaceOnUse">
            <stop stop-color="#FFE469"/>
            <stop offset="1" stop-color="#FEDC00"/>
        </linearGradient>
        <linearGradient id="paint77_linear" x1="152.053" y1="170.934" x2="152.248" y2="149.445" gradientUnits="userSpaceOnUse">
            <stop stop-color="#F2F2F2"/>
            <stop offset="1" stop-color="#CCCCCC"/>
        </linearGradient>
        <linearGradient id="paint78_linear" x1="165.905" y1="169.318" x2="165.905" y2="150.41" gradientUnits="userSpaceOnUse">
            <stop stop-color="#FFE469"/>
            <stop offset="1" stop-color="#FEDC00"/>
        </linearGradient>
        <linearGradient id="paint79_linear" x1="179.441" y1="171.183" x2="179.636" y2="149.694" gradientUnits="userSpaceOnUse">
            <stop stop-color="#F2F2F2"/>
            <stop offset="1" stop-color="#CCCCCC"/>
        </linearGradient>
        <linearGradient id="paint80_linear" x1="193.304" y1="176.791" x2="193.304" y2="142.062" gradientUnits="userSpaceOnUse">
            <stop stop-color="#FFE469"/>
            <stop offset="1" stop-color="#FEDC00"/>
        </linearGradient>
        <linearGradient id="paint81_linear" x1="149.934" y1="171.37" x2="136.259" y2="150.467" gradientUnits="userSpaceOnUse">
            <stop stop-color="#FFE469"/>
            <stop offset="1" stop-color="#FEDC00"/>
        </linearGradient>
        <linearGradient id="paint82_linear" x1="227.566" y1="181.244" x2="207.124" y2="181.244" gradientUnits="userSpaceOnUse">
            <stop stop-color="#FFE469"/>
            <stop offset="1" stop-color="#FEDC00"/>
        </linearGradient>
        <linearGradient id="paint83_linear" x1="79.4254" y1="92.3811" x2="60.3074" y2="123.201" gradientUnits="userSpaceOnUse">
            <stop stop-color="#FFE469"/>
            <stop offset="1" stop-color="#FEDC00"/>
        </linearGradient>
        <linearGradient id="paint84_linear" x1="80.8886" y1="93.2888" x2="61.7706" y2="124.108" gradientUnits="userSpaceOnUse">
            <stop stop-color="#FFE469"/>
            <stop offset="1" stop-color="#FEDC00"/>
        </linearGradient>
        <linearGradient id="paint85_linear" x1="78.8711" y1="92.0373" x2="59.7531" y2="122.857" gradientUnits="userSpaceOnUse">
            <stop stop-color="#FFE469"/>
            <stop offset="1" stop-color="#FEDC00"/>
        </linearGradient>
        <linearGradient id="paint86_linear" x1="67.1016" y1="84.7363" x2="47.9836" y2="115.556" gradientUnits="userSpaceOnUse">
            <stop stop-color="#FFE469"/>
            <stop offset="1" stop-color="#FEDC00"/>
        </linearGradient>
        <linearGradient id="paint87_linear" x1="79.4168" y1="92.3757" x2="60.2988" y2="123.195" gradientUnits="userSpaceOnUse">
            <stop stop-color="#FFE469"/>
            <stop offset="1" stop-color="#FEDC00"/>
        </linearGradient>
        <linearGradient id="paint88_linear" x1="79.4403" y1="92.3903" x2="60.3223" y2="123.21" gradientUnits="userSpaceOnUse">
            <stop stop-color="#FFE469"/>
            <stop offset="1" stop-color="#FEDC00"/>
        </linearGradient>
        <linearGradient id="paint89_linear" x1="91.7554" y1="100.03" x2="72.6374" y2="130.849" gradientUnits="userSpaceOnUse">
            <stop stop-color="#FFE469"/>
            <stop offset="1" stop-color="#FEDC00"/>
        </linearGradient>
        <linearGradient id="paint90_linear" x1="156.884" y1="47.2598" x2="136.942" y2="62.2575" gradientUnits="userSpaceOnUse">
            <stop stop-color="#FFE469"/>
            <stop offset="1" stop-color="#FEDC00"/>
        </linearGradient>
        <linearGradient id="paint91_linear" x1="156.63" y1="46.922" x2="136.688" y2="61.9198" gradientUnits="userSpaceOnUse">
            <stop stop-color="#FFE469"/>
            <stop offset="1" stop-color="#FEDC00"/>
        </linearGradient>
        <linearGradient id="paint92_linear" x1="156.257" y1="46.426" x2="136.315" y2="61.4237" gradientUnits="userSpaceOnUse">
            <stop stop-color="#FFE469"/>
            <stop offset="1" stop-color="#FEDC00"/>
        </linearGradient>
        <linearGradient id="paint93_linear" x1="202.208" y1="92.2974" x2="189.518" y2="104.988" gradientUnits="userSpaceOnUse">
            <stop stop-color="#FFE469"/>
            <stop offset="1" stop-color="#FEDC00"/>
        </linearGradient>
    </defs>
</svg>
