<svg width="134" height="41" viewBox="0 0 134 41" fill="none" xmlns="http://www.w3.org/2000/svg">
<path d="M39.9551 20.1986V0H40.3061H40.6571V20.1986V40.3972H40.3061H39.9551V20.1986Z" fill="white"/>
<path d="M9.08664 36.9296C6.42315 36.4768 3.91239 34.9494 2.21355 32.7495C1.53026 31.8545 0.645998 30.0566 0.3834 29.0222C-0.208784 26.6696 -0.120357 24.6411 0.686193 22.3608C1.54097 19.9278 3.48098 17.7279 5.86044 16.4711L6.64555 16.0585L6.60535 14.5713C6.57588 13.3253 6.60536 12.902 6.78757 12.0686C7.75221 7.56695 11.2598 4.19069 15.6918 3.46721C18.5964 2.99561 21.4502 3.6387 23.7814 5.27592C26.2948 7.05515 27.9026 9.64629 28.3447 12.6822C28.5457 13.9979 28.5457 14.6732 28.3554 15.8281C28.275 16.3318 28.2455 16.7418 28.2938 16.7632C28.3447 16.7847 28.7359 17.0553 29.178 17.3768C30.0435 18.0092 31.1475 19.1748 31.7504 20.0805C34.6444 24.4214 34.0629 30.1986 30.3731 33.8883C27.0478 37.2244 21.9727 38.0283 17.7014 35.9087L16.7877 35.4559L15.8927 35.9087C13.7732 36.9752 11.4098 37.3262 9.08931 36.935L9.08664 36.9296ZM14.1108 33.1113C14.1323 33.0898 13.9902 32.8808 13.8 32.6289C13.0256 31.6134 12.4227 30.3165 12.01 28.7891C11.8091 28.0147 11.7689 27.653 11.7689 26.3266C11.7689 25.4718 11.7984 24.5179 11.8493 24.2151L11.9189 23.6631L11.5277 23.4219C10.8444 22.9986 9.68954 21.975 9.13487 21.3024C8.68202 20.7397 7.6879 19.2016 7.56732 18.8613C7.53784 18.7917 7.31544 18.9417 7.0448 19.1936C5.95958 20.2386 5.20662 21.5141 4.76449 23.0736C4.45366 24.1883 4.45366 25.9568 4.76449 27.0635C5.20662 28.6123 5.79077 29.6573 6.8358 30.7318C8.14343 32.0877 9.75921 32.8915 11.7206 33.1729C12.203 33.2345 14.0224 33.1943 14.1135 33.1113H14.1108ZM23.1544 32.8996C28.2991 31.4231 30.6196 25.6942 27.9776 21.0023C27.7766 20.6406 27.4845 20.1984 27.3238 20.0162L27.0424 19.6732L26.6405 20.3163C25.7562 21.7124 23.9475 23.2906 22.3398 24.0758C21.7771 24.3571 21.7556 24.3786 21.8173 24.6894C21.9191 25.2226 21.8869 27.3931 21.7663 28.0656C21.4743 29.7029 20.5311 31.8251 19.6254 32.8299L19.4244 33.0523L19.6656 33.1032C20.5498 33.3042 22.0477 33.2131 23.1517 32.9023L23.1544 32.8996ZM17.5675 31.5437C19.1163 30.3888 20.231 28.6283 20.6034 26.7902C20.7856 25.8952 20.9062 24.7189 20.8151 24.7189C20.7749 24.7189 20.3837 24.8207 19.9308 24.9413C19.2663 25.1128 18.8054 25.1637 17.5996 25.1637C15.941 25.1744 15.1371 25.0431 13.7008 24.5098C13.2694 24.3491 12.8863 24.2178 12.8568 24.2178C12.8273 24.2178 12.8273 24.751 12.8568 25.4048C12.9479 27.3046 13.5213 28.8213 14.7057 30.2682C15.2175 30.8926 16.5653 32.0475 16.7957 32.0475C16.8574 32.0582 17.1977 31.8251 17.5701 31.5437H17.5675ZM19.2663 24.1079C20.1506 23.8855 20.6624 23.6658 20.6624 23.5238C20.6624 23.4729 20.5605 23.1218 20.4507 22.7494C19.8987 20.9407 18.7411 19.3838 17.1655 18.2986L16.8333 18.0682L16.2813 18.4406C14.9656 19.3463 13.6794 21.1148 13.2158 22.6315L13.0336 23.2344L13.7866 23.5774C14.9522 24.1213 15.807 24.3008 17.203 24.3116C18.1168 24.3223 18.6098 24.2714 19.2636 24.1106L19.2663 24.1079ZM21.9003 22.8914C23.2562 21.9455 24.5236 20.2172 24.9845 18.6818L25.156 18.1084L24.7433 17.886C23.6474 17.2938 22.3505 16.9803 20.9839 16.9803C20.0193 16.9803 18.8322 17.1705 18.1998 17.4331L17.8488 17.5832L18.4517 18.1566C19.5771 19.2016 20.6034 20.7397 21.1742 22.2456C21.3564 22.7172 21.5171 23.1111 21.5466 23.1111C21.5681 23.1111 21.7288 23.0093 21.8976 22.8887L21.9003 22.8914ZM12.4656 22.1465C12.8889 20.9112 14.3038 18.8506 15.2791 18.0467C15.531 17.8458 15.7427 17.6341 15.7427 17.5939C15.7427 17.5537 15.5015 17.4438 15.2202 17.3527C13.4704 16.8195 11.6215 16.849 9.95481 17.4438L9.24205 17.7064L9.32244 18.0977C9.63327 19.4749 10.4371 20.8924 11.5331 21.9964C11.8761 22.3394 12.1869 22.61 12.2271 22.61C12.278 22.61 12.3771 22.3984 12.4682 22.1465H12.4656ZM17.471 16.4979C19.762 15.2814 22.9186 14.8902 25.1989 15.5333C25.3302 15.5735 25.3409 15.5038 25.29 15.1019C24.8988 12.3178 22.9775 9.8151 20.4158 8.75132C15.6516 6.7604 10.2576 9.61682 9.26081 14.6196C9.19114 15.0027 9.12951 15.3243 9.14023 15.3323C9.15095 15.343 9.50197 15.3029 9.91462 15.2519C10.89 15.1421 12.136 15.2225 13.3311 15.4931C14.3573 15.7155 15.9731 16.3372 16.4153 16.6694C16.576 16.7793 16.7073 16.8811 16.718 16.8811C16.7395 16.8811 17.0798 16.7096 17.471 16.4979Z" fill="white"/>
<path d="M59.4279 36.9591C59.2672 36.9082 59.1466 36.7983 59.1466 36.718C59.1466 36.5465 59.2672 36.5357 59.4172 36.6885C59.4788 36.7501 59.7682 36.8091 60.0496 36.8091C60.6418 36.8198 60.8535 36.6483 60.8535 36.166C60.8535 35.8953 60.8428 35.8953 60.5828 36.0347C59.3663 36.667 58.3213 35.0995 59.3877 34.2447C59.6503 34.0223 60.3336 34.0143 60.6337 34.2233C60.8347 34.3653 60.8561 34.3653 60.8561 34.2233C60.8561 34.1322 60.9258 34.0625 61.0062 34.0625C61.1268 34.0625 61.1563 34.2635 61.1563 35.2576C61.1563 35.9221 61.1268 36.5331 61.0946 36.6242C60.9446 37.0154 60.0603 37.1869 59.4252 36.9564L59.4279 36.9591ZM60.765 35.5631C60.816 35.4532 60.8561 35.1906 60.8347 34.9896C60.8052 34.6788 60.7436 34.5877 60.4435 34.4376C59.8191 34.1348 59.2484 34.4671 59.2484 35.1504C59.2484 35.4612 59.5699 35.823 59.9022 35.8953C60.1943 35.957 60.6471 35.7855 60.7677 35.5631H60.765Z" fill="white"/>
<path d="M47.6914 34.8183C47.6914 33.1811 47.7423 33.1007 48.2648 33.792C48.4363 34.0225 48.6668 34.3038 48.7686 34.4164C48.8704 34.5262 49.1303 34.8585 49.3527 35.1506L49.7547 35.6838L49.7842 34.5289C49.8056 33.583 49.8351 33.3633 49.9556 33.3633C50.0869 33.3633 50.1057 33.6045 50.1057 34.821C50.1057 35.9973 50.0762 36.2787 49.9637 36.2787C49.8833 36.2787 49.4197 35.7561 48.9374 35.1238L48.0424 33.9582L48.013 35.1238C47.9915 36.0589 47.962 36.2787 47.8415 36.2787C47.7102 36.2787 47.6914 36.0375 47.6914 34.821V34.8183Z" fill="white"/>
<path d="M51.5601 36.1847C51.0081 35.9436 50.767 35.2388 51.0483 34.6467C51.2386 34.2447 51.5601 34.0625 52.0746 34.0625C52.5274 34.0625 53.0205 34.5341 53.0205 34.9762V35.2683H52.1148C51.1287 35.2683 51.0081 35.3487 51.4422 35.7506C51.7048 36.0025 52.3961 36.0534 52.5971 35.8525C52.6775 35.7721 52.7472 35.7613 52.8195 35.831C53.0821 36.0936 52.0344 36.383 51.5628 36.182L51.5601 36.1847ZM52.715 34.8878C52.715 34.3653 51.82 34.1536 51.4074 34.5663C51.0162 34.9575 51.1367 35.07 51.9594 35.07C52.6239 35.07 52.7123 35.0486 52.7123 34.8878H52.715Z" fill="white"/>
<path d="M53.7414 35.8232C53.9236 35.5713 54.1139 35.3007 54.1648 35.231C54.2345 35.1292 54.1541 34.9604 53.8942 34.6389C53.4815 34.1351 53.452 34.0654 53.6637 34.0654C53.7334 34.0654 53.9263 34.2476 54.0764 34.4674C54.2264 34.6898 54.3872 34.8693 54.4193 34.8693C54.4595 34.8693 54.6203 34.6871 54.7918 34.4674C54.9526 34.245 55.1643 34.0654 55.2634 34.0654C55.4054 34.0654 55.3545 34.1753 55.033 34.5772C54.8106 34.8586 54.631 35.1212 54.631 35.1507C54.631 35.1908 54.7221 35.3329 54.8427 35.4722C55.3867 36.1555 55.4563 36.2761 55.2956 36.2761C55.2152 36.2761 54.9928 36.0751 54.8132 35.8232C54.631 35.5821 54.4622 35.3811 54.4301 35.3811C54.4006 35.3811 54.2291 35.5821 54.0469 35.8232C53.8647 36.0751 53.645 36.2761 53.5646 36.2761C53.4547 36.2761 53.5029 36.1555 53.7468 35.8232H53.7414Z" fill="white"/>
<path d="M56.2927 36.0564C56.1828 35.9064 56.1319 35.5929 56.1319 35.1025C56.1319 34.438 56.1105 34.3683 55.9309 34.3683C55.8211 34.3683 55.73 34.2987 55.73 34.2183C55.73 34.1379 55.8211 34.0682 55.9309 34.0682C56.081 34.0682 56.1319 33.9986 56.1319 33.8163C56.1319 33.6556 56.1935 33.5645 56.282 33.5645C56.3731 33.5645 56.432 33.6556 56.432 33.8163C56.432 34.0387 56.4722 34.0682 56.783 34.0682C57.0242 34.0682 57.1341 34.1191 57.1341 34.2183C57.1341 34.3201 57.0242 34.3683 56.783 34.3683H56.432V35.1213C56.432 35.9359 56.5633 36.1261 57.0162 36.0055C57.268 35.9439 57.319 36.1261 57.0778 36.2172C56.767 36.3378 56.4454 36.2788 56.2927 36.0564Z" fill="white"/>
<path d="M62.603 36.1769C62.4825 36.1367 62.2922 35.9652 62.1609 35.8044C61.9787 35.574 61.9492 35.432 61.9894 35.0408C62.051 34.3977 62.2922 34.1565 62.9353 34.0949C63.3078 34.0547 63.4686 34.0842 63.6293 34.2369C63.9 34.4673 64.0715 34.7996 64.0715 35.0622C64.0715 35.2632 64.0098 35.2739 63.1658 35.2739C62.1797 35.2739 62.051 35.365 62.4825 35.7776C62.7343 36.0081 63.4471 36.059 63.6481 35.858C63.7392 35.7669 63.7981 35.7669 63.8785 35.8473C63.9589 35.9277 63.908 35.9974 63.6883 36.118C63.3453 36.2894 62.9353 36.3189 62.603 36.1796V36.1769ZM63.7687 34.9309C63.7687 34.6201 63.4176 34.3468 63.0157 34.3468C62.7343 34.3468 62.5736 34.4084 62.4423 34.5692C62.0993 34.9925 62.1904 35.0729 63.0157 35.0729C63.5891 35.0729 63.7687 35.0434 63.7687 34.9309Z" fill="white"/>
<path d="M64.7732 35.1722C64.7732 34.2585 64.8027 34.0656 64.9232 34.0656C65.0036 34.0656 65.0733 34.1567 65.0733 34.2665V34.4675L65.2743 34.2665C65.5851 33.9557 66.2684 33.9959 66.5899 34.3282C66.8016 34.5506 66.8311 34.7006 66.8713 35.4348C66.9008 36.1583 66.882 36.2789 66.74 36.2789C66.6087 36.2789 66.5792 36.1583 66.5792 35.6063C66.5792 34.773 66.4292 34.43 66.0353 34.3898C65.3011 34.2987 65.0706 34.6202 65.0706 35.6867C65.0706 36.1503 65.0411 36.2789 64.9206 36.2789C64.8 36.2789 64.7705 36.0887 64.7705 35.1722H64.7732Z" fill="white"/>
<path d="M68.2301 36.1768C67.6164 35.9357 67.4047 35.0916 67.8067 34.5075C68.3399 33.7331 69.5163 33.985 69.6663 34.8987L69.7279 35.2711H68.8035C67.8094 35.2711 67.6888 35.3515 68.1202 35.7535C68.3828 36.0053 69.0741 36.0562 69.2751 35.8553C69.3662 35.7642 69.4252 35.7642 69.5055 35.8446C69.5859 35.925 69.535 35.9946 69.3153 36.1152C68.9723 36.2867 68.5623 36.3162 68.2301 36.1768ZM69.3957 34.9308C69.3957 34.7191 69.0634 34.3788 68.8437 34.3574C68.4417 34.3279 68.2917 34.3681 68.0907 34.5691C67.6995 34.9603 67.8201 35.0729 68.6427 35.0729C69.2161 35.0729 69.3957 35.0434 69.3957 34.9308Z" fill="white"/>
<path d="M70.5024 35.1721C70.5024 34.4995 70.5426 34.0654 70.6043 34.0654C70.6659 34.0654 70.7061 34.1672 70.7061 34.2878V34.5102L70.9071 34.2878C71.1482 34.0359 71.6118 33.985 71.6118 34.2182C71.6118 34.3093 71.5207 34.3682 71.3813 34.3682C70.9499 34.3682 70.8079 34.6603 70.8079 35.5044C70.8079 36.1287 70.7784 36.2787 70.6579 36.2787C70.5373 36.2787 70.5078 36.0885 70.5078 35.1721H70.5024Z" fill="white"/>
<path d="M72.2599 36.024C71.9785 35.7533 71.9571 35.6515 72.1098 35.3701C72.2197 35.1585 72.7824 34.9682 73.2969 34.9682C73.6292 34.9682 73.6693 34.9066 73.5595 34.6172C73.4496 34.3465 73.0557 34.2554 72.6136 34.4055C72.2411 34.5368 72.1098 34.5261 72.1098 34.3653C72.1098 34.234 72.6216 34.0625 73.0236 34.0625C73.3156 34.0625 73.4952 34.1322 73.6667 34.3144C73.8971 34.5368 73.9186 34.6359 73.9186 35.421C73.9186 36.1151 73.8891 36.2758 73.7685 36.2758C73.6881 36.2758 73.6184 36.2062 73.6184 36.1151C73.6184 35.973 73.597 35.973 73.396 36.1151C73.053 36.3562 72.5412 36.316 72.2599 36.024ZM73.3558 35.8632C73.4979 35.7533 73.6184 35.5711 73.6184 35.4612C73.6184 35.3005 73.5488 35.271 73.0664 35.271C72.635 35.271 72.5037 35.3112 72.4126 35.4612C72.142 35.973 72.836 36.2758 73.3585 35.8632H73.3558Z" fill="white"/>
<path d="M75.1032 36.1661C74.9531 36.0857 74.921 35.9142 74.921 35.2202C74.921 34.4351 74.8995 34.3654 74.72 34.3654C74.6101 34.3654 74.519 34.2957 74.519 34.2153C74.519 34.135 74.6101 34.0653 74.72 34.0653C74.8701 34.0653 74.921 33.9956 74.921 33.8134C74.921 33.6526 74.9826 33.5615 75.071 33.5615C75.1621 33.5615 75.2211 33.6526 75.2211 33.8134C75.2211 34.0251 75.272 34.0653 75.5239 34.0653C75.7249 34.0653 75.8267 34.1162 75.8267 34.2153C75.8267 34.3172 75.7249 34.3654 75.5239 34.3654H75.2211V35.1693C75.2211 35.9946 75.2613 36.0535 75.6632 35.9839C75.7141 35.9732 75.824 35.9946 75.9151 36.0241C76.0464 36.075 76.0571 36.0937 75.9258 36.1741C75.7249 36.3054 75.3122 36.2947 75.1005 36.1634L75.1032 36.1661Z" fill="white"/>
<path d="M76.6304 35.1721C76.6304 34.2584 76.6599 34.0654 76.7804 34.0654C76.901 34.0654 76.9305 34.2557 76.9305 35.1721C76.9305 36.0858 76.901 36.2787 76.7804 36.2787C76.6599 36.2787 76.6304 36.0885 76.6304 35.1721Z" fill="white"/>
<path d="M78.2893 36.166C77.9168 35.9435 77.7373 35.6327 77.7373 35.1718C77.7373 34.4992 78.0481 34.1562 78.7234 34.0866C79.2164 34.0464 79.2674 34.0651 79.597 34.3974C80.0605 34.861 80.0793 35.3728 79.6666 35.8658C79.4442 36.1284 79.3049 36.2088 78.9431 36.2383C78.6912 36.2678 78.3992 36.2276 78.2893 36.1686V36.166ZM79.4362 35.7131C79.9694 35.0298 79.3451 34.1053 78.5412 34.376C78.1794 34.5073 78.0374 34.7377 78.0374 35.2093C78.0374 35.681 78.3483 35.973 78.852 35.973C79.1441 35.973 79.2754 35.9114 79.4362 35.7104V35.7131Z" fill="white"/>
<path d="M80.6501 35.1721C80.6501 34.2584 80.6796 34.0654 80.8002 34.0654C80.8806 34.0654 80.9503 34.1351 80.9503 34.2262C80.9503 34.3682 80.9717 34.3682 81.1727 34.2262C81.4353 34.044 81.9765 34.0145 82.2793 34.1753C82.5821 34.3361 82.7616 34.88 82.7616 35.6223C82.7616 36.1046 82.7322 36.2761 82.6196 36.2761C82.5178 36.2761 82.4696 36.0644 82.4374 35.4829C82.4079 35.0408 82.3356 34.6094 82.2552 34.529C82.1239 34.3682 81.4915 34.3066 81.2906 34.4486C81.0601 34.5987 80.9476 34.9818 80.9476 35.6142C80.9476 36.1367 80.9181 36.2787 80.7975 36.2787C80.6769 36.2787 80.6475 36.0885 80.6475 35.1721H80.6501Z" fill="white"/>
<path d="M84.9722 34.818V33.3604H85.977C86.5799 33.3604 86.9818 33.4005 86.9818 33.4622C86.9818 33.5238 86.6308 33.564 86.1271 33.564H85.2723V34.1669V34.7698H86.0252C86.4567 34.7698 86.7782 34.81 86.7782 34.8716C86.7782 34.9333 86.4567 34.9734 86.0252 34.9734H85.2723V35.6273C85.2723 36.139 85.2428 36.2811 85.1222 36.2811C84.9909 36.2811 84.9722 36.0506 84.9722 34.8234V34.818Z" fill="white"/>
<path d="M88.0159 36.1769C87.6729 36.0349 87.5845 35.7536 87.5845 34.88C87.5845 34.2262 87.614 34.0654 87.7345 34.0654C87.8551 34.0654 87.8846 34.2155 87.8846 34.8291C87.8846 35.8045 87.9757 35.976 88.4875 35.976C89.0716 35.976 89.2914 35.6437 89.2914 34.7594C89.2914 34.2074 89.3208 34.0654 89.4414 34.0654C89.562 34.0654 89.5915 34.2557 89.5915 35.1721C89.5915 36.0858 89.562 36.2787 89.4414 36.2787C89.361 36.2787 89.2914 36.2091 89.2914 36.1287C89.2914 35.9867 89.2619 35.9867 88.9886 36.1287C88.667 36.3002 88.3455 36.3109 88.0132 36.1796L88.0159 36.1769Z" fill="white"/>
<path d="M90.4971 35.1717C90.4971 34.2579 90.5265 34.065 90.6471 34.065C90.7275 34.065 90.7972 34.1561 90.7972 34.266V34.467L90.9982 34.266C91.301 33.9632 91.9923 33.9953 92.2951 34.3062C92.4853 34.5071 92.5362 34.6974 92.5764 35.4128C92.6381 36.2462 92.6274 36.2783 92.4157 36.2783C92.2147 36.2783 92.204 36.2274 92.204 35.445C92.204 34.4991 92.1343 34.3705 91.6011 34.3705C90.9767 34.3705 90.8561 34.542 90.8159 35.4664C90.7865 36.08 90.7356 36.281 90.6337 36.281C90.5239 36.281 90.4917 36.0506 90.4917 35.1744L90.4971 35.1717Z" fill="white"/>
<path d="M93.8041 36.1259C93.2816 35.8446 93.1503 34.7781 93.5924 34.336C93.8738 34.0654 94.6374 33.985 94.9697 34.2047L95.2216 34.3655V33.7626C95.2216 33.291 95.2511 33.1597 95.3716 33.1597C95.5029 33.1597 95.5217 33.4008 95.5217 34.7165C95.5217 36.0322 95.5003 36.2733 95.3716 36.2733C95.2912 36.2733 95.2216 36.2036 95.2216 36.1233C95.2216 35.9812 95.1921 35.9812 94.9188 36.1233C94.557 36.3135 94.1444 36.3135 93.8041 36.1233V36.1259ZM94.9911 35.7535C95.2537 35.5123 95.302 34.9282 95.0822 34.6468C94.7714 34.2235 93.9461 34.2449 93.7157 34.6683C93.5442 34.9791 93.5951 35.523 93.8175 35.7535C94.0988 36.0563 94.683 36.0563 94.9938 35.7535H94.9911Z" fill="white"/>
<path d="M76.6304 33.3632C76.6304 33.2131 76.6813 33.1622 76.8126 33.181C76.9037 33.2024 76.9841 33.2828 76.9841 33.3632C76.9841 33.4436 76.9037 33.524 76.8126 33.5454C76.6813 33.5668 76.6304 33.5159 76.6304 33.3632Z" fill="white"/>
<path d="M52.3132 29.5853C50.8769 29.3227 50.0516 28.9127 49.1379 27.9963C48.5243 27.3827 48.3849 27.171 48.0929 26.4287C47.8222 25.724 47.7606 25.3944 47.7204 24.5182C47.6909 23.8939 47.7097 23.232 47.782 22.8997C48.2938 20.4667 50.5152 18.8911 53.4493 18.8911C54.3845 18.8911 55.5394 19.1725 56.1932 19.5449C56.6568 19.8156 57.2489 20.4399 57.4901 20.8927L57.6509 21.2036H57.0989C56.5871 21.2036 56.5255 21.1821 56.3942 20.9115C56.1932 20.5391 55.7403 20.1586 55.1482 19.8772C54.7355 19.6869 54.5158 19.6548 53.4198 19.6468H52.1631L51.4396 20.038C49.8426 20.8928 48.9878 22.5514 49.1272 24.5209C49.2987 26.6619 50.5634 28.2991 52.4632 28.8028C53.0769 28.9743 54.3336 28.985 55.0463 28.8323C55.66 28.701 56.563 28.2696 57.0051 27.8971C57.3668 27.5944 57.5571 27.5649 57.75 27.7953C57.8706 27.9454 57.8411 28.007 57.4874 28.3071C56.563 29.111 55.2955 29.5424 53.7199 29.5933C53.0876 29.6147 52.4525 29.6148 52.3132 29.5826V29.5853Z" fill="white"/>
<path d="M58.7334 29.2232C58.854 28.9204 60.7324 24.4589 60.9039 24.0677C60.9735 23.907 61.1852 23.4246 61.3567 23.012C61.5282 22.5993 61.7586 22.0768 61.8498 21.8571C61.9516 21.6347 62.2517 20.9219 62.5223 20.2788L63.0154 19.0918H63.3985C63.8219 19.0918 63.6611 18.8292 64.9366 21.565C65.1188 21.9562 65.5904 22.9825 65.9924 23.8266C66.3836 24.6813 66.8257 25.6246 66.9677 25.9274C67.1097 26.2301 67.5197 27.1332 67.9029 27.937L68.5862 29.3947L67.9217 29.4242C67.5599 29.4456 67.2169 29.4135 67.1767 29.3733C67.1258 29.3224 66.7936 28.6498 66.4318 27.8861L65.778 26.4793L63.1842 26.4499L60.5904 26.4284L59.958 27.937L59.3149 29.4456H58.9826C58.6718 29.4456 58.6504 29.4242 58.7307 29.2232H58.7334ZM65.3761 25.6755C65.3761 25.6353 65.2555 25.3646 63.8192 22.2885C63.4361 21.4632 63.0958 20.8013 63.0663 20.8013C63.0046 20.8013 60.9548 25.5254 60.9548 25.654C60.9548 25.6942 61.9489 25.7237 63.1654 25.7237C64.3819 25.7237 65.3761 25.7023 65.3761 25.6728V25.6755Z" fill="white"/>
<path d="M70.8025 24.2582V19.0732L73.1444 19.1134C75.3765 19.1429 75.4971 19.1536 75.9472 19.3841C76.6922 19.7673 77.0941 20.1585 77.3942 20.7721C77.7774 21.5572 77.7961 22.7228 77.4344 23.465C77.1236 24.1189 76.5287 24.6816 75.8374 25.0138C75.3336 25.2443 75.1541 25.2764 74.0689 25.2764C73.4043 25.2764 72.713 25.247 72.5415 25.2068L72.2093 25.1371V27.2888V29.4485H71.5045H70.7998V24.2636L70.8025 24.2582ZM74.6021 24.5798C75.1943 24.3681 75.6069 24.0358 75.9097 23.5133C76.1402 23.1221 76.1804 22.9506 76.1804 22.2566C76.1804 21.3723 76.0383 20.9891 75.4971 20.4184C75.0255 19.9253 74.2913 19.6949 73.1659 19.6949H72.2119V22.1065V24.5074L72.5442 24.6092C73.048 24.7512 74.1519 24.7405 74.6048 24.5798H74.6021Z" fill="white"/>
<path d="M80.5508 24.269V19.0947H81.2046H81.8585V24.269V29.4432H81.2046H80.5508V24.269Z" fill="white"/>
<path d="M88.4878 24.6709V19.8986H86.5291H84.5703V19.4967V19.0947H89.1926H93.8148V19.4967V19.8986H91.8561H89.8973V24.6709V29.4432H89.1926H88.4878V24.6709Z" fill="white"/>
<path d="M92.8391 29.3734C92.9008 29.2528 93.15 28.7008 93.5117 27.8353C93.6939 27.4227 93.9029 26.9109 93.994 26.6885C94.0959 26.4768 94.8488 24.6895 95.6715 22.72L97.1801 19.1428L97.6034 19.1133C97.9545 19.0839 98.0268 19.1133 98.0858 19.3036C98.126 19.4242 98.4073 20.0485 98.7101 20.6916C99.0129 21.3347 99.3934 22.1279 99.5434 22.4601C99.6935 22.7924 100.146 23.757 100.538 24.6118C100.94 25.4559 101.411 26.4822 101.593 26.8734C101.784 27.2646 102.116 27.9881 102.346 28.4704C102.569 28.9634 102.759 29.3761 102.759 29.4056C102.759 29.427 102.437 29.4458 102.046 29.4458H101.341L101.009 28.7223C100.819 28.3203 100.505 27.637 100.315 27.2137L99.9534 26.4286H97.381H94.8086L94.6077 26.9109C94.4978 27.1735 94.3665 27.4736 94.3156 27.5835C94.254 27.6933 94.0637 28.1462 93.8842 28.5883C93.5519 29.3734 93.5332 29.3922 93.1714 29.4216C92.9597 29.4431 92.8097 29.4216 92.8391 29.3707V29.3734ZM99.2808 25.0218C99.0906 24.6306 98.9379 24.2983 98.9379 24.2688C98.9379 24.2474 98.6565 23.6257 98.3055 22.8915C97.9545 22.1573 97.582 21.3535 97.4721 21.1123L97.2604 20.6809L96.888 21.5651C96.6763 22.0582 96.4244 22.6396 96.3253 22.8621C96.0734 23.4355 95.3312 25.1933 95.2186 25.4854L95.1168 25.7265H97.3676H99.6185L99.2755 25.0218H99.2808Z" fill="white"/>
<path d="M105.068 24.269V19.0947H105.722H106.376V23.867V28.6393H109.039H111.703V29.0413V29.4432H108.386H105.068V24.269Z" fill="white"/>
<path d="M58.8464 10.7936C57.0484 8.99563 55.1887 7.16548 54.7064 6.71263L53.8222 5.90876V9.88792V13.8671H53.4711H53.1201V8.59101C53.1201 5.68636 53.1496 3.31494 53.1817 3.31494C53.2219 3.31494 55.1218 5.15313 57.4021 7.39592L61.5634 11.4769V7.49775V3.51859H61.9145H62.2655V8.79466C62.2655 11.6993 62.236 14.0707 62.1958 14.0707C62.1449 14.0707 60.647 12.5943 58.849 10.7936H58.8464Z" fill="white"/>
<path d="M69.3149 13.9689C67.6268 13.7277 66.07 12.6719 65.376 11.2759C64.8025 10.129 64.6016 8.32033 64.9231 7.08505C65.4054 5.24686 66.973 3.84009 68.9719 3.45691C71.4452 2.9853 73.5138 3.61768 74.4784 5.14504C74.6097 5.346 74.7196 5.54697 74.7196 5.57645C74.7196 5.60592 74.4784 5.62736 74.1756 5.62736C73.7121 5.62736 73.6129 5.59788 73.562 5.42639C73.4602 5.10484 72.6269 4.44031 72.0534 4.23131C69.3899 3.23719 66.6782 4.88512 66.2656 7.76834C65.8931 10.3407 67.332 12.6719 69.6311 13.2159C71.2201 13.5991 72.9163 13.2373 74.0926 12.2807L74.5347 11.9297L74.7464 12.1521L74.9688 12.3745L74.5669 12.7255C74.0738 13.1569 73.1494 13.6205 72.3669 13.8215C71.6033 14.0117 70.1268 14.0841 69.3122 13.9715L69.3149 13.9689Z" fill="white"/>
<path d="M88.619 13.9577C87.4319 13.7862 86.4378 13.1725 85.9367 12.3097C85.4544 11.5059 85.374 10.6806 85.374 6.9238V3.51807H86.0788H86.7728L86.8022 7.46775C86.8317 11.8301 86.8317 11.7899 87.5257 12.4732C88.1099 13.0466 88.6404 13.2985 89.4443 13.3467C90.9931 13.4485 92.1185 12.8832 92.7508 11.7095C92.9518 11.3183 92.9625 11.1763 92.992 7.41952L93.0215 3.52075H93.3725H93.7235L93.694 7.41952L93.6646 11.3076L93.3323 11.9801C92.5391 13.6174 90.9314 14.2926 88.619 13.9603V13.9577Z" fill="white"/>
<path d="M98.3458 13.9576C97.6116 13.8371 96.6282 13.344 96.186 12.8912C95.8752 12.5589 95.4224 11.6559 95.4224 11.3424C95.4224 11.2808 95.6448 11.2513 95.9449 11.2727L96.4674 11.3022L96.5478 11.7041C96.738 12.6581 97.6223 13.2529 98.9701 13.3333C100.366 13.4244 101.484 13.0412 101.733 12.3794C102.336 10.8306 101.47 9.78555 98.8897 8.94149C97.1802 8.37878 96.2557 7.67405 95.9744 6.70137C95.8323 6.22976 95.8243 6.02879 95.9234 5.5947C96.2155 4.20669 97.2204 3.45373 98.9085 3.33315C100.586 3.22329 102.073 3.88514 102.566 4.97036C102.847 5.57327 102.818 5.62418 102.263 5.62418C101.81 5.62418 101.77 5.60274 101.719 5.3321C101.628 4.91945 101.175 4.42641 100.653 4.18525C99.9696 3.88245 98.6539 3.89317 98.0001 4.20668C97.2954 4.54967 96.9846 5.01056 96.9846 5.70457C96.9846 6.22709 97.006 6.27799 97.4267 6.65849C97.9197 7.0899 98.6727 7.47308 99.7874 7.84554C101.596 8.44845 102.703 9.25232 103.014 10.1661C103.215 10.7797 103.164 11.7336 102.912 12.2776C102.279 13.6039 100.398 14.298 98.3404 13.955L98.3458 13.9576Z" fill="white"/>
<path d="M115.479 13.9687C113.981 13.7275 112.333 12.5003 111.631 11.1042C111.259 10.37 111.068 9.53667 111.068 8.64169C111.068 6.6213 112.154 4.82331 113.933 3.92833C114.967 3.41654 115.672 3.27452 117.028 3.34419C118.295 3.40582 119.027 3.64698 120.013 4.31955C120.878 4.90369 121.562 5.74776 121.963 6.72044C122.226 7.34478 122.296 7.66633 122.336 8.43805C122.376 9.28211 122.347 9.48308 122.113 10.1771C121.339 12.4681 119.471 13.8642 116.979 14.0062C116.476 14.0357 115.814 14.0169 115.482 13.966L115.479 13.9687ZM118.333 12.9933C119.579 12.4011 120.342 11.466 120.734 10.0485C120.985 9.16421 120.996 8.33086 120.795 7.44661C120.452 6.02912 119.619 4.96532 118.333 4.34098C117.639 4.00872 117.507 3.97924 116.674 3.97924C115.498 3.97924 114.825 4.23112 114.021 4.98408C112.081 6.77403 111.971 10.2896 113.791 12.1492C114.696 13.0737 115.479 13.3765 116.827 13.3363C117.539 13.3149 117.791 13.2559 118.335 12.9933H118.333Z" fill="white"/>
<path d="M133.143 13.2963C132.711 12.8729 130.852 11.0454 129.021 9.22599C127.183 7.41728 125.664 5.93012 125.624 5.93012C125.594 5.93012 125.562 7.72008 125.562 9.89857V13.867H125.259H124.957V8.57218V3.27734L126.345 4.63321C127.098 5.38617 128.968 7.21631 130.484 8.71419L133.247 11.4366L133.277 7.47623L133.298 3.51582H133.649H134V8.7919C134 11.6966 133.979 14.068 133.971 14.068C133.949 14.068 133.579 13.717 133.137 13.2936L133.143 13.2963Z" fill="white"/>
<path d="M47.6914 8.69231V3.51807H48.3452H48.999V8.69231V13.8666H48.3452H47.6914V8.69231Z" fill="white"/>
<path d="M77.0322 8.69231V3.51807H77.7369H78.4417V8.29038V13.0627H81.1052H83.7687V13.4646V13.8666H80.4031H77.0376V8.69231H77.0322Z" fill="white"/>
<path d="M106.574 8.69231V3.51807H107.228H107.882V8.69231V13.8666H107.228H106.574V8.69231Z" fill="white"/>
</svg>
