<svg width="110" height="57" viewBox="0 0 110 57" fill="none" xmlns="http://www.w3.org/2000/svg">
<path d="M66.3535 4.69255C66.2338 4.77609 66.1723 4.81986 66.1085 4.86361C65.6076 5.20972 65.1066 5.5578 64.6035 5.90194C64.5613 5.92979 64.5059 5.93772 64.4561 5.95564C64.4882 5.92186 64.5176 5.88008 64.5558 5.85423C65.0944 5.46632 65.6336 5.07844 66.1745 4.69653C66.2 4.67663 66.2499 4.69255 66.3535 4.69255Z" fill="white"/>
<path d="M60.6934 11.6643C60.6596 11.6583 60.6518 11.6563 60.6418 11.6543C60.6457 11.6305 60.6441 11.6006 60.6557 11.5847C60.8286 11.3699 61.0059 11.159 61.1827 10.9462C61.191 10.9362 61.2065 10.9323 61.2204 10.9243C61.2226 10.9323 61.2304 10.9422 61.2287 10.9462C61.0497 11.1908 60.8685 11.4315 60.6934 11.6643Z" fill="white"/>
<path d="M61.4552 10.3042C61.4225 10.2948 61.4148 10.292 61.4048 10.289C61.4114 10.2657 61.4125 10.2358 61.4258 10.2212C61.6198 10.025 61.8171 9.83313 62.0149 9.63928C62.0238 9.63018 62.2471 9.38052 62.2621 9.37398C62.3397 9.29991 62.8534 8.75748 62.3053 9.37398C62.1025 9.59928 61.6531 10.0903 61.4552 10.3042Z" fill="white"/>
<path d="M61.7861 8.52314C61.9169 8.35076 62.4101 7.83153 63.1288 7.13575C63.3339 6.951 63.6847 6.62345 63.893 6.44125C63.9024 6.43265 64.0238 6.34111 64.0388 6.33545C64.0393 6.3436 63.9412 6.44486 63.9385 6.44846C63.7229 6.66178 62.2283 7.97422 61.7861 8.52314Z" fill="white"/>
<path d="M61.1909 12.3228C61.0513 12.5296 60.9122 12.7385 60.7709 12.9454C60.7592 12.9633 60.7232 12.9672 60.6977 12.9772C60.6955 12.9593 60.6878 12.9334 60.6955 12.9234C60.8584 12.7225 61.0258 12.5236 61.1909 12.3228Z" fill="white"/>
<path d="M58.3015 13.8357C58.1846 14.0561 58.0682 14.2785 57.9496 14.4991C57.9396 14.5182 57.9047 14.5259 57.8798 14.5386C57.8759 14.521 57.8654 14.4961 57.872 14.4854C58.0133 14.2684 58.1585 14.0529 58.3015 13.8357Z" fill="white"/>
<path d="M85.7688 53.9091C85.8342 53.8912 85.8979 53.8653 85.9639 53.8574C86.0769 53.8434 86.1905 53.8415 86.3036 53.8335C86.1883 53.8593 86.0753 53.8912 85.9595 53.9091C85.8979 53.919 85.8303 53.9071 85.7666 53.9071L85.7688 53.9091Z" fill="white"/>
<path d="M66.8045 4.42579C66.7907 4.43971 66.779 4.45761 66.763 4.46557C66.6992 4.49939 66.6338 4.52922 66.5679 4.56304C66.5679 4.54713 66.5624 4.51927 66.5679 4.5153C66.6416 4.4795 66.7175 4.44568 66.7907 4.41187C66.7968 4.41584 66.8006 4.42181 66.8045 4.42579Z" fill="white"/>
<path d="M64.1597 6.29551C64.122 6.24774 64.1104 6.23382 64.1104 6.23182C64.178 6.16818 64.2456 6.10455 64.3148 6.04285C64.317 6.04086 64.3409 6.06277 64.3409 6.06477C64.2855 6.13833 64.2273 6.20996 64.1597 6.29551Z" fill="white"/>
<path d="M61.6742 11.8373C61.5983 11.899 61.5345 11.9507 61.4691 12.0024C61.4614 11.9925 61.4453 11.9726 61.4453 11.9726C61.5068 11.9189 61.5684 11.8652 61.6321 11.8135C61.6343 11.8115 61.6482 11.8234 61.6742 11.8373Z" fill="white"/>
<path d="M62.4954 10.3296C62.517 10.3077 62.5408 10.2878 62.563 10.2659C62.6007 10.2341 62.6383 10.2022 62.676 10.1685C62.6805 10.1724 62.686 10.1764 62.6899 10.1824C62.6267 10.2321 62.5608 10.2818 62.4954 10.3296Z" fill="white"/>
<path d="M60.4014 11.1309C60.4291 11.1051 60.449 11.0872 60.4706 11.0674C60.4767 11.0753 60.4884 11.0872 60.4867 11.0892C60.469 11.111 60.4507 11.1329 60.4313 11.1528C60.4291 11.1548 60.413 11.1428 60.4014 11.1309Z" fill="white"/>
<path d="M64.4398 8.47962C64.4642 8.47763 64.488 8.47563 64.5119 8.47363C64.4598 8.51147 64.406 8.54925 64.3545 8.58703C64.3822 8.55125 64.4121 8.51541 64.4398 8.47962Z" fill="white"/>
<path d="M61.7256 46.7664C61.7671 46.8101 61.807 46.8539 61.8486 46.8977C61.807 46.8539 61.7671 46.8101 61.7256 46.7664Z" fill="white"/>
<path d="M57.676 14.1389C57.6577 14.1608 57.5496 14.4131 57.5358 14.433C57.5297 14.4211 57.5158 14.4052 57.5197 14.3972C57.5297 14.3773 57.6616 14.1568 57.676 14.1389Z" fill="white"/>
<path d="M61.155 11.8492C61.1927 11.8293 61.2287 11.8095 61.2664 11.7896C61.2304 11.8095 61.1927 11.8293 61.155 11.8492Z" fill="white"/>
<path d="M66.9542 4.33619C66.9044 4.36603 66.8545 4.39587 66.8046 4.4257C66.8007 4.42172 66.7968 4.41575 66.793 4.41178C66.8428 4.38194 66.8922 4.3521 66.942 4.32227C66.9443 4.32624 66.9498 4.33221 66.9542 4.33619Z" fill="white"/>
<path d="M63.7539 9.61336C63.7777 9.61142 63.8021 9.60942 63.8259 9.60742C63.7838 9.62728 63.7423 9.6472 63.6985 9.66712C63.7184 9.6492 63.7362 9.63128 63.7539 9.61336Z" fill="white"/>
<path d="M59.7529 44.0688C59.7291 44.039 59.7069 44.0073 59.6831 43.9775C59.6914 43.9755 59.7053 43.9695 59.7069 43.9735C59.7269 44.0013 59.7446 44.0291 59.7646 44.0569C59.7607 44.0609 59.7568 44.0648 59.7529 44.0688Z" fill="white"/>
<path d="M61.1926 12.3243C61.2087 12.2966 61.2242 12.2688 61.2386 12.241C61.2464 12.2469 61.2541 12.2528 61.2625 12.2588C61.2386 12.2786 61.2148 12.3005 61.1926 12.3243C61.191 12.3224 61.1926 12.3243 61.1926 12.3243Z" fill="white"/>
<path d="M85.7671 53.9072C85.7073 53.9172 85.6458 53.9251 85.5859 53.9351L85.5882 53.9371C85.6475 53.9271 85.709 53.9192 85.7688 53.9092L85.7671 53.9072Z" fill="white"/>
<path d="M70.5558 53.9372C70.6572 53.9769 70.7564 54.0167 70.8578 54.0585C70.8755 54.0784 70.8955 54.0983 70.9137 54.1181L70.9154 54.1162C70.4859 53.9372 70.0581 53.7581 69.6287 53.5791C69.9373 53.6984 70.2454 53.8178 70.5558 53.9372Z" fill="white"/>
<path d="M59.2361 44.7556C59.2499 44.7974 59.266 44.8411 59.2799 44.8829C59.2638 44.8411 59.2499 44.7974 59.2361 44.7556Z" fill="white"/>
<path d="M86.7331 2.16421C86.7226 2.16225 86.7121 2.16028 86.7015 2.15831C86.4649 2.129 85.9701 2.34146 84.0959 1.84278C83.8759 1.78424 83.6808 1.73889 83.5057 1.70433C83.1317 1.6669 82.7604 1.63637 82.4041 1.61621C81.9269 1.65398 81.6521 1.79258 81.0109 1.71924C80.6601 1.67913 80.3021 1.72669 80.0168 1.79357C79.3917 1.93993 79.1129 2.17881 80.0168 1.79357C80.0295 1.78818 80.0422 1.78267 80.0555 1.77704C80.5011 1.58549 81.3883 1.55864 82.4041 1.61621C82.6734 1.59493 83.0064 1.60565 83.5057 1.70433C84.6905 1.8229 85.8986 2.01078 86.7015 2.15831C86.7126 2.15969 86.7231 2.16163 86.7331 2.16421Z" fill="white"/>
<path fill-rule="evenodd" clip-rule="evenodd" d="M104.539 44.7678C104.627 44.6533 104.714 44.5388 104.802 44.4252C104.857 44.3443 104.91 44.2651 104.964 44.186V44.1858C105.06 44.0438 105.156 43.9023 105.252 43.7528C105.311 43.6626 105.376 43.5758 105.441 43.4891V43.4891C105.512 43.3943 105.583 43.2995 105.646 43.1999C105.853 42.8716 106.058 42.5415 106.243 42.2013C106.317 42.0644 106.392 41.9278 106.467 41.7911V41.791V41.7909L106.468 41.7908C106.761 41.2563 107.056 40.7212 107.312 40.1684C107.539 39.6816 107.733 39.1783 107.926 38.6755V38.6755V38.6754C108.001 38.4818 108.075 38.2882 108.152 38.0957C108.176 38.0355 108.199 37.9754 108.224 37.9151V37.915V37.915V37.9149C108.338 37.6288 108.453 37.3415 108.545 37.0475C108.738 36.4269 108.917 35.8023 109.084 35.1737C109.093 35.142 109.101 35.1104 109.109 35.0787L109.124 35.0235C109.292 34.3892 109.46 33.7544 109.588 33.111C109.711 32.4924 109.792 31.8618 109.858 31.2313C109.922 30.6127 109.975 29.9881 109.979 29.3675C109.98 29.0993 109.985 28.8235 109.989 28.5452V28.5449V28.5449V28.5447V28.5447C109.998 27.9769 110.007 27.3984 109.991 26.8512C109.974 26.6406 109.961 26.4294 109.948 26.2181V26.2179C109.921 25.765 109.893 25.3123 109.824 24.8661C109.641 23.6706 109.414 22.4831 109.186 21.2956C108.495 17.7197 106.735 14.4216 104.542 11.5509C102.665 9.10394 100.6 6.93933 98.0328 5.18566C94.3483 2.66552 90.4758 1.01613 86.0038 0.364011C85.2523 0.256001 84.4948 0.181961 83.7384 0.108007C83.5611 0.0907093 83.3843 0.0734167 83.2075 0.0556953C82.9759 0.0326618 82.7431 0.023472 82.5109 0.0142954C82.4023 0.0100002 82.2937 0.00570778 82.1851 0H81.857H81.6481H81.5589V6.96424e-06V8.02907e-06C81.509 0.0179075 81.4592 0.0358064 81.4076 0.0497282C81.3993 0.0511331 81.3888 0.0455917 81.3788 0.0401129C81.3744 0.0378349 81.3699 0.0355677 81.3661 0.0338152C81.3738 0.0278478 81.3816 0.0223777 81.3888 0.0169076C81.396 0.0114375 81.4037 0.00596738 81.4115 0H81.2624C81.1466 0.00800555 81.0302 0.0153667 80.9139 0.0227318C80.741 0.0336667 80.5675 0.0446104 80.3952 0.0576848C79.8427 0.101445 79.2896 0.147195 78.7388 0.196924C78.6246 0.206923 78.5105 0.216125 78.3963 0.22532C78.0334 0.254536 77.6715 0.283685 77.313 0.338152C76.756 0.421695 76.2013 0.527119 75.6544 0.658404C74.9146 0.835435 74.1787 1.03633 73.4488 1.25116C73.2709 1.30409 73.1008 1.38059 72.9301 1.45723C72.7999 1.51597 72.6686 1.57479 72.5339 1.62313C72.3466 1.68987 72.1549 1.74632 71.9631 1.80273C71.8179 1.8455 71.6733 1.88824 71.5298 1.93542C71.4943 1.94763 71.4649 1.97651 71.4356 2.00554C71.4073 2.03323 71.3791 2.06106 71.3447 2.07466C71.1807 2.14232 71.015 2.20624 70.8493 2.27011V2.27013C70.5966 2.36776 70.3439 2.4653 70.0962 2.57592C69.6445 2.77682 69.2029 2.99761 68.7673 3.22636C68.2226 3.5128 67.6839 3.81514 67.147 4.11749C67.0921 4.14829 67.0478 4.19802 67.0034 4.24786V4.24787V4.24787V4.24788V4.24788C66.9824 4.27207 66.9608 4.2963 66.9381 4.31839C66.9419 4.32111 66.9453 4.32476 66.948 4.32807V4.32807C66.9491 4.32961 66.9508 4.33106 66.9519 4.33232C67.1935 4.2071 67.434 4.07983 67.6745 3.95259V3.95259C68.1444 3.70388 68.6144 3.4553 69.0915 3.22239C69.6141 2.96905 70.1438 2.73282 70.6742 2.49653L70.6747 2.49651V2.49648C70.8897 2.40069 71.1047 2.30489 71.3192 2.20793C71.3918 2.17533 71.4638 2.14135 71.5359 2.10737C71.7365 2.01279 71.9371 1.91826 72.1466 1.85387C72.3045 1.80518 72.468 1.77284 72.6314 1.74056C72.8415 1.69898 73.0509 1.6575 73.2482 1.58136L73.2798 1.56919L73.3108 1.55715C73.6749 1.41604 74.034 1.27691 74.4236 1.20541C74.7733 1.14134 75.1202 1.0597 75.4671 0.978013V0.978002C75.6804 0.927826 75.8938 0.877622 76.1077 0.831457C76.1797 0.816244 76.2545 0.814474 76.3288 0.812705C76.4003 0.811001 76.4723 0.809304 76.5416 0.79565C76.6879 0.766451 76.8342 0.730489 76.9799 0.694549C77.221 0.635008 77.4626 0.575539 77.707 0.54701C78.2118 0.48578 78.7227 0.459454 79.232 0.433212C79.3179 0.428765 79.4043 0.424318 79.4908 0.419706C79.7867 0.40378 80.0832 0.396709 80.3802 0.389631C80.5287 0.3861 80.6767 0.382568 80.8252 0.377934C80.8923 0.375928 80.9593 0.37367 81.0264 0.371414C81.2247 0.364719 81.4231 0.358043 81.6226 0.358043C81.7368 0.358043 81.8509 0.364044 81.9651 0.370046C82.0687 0.375505 82.1723 0.380965 82.2765 0.381912C82.3768 0.383531 82.4771 0.38087 82.5769 0.378216C82.7221 0.374344 82.8673 0.370483 83.0124 0.379923C83.6569 0.423683 84.2992 0.481366 84.9415 0.53905V0.539053C84.9963 0.543269 85.049 0.564354 85.1022 0.585492C85.1243 0.594274 85.146 0.603068 85.1681 0.610663C85.1421 0.611334 85.116 0.612228 85.0905 0.613121C85.0396 0.61488 84.9891 0.616627 84.9376 0.616627C84.8739 0.618619 84.8101 0.618619 84.7464 0.616627C84.5597 0.608649 84.3735 0.59934 84.1867 0.59003C83.8154 0.571494 83.4441 0.552967 83.0723 0.545021C82.8811 0.540878 82.6899 0.539371 82.4993 0.539087C82.5093 0.537349 82.5193 0.535216 82.5292 0.533073C82.5392 0.53098 82.5492 0.528877 82.5591 0.527118C82.5481 0.522609 82.537 0.516848 82.5265 0.511051C82.5032 0.498949 82.4799 0.486692 82.4555 0.485347C82.3192 0.481016 82.1829 0.475359 82.046 0.469701V0.4697C81.6808 0.454564 81.3151 0.439408 80.9504 0.449543C80.2162 0.471423 79.4825 0.511206 78.751 0.578834C78.4473 0.606286 78.1464 0.664989 77.8455 0.723582C77.7103 0.749901 77.5751 0.776199 77.4404 0.799628C77.3368 0.818153 77.2332 0.836483 77.1295 0.854803L77.129 0.854914C76.8996 0.895575 76.6701 0.93617 76.4402 0.978651C76.2191 1.01895 75.9974 1.05784 75.7763 1.09672V1.09673C75.211 1.19603 74.6453 1.29533 74.0856 1.41825C73.6616 1.51174 73.2521 1.66888 72.8465 1.82801C72.3411 2.02593 71.8379 2.23287 71.3347 2.43988L71.3342 2.4399C71.0538 2.55535 70.7728 2.67083 70.4919 2.78478C70.3561 2.83981 70.2181 2.89094 70.0801 2.94209C69.8246 3.03701 69.5686 3.13202 69.3242 3.25222C68.6742 3.57048 68.0336 3.90863 67.4052 4.26668C66.6953 4.67246 65.9877 5.08819 65.3094 5.5437C65.0844 5.6933 64.8932 5.89309 64.7026 6.09276C64.6167 6.18247 64.5308 6.27213 64.4421 6.35723C64.4172 6.38309 64.3923 6.4085 64.3679 6.43385C64.3429 6.45921 64.318 6.48456 64.2931 6.51041C64.2249 6.56773 64.1567 6.62537 64.0891 6.68307L64.0886 6.68318V6.68335C63.9323 6.81583 63.776 6.94848 63.617 7.07731C63.499 7.17323 63.3787 7.26727 63.2585 7.36137V7.36142C63.0252 7.54445 62.7913 7.72765 62.5707 7.92466C62.4533 8.02912 62.3552 8.15606 62.2571 8.28317C62.1923 8.36661 62.128 8.45011 62.0576 8.52739C61.8731 8.72962 61.683 8.92718 61.4935 9.12458V9.12469L61.4929 9.1248V9.12485V9.12497C61.4065 9.21473 61.32 9.3045 61.2347 9.39465C61.2347 9.40475 61.2347 9.41457 61.2352 9.42428V9.42434C61.2363 9.44331 61.2369 9.46173 61.2347 9.4802C61.233 9.48592 61.218 9.48853 61.2042 9.49108C61.1987 9.49202 61.1931 9.49296 61.1887 9.49413C61.1937 9.4812 61.1981 9.46778 61.2025 9.45435V9.4543C61.207 9.44087 61.2114 9.42744 61.2164 9.41452C61.1288 9.51199 61.0396 9.60947 60.9498 9.70695C60.9681 9.69164 60.987 9.67733 61.0058 9.66323C61.0141 9.65724 61.0219 9.65125 61.0296 9.64526L61.0413 9.66318C61.0269 9.67311 61.0113 9.6826 60.9958 9.69203C60.9803 9.70146 60.9648 9.71095 60.9498 9.72088C60.9088 9.77497 60.8689 9.82984 60.8285 9.88465C60.7348 10.0133 60.6406 10.142 60.5342 10.2619C60.3968 10.4173 60.2549 10.5696 60.1136 10.7217C59.8864 10.9667 59.6587 11.2116 59.4464 11.4693C59.3001 11.6479 59.1776 11.8464 59.0552 12.0449V12.045C58.9881 12.1538 58.9211 12.2627 58.8501 12.3684C58.6723 12.6349 58.4894 12.9116 58.3065 13.1885L58.306 13.1887C58.1231 13.4656 57.9402 13.7425 57.7623 14.0091C57.8748 13.8494 58.0167 13.6859 58.1569 13.5238C58.2777 13.385 58.3968 13.2474 58.496 13.1143C58.8064 12.6986 59.1244 12.2908 59.4486 11.887C59.6309 11.6605 59.8227 11.4434 60.0144 11.2257V11.2257L60.015 11.2256V11.2256V11.2255V11.2254C60.0743 11.1584 60.1336 11.0912 60.1923 11.0238C60.2073 11.006 60.23 10.9958 60.2527 10.9854C60.2632 10.9805 60.2738 10.9757 60.2837 10.97C60.2804 10.982 60.2788 10.9953 60.2765 11.0085C60.2727 11.035 60.2688 11.0616 60.2538 11.0775C60.2211 11.1129 60.1845 11.1453 60.1485 11.1778C60.0953 11.2256 60.0421 11.2732 59.9995 11.3301C59.7213 11.702 59.4486 12.0799 59.1821 12.4599C59.0363 12.6684 58.91 12.8792 58.7831 13.0908V13.0908C58.6778 13.2667 58.572 13.4431 58.4545 13.6192L58.4495 13.6266C58.4462 13.6309 58.4445 13.6335 58.4428 13.6362L58.4395 13.6411L58.4356 13.6466C58.4273 13.6581 58.4118 13.6811 58.3686 13.7429V13.7428L58.3691 13.7427V13.7427C58.3891 13.725 58.3996 13.7159 58.4101 13.7063C58.4212 13.6959 58.4318 13.6851 58.4545 13.6626V13.6626C58.4899 13.6127 58.5249 13.5629 58.5603 13.5132C58.7044 13.3088 58.8479 13.1058 59.0031 12.9074C59.14 12.7317 59.2763 12.5549 59.4121 12.3781V12.3781V12.378V12.378V12.3779C59.8421 11.8184 60.2721 11.2588 60.7393 10.7313C61.3799 10.0057 62.067 9.31926 62.7525 8.63413C62.8074 8.57932 62.8622 8.52451 62.9171 8.46969C63.3682 8.0182 63.8475 7.5865 64.333 7.1688C64.4959 7.02832 64.6771 6.90793 64.8577 6.78776V6.7877V6.78765C64.9614 6.71896 65.0644 6.65033 65.1642 6.57804C65.2928 6.48473 65.4191 6.38819 65.5455 6.29171C65.761 6.12688 65.9766 5.96227 66.2021 5.8142C66.508 5.61424 66.8206 5.42539 67.1337 5.23655C67.3492 5.10609 67.5654 4.97564 67.7793 4.84154C68.8011 4.20104 69.8751 3.66397 70.9989 3.22438C71.1352 3.16985 71.2715 3.11475 71.4079 3.05965V3.05962V3.05961C71.8933 2.86343 72.3788 2.66717 72.8742 2.49636C73.4433 2.30027 74.0229 2.13245 74.6026 1.96459V1.96458L74.6031 1.9645C74.6935 1.93827 74.7843 1.91203 74.8747 1.88569C75.2011 1.79021 75.533 1.7007 75.8672 1.63904C76.0766 1.60149 76.2872 1.57609 76.4983 1.55067C76.6784 1.52896 76.8591 1.50724 77.0386 1.47792C77.175 1.45582 77.3091 1.4235 77.4437 1.39119C77.5995 1.35372 77.7557 1.31629 77.9137 1.29492C78.3426 1.23862 78.7732 1.19426 79.2037 1.14988C79.3816 1.13155 79.5595 1.11321 79.7374 1.09402C79.7873 1.08848 79.8366 1.08231 79.8865 1.07614C80.0328 1.05794 80.1785 1.03981 80.3259 1.03833C80.5808 1.03584 80.8352 1.04112 81.0901 1.0464C81.243 1.04958 81.396 1.05274 81.5489 1.05424C81.7146 1.05537 81.8809 1.05618 82.0466 1.057C82.4616 1.05902 82.8761 1.06106 83.2912 1.06816C83.3549 1.06955 83.4186 1.09316 83.4824 1.11677C83.5062 1.12566 83.53 1.13456 83.5544 1.14227C83.4935 1.14471 83.4325 1.14793 83.3715 1.15116C83.228 1.15877 83.0845 1.16637 82.941 1.16364C82.8628 1.16184 82.7847 1.15067 82.7071 1.13953C82.6129 1.12606 82.5193 1.11264 82.4262 1.1159C81.8443 1.13494 81.2641 1.16453 80.6833 1.19417C80.5963 1.1986 80.5099 1.20301 80.4234 1.2074C80.3359 1.21195 80.2483 1.21632 80.1608 1.22068C79.7512 1.24112 79.3417 1.26155 78.9339 1.30089C78.7028 1.32293 78.4739 1.36122 78.245 1.39957C78.081 1.42696 77.9175 1.45438 77.7524 1.47593C77.6227 1.49247 77.4914 1.50308 77.3601 1.5137C77.16 1.52989 76.96 1.5461 76.7643 1.58334C76.5748 1.61908 76.3903 1.67622 76.2058 1.73339C76.0822 1.77169 75.9586 1.81001 75.8334 1.84193C75.6688 1.88375 75.5025 1.91925 75.3357 1.95474C75.0348 2.01885 74.7339 2.08291 74.4474 2.18406C74.3421 2.22113 74.2374 2.25813 74.1327 2.29514C73.0099 2.6911 71.8872 3.08723 70.7939 3.55656C70.0851 3.85992 69.4051 4.23526 68.7269 4.60987C68.5246 4.72162 68.3223 4.8333 68.1195 4.94298C67.6995 5.16775 67.2922 5.42037 66.8965 5.68493C66.411 6.01115 65.9339 6.3513 65.4662 6.70337C65.0589 7.00968 64.6588 7.32991 64.2709 7.66212C64.0204 7.87827 63.7805 8.10585 63.54 8.3336V8.33365C63.4485 8.42031 63.3571 8.50697 63.2651 8.59302C63.2368 8.61976 63.2136 8.65344 63.1903 8.68706C63.1809 8.70099 63.1715 8.71491 63.1615 8.72828C63.1764 8.71963 63.192 8.71142 63.2075 8.70321C63.2457 8.68323 63.2839 8.66298 63.3166 8.6348C63.5505 8.4328 63.7832 8.22852 64.016 8.0243V8.02424C64.1567 7.90069 64.2975 7.77713 64.4382 7.65414C64.4599 7.63422 64.4892 7.62445 64.5186 7.61469C64.5308 7.61081 64.5424 7.60692 64.5535 7.60243C64.5452 7.61336 64.538 7.62473 64.5302 7.63599C64.5164 7.65763 64.5025 7.67893 64.4837 7.69591C64.318 7.84926 64.1501 8.00077 63.9822 8.15224V8.15229V8.15235V8.1524L63.9816 8.15246C63.658 8.44495 63.3338 8.73727 63.0224 9.04258C62.6012 9.45452 62.1917 9.87872 61.7827 10.3027V10.3028L61.7822 10.3029V10.303V10.3031C61.6459 10.4441 61.5101 10.585 61.3738 10.7254C61.3555 10.7437 61.3433 10.768 61.3305 10.7926C61.3239 10.8055 61.3172 10.8185 61.31 10.8308C61.3222 10.8226 61.335 10.8154 61.3477 10.8082C61.3721 10.7944 61.3959 10.7808 61.4153 10.7612C61.5323 10.6442 61.6481 10.5254 61.7639 10.4066C61.9495 10.2163 62.1352 10.0259 62.3264 9.84221L62.3912 9.77952C62.8766 9.3111 63.361 8.84357 63.8653 8.39612C64.2033 8.09831 64.5535 7.81392 64.9032 7.52958L64.9037 7.52942C65.0583 7.40359 65.213 7.27781 65.367 7.15093C65.3825 7.13778 65.4047 7.13157 65.4263 7.12547C65.4374 7.1223 65.4485 7.11914 65.4584 7.11509C65.4524 7.1253 65.4474 7.13667 65.4418 7.14805C65.4319 7.17002 65.4219 7.19221 65.4047 7.20663C65.254 7.33329 65.1016 7.45835 64.9497 7.58334V7.5834V7.58345H64.9492V7.58351C64.6361 7.84105 64.3224 8.09842 64.0226 8.37027C63.4917 8.85161 62.9703 9.34689 62.4715 9.86008C62.0543 10.2888 61.658 10.7365 61.2613 11.1842C61.1798 11.2766 61.0978 11.3691 61.0158 11.4613C60.9665 11.5162 60.9332 11.5848 60.8994 11.6539C60.8734 11.7076 60.8468 11.7616 60.813 11.8094C60.7642 11.8774 60.7154 11.9453 60.6667 12.0134L60.6661 12.0141C59.621 13.4737 58.5708 14.9398 57.8261 16.5834C57.7025 16.8562 57.1461 18.3615 57.2863 18.081C57.8305 16.908 58.4079 15.7061 59.1034 14.6155C60.1147 13.023 61.1804 11.5833 62.497 10.3355C62.5081 10.3246 62.5198 10.3141 62.5308 10.3037V10.3036C62.5425 10.2932 62.5541 10.2828 62.5646 10.2718L62.6605 10.1346C62.6661 10.1465 62.6722 10.1604 62.6783 10.1744C62.681 10.1785 62.6843 10.1816 62.6877 10.1845C62.6893 10.1858 62.691 10.1871 62.6921 10.1883C62.7669 10.1132 62.8417 10.0381 62.9165 9.96288L62.9171 9.96271C63.1415 9.73719 63.3654 9.51199 63.5948 9.29118C63.7755 9.11637 63.9628 8.94687 64.1495 8.77727L64.1501 8.77705V8.77683L64.1506 8.77666C64.2188 8.71486 64.287 8.65311 64.3546 8.59103C64.3723 8.56678 64.3911 8.54331 64.41 8.52012V8.52007C64.42 8.5072 64.4305 8.49444 64.4405 8.48162C64.4549 8.46769 64.4698 8.45427 64.4848 8.44084C64.4998 8.42741 64.5147 8.41399 64.5297 8.40006C64.5258 8.42031 64.5241 8.44217 64.5219 8.46265V8.46769C64.5513 8.44983 64.5812 8.43191 64.6095 8.41199C64.8738 8.21393 65.137 8.01342 65.4003 7.81297V7.81292C66.0409 7.32497 66.6815 6.83708 67.3437 6.38309C68.0198 5.91767 68.7479 5.52182 69.4733 5.13195C70.1278 4.78186 70.7939 4.44769 71.4799 4.16523C72.2995 3.82907 73.1346 3.52473 73.9797 3.26615C74.8846 2.98966 75.7996 2.743 76.7283 2.55006C79.1406 2.0667 81.5766 1.95531 84.0288 2.17014C86.0791 2.35115 88.0835 2.75096 90.0386 3.39743C90.7091 3.61958 91.3652 3.86905 92.007 4.1447C91.4661 3.91982 90.9131 3.72007 90.3428 3.55207C90.2464 3.52025 90.1433 3.48203 90.0397 3.44381V3.44378C89.9366 3.40554 89.8336 3.36731 89.7371 3.33548C89.562 3.2778 89.3514 3.20995 89.1747 3.16221C89.0156 3.11854 88.8538 3.07157 88.6909 3.02423C88.3196 2.91633 87.9411 2.80645 87.5737 2.72903C86.9054 2.5878 86.0431 2.41674 85.3671 2.33917C84.2732 2.21584 83.5062 2.1659 82.338 2.12258C82.2427 2.12258 82.1302 2.12199 82.0105 2.12137C81.7501 2.12001 81.4597 2.11849 81.2563 2.12258C80.8113 2.1323 80.5564 2.15704 80.1236 2.199L80.0932 2.20196C79.2819 2.28153 78.4706 2.37899 77.6632 2.50232C76.9073 2.6157 76.1575 2.76489 75.41 2.91805C75.2831 2.94368 75.1612 2.99594 75.0393 3.04842V3.04843C74.9528 3.08554 74.8664 3.12277 74.7771 3.15078C74.5865 3.21106 74.3937 3.26642 74.2008 3.32182C73.8583 3.41996 73.5164 3.5182 73.1845 3.64408C72.397 3.94046 71.6173 4.2627 70.8498 4.6108C70.1815 4.91314 69.5254 5.24334 68.8848 5.60137C68.4553 5.84033 68.043 6.11118 67.6307 6.38214V6.3822C67.5183 6.45627 67.4052 6.53044 67.2921 6.6039C67.1464 6.69844 67.0095 6.80468 66.8727 6.91092V6.91098C66.8222 6.95004 66.7718 6.9891 66.7214 7.0276C66.5186 7.1805 66.3168 7.3334 66.1146 7.48631L66.1135 7.48708L66.1124 7.48808L66.1118 7.48836V7.48858L66.1112 7.48886C65.9095 7.64143 65.7084 7.794 65.5061 7.94657C65.4219 8.01015 65.3349 8.07134 65.2479 8.13271C65.0683 8.25942 64.8882 8.38653 64.7286 8.53532C64.2033 9.02299 63.6912 9.52548 63.1798 10.0275V10.0275L63.1787 10.0288C63.0977 10.1079 63.0174 10.1869 62.9365 10.2659C62.676 10.5225 62.4239 10.787 62.1751 11.0556C62.0354 11.2075 61.9063 11.3683 61.7766 11.529V11.5291V11.5292C61.7572 11.5537 61.7373 11.5781 61.7179 11.6026C61.7046 11.6185 61.7052 11.645 61.7063 11.6716C61.7068 11.6848 61.7068 11.6981 61.7057 11.71C61.7185 11.7062 61.7323 11.7036 61.7467 11.7011C61.7772 11.6955 61.8082 11.6899 61.8232 11.6722C61.8659 11.6215 61.9052 11.5675 61.944 11.5135C61.9922 11.447 62.0404 11.3805 62.0953 11.3201C62.1923 11.214 62.2942 11.1135 62.3967 11.0132C62.4666 10.9442 62.5364 10.8754 62.6045 10.805C62.8506 10.5483 63.0955 10.2908 63.3405 10.0336V10.0333V10.0331L63.341 10.0329V10.0327C63.4602 9.9074 63.5793 9.78218 63.6984 9.65719L63.7522 9.60348C63.7655 9.60015 63.7794 9.59643 63.7932 9.59266C63.8126 9.5875 63.832 9.58223 63.8514 9.57763C63.9849 9.45463 64.1152 9.32824 64.246 9.20192C64.5208 8.93617 64.7951 8.67047 65.0944 8.4359C65.8719 7.82723 66.6737 7.24835 67.4811 6.67946C67.8729 6.40328 68.2885 6.15817 68.703 5.91395C68.7568 5.88205 68.8111 5.85015 68.8648 5.81819C69.0826 5.68959 69.3071 5.57153 69.5315 5.45353C69.6434 5.39452 69.7559 5.3355 69.8673 5.27516C69.8862 5.26323 69.9056 5.2513 69.9249 5.23937C69.9443 5.22743 69.9637 5.21549 69.9826 5.20355C69.9826 5.22145 69.9809 5.23934 69.9787 5.25724V5.25726C70.1161 5.19229 70.2536 5.12583 70.391 5.05933V5.0593V5.05928C70.6742 4.92224 70.9579 4.78507 71.2455 4.66053C71.8501 4.39796 72.4563 4.13539 73.0753 3.91261C73.66 3.70375 74.2546 3.51876 74.8569 3.37157C74.9018 3.36059 74.9467 3.34958 74.9916 3.33858C75.84 3.13043 76.6923 2.9213 77.5557 2.79472C78.6911 2.62764 79.8388 2.50829 80.9859 2.45259C82.3741 2.38496 83.7606 2.46453 85.1426 2.64951C86.7153 2.86235 88.257 3.21045 89.7682 3.68983C91.506 4.24082 93.1807 4.95094 94.7378 5.89575C95.8218 6.55419 96.8736 7.27621 97.8721 8.05598C98.7948 8.77799 99.6576 9.58761 100.497 10.4091C101.643 11.531 102.613 12.808 103.492 14.1467C105.164 16.6967 106.373 19.4517 107.064 22.4274C107.67 25.0491 107.861 27.7006 107.656 30.3839C107.511 32.2875 107.163 34.1513 106.602 35.9754C105.876 38.3404 104.821 40.5503 103.458 42.617C102.394 44.2342 101.165 45.7121 99.7712 47.0508C98.3177 48.4452 96.7184 49.6506 94.9545 50.6272C94.8298 50.6963 94.7057 50.7658 94.5816 50.8355L94.5805 50.8358C93.9703 51.1774 93.3585 51.5197 92.7196 51.7989C91.6274 52.2743 90.5096 52.69 89.3924 53.0998C88.8455 53.2987 88.2786 53.4478 87.71 53.5771C87.2263 53.6872 86.738 53.7768 86.2498 53.8664L86.2487 53.8666L86.2482 53.8667L86.2471 53.8668V53.8669C86.0392 53.9051 85.8314 53.9432 85.6236 53.9829C85.5538 53.9962 85.4834 54.0076 85.413 54.0191V54.0192L85.4125 54.0192C85.3981 54.0216 85.3837 54.0239 85.3698 54.0263C85.3488 54.0297 85.3283 54.0331 85.3072 54.0366C85.3521 54.0207 85.397 54.0043 85.4419 53.9878C85.4868 53.9715 85.5311 53.955 85.576 53.9392C85.5793 53.9375 85.5826 53.9332 85.5848 53.9296L85.5882 53.9292L85.5859 53.9272C85.5854 53.928 85.5848 53.9287 85.5848 53.9296C85.4219 53.9483 85.259 53.9664 85.0961 53.9844C84.6528 54.0337 84.2089 54.083 83.7661 54.144C82.2034 54.3628 80.634 54.3111 79.0707 54.2077C77.4083 54.0983 75.7619 53.8019 74.1687 53.3265C70.3871 52.2009 66.9757 50.4296 63.9766 47.8465C62.6184 46.6748 61.3555 45.4038 60.1923 44.0353C60.1707 44.0095 60.1391 43.9919 60.107 43.9744C60.0948 43.9676 60.0826 43.9609 60.0709 43.9537C60.0754 43.9692 60.0787 43.9853 60.0815 44.0013C60.0887 44.0366 60.0959 44.0716 60.1147 44.099C60.1945 44.2171 60.2721 44.3372 60.3497 44.4572C60.5459 44.7614 60.742 45.0651 60.9759 45.3362C61.5489 46.0005 62.1512 46.6411 62.7719 47.2637C63.0983 47.5904 63.4458 47.8966 63.7932 48.2027V48.2028C63.9445 48.3358 64.0952 48.4688 64.2443 48.6034C64.1905 48.5641 64.1357 48.5259 64.0808 48.4876V48.4874C63.9367 48.3873 63.7932 48.2872 63.6685 48.1667C63.5305 48.0336 63.3926 47.9006 63.254 47.7675V47.7674C62.4976 47.0395 61.7395 46.31 61.0097 45.555C60.6982 45.2324 60.4212 44.8774 60.1441 44.5223C60.0211 44.365 59.8986 44.2077 59.7728 44.0532L59.7606 44.0651C59.7922 44.1155 59.8227 44.1666 59.8532 44.2178V44.2179V44.2179V44.218C59.9235 44.3364 59.9945 44.4553 60.0748 44.5664C60.2776 44.8471 60.4866 45.1225 60.6955 45.398L60.7531 45.474C60.7731 45.5003 60.793 45.5266 60.813 45.553L60.8329 45.5788C60.9831 45.7748 61.1333 45.9707 61.284 46.1667C61.4347 46.3626 61.5855 46.5585 61.7356 46.7544C61.7755 46.8022 61.8149 46.8479 61.8548 46.8937V46.8938C62.0382 47.1007 62.2211 47.3074 62.4017 47.5143C62.4139 47.528 62.4228 47.5445 62.4311 47.5612V47.5612C62.4355 47.5688 62.4394 47.5765 62.4433 47.5839C62.4372 47.5799 62.43 47.5762 62.4233 47.5724C62.4095 47.5649 62.3956 47.5574 62.384 47.5481C62.3391 47.5104 62.292 47.474 62.2455 47.4375V47.4375C62.1391 47.3547 62.0327 47.2716 61.9445 47.1722C61.3776 46.5336 60.8107 45.8911 60.2638 45.2347C60.1812 45.1357 60.0981 45.037 60.015 44.9382V44.9382L60.0144 44.9378C59.6027 44.4493 59.1898 43.9593 58.844 43.4266C58.3497 42.6645 57.8937 41.8763 57.4376 41.0886V41.0883V41.0883C57.2774 40.8111 57.1167 40.5339 56.9549 40.2579C56.8519 40.0819 56.7527 39.9291 56.654 39.7768C56.5482 39.6143 56.4434 39.4524 56.3343 39.2634C56.3176 39.2347 56.2994 39.207 56.2772 39.1734V39.1734V39.1732V39.173V39.1729C56.2473 39.1276 56.2107 39.0718 56.1614 38.9889C56.1974 39.0681 56.2384 39.1724 56.2711 39.2559L56.2766 39.2693C56.3515 39.4558 56.4246 39.6427 56.4978 39.8297C56.6319 40.1712 56.7654 40.5126 56.9073 40.8507C57.0126 41.1073 57.1378 41.3579 57.2752 41.6006C57.6947 42.3366 58.1164 43.0745 58.5575 43.7986C58.6989 44.0298 58.864 44.2475 59.0291 44.4652V44.4652C59.1017 44.5603 59.1738 44.6553 59.2436 44.7514C59.2508 44.7723 59.258 44.7936 59.2658 44.815C59.273 44.8364 59.2807 44.8578 59.2874 44.8787C59.314 44.9082 59.3406 44.9377 59.3672 44.9672V44.9674V44.9675C59.4448 45.0534 59.5223 45.1395 59.5977 45.2268C59.6625 45.3023 59.7279 45.3779 59.7928 45.4535V45.4537V45.4537V45.4538C59.9984 45.693 60.2039 45.9325 60.4112 46.1696C60.4494 46.2129 60.4888 46.2548 60.5281 46.2967V46.2967C60.5996 46.3724 60.6705 46.4477 60.7332 46.5297C60.8257 46.6482 60.9149 46.7696 61.0036 46.8911C61.1327 47.0674 61.2613 47.2436 61.4015 47.4108C61.7179 47.7888 62.0399 48.1667 62.3879 48.5148C62.865 48.9922 63.3482 49.4696 63.8697 49.8952C64.3507 50.2874 64.8516 50.6551 65.3532 51.0231C65.5665 51.1796 65.7793 51.3361 65.9915 51.4945C68.4104 53.3275 71.4699 54.4815 74.3914 55.2779C77.4859 56.128 80.378 56.2357 83.55 56.0276C86.799 55.8085 89.9954 55.2006 92.9878 53.9013C93.5109 53.6766 94.028 53.4359 94.5428 53.1952C94.8653 53.0461 95.1834 52.8889 95.4976 52.7238C95.7303 52.6024 95.957 52.4712 96.1814 52.3339C96.5793 52.0912 96.9772 51.8466 97.3706 51.594C97.5879 51.4527 97.7984 51.3015 98.0051 51.1444C98.1719 51.0189 98.3354 50.8892 98.4994 50.7594C98.6136 50.6692 98.7272 50.579 98.8425 50.49C99.0032 50.3647 99.165 50.2412 99.3262 50.1178L99.3268 50.1173C99.6477 49.8724 99.968 49.6279 100.278 49.3701C100.624 49.0817 100.95 48.7674 101.269 48.4472C101.822 47.8902 102.37 47.3273 102.903 46.7505C103.269 46.3546 103.612 45.9369 103.951 45.5192C104.152 45.2729 104.346 45.0201 104.539 44.7678ZM64.39 48.7137C64.3923 48.7187 64.3945 48.7241 64.3961 48.7294C64.4028 48.7471 64.4094 48.7653 64.4222 48.7754C64.5419 48.8669 64.6649 48.9564 64.7885 49.0459C64.9115 49.1354 65.94 49.833 65.94 49.833C65.94 49.833 64.6051 48.8569 64.5036 48.7754C64.4815 48.7572 64.4554 48.7449 64.4288 48.7325C64.4155 48.7265 64.4028 48.7205 64.39 48.7137ZM83.5644 1.14536C83.5561 1.15421 83.5478 1.1634 83.5395 1.17259C83.53 1.18303 83.5206 1.19348 83.5117 1.20342C83.5201 1.20584 83.5284 1.20863 83.5367 1.2114V1.21141C83.5555 1.21773 83.5738 1.22392 83.5932 1.2253C83.663 1.22994 83.7329 1.23304 83.8027 1.23613C83.9423 1.24232 84.082 1.24851 84.2194 1.26707C84.4904 1.30303 84.7625 1.32785 85.0346 1.35268C85.7112 1.41436 86.3884 1.47605 87.0378 1.70866C87.0894 1.72731 87.147 1.7266 87.2046 1.72588C87.2517 1.7253 87.2994 1.72471 87.3437 1.73452C87.6496 1.79845 87.9544 1.86511 88.2592 1.93169L88.2598 1.93179C88.4764 1.97911 88.6926 2.02641 88.9092 2.07267C88.9674 2.08514 89.0261 2.09309 89.0854 2.10103C89.168 2.11209 89.25 2.12311 89.3287 2.14627C89.4451 2.18089 89.5576 2.22901 89.6701 2.2772C89.7188 2.29817 89.7682 2.31914 89.8175 2.33902C89.8258 2.31584 90.2857 2.33746 90.5506 2.3499C90.6642 2.35525 90.7424 2.3589 90.7324 2.35655C90.2531 2.22821 89.3054 2.03452 88.5307 1.87613C88.1766 1.80378 87.8591 1.73879 87.638 1.69076C86.8965 1.52765 86.149 1.38443 85.397 1.28099C84.9736 1.22269 84.5464 1.20023 84.1197 1.17779C83.9346 1.16807 83.75 1.15836 83.5655 1.14573L83.5644 1.14536ZM89.8408 2.34624L89.8923 2.36175V2.36176C89.9981 2.39397 90.1034 2.42593 90.2098 2.45657C90.2231 2.46099 90.237 2.46214 90.2508 2.46324C90.2558 2.46363 90.2608 2.46401 90.2652 2.46453C90.2619 2.46109 90.2586 2.45717 90.2553 2.45327C90.2475 2.44361 90.2392 2.43412 90.2292 2.4327C90.1001 2.40267 89.9704 2.3744 89.8408 2.34624ZM82.3297 0.53912C82.1995 0.535067 82.0698 0.530595 81.9396 0.526124V0.526123C81.7662 0.520156 81.5927 0.514189 81.4198 0.509217C81.4037 0.509217 81.3877 0.512753 81.3721 0.516289C81.3638 0.518057 81.3561 0.519825 81.3478 0.521151C81.3566 0.523265 81.3649 0.526376 81.3738 0.529513C81.3899 0.535235 81.406 0.541042 81.4215 0.541042C81.616 0.541745 81.8105 0.54096 82.0044 0.540175V0.540175V0.540174C82.1131 0.539736 82.2211 0.539299 82.3297 0.53912ZM81.1865 2.20891C81.1433 2.2053 81.0995 2.20196 81.0557 2.20196C81.0469 2.20196 81.0385 2.20862 81.0302 2.21547C81.0252 2.21922 81.0208 2.22302 81.0158 2.22583V2.22582L81.0164 2.2258C81.0723 2.22017 81.1289 2.21454 81.1865 2.20891ZM81.2137 2.20717C81.2519 2.20546 81.2901 2.20395 81.3284 2.20395C81.3262 2.19998 81.3239 2.19202 81.3239 2.19202C81.2874 2.19552 81.2508 2.20057 81.2137 2.20717ZM107.977 26.2625V26.204C107.975 26.2227 107.975 26.2421 107.977 26.2625ZM107.977 26.2625C107.978 26.2852 107.981 26.3081 107.985 26.3312C107.982 26.3082 107.979 26.2853 107.977 26.2625ZM107.977 25.9705V25.968C107.975 25.968 107.975 25.969 107.977 25.9705ZM108.039 26.5967V26.5972C108.041 26.5972 108.04 26.597 108.039 26.5967ZM61.0319 10.1087C61.0197 10.1227 60.6179 10.5436 60.6179 10.5436C60.634 10.5138 61.0097 10.0391 61.0097 10.0391C61.0097 10.0391 61.5843 9.4265 61.8731 9.12014C61.8897 9.10216 61.9069 9.08569 61.9246 9.06926V9.06921C61.9357 9.05844 61.9473 9.04768 61.9584 9.03659C62.0122 8.98088 62.0637 8.92524 62.1152 8.86954C62.1036 8.8904 62.0925 8.9122 62.0814 8.934C62.0554 8.98493 62.0299 9.03603 61.9922 9.07637C61.78 9.30711 61.5661 9.53602 61.3522 9.76498V9.76504C61.2452 9.87955 61.1382 9.99406 61.0319 10.1087ZM67.5593 5.40653C67.572 5.40739 67.5875 5.40844 67.6064 5.40844C67.5798 5.43011 67.5604 5.44731 67.5448 5.46154V5.46154C67.5271 5.47734 67.5133 5.48947 67.4989 5.49993C67.3298 5.6113 67.1586 5.72071 66.9879 5.83012C66.968 5.84205 66.9458 5.85004 66.9242 5.85797C66.9275 5.85153 66.9297 5.84449 66.9325 5.83744C66.938 5.82279 66.943 5.80837 66.9541 5.80027C67.1386 5.669 67.326 5.53972 67.5149 5.41042C67.5238 5.40409 67.5371 5.40502 67.5593 5.40653ZM65.5538 5.59644C65.4828 5.64515 65.4119 5.69386 65.341 5.74263C65.321 5.73464 65.3094 5.7307 65.2994 5.7307C65.3016 5.72487 65.3038 5.71844 65.3061 5.712C65.3099 5.69874 65.3138 5.68565 65.3232 5.67894C65.4562 5.58745 65.5898 5.49993 65.725 5.4144C65.7328 5.40645 65.7549 5.41042 65.7649 5.41639C65.7704 5.41838 65.7727 5.44623 65.7666 5.45021C65.6962 5.49894 65.6247 5.54768 65.5538 5.59644ZM107.79 24.5193C107.782 24.5289 107.776 24.5381 107.782 24.5458C107.785 24.5366 107.788 24.5277 107.79 24.5193ZM62.7309 8.27917C62.7398 8.28322 62.7514 8.28844 62.7658 8.29465C62.6927 8.36017 62.6256 8.42076 62.5602 8.47951V8.47973L62.5597 8.48012C62.5087 8.52634 62.4583 8.57144 62.4078 8.61688C62.4056 8.61688 62.3918 8.60695 62.384 8.60101C62.4377 8.54631 62.4915 8.49111 62.5447 8.4359C62.5985 8.3807 62.6522 8.3255 62.706 8.27079C62.7076 8.26819 62.7148 8.27152 62.7309 8.27917ZM62.1729 48.0911H62.2111C62.2615 48.139 62.6422 48.4747 63.0473 48.8318L63.0512 48.8352L63.0518 48.8357L63.0534 48.837L63.054 48.8375C63.5217 49.2498 64.0199 49.689 64.0792 49.7464C65.5249 51.0421 63.9927 49.7031 63.9927 49.7031L62.5015 48.4293C62.394 48.3298 62.2865 48.2303 62.179 48.1289C62.1751 48.1236 62.1745 48.1139 62.174 48.1046C62.174 48.0998 62.174 48.0951 62.1729 48.0911ZM63.126 7.5849C63.1321 7.58972 63.1404 7.5961 63.1493 7.60243C63.0911 7.65358 63.0357 7.70324 62.9814 7.75184V7.75195V7.752C62.947 7.78274 62.9132 7.81309 62.8789 7.8431L62.8611 7.81924C62.9448 7.73769 63.0285 7.65613 63.1138 7.57657C63.1138 7.57552 63.1183 7.57913 63.126 7.5849ZM80.1209 2.28949V2.28949V2.2895C80.0472 2.29546 79.974 2.30143 79.9042 2.30739C79.8327 2.30142 79.7651 2.29545 79.6975 2.2875C79.7235 2.28327 79.749 2.27832 79.7751 2.27336C79.8349 2.26195 79.8948 2.25049 79.9557 2.24771C79.9912 2.24771 80.0278 2.25989 80.0643 2.27217C80.0832 2.27845 80.102 2.28477 80.1209 2.28948V2.28949ZM62.7248 47.7932C62.7298 47.7865 62.7359 47.779 62.742 47.7709C62.7747 47.8105 62.8057 47.8469 62.8351 47.8817V47.8821C62.8678 47.9206 62.8988 47.9572 62.9287 47.9937L64.1656 49.1833C64.0963 49.1216 62.7697 47.8902 62.7021 47.8266C62.7004 47.8251 62.7104 47.8126 62.7248 47.7932ZM66.1783 6.36267C66.1506 6.38359 66.1218 6.40495 66.093 6.42686C66.0808 6.40894 66.073 6.39701 66.0747 6.39701L66.0752 6.39696C66.1622 6.33332 66.2498 6.26969 66.3396 6.20805C66.3407 6.20805 66.3445 6.21182 66.3495 6.2162C66.3534 6.21959 66.3578 6.22336 66.3612 6.22597C66.3008 6.27007 66.2409 6.31518 66.1783 6.3625V6.36262V6.36267ZM107.819 24.6831C107.818 24.6835 107.819 24.6852 107.821 24.688C107.82 24.6863 107.82 24.6847 107.819 24.6831ZM63.4812 7.32159C63.4823 7.32236 63.484 7.3232 63.4857 7.32397L63.4779 7.33041L63.469 7.33807V7.33829C63.4352 7.36741 63.4075 7.39116 63.3781 7.41346C63.3754 7.4149 63.366 7.40681 63.3571 7.3992C63.356 7.39793 63.3543 7.3966 63.3532 7.39538C63.3515 7.39399 63.3499 7.39271 63.3482 7.3916C63.3593 7.38201 63.3704 7.37219 63.3815 7.36231V7.3622V7.36214C63.4025 7.34334 63.4236 7.32431 63.4458 7.30605C63.4485 7.30461 63.4579 7.30949 63.4707 7.3161L63.4751 7.31859C63.4768 7.31959 63.479 7.32059 63.4812 7.32159ZM109.939 28.6818C109.939 28.6827 109.938 28.6832 109.939 28.6832V28.6818ZM108.958 20.6105L108.959 20.6133C108.957 20.6137 108.956 20.614 108.954 20.6145C108.954 20.6143 108.955 20.614 108.955 20.6138C108.956 20.6128 108.957 20.6117 108.958 20.6105ZM108.918 20.4955L108.917 20.494C108.915 20.4955 108.915 20.4958 108.918 20.4955ZM65.0578 5.92982C65.0367 5.95001 65.0151 5.97126 64.9913 5.99523C64.9902 5.99023 64.9896 5.98563 64.9885 5.98147C64.9863 5.97242 64.9852 5.96549 64.9891 5.96144C65.0207 5.9276 65.0545 5.89381 65.0883 5.85997C65.0883 5.85797 65.1043 5.8699 65.1121 5.87589C65.0944 5.89386 65.0766 5.9114 65.0578 5.92982ZM92.0524 3.07595C92.0657 3.08302 92.0812 3.09149 92.1006 3.10105C92.0773 3.10359 92.059 3.10722 92.0452 3.11008C92.0258 3.11394 92.0136 3.11641 92.0036 3.11298C91.9853 3.10609 91.9693 3.09251 91.9532 3.07885C91.946 3.07281 91.9393 3.06676 91.9316 3.06127C91.9355 3.06063 91.9394 3.05991 91.9432 3.05914C91.9454 3.05861 91.9482 3.05806 91.9504 3.05751V3.0575L91.951 3.05749C91.9676 3.05386 91.9837 3.0504 91.9992 3.05331C92.0158 3.05582 92.0302 3.06386 92.0524 3.07595ZM80.271 0.543849C80.2805 0.550071 80.2915 0.55773 80.306 0.5669C80.2854 0.5669 80.2688 0.567333 80.255 0.567699C80.2262 0.568443 80.2079 0.568914 80.1907 0.564914C80.1813 0.562179 80.1724 0.551939 80.1635 0.541281C80.1591 0.536423 80.1552 0.531478 80.1508 0.527118C80.158 0.526574 80.1652 0.525733 80.1724 0.524878C80.1918 0.522609 80.2123 0.520251 80.2322 0.523141C80.2428 0.524474 80.2528 0.531177 80.271 0.543849ZM67.4745 4.49616C67.48 4.499 67.4861 4.50233 67.4928 4.50537C67.4867 4.51048 67.4811 4.51536 67.4761 4.52002V4.52003C67.4545 4.53895 67.4368 4.55427 67.4191 4.56704C67.4179 4.56704 67.4096 4.55819 67.4013 4.54936C67.3969 4.54493 67.393 4.54051 67.3897 4.5372C67.3952 4.53296 67.4013 4.52858 67.4069 4.52417C67.4229 4.51203 67.4396 4.49967 67.4573 4.48946C67.4595 4.48823 67.4656 4.49156 67.4745 4.49616ZM109.25 21.8706C109.25 21.8724 109.25 21.8741 109.251 21.8755C109.253 21.8866 109.255 21.9004 109.254 21.9134C109.255 21.9041 109.255 21.8951 109.253 21.8864C109.252 21.8812 109.251 21.8761 109.25 21.8706ZM84.2122 54.1923C84.2188 54.1956 84.2272 54.1997 84.2377 54.2037C84.2316 54.2058 84.2261 54.2078 84.2211 54.2095L84.2205 54.2099C84.1972 54.2183 84.1828 54.2236 84.1679 54.2236C84.1623 54.2236 84.1557 54.2176 84.1496 54.212C84.1468 54.2097 84.1446 54.2074 84.1424 54.2057C84.1479 54.2035 84.154 54.2008 84.1595 54.198C84.1701 54.1933 84.1806 54.1883 84.1917 54.1858C84.1967 54.1846 84.2028 54.1876 84.2122 54.1923ZM58.7066 43.8744L58.711 43.8794C58.7155 43.8848 58.7199 43.8903 58.7249 43.8961L58.7227 43.8976L58.7199 43.8998C58.7133 43.9049 58.7066 43.91 58.705 43.91C58.6889 43.8921 58.6728 43.8742 58.659 43.8543C58.659 43.8523 58.6689 43.8424 58.675 43.8364C58.6783 43.8406 58.6817 43.8447 58.685 43.8488C58.6883 43.8526 58.6917 43.8564 58.6944 43.8602L58.7011 43.8679L58.7016 43.8682V43.8684L58.7027 43.87L58.7066 43.8744ZM87.6225 1.06717C87.6219 1.07015 87.6214 1.07313 87.6203 1.07612C87.6125 1.07548 87.6053 1.07505 87.5981 1.07463C87.5826 1.07372 87.5676 1.07286 87.5527 1.07015C87.5443 1.06744 87.5371 1.06197 87.5299 1.05623C87.5283 1.05501 87.5266 1.05379 87.5249 1.05257C87.5238 1.05183 87.5227 1.05109 87.5222 1.05035C87.5211 1.04965 87.52 1.04895 87.5188 1.04827C87.5272 1.04827 87.5344 1.04762 87.5421 1.04698C87.5538 1.04603 87.5648 1.04509 87.5765 1.04628C87.587 1.04761 87.5975 1.0507 87.6086 1.05379C87.6136 1.05534 87.6191 1.05689 87.6241 1.05821C87.6236 1.0612 87.623 1.06418 87.6225 1.06717ZM78.7565 1.37047C78.7671 1.36549 78.777 1.36076 78.7865 1.35659C78.8003 1.36056 78.8086 1.36255 78.8164 1.36454C78.8097 1.36785 78.8031 1.37139 78.7964 1.37493C78.7831 1.382 78.7698 1.38908 78.7565 1.39438C78.751 1.39719 78.7438 1.39305 78.736 1.38898C78.7327 1.38728 78.7299 1.3856 78.7272 1.38443C78.7371 1.37972 78.7471 1.375 78.7565 1.3705V1.37047ZM90.1201 1.69058V1.69059C90.1311 1.69293 90.1439 1.69568 90.16 1.69872C90.1516 1.7039 90.145 1.70857 90.1394 1.71256C90.125 1.72236 90.1173 1.72798 90.1101 1.72656C90.0979 1.72379 90.0862 1.71717 90.0752 1.71072V1.7107C90.0702 1.70789 90.0652 1.70511 90.0602 1.70269C90.0613 1.70153 90.0624 1.70029 90.063 1.699C90.0635 1.6983 90.0641 1.69759 90.0646 1.69688L90.0657 1.69494V1.69463C90.0702 1.68849 90.0735 1.6828 90.0763 1.6828C90.0901 1.68403 90.1029 1.68678 90.1201 1.69058ZM88.4049 1.26221C88.4121 1.26037 88.4188 1.25861 88.426 1.25713C88.4437 1.2631 88.4576 1.26707 88.4692 1.26906C88.4653 1.26994 88.4609 1.27091 88.4559 1.27189C88.4398 1.27537 88.4232 1.27901 88.4077 1.27901C88.3994 1.27901 88.3911 1.27686 88.3828 1.27471C88.3772 1.27328 88.3717 1.27185 88.3661 1.27105C88.38 1.26857 88.3928 1.26531 88.4049 1.26224V1.26221V1.26221ZM61.8925 47.7795L61.8963 47.7826L61.9002 47.7857C61.9046 47.7892 61.9096 47.7929 61.9146 47.7967C61.9046 47.8037 61.9966 47.9078 62.0509 47.9692V47.9693C62.0742 47.9958 62.0908 48.0142 62.0892 48.0137C62.0748 48.0037 61.8531 47.7948 61.8409 47.7808C61.8393 47.7788 61.8587 47.7569 61.8609 47.7569C61.8714 47.7621 61.8808 47.7698 61.8925 47.7795ZM70.2153 4.00013C70.2076 4.01804 70.1993 4.03594 70.1976 4.03793C70.1655 4.03395 70.1577 4.03395 70.1477 4.03395C70.1516 4.03006 70.1555 4.02616 70.1588 4.02235L70.161 4.01979V4.01973V4.01972C70.1688 4.0109 70.1765 4.00267 70.1854 3.99615C70.1898 3.99325 70.1987 3.99564 70.2065 3.99792L70.2092 3.99866C70.2114 3.99923 70.2137 3.99975 70.2153 4.00013ZM92.156 2.55327V2.5534V2.55388C92.1544 2.55959 92.1521 2.56659 92.1505 2.57393C92.1339 2.56272 92.12 2.55341 92.1084 2.54528L92.1012 2.54039C92.0945 2.53603 92.0884 2.532 92.0829 2.52818C92.0862 2.52744 92.089 2.52585 92.0917 2.52426C92.0967 2.52162 92.1017 2.51898 92.1067 2.52022C92.1244 2.5242 92.1427 2.53216 92.1582 2.54011C92.1599 2.54011 92.1582 2.54538 92.156 2.55327ZM60.419 10.795C60.4129 10.803 60.4073 10.8109 60.399 10.8189C60.3985 10.8179 60.3968 10.8168 60.3957 10.8156C60.3912 10.8116 60.3857 10.8065 60.3874 10.805C60.3935 10.797 60.399 10.789 60.4073 10.783L60.419 10.795ZM86.0165 0.770656V0.770679V0.770878L86.0171 0.770917C86.0199 0.772426 86.0237 0.774046 86.0276 0.775761C86.0232 0.777514 86.0199 0.779267 86.0165 0.78082V0.780842C86.0088 0.78456 86.0038 0.787106 85.9994 0.785703C85.9916 0.783051 85.9838 0.778634 85.9755 0.774213C85.9716 0.772004 85.9678 0.769791 85.9639 0.767805C85.9655 0.76715 85.9683 0.765852 85.9705 0.764476C85.9761 0.761663 85.9816 0.758512 85.9855 0.759849C85.9966 0.76138 86.0049 0.765291 86.0165 0.770656ZM83.8548 0.584099C83.8575 0.585586 83.8603 0.587184 83.8636 0.588782C83.8592 0.58978 83.8548 0.590907 83.8503 0.592V0.592005C83.8381 0.595256 83.8265 0.598224 83.816 0.596738C83.8104 0.595412 83.8054 0.590552 83.7999 0.585692C83.7977 0.583256 83.7949 0.580826 83.7921 0.578834C83.8005 0.578834 83.8082 0.578307 83.8154 0.577791C83.8226 0.577314 83.8293 0.576848 83.8359 0.576848C83.8415 0.576848 83.8476 0.580044 83.8548 0.584099ZM78.5554 0.317321C78.5609 0.317115 78.5681 0.316879 78.5759 0.316271C78.5676 0.32297 78.5615 0.328555 78.5559 0.333235C78.5476 0.34106 78.5415 0.346352 78.5338 0.350086C78.5299 0.352774 78.5232 0.35183 78.5166 0.350936C78.5138 0.350506 78.5105 0.350086 78.5083 0.350086C78.5099 0.347021 78.5116 0.343578 78.5133 0.340165C78.5171 0.332503 78.5205 0.324991 78.526 0.322239C78.5332 0.318095 78.5415 0.317787 78.5554 0.317321ZM62.4056 8.39807C62.4106 8.39141 62.4161 8.38364 62.4239 8.37421C62.425 8.37704 62.4272 8.37987 62.4289 8.38248C62.4322 8.3873 62.435 8.39152 62.4339 8.39413C62.4294 8.40206 62.4239 8.41005 62.4156 8.41399C62.4117 8.41532 62.4073 8.41488 62.4017 8.41449L62.4012 8.41443C62.4006 8.41432 62.3995 8.41427 62.399 8.41421C62.3973 8.4141 62.3956 8.41399 62.394 8.41399C62.3979 8.40927 62.4012 8.40411 62.4056 8.39807ZM79.2664 55.2116L79.2935 55.2138C79.2841 55.2136 79.2752 55.2129 79.2664 55.2116ZM84.737 55.0611C84.7143 55.0643 84.6921 55.0674 84.6694 55.0706C84.7625 55.0404 84.8439 55.007 84.9115 54.9701C85.019 54.9114 85.1094 54.864 85.1842 54.8264C84.9719 54.8967 84.6622 54.9697 84.3258 54.9654C83.9556 54.9608 83.7029 55.0432 83.4353 55.1305V55.1306C83.3183 55.1686 83.1986 55.2076 83.0651 55.2407C82.65 55.271 82.2388 55.2904 81.8326 55.2996C81.7312 55.2887 81.6232 55.2743 81.5085 55.2561C80.2395 55.0548 79.7213 55.1466 79.4598 55.1929C79.3888 55.2055 79.3367 55.2147 79.2935 55.2138C79.7296 55.2486 80.3043 55.2831 80.9233 55.3033C80.3835 55.2956 79.8532 55.2703 79.3323 55.2294C74.1127 54.7825 69.8008 52.5835 65.7233 50.0322C67.8147 51.7676 72.8282 54.7185 79.3323 55.2294C79.953 55.2825 80.5864 55.3109 81.2342 55.3121C81.5173 55.3189 81.8061 55.3223 82.092 55.321C82.3076 55.3332 82.4915 55.3282 82.6534 55.3122C83.4685 55.2891 84.2116 55.2192 84.6694 55.0706C84.6915 55.0675 84.7143 55.0643 84.737 55.0611ZM85.3238 54.9704C85.1266 55.0031 84.9309 55.0333 84.737 55.0611C84.9315 55.0334 85.1271 55.0032 85.3238 54.9704ZM82.6534 55.3122C82.4688 55.3174 82.281 55.3202 82.092 55.321C82.0244 55.3172 81.9535 55.3117 81.8792 55.3044C82.2627 55.2945 82.6517 55.2751 83.0451 55.2457C82.9277 55.274 82.7997 55.2977 82.6534 55.3122ZM87.8203 54.9654C82.8074 56.2151 79.2148 55.8556 75.1989 54.9238C75.3762 54.9368 75.6499 54.9904 76.0184 55.0625V55.0625C77.794 55.4098 81.7767 56.1891 87.8203 54.9654ZM75.5452 54.0064C78.9915 54.9813 81.6027 55.317 86.3468 54.1858C81.1882 55.3424 77.7712 54.5204 76.2479 54.154C75.9314 54.0779 75.697 54.0214 75.5452 54.0064ZM75.5762 55.1537C70.534 54.0288 67.48 52.0994 64.3041 49.4691C64.4599 49.5621 64.6843 49.7428 64.9874 49.9873C66.4061 51.1317 69.5559 53.6731 75.5762 55.1537Z" fill="white"/>
<path d="M5.10714 30.1886L1.25568 22.1809H0V34.0604H1.25568V24.7639L4.62702 31.6834H5.58727L8.94274 24.7639V34.0604H10.1985V22.1809H8.94274L5.10714 30.1886Z" fill="white"/>
<path d="M16.0072 22.1809L11.6914 34.0604H13.0157L13.8757 31.5937L14.3769 30.1358H14.3716L16.5242 23.9398L17.9118 27.912L18.6873 30.1358H18.6821L19.1569 31.5038L20.0486 34.0604H21.3728L17.0571 22.1809H16.0072Z" fill="white"/>
<path d="M30.2631 31.7204L24.1219 22.1809H22.8662V34.0604H24.1219V24.4892L30.2631 34.0604H31.5188V22.1809H30.2631V31.7204Z" fill="white"/>
<path d="M33.0276 23.3166H36.4148V34.0604H37.6546V23.3166H41.0418V22.1809H33.0276V23.3166Z" fill="white"/>
<path d="M49.8631 27.6215C50.3116 27.0721 50.5332 26.3697 50.5332 25.5192C50.5332 24.4522 50.2166 23.6282 49.5782 23.0472C48.9451 22.4715 48.0693 22.1809 46.9561 22.1809H42.5559V34.0604H43.8116V28.8469H46.6659L49.3461 34.0604H50.7917L47.9902 28.7254C48.7921 28.5406 49.4147 28.1708 49.8631 27.6215ZM43.8116 27.7588V23.3166H46.8558C47.6367 23.3166 48.2328 23.5014 48.6549 23.8765C49.0665 24.2515 49.2775 24.8061 49.2775 25.5403C49.2775 26.2534 49.0665 26.7975 48.6391 27.1831C48.2171 27.5687 47.6208 27.7588 46.8506 27.7588H43.8116Z" fill="white"/>
<path d="M70.5661 22.1809H66.5085V34.0604H70.5661C71.8268 34.0604 72.8292 33.6959 73.5679 32.967C74.3066 32.2381 74.6757 31.0866 74.6757 29.5178V26.7288C74.6757 25.1547 74.3066 24.0085 73.5679 23.2796C72.8243 22.5454 71.8268 22.1809 70.5661 22.1809ZM73.3989 29.5864C73.3989 31.8102 72.4602 32.9247 70.5816 32.9247H67.7803V23.3166H70.5816C71.4893 23.3166 72.1859 23.5913 72.6713 24.1406C73.1562 24.6899 73.4045 25.5667 73.4045 26.7764V29.5864H73.3989Z" fill="white"/>
<path d="M93.8175 23.1209C93.0788 22.392 92.0813 22.0276 90.8361 22.0276C89.5754 22.0276 88.573 22.392 87.8293 23.1209C87.0851 23.8499 86.7104 25.0014 86.7104 26.5702V29.6496C86.7104 31.2237 87.0801 32.3699 87.8188 33.0988C88.5569 33.8278 89.5594 34.1922 90.8206 34.1922C92.0708 34.1922 93.0683 33.8278 93.812 33.0988C94.5562 32.3699 94.9308 31.2184 94.9308 29.6496V26.5702C94.9308 25.0014 94.5612 23.8499 93.8175 23.1209ZM93.6751 29.7236C93.6751 31.9368 92.7302 33.046 90.8361 33.046C89.8974 33.046 89.1848 32.7819 88.6943 32.2537C88.2039 31.7255 87.9612 30.8804 87.9612 29.7236V26.623C87.9612 25.4081 88.2039 24.526 88.6838 23.9819C89.1637 23.4379 89.8813 23.1632 90.8312 23.1632C92.7197 23.1632 93.6695 24.3147 93.6695 26.623V29.7236H93.6751Z" fill="white"/>
<path d="M85.6076 34.0604L81.2918 22.1809H80.2423L75.9265 34.0604H77.2504L77.963 32.0215L78.612 30.1358L79.1079 28.699L80.7593 23.9398L82.9277 30.1358H82.9222L83.545 31.9317L84.2837 34.0604H85.6076Z" fill="white"/>
<path d="M61.28 34.0604L56.9643 22.1809H55.9147L51.5989 34.0604H52.9231L53.762 31.6517L54.2843 30.1358H54.2791L56.4317 23.9398L58.3995 29.5706L58.5946 30.1358L59.1172 31.6517L59.9562 34.0604H61.28Z" fill="white"/>
</svg>
