<svg width="20" height="20" viewBox="0 0 20 20" fill="none" xmlns="http://www.w3.org/2000/svg">
<path d="M15.2689 8.78234C15.2264 8.65129 15.113 8.55574 14.9766 8.5359L11.7621 8.06879L10.3245 5.15602C10.2636 5.03234 10.1377 4.9541 9.99995 4.9541C9.86213 4.9541 9.7362 5.03234 9.67526 5.15602L8.23764 8.06879L5.02315 8.5359C4.8869 8.5557 4.77346 8.65121 4.73085 8.78234C4.68831 8.91328 4.72385 9.05719 4.82253 9.15348L7.14862 11.4207L6.59948 14.6222C6.57612 14.758 6.63194 14.8953 6.74342 14.9763C6.85487 15.0573 7.0028 15.068 7.12471 15.0039L9.99999 13.4923L12.875 15.0038C12.928 15.0316 12.9859 15.0454 13.0435 15.0454C13.1185 15.0454 13.1933 15.0221 13.2564 14.9763C13.3678 14.8953 13.4236 14.758 13.4004 14.6222L13.1943 13.4204L13.0248 12.4322L12.8513 11.4207L15.1773 9.15348C15.276 9.05719 15.3115 8.91328 15.2689 8.78234Z" fill="#FFD960"/>
<g opacity="0.1">
<path opacity="0.1" d="M7.42421 14.738C7.31276 14.6569 7.25687 14.5196 7.28026 14.3838L7.82941 11.1823L5.50331 8.9151C5.40464 8.81881 5.36917 8.67494 5.41163 8.54396C5.4196 8.51951 5.43069 8.49682 5.44331 8.4751L5.02327 8.53615C4.88702 8.55596 4.77358 8.65146 4.73097 8.7826C4.68843 8.91353 4.72398 9.05744 4.82265 9.15373L7.14874 11.421L6.5996 14.6225C6.57624 14.7583 6.63206 14.8955 6.74355 14.9766C6.85499 15.0576 7.00292 15.0683 7.12483 15.0041L7.53116 14.7905C7.49347 14.7789 7.45714 14.7619 7.42421 14.738Z" fill="#231F20"/>
</g>
<path d="M1.8157 10.3159H0.315781C0.141406 10.3159 0 10.1745 0 10.0001C0 9.82569 0.141406 9.68433 0.315781 9.68433H1.8157C1.99012 9.68433 2.13148 9.82573 2.13148 10.0001C2.13148 10.1745 1.99012 10.3159 1.8157 10.3159Z" fill="#FFD960"/>
<path d="M19.6842 10.3159H18.1843C18.0099 10.3159 17.8685 10.1745 17.8685 10.0001C17.8685 9.82569 18.0099 9.68433 18.1843 9.68433H19.6842C19.8586 9.68433 20 9.82573 20 10.0001C20 10.1745 19.8586 10.3159 19.6842 10.3159Z" fill="#FFD960"/>
<path d="M3.15228 17.1635C3.07142 17.1635 2.99064 17.1327 2.92896 17.071C2.80564 16.9477 2.80564 16.7478 2.929 16.6245L3.98958 15.5639C4.1129 15.4406 4.31286 15.4406 4.43614 15.5639C4.55946 15.6872 4.55946 15.8872 4.43611 16.0105L3.37552 17.0711C3.31392 17.1327 3.23306 17.1635 3.15228 17.1635Z" fill="#FFD960"/>
<path d="M15.7871 4.52858C15.7062 4.52858 15.6254 4.49776 15.5637 4.43608C15.4404 4.31276 15.4404 4.1128 15.5637 3.98948L16.6244 2.92893C16.7477 2.80557 16.9477 2.80561 17.071 2.92893C17.1943 3.05225 17.1943 3.25221 17.071 3.37549L16.0104 4.43604C15.9487 4.49776 15.8679 4.52858 15.7871 4.52858Z" fill="#FFD960"/>
<path d="M10 19.9999C9.82559 19.9999 9.68422 19.8584 9.68422 19.6841V18.1842C9.68422 18.0098 9.82563 17.8684 10 17.8684C10.1744 17.8684 10.3158 18.0098 10.3158 18.1842V19.6841C10.3158 19.8584 10.1744 19.9999 10 19.9999Z" fill="#FFD960"/>
<path d="M10 2.13148C9.82559 2.13148 9.68422 1.99008 9.68422 1.8157V0.315781C9.68422 0.141367 9.82563 0 10 0C10.1744 0 10.3158 0.141406 10.3158 0.315781V1.8157C10.3158 1.99012 10.1744 2.13148 10 2.13148Z" fill="#FFD960"/>
<path d="M16.8477 17.1636C16.7669 17.1636 16.686 17.1328 16.6244 17.0711L15.5637 16.0105C15.4404 15.8872 15.4404 15.6872 15.5637 15.5639C15.6871 15.4406 15.887 15.4406 16.0103 15.5639L17.0709 16.6245C17.1942 16.7478 17.1942 16.9478 17.0709 17.071C17.0093 17.1328 16.9285 17.1636 16.8477 17.1636Z" fill="#FFD960"/>
<path d="M4.21288 4.52856C4.13202 4.52856 4.05124 4.49774 3.98956 4.43606L2.92897 3.37548C2.80565 3.25216 2.80565 3.0522 2.92901 2.92892C3.05233 2.8056 3.25225 2.8056 3.37557 2.92892L4.43616 3.98954C4.55948 4.11286 4.55948 4.31282 4.43612 4.43614C4.37452 4.49774 4.29366 4.52856 4.21288 4.52856Z" fill="#FFD960"/>
</svg>
