<svg width="28" height="28" viewBox="0 0 28 28" fill="none" xmlns="http://www.w3.org/2000/svg">
<path d="M14 28C21.732 28 28 21.732 28 14C28 6.26801 21.732 0 14 0C6.26801 0 0 6.26801 0 14C0 21.732 6.26801 28 14 28Z" fill="#EDBC04"/>
<path d="M14.1831 9.70336L16.9933 12.5141C17.0944 12.6152 17.2583 12.6152 17.3593 12.5141L18.8406 11.0325C18.9416 10.9315 18.9416 10.7676 18.8406 10.6666L14.183 6.00796C14.082 5.90685 13.918 5.90685 13.817 6.00796L9.16112 10.6649C9.06006 10.7659 9.06006 10.9298 9.16112 11.0309L10.6424 12.5124C10.7434 12.6135 10.9073 12.6135 11.0084 12.5124L13.817 9.70336C13.9182 9.60225 14.082 9.60225 14.1831 9.70336Z" fill="white"/>
<path d="M7.49068 12.3353L6.00938 13.8169C5.90833 13.918 5.90833 14.0818 6.00938 14.1829L7.49056 15.6644C7.59161 15.7655 7.75553 15.7655 7.85658 15.6644L9.33788 14.1828C9.43893 14.0818 9.43893 13.9179 9.33788 13.8169L7.85664 12.3354C7.75565 12.2343 7.5918 12.2343 7.49068 12.3353Z" fill="white"/>
<path d="M14.1829 21.9921L18.8413 17.3327C18.9423 17.2316 18.9423 17.0676 18.8411 16.9666L17.3591 15.4859C17.258 15.3849 17.0942 15.3849 16.9931 15.486L14.1829 18.2967C14.0818 18.3978 13.9179 18.3978 13.8169 18.2967L11.008 15.4874C10.907 15.3864 10.7434 15.3863 10.6423 15.4871L9.15882 16.9667C9.05752 17.0678 9.05739 17.2318 9.15857 17.3329L13.8169 21.9921C13.918 22.0932 14.0818 22.0932 14.1829 21.9921Z" fill="white"/>
<path d="M20.1435 12.336L18.6622 13.8177C18.5612 13.9187 18.5612 14.0826 18.6622 14.1836L20.1435 15.6652C20.2445 15.7663 20.4084 15.7663 20.5095 15.6652L21.9908 14.1836C22.0918 14.0825 22.0918 13.9186 21.9908 13.8176L20.5095 12.336C20.4084 12.235 20.2446 12.235 20.1435 12.336Z" fill="white"/>
<path d="M15.6925 13.817L14.1831 12.3073C14.0821 12.2062 13.9181 12.2062 13.8171 12.3073L12.3077 13.817C12.2067 13.918 12.2067 14.0819 12.3077 14.1829L13.8171 15.6927C13.9181 15.7939 14.0821 15.7939 14.1831 15.6927L15.6925 14.1829C15.7935 14.0818 15.7935 13.918 15.6925 13.817Z" fill="white"/>
</svg>
