<svg width="16" height="19" viewBox="0 0 16 19" fill="none" xmlns="http://www.w3.org/2000/svg">
<path fill-rule="evenodd" clip-rule="evenodd" d="M16.0001 2.82614V13.4948C16.0001 13.8851 15.6677 14.2014 15.2576 14.2014C14.8475 14.2014 14.5151 13.8851 14.5151 13.4948V2.82614C14.5151 2.04702 13.8489 1.41307 13.0302 1.41307H4.7887C4.3786 1.41307 4.04622 1.09679 4.04622 0.706536C4.04622 0.316285 4.3786 0 4.7887 0H13.0302C14.6678 0 16.0001 1.26776 16.0001 2.82614ZM10.0605 18.087H2.9699C1.33225 18.087 0 16.8192 0 15.2608V5.68725C0 4.12887 1.33225 2.86111 2.9699 2.86111H10.0605C11.6982 2.86111 13.0304 4.12887 13.0304 5.68725V15.2608C13.0304 16.8192 11.6982 18.087 10.0605 18.087ZM2.97106 4.27431C2.15231 4.27431 1.48611 4.90826 1.48611 5.68738V15.2609C1.48611 16.0401 2.15231 16.674 2.97106 16.674H10.0617C10.8804 16.674 11.5466 16.0401 11.5466 15.2609V5.68738C11.5466 4.90826 10.8804 4.27431 10.0617 4.27431H2.97106Z" fill="#6398FF"/>
</svg>
