<svg width="18" height="18" viewBox="0 0 18 18" fill="none" xmlns="http://www.w3.org/2000/svg">
<path d="M0 4C0 1.79086 1.79086 0 4 0H10C10.5523 0 11 0.447715 11 1C11 1.55228 10.5523 2 10 2H4C2.89543 2 2 2.89543 2 4V14C2 15.1046 2.89543 16 4 16H10C10.5523 16 11 16.4477 11 17C11 17.5523 10.5523 18 10 18H4C1.79086 18 0 16.2091 0 14V4Z" fill="#5599FF"/>
<path d="M12.2929 4.29289C12.6834 3.90237 13.3166 3.90237 13.7071 4.29289L17.7071 8.29289C18.0976 8.68342 18.0976 9.31658 17.7071 9.70711L13.7071 13.7071C13.3166 14.0976 12.6834 14.0976 12.2929 13.7071C11.9024 13.3166 11.9024 12.6834 12.2929 12.2929L14.5858 10H8C7.44772 10 7 9.55228 7 9C7 8.44772 7.44772 8 8 8H14.5858L12.2929 5.70711C11.9024 5.31658 11.9024 4.68342 12.2929 4.29289Z" fill="#5599FF"/>
</svg>
