<svg width="8" height="10" viewBox="0 0 8 10" fill="none" xmlns="http://www.w3.org/2000/svg">
<path d="M7.56916 6.17921L4.27499 9.06338C4.11749 9.20088 3.88332 9.20088 3.72582 9.06338L0.430824 6.17921C0.257491 6.02755 0.239991 5.76338 0.392491 5.59005L0.941657 4.96588C1.09416 4.79338 1.35666 4.77671 1.52916 4.92755L3.16666 6.36255V0.416713C3.16666 0.186712 3.35332 4.57764e-05 3.58332 4.57764e-05H4.41666C4.64666 4.57764e-05 4.83332 0.186712 4.83332 0.416713V6.36255L6.47082 4.92755C6.64416 4.77671 6.90666 4.79338 7.05832 4.96588L7.60749 5.59088C7.75999 5.76338 7.74249 6.02755 7.56916 6.17921Z" fill="#6398FF"/>
</svg>
