<svg width="28" height="28" viewBox="0 0 28 28" fill="none" xmlns="http://www.w3.org/2000/svg">
<path d="M14 28C21.732 28 28 21.732 28 14C28 6.26801 21.732 0 14 0C6.26801 0 0 6.26801 0 14C0 21.732 6.26801 28 14 28Z" fill="#6398FF"/>
<path d="M13.8359 6.68529L9.90404 13.0261C9.85658 13.1027 9.87971 13.2032 9.95589 13.2513L13.9669 15.7846C14.021 15.8188 14.0901 15.8183 14.1438 15.7835L18.046 13.2524C18.1212 13.2036 18.1433 13.1035 18.0956 13.0275L14.1143 6.68447C14.0498 6.58171 13.8999 6.58215 13.8359 6.68529Z" fill="white"/>
<path d="M14.1115 17.9783L17.558 15.8348C17.7074 15.7419 17.8784 15.9174 17.7817 16.0643L14.3092 21.339C14.2459 21.4352 14.1058 21.4379 14.0388 21.3444L10.2813 16.1013C10.177 15.9558 10.348 15.7722 10.5005 15.8659L13.939 17.9787C13.992 18.0113 14.0588 18.0112 14.1115 17.9783Z" fill="white"/>
</svg>
