<svg width="16" height="16" viewBox="0 0 16 16" fill="none" xmlns="http://www.w3.org/2000/svg">
<path d="M11.25 11.5L10.75 12L10.4012 12.1194L8.04813 12.9244L5.68281 13.7334L3.34188 14.5344L1.25 15.25H0.75V14.75L1.17781 13.7231L1.78594 12.2634L2.39406 10.8041L3.04688 9.2375L3.61031 7.88531L4.21844 6.42594L4.5 5.75L5 5.25L7.35 7.6L10.0497 10.2997L11.25 11.5Z" fill="#D69651"/>
<path d="M5.68273 13.7337L3.3418 14.5346L1.17773 13.7234L1.78586 12.2637L5.68273 13.7337Z" fill="#C78640"/>
<path d="M10.4012 12.1194L8.04811 12.9244L2.39404 10.8041L3.04686 9.23755L10.4012 12.1194Z" fill="#C78640"/>
<path d="M10.0497 10.2998L3.61035 7.8854L4.21848 6.42603L7.35004 7.60009L10.0497 10.2998Z" fill="#C78640"/>
<path d="M6.25 5L7.29539 3.95461C7.4264 3.8236 7.5 3.64591 7.5 3.46064C7.5 3.32393 7.45988 3.19021 7.38462 3.07608C7.30936 2.96194 7.20227 2.8724 7.07661 2.81855L6.42566 2.53957C5.98299 2.34985 5.59791 2.04721 5.30894 1.66192L5 1.25L5.75 0.75C6.07406 1.23609 6.5509 1.6003 7.10513 1.78504L7.40289 1.8843C7.72236 1.99079 8.00023 2.1951 8.19714 2.46829C8.39404 2.74148 8.5 3.0697 8.5 3.40646C8.5 3.78947 8.36299 4.15985 8.11373 4.45065L7 5.75L6.25 5Z" fill="#FFC431"/>
<path d="M9.75 3.75L9.5 2.25L11 2.75L9.75 3.75Z" fill="#D1E4FF"/>
<path d="M8.19336 1.24414L8.31486 0.75914L9.31472 1.00962L9.19322 1.49462L8.19336 1.24414Z" fill="#FB6A83"/>
<path d="M10.6113 1.03882L11.3613 0.538556L11.6388 0.954555L10.8888 1.45482L10.6113 1.03882Z" fill="#FFC431"/>
<path d="M4.7583 2.80811L5.2433 2.68661L5.49378 3.68646L5.00878 3.80796L4.7583 2.80811Z" fill="#6173E8"/>
<path d="M11 9.75L12.0454 8.70461C12.1764 8.5736 12.3541 8.5 12.5394 8.5C12.6761 8.5 12.8098 8.54012 12.9239 8.61538C13.0381 8.69064 13.1276 8.79773 13.1815 8.92339L13.4604 9.57434C13.6501 10.017 13.9528 10.4021 14.3381 10.6911L14.75 11L15.25 10.25C14.7639 9.92594 14.3997 9.4491 14.215 8.89487L14.1157 8.59711C14.0092 8.27764 13.8049 7.99977 13.5317 7.80286C13.2585 7.60596 12.9303 7.5 12.5935 7.5C12.2105 7.5 11.8402 7.63701 11.5494 7.88627L10.25 9L11 9.75Z" fill="#6173E8"/>
<path d="M13 6.5L14.5 6.75L14 5.25L13 6.5Z" fill="#FFC431"/>
<path d="M14.5093 7.55273L14.9943 7.43123L15.2447 8.4311L14.7598 8.5526L14.5093 7.55273Z" fill="#FB6A83"/>
<path d="M14.5464 5.11353L15.0467 4.36358L15.4627 4.64108L14.9624 5.39102L14.5464 5.11353Z" fill="#D1E4FF"/>
<path d="M12.1938 10.9993L12.3153 10.5143L13.3152 10.7647L13.1937 11.2498L12.1938 10.9993Z" fill="#6173E8"/>
<path d="M8 7L8.99567 5.83763C9.31896 5.46014 9.77361 5.2196 10.2676 5.16471L10.296 5.16156C10.7197 5.11513 11.1182 4.93726 11.4357 4.65288C11.7533 4.3685 11.9738 3.99188 12.0665 3.57583V3.57583C12.1219 3.32661 12.2442 3.09725 12.4204 2.91249C12.5966 2.72773 12.8199 2.59458 13.0662 2.52741L15 2L15.25 3L13.8981 3.30042C13.6311 3.35976 13.3872 3.49562 13.1962 3.69139C13.0052 3.88717 12.8753 4.13436 12.8226 4.40275L12.8155 4.43887C12.7268 4.89012 12.4952 5.30085 12.155 5.61033C11.8148 5.9198 11.3841 6.11159 10.9265 6.15735L10.897 6.16031C10.3228 6.21633 9.7939 6.49629 9.42473 6.93954C9.09707 7.33351 8.75 7.75 8.75 7.75L8 7Z" fill="#FB6A83"/>
</svg>
