<svg width="16" height="15" viewBox="0 0 16 15" fill="none" xmlns="http://www.w3.org/2000/svg">
<path d="M15.8205 4.19786L11.7801 0.177533C11.6055 0.00372009 11.3435 -0.0478426 11.1165 0.0467827C10.8891 0.141189 10.7411 0.363127 10.7411 0.609222V2.4342C8.73807 2.56657 7.73785 3.39704 7.55713 3.56251C5.04362 5.65449 5.32159 8.50709 5.40606 9.07462C5.40728 9.08275 5.4085 9.09106 5.4099 9.09919L5.49112 9.56619C5.53478 9.81716 5.7295 10.0143 5.97965 10.0608C6.017 10.0677 6.05437 10.0712 6.09134 10.0712C6.30272 10.0712 6.50231 9.96109 6.61356 9.77531L6.857 9.36963C8.18776 7.15643 9.83223 6.80009 10.7411 6.79702V8.69043C10.7411 8.93712 10.8899 9.15928 11.1181 9.25347C11.3464 9.34747 11.6085 9.29469 11.7823 9.12006L15.8228 5.05917C16.0599 4.8208 16.0589 4.43502 15.8205 4.19786ZM11.9596 7.21449V6.23358C11.9596 5.93449 11.7428 5.67968 11.4475 5.63218C10.7446 5.51908 8.53216 5.38283 6.6215 7.61268C6.74475 6.70262 7.15247 5.47949 8.34801 4.48961C8.36263 4.47742 8.36769 4.47336 8.3811 4.45995C8.39004 4.45164 9.29848 3.63458 11.2893 3.63458H11.3502C11.6867 3.63458 11.9594 3.36189 11.9594 3.02545V2.0746L14.5295 4.63158L11.9596 7.21449Z" fill="#6398FF"/>
<path d="M13.6041 10.6195C13.2677 10.6195 12.995 10.8922 12.995 11.2286V12.9545H1.21829V4.0205H4.87311C5.20955 4.0205 5.48224 3.74781 5.48224 3.41137C5.48224 3.07493 5.20955 2.80225 4.87311 2.80225H0.609127C0.272688 2.80221 0 3.0749 0 3.41134V13.5637C0 13.9001 0.272688 14.1728 0.609127 14.1728H13.6041C13.9405 14.1728 14.2132 13.9001 14.2132 13.5637V11.2286C14.2132 10.8922 13.9405 10.6195 13.6041 10.6195Z" fill="#6398FF"/>
</svg>
