<svg width="20" height="20" viewBox="0 0 20 20" fill="none" xmlns="http://www.w3.org/2000/svg">
<path d="M10.0003 7.50002C10.0003 7.03978 10.3734 6.66669 10.8337 6.66669C11.2939 6.66669 11.667 7.03978 11.667 7.50002V10.8334C11.667 11.2936 11.2939 11.6667 10.8337 11.6667H7.50033C7.04009 11.6667 6.66699 11.2936 6.66699 10.8334C6.66699 10.3731 7.04009 10 7.50033 10H10.0003V7.50002Z" fill="#9A9A9A"/>
<path fill-rule="evenodd" clip-rule="evenodd" d="M18.3337 10C18.3337 14.6024 14.6027 18.3334 10.0003 18.3334C5.39795 18.3334 1.66699 14.6024 1.66699 10C1.66699 5.39765 5.39795 1.66669 10.0003 1.66669C14.6027 1.66669 18.3337 5.39765 18.3337 10ZM16.667 10C16.667 13.6819 13.6822 16.6667 10.0003 16.6667C6.31843 16.6667 3.33366 13.6819 3.33366 10C3.33366 6.31812 6.31843 3.33335 10.0003 3.33335C13.6822 3.33335 16.667 6.31812 16.667 10Z" fill="#9A9A9A"/>
</svg>
