<svg width="16" height="16" viewBox="0 0 16 16" fill="none" xmlns="http://www.w3.org/2000/svg">
<path fill-rule="evenodd" clip-rule="evenodd" d="M7.33301 1.33331C10.6467 1.33331 13.333 4.0196 13.333 7.33331C13.333 8.74983 12.8421 10.0517 12.0212 11.0781L14.4711 13.5286C14.7314 13.7889 14.7314 14.211 14.4711 14.4714C14.2308 14.7117 13.8526 14.7302 13.5911 14.5268L13.5283 14.4714L11.0778 12.0215C10.0514 12.8424 8.74953 13.3333 7.33301 13.3333C4.0193 13.3333 1.33301 10.647 1.33301 7.33331C1.33301 4.0196 4.0193 1.33331 7.33301 1.33331ZM7.33301 2.66665C4.75568 2.66665 2.66634 4.75598 2.66634 7.33331C2.66634 9.91064 4.75568 12 7.33301 12C9.91034 12 11.9997 9.91064 11.9997 7.33331C11.9997 4.75598 9.91034 2.66665 7.33301 2.66665Z" fill="#9A9A9A"/>
</svg>
