<svg width="12" height="12" viewBox="0 0 12 12" fill="none" xmlns="http://www.w3.org/2000/svg">
<path fill-rule="evenodd" clip-rule="evenodd" d="M5.99996 11.8333C9.22162 11.8333 11.8333 9.22165 11.8333 5.99999C11.8333 2.77833 9.22162 0.166656 5.99996 0.166656C2.7783 0.166656 0.166626 2.77833 0.166626 5.99999C0.166626 9.22165 2.7783 11.8333 5.99996 11.8333ZM8.06236 3.9376C8.29016 3.70979 8.65951 3.70979 8.88732 3.9376C9.11512 4.1654 9.11512 4.53475 8.88732 4.76255L5.58966 8.06021L5.5875 8.06239C5.52858 8.1213 5.46019 8.16498 5.38723 8.19342C5.28388 8.23371 5.17136 8.24343 5.06359 8.22256C4.95328 8.2012 4.84795 8.14781 4.76253 8.06239L4.76031 8.06016L3.11262 6.41247C2.88482 6.18466 2.88482 5.81532 3.11262 5.58751C3.34043 5.3597 3.70977 5.3597 3.93758 5.58751L5.17501 6.82494L8.06236 3.9376Z" fill="#00AF12"/>
</svg>
