<svg width="20" height="20" viewBox="0 0 20 20" fill="none" xmlns="http://www.w3.org/2000/svg">
<path d="M5.83333 8.33333C5.83333 7.8731 6.20643 7.5 6.66667 7.5C7.1269 7.5 7.5 7.8731 7.5 8.33333C7.5 8.79357 7.1269 9.16667 6.66667 9.16667C6.20643 9.16667 5.83333 8.79357 5.83333 8.33333Z" fill="#9A9A9A"/>
<path d="M5.83333 11.6667C5.83333 11.2064 6.20643 10.8333 6.66667 10.8333C7.1269 10.8333 7.5 11.2064 7.5 11.6667C7.5 12.1269 7.1269 12.5 6.66667 12.5C6.20643 12.5 5.83333 12.1269 5.83333 11.6667Z" fill="#9A9A9A"/>
<path d="M10 7.5C9.53976 7.5 9.16667 7.8731 9.16667 8.33333C9.16667 8.79357 9.53976 9.16667 10 9.16667C10.4602 9.16667 10.8333 8.79357 10.8333 8.33333C10.8333 7.8731 10.4602 7.5 10 7.5Z" fill="#9A9A9A"/>
<path d="M12.5 8.33333C12.5 7.8731 12.8731 7.5 13.3333 7.5C13.7936 7.5 14.1667 7.8731 14.1667 8.33333C14.1667 8.79357 13.7936 9.16667 13.3333 9.16667C12.8731 9.16667 12.5 8.79357 12.5 8.33333Z" fill="#9A9A9A"/>
<path fill-rule="evenodd" clip-rule="evenodd" d="M12.5 3.33333C12.5 2.8731 12.8731 2.5 13.3333 2.5C13.7936 2.5 14.1667 2.8731 14.1667 3.33333V4.16667H15.8333C16.7538 4.16667 17.5 4.91286 17.5 5.83333V15.8333C17.5 16.7538 16.7538 17.5 15.8333 17.5H4.16667C3.24619 17.5 2.5 16.7538 2.5 15.8333V5.83333C2.5 4.91286 3.24619 4.16667 4.16667 4.16667H5.83333V3.33333C5.83333 2.8731 6.20643 2.5 6.66667 2.5C7.1269 2.5 7.5 2.8731 7.5 3.33333V4.16667H12.5V3.33333ZM4.16667 6.66667C4.16667 6.20643 4.53976 5.83333 5 5.83333H15C15.4602 5.83333 15.8333 6.20643 15.8333 6.66667V15C15.8333 15.4602 15.4602 15.8333 15 15.8333H5C4.53976 15.8333 4.16667 15.4602 4.16667 15V6.66667Z" fill="#9A9A9A"/>
</svg>
