<svg width="22" height="24" viewBox="0 0 22 24" fill="none" xmlns="http://www.w3.org/2000/svg">
<path d="M13.5781 24H4.625C2.55719 24 0.875 22.3178 0.875 20.25V7.54688C0.875 5.47906 2.55719 3.79688 4.625 3.79688H13.5781C15.6459 3.79688 17.3281 5.47906 17.3281 7.54688V20.25C17.3281 22.3178 15.6459 24 13.5781 24ZM4.625 5.67188C3.59119 5.67188 2.75 6.51306 2.75 7.54688V20.25C2.75 21.2838 3.59119 22.125 4.625 22.125H13.5781C14.6119 22.125 15.4531 21.2838 15.4531 20.25V7.54688C15.4531 6.51306 14.6119 5.67188 13.5781 5.67188H4.625ZM21.0781 17.9062V3.75C21.0781 1.68219 19.3959 0 17.3281 0H6.92188C6.40405 0 5.98438 0.419678 5.98438 0.9375C5.98438 1.45532 6.40405 1.875 6.92188 1.875H17.3281C18.3619 1.875 19.2031 2.71619 19.2031 3.75V17.9062C19.2031 18.4241 19.6228 18.8438 20.1406 18.8438C20.6584 18.8438 21.0781 18.4241 21.0781 17.9062Z" fill="#636363"/>
</svg>
