<svg width="16" height="16" viewBox="0 0 16 16" fill="none" xmlns="http://www.w3.org/2000/svg">
    <path d="M8 5.6C8 5.15817 8.35817 4.8 8.8 4.8C9.24183 4.8 9.6 5.15817 9.6 5.6V8.8C9.6 9.24183 9.24183 9.6 8.8 9.6H5.6C5.15817 9.6 4.8 9.24183 4.8 8.8C4.8 8.35817 5.15817 8 5.6 8H8V5.6Z" fill="#363636"/>
    <path fill-rule="evenodd" clip-rule="evenodd" d="M16 8C16 12.4183 12.4183 16 8 16C3.58172 16 0 12.4183 0 8C0 3.58172 3.58172 0 8 0C12.4183 0 16 3.58172 16 8ZM14.4 8C14.4 11.5346 11.5346 14.4 8 14.4C4.46538 14.4 1.6 11.5346 1.6 8C1.6 4.46538 4.46538 1.6 8 1.6C11.5346 1.6 14.4 4.46538 14.4 8Z" fill="#363636"/>
</svg>
