<svg width="19" height="13" viewBox="0 0 19 13" fill="none" xmlns="http://www.w3.org/2000/svg">
<rect x="7" width="12" height="1" rx="0.5" fill="white"/>
<rect x="7" y="12" width="12" height="1" rx="0.5" fill="white"/>
<circle cx="5.5" cy="0.5" r="0.5" fill="white"/>
<circle cx="5.5" cy="12.5" r="0.5" fill="white"/>
<path fill-rule="evenodd" clip-rule="evenodd" d="M2.75456 9.86079L0.121197 6.83608C-0.0403996 6.65047 -0.0403996 6.34953 0.121197 6.16392L2.75456 3.13921C2.91616 2.9536 3.17816 2.9536 3.33975 3.13921C3.50135 3.32482 3.50135 3.62576 3.33975 3.81137L1.41278 6.02471L12 6.02471V6.97529L1.41278 6.97529L3.33975 9.18863C3.50135 9.37424 3.50135 9.67518 3.33975 9.86079C3.17816 10.0464 2.91616 10.0464 2.75456 9.86079Z" fill="white"/>
<path d="M13 6H18.5C18.7761 6 19 6.22386 19 6.5C19 6.77614 18.7761 7 18.5 7H13V6Z" fill="white"/>
</svg>
