<svg width="16" height="16" viewBox="0 0 16 16" fill="none" xmlns="http://www.w3.org/2000/svg">
<path d="M13.0761 4.78333C13.1912 4.87491 13.2752 5.00369 13.3098 5.15141C13.3413 5.26995 13.3414 5.39566 13.3101 5.51424C13.2756 5.66262 13.1913 5.79196 13.0756 5.88378L11.2378 7.80091C10.9834 8.06631 10.5709 8.06631 10.3164 7.80091L10.2957 7.77928C10.0413 7.51388 10.0413 7.08359 10.2957 6.81819L11.053 6.02824L6.0002 6.02824C5.63201 6.02824 5.33353 5.7306 5.33353 5.36344L5.33353 5.30326C5.33353 4.93611 5.63201 4.63846 6.0002 4.63847L11.0531 4.63847L10.2957 3.8484C10.0413 3.583 10.0413 3.1527 10.2957 2.8873L10.3164 2.86568C10.5709 2.60028 10.9834 2.60028 11.2378 2.86568L13.0761 4.78333Z" fill="#363636"/>
<path d="M2.92422 11.2166C2.80914 11.125 2.72513 10.9962 2.69051 10.8485C2.65907 10.73 2.65898 10.6043 2.69027 10.4857C2.72477 10.3373 2.8091 10.208 2.92473 10.1161L4.76257 8.19901C5.01699 7.93361 5.42949 7.93361 5.68391 8.19901L5.70464 8.22063C5.95907 8.48603 5.95907 8.91633 5.70464 9.18173L4.94737 9.97167L10.0002 9.97167C10.3684 9.97167 10.6668 10.2693 10.6668 10.6365L10.6668 10.6967C10.6668 11.0638 10.3683 11.3615 10.0002 11.3615L4.94725 11.3615L5.70464 12.1515C5.95907 12.4169 5.95907 12.8472 5.70464 13.1126L5.68391 13.1342C5.42949 13.3996 5.01699 13.3996 4.76257 13.1342L2.92422 11.2166Z" fill="#363636"/>
</svg>
