<svg width="22" height="22" viewBox="0 0 22 22" fill="none" xmlns="http://www.w3.org/2000/svg">
<path d="M10.9998 7.33335C9.98732 7.33335 9.1665 6.51254 9.1665 5.50002C9.1665 4.4875 9.98732 3.66669 10.9998 3.66669C12.0124 3.66669 12.8332 4.4875 12.8332 5.50002C12.8332 6.51254 12.0124 7.33335 10.9998 7.33335Z" fill="#9A9A9A"/>
<path d="M10.9998 12.8334C9.98732 12.8334 9.1665 12.0125 9.1665 11C9.1665 9.9875 9.98732 9.16669 10.9998 9.16669C12.0124 9.16669 12.8332 9.9875 12.8332 11C12.8332 12.0125 12.0124 12.8334 10.9998 12.8334Z" fill="#9A9A9A"/>
<path d="M10.9998 18.3334C9.98732 18.3334 9.1665 17.5125 9.1665 16.5C9.1665 15.4875 9.98732 14.6667 10.9998 14.6667C12.0124 14.6667 12.8332 15.4875 12.8332 16.5C12.8332 17.5125 12.0124 18.3334 10.9998 18.3334Z" fill="#9A9A9A"/>
</svg>
