<svg width="12" height="12" viewBox="0 0 12 12" fill="none" xmlns="http://www.w3.org/2000/svg">
<path d="M11.0761 2.78333C11.1912 2.87491 11.2752 3.00369 11.3098 3.15141C11.3413 3.26995 11.3414 3.39566 11.3101 3.51424C11.2756 3.66262 11.1913 3.79196 11.0756 3.88378L9.23779 5.80091C8.98337 6.06631 8.57087 6.06631 8.31645 5.80091L8.29572 5.77928C8.04129 5.51388 8.0413 5.08359 8.29572 4.81819L9.05299 4.02824L4.0002 4.02824C3.63201 4.02824 3.33353 3.7306 3.33353 3.36344L3.33353 3.30326C3.33353 2.93611 3.63201 2.63846 4.0002 2.63847L9.05311 2.63847L8.29572 1.8484C8.0413 1.583 8.0413 1.1527 8.29572 0.887301L8.31645 0.865675C8.57087 0.600276 8.98337 0.600276 9.23779 0.865675L11.0761 2.78333Z" fill="#363636"/>
<path d="M0.924224 9.21659C0.809135 9.12501 0.725128 8.99623 0.690514 8.84851C0.659066 8.72997 0.658983 8.60426 0.690265 8.48568C0.724775 8.3373 0.809105 8.20796 0.924729 8.11614L2.76257 6.19901C3.01699 5.93361 3.42949 5.93361 3.68391 6.19901L3.70464 6.22063C3.95907 6.48603 3.95907 6.91633 3.70464 7.18173L2.94737 7.97167L8.00016 7.97167C8.36835 7.97167 8.66683 8.26932 8.66683 8.63647L8.66683 8.69665C8.66683 9.06381 8.36835 9.36145 8.00016 9.36145L2.94725 9.36145L3.70464 10.1515C3.95907 10.4169 3.95907 10.8472 3.70464 11.1126L3.68391 11.1342C3.42949 11.3996 3.01699 11.3996 2.76257 11.1342L0.924224 9.21659Z" fill="#363636"/>
</svg>
