<svg width="34" height="46" viewBox="0 0 34 46" fill="none" xmlns="http://www.w3.org/2000/svg">
<path d="M2.14078 12.6734L19.2826 33.5976L18.8164 33.9693L2.41475 16.9719L3.68156 24.6853L15.7858 36.2013L15.3919 36.5326L3.90349 28.3222L4.67547 34.6584L10.4096 37.6519C11.5203 38.0893 11.5681 39.6439 10.4871 40.1494L2.15884 45.0202L10.1016 45.3366L20.7246 39.9083L27.5514 36.419L27.5694 36.4105C28.2002 36.1344 29.4192 35.5823 30.4683 34.994C31.9635 34.153 32.9266 35.6492 32.9266 35.6492C33.6264 34.0893 31.4272 32.6865 29.2546 31.7659C29.2249 31.7532 29.1973 31.7415 29.1686 31.7309C29.9979 32.3818 30.7699 33.1007 31.0938 33.7187C31.0163 33.6709 28.5326 32.1333 25.5827 31.7117C24.5112 33.3661 22.0105 33.5127 20.7161 31.8848L0.10199 0L2.14078 12.6734Z" fill="#D01F36"/>
</svg>
