<svg width="159" height="32" viewBox="0 0 159 32" fill="none" xmlns="http://www.w3.org/2000/svg">
<path d="M51.0391 22.1758H58.5039V25H47.5234V7.9375H51.0391V22.1758Z" fill="#F3CB19"/>
<path d="M66.1445 25.2344C64.2852 25.2344 62.7695 24.6641 61.5977 23.5234C60.4336 22.3828 59.8516 20.8633 59.8516 18.9648V18.6367C59.8516 17.3633 60.0977 16.2266 60.5898 15.2266C61.082 14.2188 61.7773 13.4453 62.6758 12.9062C63.582 12.3594 64.6133 12.0859 65.7695 12.0859C67.5039 12.0859 68.8672 12.6328 69.8594 13.7266C70.8594 14.8203 71.3594 16.3711 71.3594 18.3789V19.7617H63.2852C63.3945 20.5898 63.7227 21.2539 64.2695 21.7539C64.8242 22.2539 65.5234 22.5039 66.3672 22.5039C67.6719 22.5039 68.6914 22.0312 69.4258 21.0859C68.918 21.8047 69.8945 24.2305 69.0273 24.6367C68.1602 25.0352 67.1992 25.2344 66.1445 25.2344ZM65.7578 14.8281C65.0859 14.8281 64.5391 15.0547 64.1172 15.5078C63.7031 15.9609 63.4375 16.6094 63.3203 17.4531H68.0312V17.1836C68.0156 16.4336 67.8125 15.8555 67.4219 15.4492C67.0312 15.0352 66.4766 14.8281 65.7578 14.8281Z" fill="#F3CB19"/>
<path d="M76.4688 12.3203L76.5742 13.7383C77.4727 12.6367 78.6875 12.0859 80.2188 12.0859C81.8516 12.0859 82.9727 12.7305 83.582 14.0195C84.4727 12.7305 85.7422 12.0859 87.3906 12.0859C88.7656 12.0859 89.7891 12.4883 90.4609 13.293C91.1328 14.0898 91.4688 15.293 91.4688 16.9023V25H88.0703V16.9141C88.0703 16.1953 87.9297 15.6719 87.6484 15.3438C87.3672 15.0078 86.8711 14.8398 86.1602 14.8398C85.1445 14.8398 84.4414 15.3242 84.0508 16.293L84.0625 25H80.6758V16.9258C80.6758 16.1914 80.5312 15.6602 80.2422 15.332C79.9531 15.0039 79.4609 14.8398 78.7656 14.8398C77.8047 14.8398 77.1094 15.2383 76.6797 16.0352V25H73.293V12.3203H76.4688Z" fill="#F3CB19"/>
<path d="M110.77 12.3203L110.875 13.7852C111.781 12.6523 112.996 12.0859 114.52 12.0859C115.863 12.0859 116.863 12.4805 117.52 13.2695C118.176 14.0586 118.512 15.2383 118.527 16.8086V25H115.141V16.8906C115.141 16.1719 114.984 15.6523 114.672 15.332C114.359 15.0039 113.84 14.8398 113.113 14.8398C112.16 14.8398 111.445 15.2461 110.969 16.0586V25H107.582V12.3203H110.77Z" fill="#F3CB19"/>
<path d="M128.453 25C128.297 24.6953 128.184 24.3164 128.113 23.8633C127.293 24.7773 126.227 25.2344 124.914 25.2344C123.672 25.2344 122.641 24.875 121.82 24.1562C121.008 23.4375 120.602 22.5312 120.602 21.4375C120.602 20.0938 121.098 19.0625 122.09 18.3438C123.09 17.625 124.531 17.2617 126.414 17.2539H127.973V16.5273C127.973 15.9414 127.82 15.4727 127.516 15.1211C127.219 14.7695 126.746 14.5938 126.098 14.5938C125.527 14.5938 125.078 14.7305 124.75 15.0039C124.43 15.2773 124.27 15.6523 124.27 16.1289C124.27 15.3945 121.109 14.7148 121.562 14.0898C122.016 13.4648 122.656 12.9766 123.484 12.625C124.312 12.2656 125.242 12.0859 126.273 12.0859C127.836 12.0859 129.074 12.4805 129.988 13.2695C130.91 14.0508 131.371 15.1523 131.371 16.5742V22.0703C131.379 23.2734 131.547 24.1836 131.875 24.8008V25H128.453ZM125.652 22.6445C126.152 22.6445 126.613 22.5352 127.035 22.3164C127.457 22.0898 127.77 21.7891 127.973 21.4141V19.2344H126.707C125.012 19.2344 124.109 19.8203 124 20.9922L123.988 21.1914C123.988 21.6133 124.137 21.9609 124.434 22.2344C124.73 22.5078 125.137 22.6445 125.652 22.6445Z" fill="#F3CB19"/>
<path d="M133.445 18.5664C133.445 16.5898 133.887 15.0156 134.77 13.8438C135.66 12.6719 136.875 12.0859 138.414 12.0859C139.648 12.0859 140.668 12.5469 141.473 13.4688V7H144.871V25H141.812L141.648 23.6523C140.805 24.707 139.719 25.2344 138.391 25.2344C136.898 25.2344 135.699 24.6484 134.793 23.4766C133.895 22.2969 133.445 20.6602 133.445 18.5664ZM136.832 18.8125C136.832 20 137.039 20.9102 137.453 21.543C137.867 22.1758 138.469 22.4922 139.258 22.4922C140.305 22.4922 141.043 22.0508 141.473 21.168V16.1641C141.051 15.2812 140.32 14.8398 139.281 14.8398C137.648 14.8398 136.832 16.1641 136.832 18.8125Z" fill="#F3CB19"/>
<path d="M153.332 25.2344C151.473 25.2344 149.957 24.6641 148.785 23.5234C147.621 22.3828 147.039 20.8633 147.039 18.9648V18.6367C147.039 17.3633 147.285 16.2266 147.777 15.2266C148.27 14.2188 148.965 13.4453 149.863 12.9062C150.77 12.3594 151.801 12.0859 152.957 12.0859C154.691 12.0859 156.055 12.6328 157.047 13.7266C158.047 14.8203 158.547 16.3711 158.547 18.3789V19.7617H150.473C150.582 20.5898 150.91 21.2539 151.457 21.7539C152.012 22.2539 152.711 22.5039 153.555 22.5039C154.859 22.5039 155.879 22.0312 156.613 21.0859C156.105 21.8047 157.082 24.2305 156.215 24.6367C155.348 25.0352 154.387 25.2344 153.332 25.2344ZM152.945 14.8281C152.273 14.8281 151.727 15.0547 151.305 15.5078C150.891 15.9609 150.625 16.6094 150.508 17.4531H155.219V17.1836C155.203 16.4336 155 15.8555 154.609 15.4492C154.219 15.0352 153.664 14.8281 152.945 14.8281Z" fill="#F3CB19"/>
<rect width="32" height="32" rx="10" fill="#F3CB19"/>
<g clip-path="url(#clip0)">
<path d="M23.9737 16.3793C23.9737 23.2807 18.159 24.1786 18.159 25.9814C18.159 27.7807 16.317 27.7807 16.317 27.7807C16.317 27.7807 14.4749 27.7807 14.475 25.9814C14.475 24.1786 8.66024 23.2807 8.66024 16.3793C8.66024 9.47792 14.475 8.58005 14.475 6.77723C14.475 4.97795 16.317 4.97792 16.317 4.97792C16.317 4.97792 18.159 4.97792 18.159 6.77723C18.1591 8.58005 23.9737 9.47792 23.9737 16.3793Z" fill="white"/>
<path d="M12.5617 10.7852C12.558 10.7889 12.5543 10.7926 12.5503 10.7961C12.4447 10.891 12.3402 10.9895 12.2371 11.0916C12.1343 11.1944 12.0332 11.298 11.9341 11.4074C11.8627 11.4872 11.7541 11.5226 11.6495 11.5003C11.5448 11.4781 11.4601 11.4014 11.4275 11.2994C11.3949 11.1975 11.4194 11.0859 11.4917 11.0069C11.5984 10.8895 11.7075 10.7779 11.8177 10.6673C11.9275 10.5587 12.0385 10.4543 12.1508 10.3528C12.2709 10.2446 12.4553 10.2517 12.5667 10.3689C12.678 10.4861 12.6758 10.6707 12.5617 10.7852Z" fill="#F3CB19"/>
<path d="M10.4271 19.1572C10.3928 19.1916 10.3504 19.2171 10.3038 19.2311C10.2282 19.2544 10.1464 19.2466 10.0765 19.2095C10.0067 19.1724 9.95442 19.109 9.93137 19.0334C9.87204 18.8398 9.81953 18.6406 9.77545 18.4412C9.72952 18.2346 9.69058 18.0198 9.65969 17.8035C9.62817 17.5842 9.60387 17.3531 9.5876 17.1168C9.57114 16.8783 9.56288 16.6299 9.56288 16.3791C9.56288 16.1282 9.57112 15.8798 9.5876 15.6413C9.60387 15.4051 9.62817 15.174 9.65969 14.9542C9.69058 14.7383 9.7295 14.5235 9.77566 14.3163C9.81955 14.1175 9.87207 13.9184 9.93137 13.7248C9.98883 13.5371 10.0537 13.3528 10.1239 13.1767C10.1931 13.002 10.2687 12.8317 10.3486 12.6698C10.4267 12.5114 10.5122 12.3538 10.6024 12.2022C10.6568 12.1106 10.7559 12.055 10.8625 12.0563C10.969 12.0576 11.0667 12.1156 11.1189 12.2085C11.171 12.3014 11.1697 12.415 11.1153 12.5067C11.0331 12.6453 10.9551 12.7888 10.884 12.9336C10.8109 13.0813 10.7417 13.2374 10.678 13.3971C10.614 13.5588 10.5544 13.7279 10.5015 13.8998C10.4469 14.078 10.3987 14.2617 10.358 14.4454C10.3151 14.6382 10.2791 14.8374 10.2505 15.0386C10.2208 15.2442 10.198 15.4607 10.1829 15.6821C10.1673 15.9074 10.1594 16.1418 10.1594 16.3791C10.1595 16.6164 10.1673 16.8508 10.1829 17.0761C10.198 17.2975 10.2208 17.514 10.2505 17.7192C10.2791 17.9208 10.3152 18.1199 10.3578 18.3121C10.3988 18.4965 10.447 18.6802 10.5016 18.8588C10.534 18.9643 10.5054 19.0792 10.4271 19.1572Z" fill="#F3CB19"/>
<path d="M20.1208 22.2909C20.0929 22.3181 20.0599 22.3396 20.0238 22.3541C19.9875 22.3689 19.949 22.3775 19.9099 22.3794C19.789 22.3794 19.6804 22.3059 19.6355 22.1937C19.6192 22.1579 19.6106 22.1191 19.6102 22.0798C19.617 21.9172 19.7472 21.7871 19.9097 21.7803C19.949 21.7807 19.9878 21.7893 20.0236 21.8056C20.0972 21.8342 20.1554 21.8924 20.184 21.9661C20.1988 22.0023 20.2074 22.0408 20.2094 22.08C20.2092 22.1593 20.1773 22.2352 20.1208 22.2909Z" fill="#F3CB19"/>
<path d="M20.7216 21.0908C20.6931 21.1187 20.6596 21.1409 20.6227 21.1563C20.5867 21.1717 20.5477 21.1789 20.5086 21.1773C20.4302 21.1775 20.355 21.1463 20.2998 21.0908C20.2713 21.063 20.2484 21.0301 20.2324 20.9938C20.2181 20.9575 20.211 20.9188 20.2112 20.8798C20.2108 20.8409 20.2181 20.8022 20.2324 20.7659C20.2635 20.6929 20.3217 20.6347 20.3947 20.6036C20.431 20.5893 20.4696 20.5821 20.5086 20.5824C20.5477 20.5809 20.5866 20.5882 20.6226 20.6036C20.6595 20.6187 20.6932 20.6409 20.7216 20.6689C20.7773 20.7248 20.8078 20.801 20.8061 20.8798C20.8083 20.9588 20.7777 21.0352 20.7216 21.0908Z" fill="#F3CB19"/>
<path d="M19.5196 21.3902C19.464 21.4469 19.388 21.4788 19.3087 21.4788C19.2294 21.4788 19.1533 21.4469 19.0978 21.3902C19.028 21.3197 18.9978 21.2191 19.0173 21.1219C19.0368 21.0246 19.1033 20.9434 19.1948 20.9052C19.2313 20.8891 19.2709 20.8811 19.3108 20.8819C19.3492 20.8822 19.3872 20.8902 19.4226 20.9052C19.4588 20.9197 19.4917 20.9412 19.5196 20.9684C19.5481 20.9961 19.571 21.029 19.587 21.0654C19.616 21.1394 19.6152 21.2218 19.5849 21.2952C19.5697 21.331 19.5475 21.3632 19.5196 21.3902Z" fill="#F3CB19"/>
<path d="M18.9203 22.5924C18.8925 22.6198 18.8595 22.6413 18.8233 22.6556C18.7871 22.6699 18.7485 22.6771 18.7096 22.6767C18.6299 22.6777 18.553 22.6465 18.4964 22.5903C18.4695 22.5623 18.448 22.5293 18.4332 22.4933C18.4177 22.4573 18.4106 22.4184 18.4122 22.3792C18.4121 22.2799 18.4621 22.1873 18.545 22.1327C18.5604 22.1223 18.5766 22.1131 18.5935 22.1053C18.6147 22.0968 18.6316 22.0927 18.6505 22.0861C18.67 22.0836 18.6897 22.0823 18.7094 22.082C18.7485 22.0817 18.7872 22.0888 18.8235 22.103C18.8591 22.1185 18.8913 22.1407 18.9183 22.1685C18.9471 22.1961 18.9701 22.229 18.986 22.2655C19.0002 22.3018 19.0072 22.3405 19.0068 22.3794C19.0073 22.4183 19.0001 22.457 18.9858 22.4931C18.9707 22.5302 18.9484 22.5639 18.9203 22.5924Z" fill="#F3CB19"/>
<path d="M19.5216 20.1902C19.4933 20.2184 19.4596 20.2405 19.4226 20.2555C19.3866 20.271 19.3477 20.2783 19.3086 20.2768C19.2302 20.2774 19.1548 20.2462 19.0998 20.1902C19.0713 20.1625 19.0485 20.1296 19.0324 20.0932C18.9934 20.0012 19.0035 19.8957 19.0592 19.8128C19.1149 19.7298 19.2087 19.6806 19.3087 19.6819C19.388 19.6804 19.4645 19.7113 19.5206 19.7674C19.5767 19.8235 19.6076 19.9 19.6061 19.9793C19.6076 20.0184 19.6004 20.0573 19.5849 20.0932C19.5703 20.1294 19.5489 20.1624 19.5216 20.1902Z" fill="#F3CB19"/>
<path d="M20.7195 19.8908C20.6647 19.9468 20.5893 19.978 20.5109 19.9771C20.4212 19.9781 20.3359 19.9384 20.2789 19.8692C20.2219 19.7999 20.1994 19.7085 20.2176 19.6208C20.22 19.6017 20.2257 19.5831 20.2345 19.566C20.2407 19.547 20.25 19.5291 20.2621 19.5133C20.2828 19.4799 20.3109 19.4517 20.3443 19.4311C20.3604 19.4193 20.3782 19.41 20.397 19.4035C20.4144 19.3953 20.4329 19.3897 20.4518 19.3866L20.5087 19.3804C20.5484 19.3813 20.5877 19.3892 20.6248 19.4035C20.7169 19.4419 20.7836 19.5238 20.8027 19.6218C20.8217 19.7197 20.7905 19.8207 20.7195 19.8908Z" fill="#F3CB19"/>
</g>
<g clip-path="url(#clip1)">
<path d="M105.697 18.7427C105.697 24.1109 101.174 24.8093 101.174 26.2116C101.174 27.6111 99.7415 27.6111 99.7415 27.6111C99.7415 27.6111 98.3087 27.6111 98.3087 26.2116C98.3087 24.8093 93.7858 24.1109 93.7858 18.7427C93.7858 13.3746 98.3087 12.6762 98.3087 11.2739C98.3087 9.87435 99.7415 9.87433 99.7415 9.87433C99.7415 9.87433 101.174 9.87433 101.174 11.2739C101.174 12.6762 105.697 13.3746 105.697 18.7427Z" fill="#F3CB19"/>
<path d="M96.8206 14.3913C96.8177 14.3942 96.8148 14.3971 96.8118 14.3998C96.7296 14.4737 96.6484 14.5503 96.5681 14.6297C96.4881 14.7096 96.4095 14.7902 96.3324 14.8753C96.2769 14.9374 96.1925 14.965 96.111 14.9476C96.0296 14.9303 95.9637 14.8706 95.9384 14.7913C95.913 14.712 95.9321 14.6252 95.9883 14.5638C96.0713 14.4725 96.1562 14.3857 96.2419 14.2996C96.3273 14.2152 96.4137 14.134 96.501 14.055C96.5944 13.9708 96.7379 13.9764 96.8245 14.0675C96.9111 14.1587 96.9093 14.3023 96.8206 14.3913Z" fill="white"/>
<path d="M95.1603 20.9034C95.1336 20.9302 95.1006 20.95 95.0643 20.9609C95.0055 20.979 94.9419 20.9729 94.8876 20.9441C94.8333 20.9152 94.7926 20.8659 94.7747 20.8071C94.7285 20.6565 94.6877 20.5016 94.6534 20.3465C94.6177 20.1858 94.5874 20.0187 94.5634 19.8505C94.5389 19.6798 94.52 19.5001 94.5073 19.3163C94.4945 19.1308 94.4881 18.9376 94.4881 18.7425C94.4881 18.5473 94.4945 18.3541 94.5073 18.1686C94.52 17.9849 94.5389 17.8051 94.5634 17.6341C94.5874 17.4662 94.6177 17.2991 94.6536 17.138C94.6877 16.9834 94.7286 16.8285 94.7747 16.6779C94.8194 16.5319 94.8699 16.3885 94.9245 16.2515C94.9783 16.1157 95.0371 15.9832 95.0993 15.8573C95.16 15.7341 95.2265 15.6115 95.2966 15.4936C95.3389 15.4223 95.416 15.3791 95.4989 15.38C95.5818 15.381 95.6578 15.4262 95.6984 15.4984C95.7389 15.5707 95.7379 15.6591 95.6956 15.7304C95.6317 15.8382 95.5709 15.9499 95.5157 16.0625C95.4588 16.1774 95.405 16.2988 95.3555 16.423C95.3056 16.5487 95.2593 16.6803 95.2182 16.814C95.1757 16.9526 95.1382 17.0955 95.1065 17.2384C95.0732 17.3884 95.0452 17.5433 95.0229 17.6998C94.9998 17.8597 94.9821 18.0281 94.9704 18.2003C94.9582 18.3756 94.9521 18.5579 94.9521 18.7425C94.9521 18.9271 94.9582 19.1094 94.9704 19.2847C94.9821 19.4569 94.9998 19.6253 95.0229 19.7848C95.0452 19.9417 95.0732 20.0966 95.1064 20.2461C95.1383 20.3895 95.1758 20.5324 95.2182 20.6713C95.2434 20.7533 95.2212 20.8427 95.1603 20.9034Z" fill="white"/>
<path d="M102.699 23.3406C102.678 23.3617 102.652 23.3784 102.624 23.3896C102.596 23.4011 102.566 23.4078 102.536 23.4093C102.442 23.4093 102.357 23.3522 102.323 23.2651C102.31 23.2374 102.303 23.2072 102.303 23.1767C102.308 23.0506 102.409 22.9495 102.535 22.9443C102.566 22.9446 102.596 22.9512 102.624 22.9639C102.681 22.9861 102.726 23.0313 102.748 23.0885C102.76 23.1166 102.766 23.1465 102.768 23.1769C102.768 23.2384 102.743 23.2974 102.699 23.3406Z" fill="white"/>
<path d="M103.167 22.407C103.145 22.4287 103.119 22.446 103.09 22.4579C103.062 22.4699 103.032 22.4754 103.001 22.4742C102.941 22.4743 102.882 22.4502 102.839 22.407C102.817 22.3855 102.799 22.36 102.787 22.3317C102.776 22.3036 102.77 22.2736 102.771 22.2433C102.77 22.2131 102.776 22.183 102.787 22.1549C102.811 22.0982 102.856 22.053 102.913 22.0289C102.941 22.0178 102.971 22.0122 103.001 22.0124C103.032 22.0113 103.062 22.0169 103.09 22.0289C103.118 22.0407 103.145 22.0579 103.167 22.0796C103.21 22.123 103.234 22.1821 103.232 22.2433C103.234 22.3046 103.21 22.3639 103.167 22.407Z" fill="white"/>
<path d="M102.232 22.64C102.189 22.6839 102.13 22.7087 102.068 22.7087C102.006 22.7087 101.947 22.6839 101.904 22.64C101.85 22.5853 101.827 22.5072 101.842 22.4317C101.857 22.3562 101.909 22.2932 101.98 22.2635C102.008 22.251 102.039 22.2448 102.07 22.2454C102.099 22.2457 102.129 22.2518 102.156 22.2635C102.185 22.2748 102.21 22.2914 102.232 22.3125C102.254 22.3341 102.272 22.3596 102.284 22.3879C102.307 22.4453 102.306 22.5092 102.282 22.5663C102.271 22.594 102.253 22.619 102.232 22.64Z" fill="white"/>
<path d="M101.766 23.5751C101.744 23.5963 101.718 23.613 101.69 23.6242C101.662 23.6353 101.632 23.6408 101.602 23.6405C101.54 23.6412 101.481 23.6171 101.437 23.5735C101.416 23.5517 101.399 23.5261 101.388 23.4982C101.376 23.4702 101.37 23.44 101.371 23.4096C101.371 23.3325 101.41 23.2606 101.474 23.2182C101.486 23.2102 101.499 23.2031 101.512 23.197C101.528 23.1904 101.542 23.1873 101.556 23.1821C101.571 23.1802 101.587 23.1791 101.602 23.1789C101.632 23.1787 101.662 23.1842 101.691 23.1952C101.718 23.2072 101.743 23.2245 101.764 23.2461C101.786 23.2674 101.804 23.293 101.817 23.3214C101.828 23.3495 101.833 23.3795 101.833 23.4098C101.833 23.44 101.828 23.4699 101.816 23.498C101.805 23.5268 101.787 23.553 101.766 23.5751Z" fill="white"/>
<path d="M102.233 21.7066C102.211 21.7284 102.185 21.7456 102.156 21.7573C102.129 21.7693 102.098 21.7749 102.068 21.7737C102.007 21.7742 101.949 21.75 101.906 21.7066C101.884 21.6851 101.866 21.6595 101.854 21.6313C101.823 21.5599 101.831 21.478 101.874 21.4136C101.918 21.3492 101.99 21.311 102.068 21.312C102.13 21.3109 102.189 21.3348 102.233 21.3784C102.276 21.4219 102.3 21.4813 102.299 21.5429C102.3 21.5732 102.294 21.6034 102.282 21.6313C102.271 21.6594 102.254 21.6849 102.233 21.7066Z" fill="white"/>
<path d="M103.165 21.4737C103.123 21.5172 103.064 21.5413 103.003 21.5406C102.934 21.5415 102.867 21.5107 102.823 21.4569C102.779 21.4032 102.761 21.3322 102.776 21.2641C102.777 21.2492 102.782 21.2349 102.789 21.2216C102.793 21.2068 102.801 21.193 102.81 21.1806C102.826 21.1547 102.848 21.1329 102.874 21.1168C102.886 21.1077 102.9 21.1005 102.915 21.0954C102.928 21.0891 102.943 21.0847 102.957 21.0823L103.001 21.0775C103.032 21.0782 103.063 21.0843 103.092 21.0954C103.163 21.1253 103.215 21.1889 103.23 21.2649C103.244 21.3409 103.22 21.4192 103.165 21.4737Z" fill="white"/>
</g>
<defs>
<clipPath id="clip0">
<rect width="17.2999" height="17.2999" fill="white" transform="translate(4.08508 16.379) rotate(-45)"/>
</clipPath>
<clipPath id="clip1">
<rect width="13.4564" height="13.4564" fill="white" transform="translate(90.2273 18.7424) rotate(-45)"/>
</clipPath>
</defs>
</svg>
