<svg width="20" height="20" viewBox="0 0 20 20" fill="none" xmlns="http://www.w3.org/2000/svg">
<path d="M10 0C4.48639 0 0 4.48639 0 10C0 15.5136 4.48639 20 10 20C15.5136 20 20 15.5136 20 10C20 4.48639 15.5136 0 10 0ZM10 15.8337C9.5401 15.8337 9.16626 15.4611 9.16626 15C9.16626 14.5401 9.53888 14.1663 10 14.1663C10.4599 14.1663 10.8337 14.5389 10.8337 15C10.8337 15.4599 10.4599 15.8337 10 15.8337ZM10.8337 11.6663C10.8337 12.1274 10.4599 12.5 10 12.5C9.5401 12.5 9.16626 12.1262 9.16626 11.6663V5C9.16626 4.5401 9.5401 4.16626 10 4.16626C10.4599 4.16626 10.8337 4.5401 10.8337 5V11.6663Z" fill="#D01F36"/>
</svg>
