<svg width="16" height="16" viewBox="0 0 16 16" fill="none" xmlns="http://www.w3.org/2000/svg">
<path d="M2.89656 6.75001C3.09125 6.94501 3.40875 6.94501 3.60344 6.75001L4.25 6.10345C4.445 5.90876 4.445 5.59126 4.25 5.39657L3.60344 4.75001H12.5C13.3272 4.75001 14 5.42282 14 6.25001C14 6.66345 14.3366 7.00001 14.75 7.00001H15.25C15.6634 7.00001 16 6.66345 16 6.25001C16 4.32001 14.43 2.75001 12.5 2.75001H3.60344L4.25 2.10345C4.445 1.90876 4.445 1.59126 4.25 1.39657L3.60344 0.75001C3.40875 0.55501 3.09125 0.55501 2.89656 0.75001L0.073125 3.57313C-0.024375 3.67095 -0.024375 3.82907 0.073125 3.92688L2.89656 6.75001Z" fill="#6398FF"/>
<path d="M13.1034 9.25C12.9087 9.055 12.5916 9.055 12.3966 9.25L11.75 9.89656C11.5546 10.0919 11.5543 10.4078 11.75 10.6034L12.3966 11.25H3.5C2.67281 11.25 2 10.5772 2 9.75C2 9.33656 1.66344 9 1.25 9H0.75C0.336563 9 0 9.33656 0 9.75C0 11.68 1.57 13.25 3.5 13.25H12.3966L11.75 13.8966C11.5546 14.0919 11.5543 14.4078 11.75 14.6034L12.3966 15.25C12.5916 15.445 12.9084 15.445 13.1034 15.25L15.9269 12.4269C16.0244 12.3291 16.0244 12.1709 15.9269 12.0731L13.1034 9.25Z" fill="#6398FF"/>
</svg>
