<svg width="20" height="20" viewBox="0 0 20 20" fill="none" xmlns="http://www.w3.org/2000/svg">
<path fill-rule="evenodd" clip-rule="evenodd" d="M10 20C15.5228 20 20 15.5228 20 10C20 4.47715 15.5228 0 10 0C4.47715 0 0 4.47715 0 10C0 15.5228 4.47715 20 10 20ZM13.5355 6.46447C13.9261 6.07394 14.5592 6.07394 14.9498 6.46447C15.3403 6.85499 15.3403 7.48816 14.9498 7.87868L9.29662 13.5318L9.29292 13.5355C9.19191 13.6365 9.07467 13.7114 8.9496 13.7602C8.77243 13.8292 8.57955 13.8459 8.3948 13.8101C8.2057 13.7735 8.02513 13.682 7.87868 13.5355L7.87489 13.5317L5.05028 10.7071C4.65975 10.3166 4.65975 9.68342 5.05028 9.29289C5.4408 8.90237 6.07397 8.90237 6.46449 9.29289L8.5858 11.4142L13.5355 6.46447Z" fill="#00AF12"/>
</svg>
