<svg width="30" height="30" viewBox="0 0 30 30" fill="none" xmlns="http://www.w3.org/2000/svg">
<path d="M6.25 3.75C4.86929 3.75 3.75 4.86929 3.75 6.25V12.5C3.75 13.8807 4.86929 15 6.25 15H12.5C13.8807 15 15 13.8807 15 12.5V6.25C15 4.86929 13.8807 3.75 12.5 3.75H6.25Z" fill="#FFCC00"/>
<path d="M20 7.5C18.6193 7.5 17.5 8.61929 17.5 10V13.75C17.5 15.1307 18.6193 16.25 20 16.25H23.75C25.1307 16.25 26.25 15.1307 26.25 13.75V10C26.25 8.61929 25.1307 7.5 23.75 7.5H20Z" fill="#FFCC00"/>
<path d="M20 17.5C18.6193 17.5 17.5 18.6193 17.5 20V23.75C17.5 25.1307 18.6193 26.25 20 26.25H23.75C25.1307 26.25 26.25 25.1307 26.25 23.75V20C26.25 18.6193 25.1307 17.5 23.75 17.5H20Z" fill="#FFCC00"/>
<path d="M6.25 20C6.25 18.6193 7.36929 17.5 8.75 17.5H12.5C13.8807 17.5 15 18.6193 15 20V23.75C15 25.1307 13.8807 26.25 12.5 26.25H8.75C7.36929 26.25 6.25 25.1307 6.25 23.75V20Z" fill="#FFCC00"/>
</svg>
