<svg width="30" height="31" viewBox="0 0 30 31" fill="none" xmlns="http://www.w3.org/2000/svg">
<path d="M8.75 12.8887C8.75 12.1983 9.30964 11.6387 10 11.6387C10.6904 11.6387 11.25 12.1983 11.25 12.8887C11.25 13.579 10.6904 14.1387 10 14.1387C9.30964 14.1387 8.75 13.579 8.75 12.8887Z" fill="#9A9A9A"/>
<path d="M8.75 17.8887C8.75 17.1983 9.30964 16.6387 10 16.6387C10.6904 16.6387 11.25 17.1983 11.25 17.8887C11.25 18.579 10.6904 19.1387 10 19.1387C9.30964 19.1387 8.75 18.579 8.75 17.8887Z" fill="#9A9A9A"/>
<path d="M15 11.6387C14.3096 11.6387 13.75 12.1983 13.75 12.8887C13.75 13.579 14.3096 14.1387 15 14.1387C15.6904 14.1387 16.25 13.579 16.25 12.8887C16.25 12.1983 15.6904 11.6387 15 11.6387Z" fill="#9A9A9A"/>
<path d="M18.75 12.8887C18.75 12.1983 19.3096 11.6387 20 11.6387C20.6904 11.6387 21.25 12.1983 21.25 12.8887C21.25 13.579 20.6904 14.1387 20 14.1387C19.3096 14.1387 18.75 13.579 18.75 12.8887Z" fill="#9A9A9A"/>
<path fill-rule="evenodd" clip-rule="evenodd" d="M18.75 5.38867C18.75 4.69832 19.3096 4.13867 20 4.13867C20.6904 4.13867 21.25 4.69832 21.25 5.38867V6.63867H23.75C25.1307 6.63867 26.25 7.75796 26.25 9.13867V24.1387C26.25 25.5194 25.1307 26.6387 23.75 26.6387H6.25C4.86929 26.6387 3.75 25.5194 3.75 24.1387V9.13867C3.75 7.75796 4.86929 6.63867 6.25 6.63867H8.75V5.38867C8.75 4.69832 9.30964 4.13867 10 4.13867C10.6904 4.13867 11.25 4.69832 11.25 5.38867V6.63867H18.75V5.38867ZM6.25 10.3887C6.25 9.69832 6.80964 9.13867 7.5 9.13867H22.5C23.1904 9.13867 23.75 9.69832 23.75 10.3887V22.8887C23.75 23.579 23.1904 24.1387 22.5 24.1387H7.5C6.80964 24.1387 6.25 23.579 6.25 22.8887V10.3887Z" fill="#9A9A9A"/>
</svg>
