<svg width="30" height="31" viewBox="0 0 30 31" fill="none" xmlns="http://www.w3.org/2000/svg">
<path fill-rule="evenodd" clip-rule="evenodd" d="M14.2969 4.38867C13.5202 4.38867 12.8906 5.01827 12.8906 5.79492L12.7218 6.97664C12.5707 8.03473 11.341 8.54406 10.4859 7.90277L9.53097 7.18654C8.9818 6.63736 8.09141 6.63736 7.54223 7.18654L6.54786 8.18091C5.99869 8.73008 5.99869 9.62047 6.54786 10.1696L7.26409 11.1246C7.90539 11.9797 7.39605 13.2093 6.33796 13.3605L5.15625 13.5293C4.3796 13.5293 3.75 14.1589 3.75 14.9355V16.3418C3.75 17.1184 4.3796 17.748 5.15625 17.748L6.33797 17.9169C7.39606 18.068 7.90539 19.2977 7.2641 20.1527L6.54786 21.1077C5.99869 21.6569 5.99869 22.5473 6.54786 23.0964L7.54223 24.0908C8.09141 24.64 8.9818 24.64 9.53097 24.0908L10.4859 23.3746C11.341 22.7333 12.5707 23.2426 12.7218 24.3007L12.8906 25.4824C12.8906 26.2591 13.5202 26.8887 14.2969 26.8887H15.7031C16.4798 26.8887 17.1094 26.2591 17.1094 25.4824L17.2782 24.3007C17.4293 23.2426 18.659 22.7333 19.5141 23.3746L20.469 24.0908C21.0182 24.64 21.9086 24.64 22.4578 24.0908L23.4521 23.0964C24.0013 22.5473 24.0013 21.6569 23.4521 21.1077L22.7359 20.1527C22.0946 19.2977 22.6039 18.068 23.662 17.9169L24.8437 17.748C25.6204 17.748 26.25 17.1184 26.25 16.3418V14.9355C26.25 14.1589 25.6204 13.5293 24.8437 13.5293L23.662 13.3605C22.604 13.2093 22.0946 11.9797 22.7359 11.1246L23.4521 10.1696C24.0013 9.62047 24.0013 8.73008 23.4521 8.18091L22.4578 7.18654C21.9086 6.63737 21.0182 6.63737 20.469 7.18654L19.5141 7.90277C18.659 8.54407 17.4293 8.03473 17.2782 6.97664L17.1094 5.79492C17.1094 5.01827 16.4798 4.38867 15.7031 4.38867H14.2969ZM15 18.4512C16.5533 18.4512 17.8125 17.192 17.8125 15.6387C17.8125 14.0854 16.5533 12.8262 15 12.8262C13.4467 12.8262 12.1875 14.0854 12.1875 15.6387C12.1875 17.192 13.4467 18.4512 15 18.4512Z" fill="#8D8D8D"/>
</svg>
