<svg width="30" height="29" viewBox="0 0 30 29" fill="none" xmlns="http://www.w3.org/2000/svg">
<path fill-rule="evenodd" clip-rule="evenodd" d="M18.75 5.91431H22.5C23.8807 5.91431 25 6.97348 25 8.28003V22.4744C25 23.7809 23.8807 24.8401 22.5 24.8401H7.5C6.11929 24.8401 5 23.7809 5 22.4744V8.28003C5 6.97348 6.11929 5.91431 7.5 5.91431H11.25C11.25 3.95448 12.9289 2.36572 15 2.36572C17.0711 2.36572 18.75 3.95448 18.75 5.91431ZM16.25 5.91431C16.25 6.56758 15.6904 7.09717 15 7.09717C14.3096 7.09717 13.75 6.56758 13.75 5.91431C13.75 5.26103 14.3096 4.73145 15 4.73145C15.6904 4.73145 16.25 5.26103 16.25 5.91431ZM7.5 10.6458C7.5 9.99248 8.05964 9.46289 8.75 9.46289H21.25C21.9404 9.46289 22.5 9.99248 22.5 10.6458C22.5 11.299 21.9404 11.8286 21.25 11.8286H8.75C8.05964 11.8286 7.5 11.299 7.5 10.6458ZM8.75 14.1943C8.05964 14.1943 7.5 14.7239 7.5 15.3772C7.5 16.0305 8.05964 16.5601 8.75 16.5601H21.25C21.9404 16.5601 22.5 16.0305 22.5 15.3772C22.5 14.7239 21.9404 14.1943 21.25 14.1943H8.75ZM8.75 18.9258C8.05964 18.9258 7.5 19.4554 7.5 20.1086C7.5 20.7619 8.05964 21.2915 8.75 21.2915H12.5C13.1904 21.2915 13.75 20.7619 13.75 20.1086C13.75 19.4554 13.1904 18.9258 12.5 18.9258H8.75Z" fill="#9A9A9A"/>
</svg>
