<svg width="25" height="24" viewBox="0 0 25 24" fill="none" xmlns="http://www.w3.org/2000/svg">
<path d="M24.9977 12.0006C24.9977 18.6278 19.6254 24.0001 12.9981 24.0001C6.37084 24.0001 0.998535 18.6278 0.998535 12.0006C0.998535 5.37329 6.37084 0.000976562 12.9981 0.000976562C19.6254 0.000976562 24.9977 5.37329 24.9977 12.0006Z" fill="#101010"/>
<path d="M24.9977 12.0006C24.9977 18.6278 19.6254 24.0001 12.9981 24.0001C6.37084 24.0001 0.998535 18.6278 0.998535 12.0006C0.998535 5.37329 6.37084 0.000976562 12.9981 0.000976562C19.6254 0.000976562 24.9977 5.37329 24.9977 12.0006Z" fill="url(#paint0_linear)"/>
<path d="M10.0013 18.5652C16.0978 18.5652 19.4317 13.5144 19.4317 9.13482C19.4317 8.99127 19.4288 8.84864 19.4222 8.70655C20.0692 8.23855 20.6317 7.65483 21.0755 6.99036C20.4816 7.25421 19.8426 7.432 19.172 7.51201C19.8565 7.10187 20.3818 6.4526 20.6297 5.67864C19.989 6.05839 19.2801 6.33432 18.5252 6.48318C17.9202 5.83904 17.0589 5.43604 16.1059 5.43604C14.2752 5.43604 12.7909 6.92042 12.7909 8.75013C12.7909 9.01031 12.82 9.26317 12.8767 9.50596C10.1224 9.36736 7.67965 8.04831 6.04513 6.04301C5.76022 6.5328 5.59635 7.10187 5.59635 7.70884C5.59635 8.85871 6.18154 9.87399 7.07121 10.4678C6.52759 10.4511 6.01675 10.3015 5.57017 10.0531C5.56944 10.067 5.56944 10.0809 5.56944 10.0954C5.56944 11.7008 6.71197 13.0409 8.2284 13.3446C7.95009 13.4204 7.65713 13.4613 7.35465 13.4613C7.14116 13.4613 6.93352 13.44 6.73157 13.4016C7.15361 14.7182 8.37708 15.6766 9.82795 15.7037C8.69329 16.5926 7.26438 17.1223 5.71152 17.1223C5.4442 17.1223 5.18035 17.1071 4.9209 17.0764C6.38771 18.0164 8.12934 18.5652 10.0013 18.5652Z" fill="white"/>
<defs>
<linearGradient id="paint0_linear" x1="24.9977" y1="24.0001" x2="-0.358459" y2="22.4687" gradientUnits="userSpaceOnUse">
<stop stop-color="#D52D6F"/>
<stop offset="0.0001" stop-color="#FF2D79"/>
<stop offset="0.486607" stop-color="#F98395"/>
<stop offset="1" stop-color="#1DCAFF"/>
</linearGradient>
</defs>
</svg>
