<svg width="660" height="535" viewBox="0 0 660 535" fill="none" xmlns="http://www.w3.org/2000/svg">
<path opacity="0.3" d="M212.93 330.435C305.375 330.435 380.316 259.632 380.316 172.293C380.316 84.9544 305.375 14.1521 212.93 14.1521C120.486 14.1521 45.5444 84.9544 45.5444 172.293C45.5444 259.632 120.486 330.435 212.93 330.435Z" fill="url(#paint0_radial)"/>
<path opacity="0.6" d="M171.915 311.299V408.997H172.778V312.963L171.915 311.299Z" fill="url(#paint1_linear)"/>
<path opacity="0.6" d="M253.082 311.299V408.997H253.96V312.963L253.082 311.299Z" fill="url(#paint2_linear)"/>
<path opacity="0.3" d="M171.915 311.607V409.321H253.96V313.271L171.915 311.607Z" fill="url(#paint3_linear)"/>
<path d="M212.838 347.753C210.65 347.753 208.447 347.275 206.783 346.304L166.046 322.777C164.351 321.807 163.426 320.482 163.426 319.064C163.426 317.647 164.351 316.322 166.046 315.351L206.567 291.793C209.91 289.867 215.349 289.867 218.693 291.793L259.43 315.32C261.124 316.291 262.049 317.616 262.049 319.033C262.049 320.451 261.124 321.776 259.43 322.747L218.908 346.304C217.229 347.275 215.041 347.753 212.838 347.753ZM212.622 291.084C210.557 291.084 208.508 291.531 206.937 292.44L166.415 315.998C164.967 316.83 164.166 317.924 164.166 319.064C164.166 320.204 164.967 321.298 166.415 322.13L207.152 345.657C210.28 347.46 215.38 347.46 218.508 345.657L259.029 322.099C260.477 321.267 261.279 320.174 261.279 319.033C261.279 317.893 260.477 316.815 259.029 315.967L218.292 292.44C216.736 291.547 214.687 291.084 212.622 291.084Z" fill="#03A7D3"/>
<path d="M261.865 306.168V286.631L237.182 289.929L218.693 279.251C215.458 277.387 210.188 277.387 206.953 279.251L204.072 281.085L163.997 286.431V306.199C163.997 306.214 163.997 306.214 163.997 306.23V306.322H164.012C164.059 307.508 164.86 308.695 166.431 309.604L207.169 333.131C210.404 334.995 215.673 334.995 218.909 333.131L259.43 309.558C261.002 308.649 261.788 307.478 261.849 306.291H261.865V306.168Z" fill="url(#paint4_linear)"/>
<path d="M259.43 283.103L218.693 259.576C215.457 257.712 210.188 257.712 206.952 259.576L166.431 283.134C163.196 284.998 163.196 288.034 166.431 289.913L207.168 313.441C210.404 315.305 215.673 315.305 218.909 313.441L259.43 289.883C262.681 288.003 262.681 284.968 259.43 283.103Z" fill="url(#paint5_radial)"/>
<path d="M259.43 288.696L218.909 312.254C215.673 314.118 210.404 314.118 207.168 312.254L166.431 288.727C165.075 287.941 164.29 286.955 164.074 285.923C163.766 287.34 164.552 288.82 166.431 289.898L207.168 313.425C210.404 315.289 215.673 315.289 218.909 313.425L259.43 289.852C261.31 288.758 262.096 287.294 261.787 285.877C261.572 286.924 260.801 287.91 259.43 288.696Z" fill="white"/>
<path d="M224.393 318.664L222.452 319.773V317.539L224.393 316.43V318.664Z" fill="white"/>
<path d="M228.415 316.321L226.489 317.446V315.212L228.415 314.103V316.321Z" fill="white"/>
<path d="M232.452 313.995L230.526 315.12V312.886L232.452 311.776V313.995Z" fill="white"/>
<path d="M229.154 320.42L227.229 321.529V319.31L229.154 318.186V320.42Z" fill="white"/>
<path d="M232.714 318.371L230.788 319.48V317.246L232.714 316.137V318.371Z" fill="white"/>
<path d="M245.394 306.522L243.468 307.647V305.413L245.394 304.304V306.522Z" fill="white"/>
<path d="M256.518 300.113L254.592 301.222V299.003L256.518 297.879V300.113Z" fill="white"/>
<path d="M236.488 311.668L234.562 312.778V310.559L236.488 309.45V311.668Z" fill="white"/>
<path opacity="0.4" d="M210.618 303.503L183.209 287.68C182.099 287.033 182.238 285.908 183.517 285.168L210.295 269.699C211.589 268.96 213.53 268.883 214.64 269.514L242.05 285.338C243.159 285.985 243.02 287.11 241.741 287.849L214.963 303.318C213.685 304.073 211.743 304.15 210.618 303.503Z" fill="#06033E"/>
<path d="M199.849 320.636L177.231 307.57C176.692 307.262 176.26 306.415 176.26 305.706V304.027C176.26 303.303 176.692 302.979 177.231 303.287L199.849 316.353C200.388 316.661 200.82 317.508 200.82 318.217V319.896C200.82 320.621 200.388 320.944 199.849 320.636Z" fill="white"/>
<path d="M261.865 269.529V249.993L237.182 253.29L218.693 242.613C215.458 240.748 210.188 240.748 206.953 242.613L204.072 244.446L163.997 249.793V269.545C163.997 269.56 163.997 269.56 163.997 269.576V269.668H164.012C164.059 270.854 164.86 272.041 166.431 272.95L207.169 296.477C210.404 298.341 215.673 298.341 218.909 296.477L259.43 272.904C261.002 271.995 261.788 270.824 261.849 269.637H261.865V269.529Z" fill="url(#paint6_linear)"/>
<path d="M259.43 246.449L218.693 222.922C215.457 221.058 210.188 221.058 206.952 222.922L166.431 246.48C163.196 248.344 163.196 251.38 166.431 253.259L207.168 276.786C210.404 278.651 215.673 278.651 218.909 276.786L259.43 253.229C262.681 251.364 262.681 248.329 259.43 246.449Z" fill="url(#paint7_radial)"/>
<path opacity="0.4" d="M240.032 247.882L216.289 234.17C214.394 233.076 211.344 233.076 209.449 234.17L185.829 247.898C183.934 248.992 183.934 250.763 185.829 251.842L209.572 265.555C211.467 266.648 214.518 266.648 216.413 265.555L240.032 251.827C241.912 250.733 241.912 248.976 240.032 247.882Z" fill="#06033E"/>
<path d="M259.43 252.042L218.909 275.6C215.673 277.464 210.404 277.464 207.168 275.6L166.431 252.073C165.075 251.287 164.29 250.301 164.074 249.269C163.766 250.686 164.552 252.166 166.431 253.244L207.168 276.771C210.404 278.635 215.673 278.635 218.909 276.771L259.43 253.198C261.31 252.104 262.096 250.64 261.787 249.223C261.572 250.27 260.801 251.272 259.43 252.042Z" fill="white"/>
<path d="M224.394 282.01L222.452 283.119V280.9L224.394 279.791V282.01Z" fill="white"/>
<path d="M228.415 279.683L226.49 280.792V278.574L228.415 277.449V279.683Z" fill="white"/>
<path d="M232.452 277.357L230.526 278.466V276.247L232.452 275.123V277.357Z" fill="white"/>
<path d="M229.155 283.766L227.229 284.891V282.656L229.155 281.547V283.766Z" fill="white"/>
<path d="M232.714 281.717L230.788 282.826V280.608L232.714 279.498V281.717Z" fill="white"/>
<path d="M245.394 269.884L243.469 270.993V268.775L245.394 267.65V269.884Z" fill="white"/>
<path d="M256.518 263.459L254.592 264.584V262.35L256.518 261.24V263.459Z" fill="white"/>
<path d="M236.488 275.03L234.562 276.139V273.905L236.488 272.796V275.03Z" fill="white"/>
<path d="M261.865 232.876V213.339L237.182 216.636L218.693 205.959C215.458 204.095 210.188 204.095 206.953 205.959L204.072 207.792L163.997 213.139V232.906C163.997 232.922 163.997 232.922 163.997 232.937V233.03H164.012C164.059 234.216 164.86 235.402 166.431 236.311L207.169 259.838C210.404 261.703 215.673 261.703 218.909 259.838L259.43 236.265C261.002 235.356 261.788 234.185 261.849 232.999H261.865V232.876Z" fill="url(#paint8_linear)"/>
<path d="M259.43 209.811L218.693 186.284C215.457 184.419 210.188 184.419 206.952 186.284L166.431 209.857C163.196 211.721 163.196 214.757 166.431 216.636L207.168 240.163C210.404 242.028 215.673 242.028 218.909 240.163L259.43 216.605C262.681 214.71 262.681 211.675 259.43 209.811Z" fill="url(#paint9_radial)"/>
<path d="M259.43 209.811L218.693 186.284C215.457 184.419 210.188 184.419 206.952 186.284L166.431 209.857C163.196 211.721 163.196 214.757 166.431 216.636L207.168 240.163C210.404 242.028 215.673 242.028 218.909 240.163L259.43 216.605C262.681 214.71 262.681 211.675 259.43 209.811Z" fill="url(#paint10_radial)"/>
<path opacity="0.4" d="M243.745 210.966L216.752 195.374C214.61 194.141 211.128 194.141 208.971 195.374L182.116 210.982C179.974 212.214 179.974 214.233 182.116 215.465L209.109 231.058C211.251 232.306 214.733 232.306 216.89 231.058L243.745 215.45C245.887 214.217 245.887 212.199 243.745 210.966Z" fill="#06033E"/>
<path d="M259.43 215.404L218.909 238.962C215.673 240.826 210.404 240.826 207.168 238.962L166.431 215.434C165.075 214.649 164.29 213.663 164.074 212.63C163.766 214.048 164.552 215.527 166.431 216.605L207.168 240.132C210.404 241.997 215.673 241.997 218.909 240.132L259.43 216.559C261.31 215.465 262.096 214.002 261.787 212.584C261.572 213.632 260.801 214.618 259.43 215.404Z" fill="white"/>
<path d="M224.393 245.371L222.452 246.48V244.246L224.393 243.137V245.371Z" fill="white"/>
<path d="M228.415 243.044L226.489 244.154V241.92L228.415 240.81V243.044Z" fill="white"/>
<path d="M232.452 240.702L230.526 241.827V239.593L232.452 238.484V240.702Z" fill="white"/>
<path d="M229.154 247.127L227.229 248.236V246.018L229.154 244.893V247.127Z" fill="white"/>
<path d="M232.714 245.078L230.788 246.188V243.954L232.714 242.844V245.078Z" fill="white"/>
<path d="M245.394 233.23L243.468 234.354V232.12L245.394 231.011V233.23Z" fill="white"/>
<path d="M256.518 226.82L254.592 227.93V225.711L256.518 224.586V226.82Z" fill="white"/>
<path d="M236.488 238.376L234.562 239.485V237.267L236.488 236.157V238.376Z" fill="white"/>
<path d="M261.865 196.915V177.378L237.182 180.675L218.693 169.998C215.458 168.134 210.188 168.134 206.953 169.998L204.072 171.832L163.997 177.178V196.946C163.997 196.961 163.997 196.961 163.997 196.976V197.069H164.012C164.059 198.255 164.86 199.442 166.431 200.351L207.169 223.878C210.404 225.742 215.673 225.742 218.909 223.878L259.43 200.304C261.002 199.395 261.788 198.224 261.849 197.038H261.865V196.915Z" fill="url(#paint11_linear)"/>
<path d="M259.43 173.85L218.693 150.323C215.457 148.459 210.188 148.459 206.952 150.323L166.431 173.896C163.196 175.76 163.196 178.796 166.431 180.675L207.168 204.202C210.404 206.067 215.673 206.067 218.909 204.202L259.43 180.629C262.681 178.765 262.681 175.73 259.43 173.85Z" fill="url(#paint12_radial)"/>
<path opacity="0.4" d="M240.032 175.283L216.289 161.571C214.394 160.477 211.344 160.477 209.449 161.571L185.829 175.299C183.934 176.392 183.934 178.164 185.829 179.243L209.572 192.955C211.467 194.049 214.518 194.049 216.413 192.955L240.032 179.227C241.912 178.133 241.912 176.362 240.032 175.283Z" fill="#06033E"/>
<path d="M259.43 179.443L218.909 203.001C215.673 204.865 210.404 204.865 207.168 203.001L166.431 179.474C165.075 178.688 164.29 177.702 164.074 176.67C163.766 178.087 164.552 179.566 166.431 180.645L207.168 204.172C210.404 206.036 215.673 206.036 218.909 204.172L259.43 180.598C261.31 179.504 262.096 178.041 261.787 176.623C261.572 177.671 260.801 178.657 259.43 179.443Z" fill="white"/>
<path d="M224.393 209.41L222.452 210.52V208.301L224.393 207.176V209.41Z" fill="white"/>
<path d="M228.415 207.084L226.489 208.193V205.974L228.415 204.85V207.084Z" fill="white"/>
<path d="M232.452 204.757L230.526 205.867V203.633L232.452 202.523V204.757Z" fill="white"/>
<path d="M229.154 211.167L227.229 212.276V210.057L229.154 208.948V211.167Z" fill="white"/>
<path d="M232.714 209.118L230.788 210.227V208.008L232.714 206.884V209.118Z" fill="white"/>
<path d="M245.394 197.285L243.468 198.394V196.16L245.394 195.051V197.285Z" fill="white"/>
<path d="M256.518 190.86L254.592 191.969V189.751L256.518 188.641V190.86Z" fill="white"/>
<path d="M236.488 202.415L234.562 203.54V201.306L236.488 200.197V202.415Z" fill="white"/>
<path d="M261.865 160.276V140.74L237.182 144.037L218.693 133.36C215.458 131.495 210.188 131.495 206.953 133.36L204.072 135.193L163.997 140.539V160.307C163.997 160.323 163.997 160.323 163.997 160.338V160.43H164.012C164.059 161.617 164.86 162.803 166.431 163.712L207.169 187.239C210.404 189.104 215.673 189.104 218.909 187.239L259.43 163.666C261.002 162.757 261.788 161.586 261.849 160.4H261.865V160.276Z" fill="url(#paint13_linear)"/>
<path d="M259.43 137.211L218.693 113.684C215.458 111.82 210.188 111.82 206.953 113.684L166.431 137.242C163.196 139.106 163.196 142.142 166.431 144.021L207.168 167.548C210.404 169.413 215.673 169.413 218.909 167.548L259.43 143.99C262.681 142.111 262.681 139.075 259.43 137.211Z" fill="url(#paint14_radial)"/>
<path d="M259.43 137.211L218.693 113.684C215.458 111.82 210.188 111.82 206.953 113.684L166.431 137.242C163.196 139.106 163.196 142.142 166.431 144.021L207.168 167.548C210.404 169.413 215.673 169.413 218.909 167.548L259.43 143.99C262.681 142.111 262.681 139.075 259.43 137.211Z" fill="url(#paint15_radial)"/>
<path opacity="0.4" d="M213.008 159.829C211.514 159.829 210.035 159.506 208.895 158.843L181.901 143.251C180.714 142.573 180.067 141.633 180.067 140.616C180.067 139.599 180.714 138.675 181.901 137.982L208.756 122.374C211.021 121.064 214.719 121.064 216.983 122.374L243.977 137.966C245.164 138.644 245.811 139.584 245.811 140.601C245.811 141.618 245.164 142.542 243.977 143.236L217.122 158.843C215.982 159.506 214.487 159.829 213.008 159.829ZM212.854 122.281C211.529 122.281 210.204 122.574 209.187 123.16L182.332 138.767C181.439 139.291 180.946 139.954 180.946 140.632C180.946 141.31 181.439 141.972 182.332 142.496L209.326 158.088C211.344 159.259 214.642 159.259 216.66 158.088L243.515 142.481C244.409 141.957 244.902 141.294 244.902 140.616C244.902 139.938 244.409 139.276 243.515 138.752L216.521 123.16C215.52 122.574 214.195 122.281 212.854 122.281Z" fill="#06033E"/>
<path d="M259.43 142.804L218.909 166.362C215.673 168.226 210.404 168.226 207.168 166.362L166.431 142.835C165.075 142.049 164.29 141.063 164.074 140.031C163.766 141.448 164.552 142.927 166.431 144.006L207.168 167.533C210.404 169.397 215.673 169.397 218.909 167.533L259.43 143.96C261.31 142.866 262.096 141.402 261.787 139.985C261.572 141.032 260.801 142.018 259.43 142.804Z" fill="white"/>
<path d="M224.394 172.772L222.452 173.881V171.647L224.394 170.538V172.772Z" fill="white"/>
<path d="M228.415 170.43L226.49 171.555V169.321L228.415 168.211V170.43Z" fill="white"/>
<path d="M232.452 168.103L230.526 169.213V166.994L232.452 165.885V168.103Z" fill="white"/>
<path d="M229.155 174.528L227.229 175.637V173.403L229.155 172.294V174.528Z" fill="white"/>
<path d="M232.714 172.479L230.788 173.589V171.354L232.714 170.245V172.479Z" fill="white"/>
<path d="M245.394 160.63L243.469 161.74V159.521L245.394 158.412V160.63Z" fill="white"/>
<path d="M256.518 154.221L254.592 155.33V153.096L256.518 151.987V154.221Z" fill="white"/>
<path d="M236.488 165.777L234.562 166.886V164.667L236.488 163.542V165.777Z" fill="white"/>
<path opacity="0.3" d="M289.658 378.444V476.158H371.703V380.123L289.658 378.444Z" fill="url(#paint16_linear)"/>
<path opacity="0.6" d="M289.643 378.444V476.158H290.506V380.123L289.643 378.444Z" fill="url(#paint17_linear)"/>
<path opacity="0.6" d="M370.809 378.444V476.158H371.687V380.123L370.809 378.444Z" fill="url(#paint18_linear)"/>
<path d="M330.596 416.762C328.408 416.762 326.205 416.285 324.541 415.314L283.804 391.787C282.109 390.816 281.184 389.491 281.184 388.074C281.184 386.656 282.109 385.331 283.804 384.361L324.325 360.803C327.668 358.877 333.107 358.877 336.451 360.803L377.172 384.314C378.867 385.285 379.792 386.61 379.792 388.028C379.792 389.445 378.867 390.77 377.172 391.741L336.651 415.299C334.987 416.285 332.784 416.762 330.596 416.762ZM330.38 360.094C328.315 360.094 326.266 360.541 324.695 361.45L284.173 385.008C282.725 385.84 281.924 386.934 281.924 388.074C281.924 389.214 282.725 390.308 284.173 391.14L324.91 414.667C328.038 416.47 333.138 416.47 336.266 414.667L376.787 391.109C378.235 390.277 379.037 389.183 379.037 388.043C379.037 386.903 378.235 385.824 376.787 384.977L336.05 361.45C334.494 360.541 332.429 360.094 330.38 360.094Z" fill="#03A7D3"/>
<path d="M379.622 375.178V355.641L354.939 358.938L336.451 348.261C333.215 346.397 327.946 346.397 324.71 348.261L321.829 350.094L281.754 355.441V375.208C281.754 375.224 281.754 375.224 281.754 375.239V375.332H281.77C281.816 376.518 282.617 377.704 284.189 378.613L324.926 402.14C328.161 404.005 333.431 404.005 336.666 402.14L377.188 378.567C378.759 377.658 379.545 376.487 379.607 375.301H379.622V375.178Z" fill="url(#paint19_linear)"/>
<path d="M377.187 352.098L336.45 328.571C333.214 326.706 327.945 326.706 324.71 328.571L284.188 352.144C280.953 354.008 280.953 357.043 284.188 358.923L324.925 382.45C328.161 384.314 333.43 384.314 336.666 382.45L377.187 358.877C380.423 357.013 380.423 353.977 377.187 352.098Z" fill="url(#paint20_radial)"/>
<path d="M377.187 357.705L336.666 381.263C333.431 383.128 328.161 383.128 324.926 381.263L284.189 357.736C282.833 356.95 282.047 355.964 281.831 354.932C281.523 356.35 282.309 357.829 284.189 358.907L324.926 382.434C328.161 384.299 333.431 384.299 336.666 382.434L377.187 358.861C379.067 357.767 379.853 356.303 379.545 354.886C379.329 355.918 378.543 356.92 377.187 357.705Z" fill="white"/>
<path d="M342.136 387.658L340.21 388.782V386.548L342.136 385.439V387.658Z" fill="white"/>
<path d="M346.173 385.331L344.247 386.441V384.222L346.173 383.113V385.331Z" fill="white"/>
<path d="M350.21 383.005L348.284 384.114V381.895L350.21 380.771V383.005Z" fill="white"/>
<path d="M346.912 389.414L344.986 390.539V388.305L346.912 387.195V389.414Z" fill="white"/>
<path d="M350.455 387.365L348.529 388.49V386.256L350.455 385.146V387.365Z" fill="white"/>
<path d="M363.152 375.532L361.226 376.641V374.423L363.152 373.298V375.532Z" fill="white"/>
<path d="M374.26 369.107L372.334 370.232V367.998L374.26 366.888V369.107Z" fill="white"/>
<path d="M354.246 380.678L352.32 381.788V379.553L354.246 378.444V380.678Z" fill="white"/>
<path opacity="0.4" d="M328.377 372.512L300.967 356.689C299.857 356.042 299.996 354.917 301.275 354.178L328.053 338.709C329.332 337.969 331.289 337.892 332.398 338.524L359.808 354.347C360.917 354.994 360.778 356.119 359.499 356.858L332.721 372.327C331.443 373.067 329.486 373.159 328.377 372.512Z" fill="#06033E"/>
<path d="M317.592 389.645L294.974 376.58C294.435 376.272 294.003 375.424 294.003 374.715V373.036C294.003 372.312 294.435 371.988 294.974 372.297L317.592 385.362C318.131 385.67 318.563 386.518 318.563 387.226V388.906C318.578 389.614 318.131 389.953 317.592 389.645Z" fill="white"/>
<path d="M379.622 338.524V318.987L354.939 322.284L336.451 311.607C333.215 309.743 327.946 309.743 324.71 311.607L321.829 313.441L281.754 318.787V338.555C281.754 338.57 281.754 338.57 281.754 338.585V338.678H281.77C281.816 339.864 282.617 341.051 284.189 341.96L324.926 365.487C328.161 367.351 333.431 367.351 336.666 365.487L377.188 341.913C378.759 341.004 379.545 339.833 379.607 338.647H379.622V338.524Z" fill="url(#paint21_linear)"/>
<path d="M377.187 315.459L336.45 291.932C333.214 290.068 327.945 290.068 324.71 291.932L284.188 315.49C280.953 317.354 280.953 320.389 284.188 322.269L324.925 345.796C328.161 347.66 333.43 347.66 336.666 345.796L377.187 322.223C380.423 320.359 380.423 317.323 377.187 315.459Z" fill="url(#paint22_radial)"/>
<path opacity="0.4" d="M357.774 316.876L334.031 303.164C332.136 302.07 329.086 302.07 327.19 303.164L303.571 316.892C301.676 317.986 301.676 319.757 303.571 320.836L327.314 334.549C329.209 335.642 332.26 335.642 334.155 334.549L357.774 320.821C359.669 319.742 359.669 317.97 357.774 316.876Z" fill="#06033E"/>
<path d="M377.187 321.051L336.666 344.609C333.431 346.474 328.161 346.474 324.926 344.609L284.189 321.082C282.833 320.297 282.047 319.31 281.831 318.278C281.523 319.696 282.309 321.175 284.189 322.253L324.926 345.78C328.161 347.645 333.431 347.645 336.666 345.78L377.187 322.207C379.067 321.113 379.853 319.649 379.545 318.232C379.329 319.28 378.543 320.266 377.187 321.051Z" fill="white"/>
<path d="M342.136 351.019L340.21 352.129V349.91L342.136 348.785V351.019Z" fill="white"/>
<path d="M346.173 348.693L344.247 349.802V347.568L346.173 346.459V348.693Z" fill="white"/>
<path d="M350.21 346.351L348.284 347.476V345.242L350.21 344.132V346.351Z" fill="white"/>
<path d="M346.912 352.775L344.986 353.885V351.666L346.912 350.541V352.775Z" fill="white"/>
<path d="M350.455 350.727L348.529 351.836V349.617L350.455 348.493V350.727Z" fill="white"/>
<path d="M363.152 338.878L361.226 340.003V337.769L363.152 336.659V338.878Z" fill="white"/>
<path d="M374.26 332.469L372.334 333.578V331.359L374.26 330.234V332.469Z" fill="white"/>
<path d="M354.246 344.024L352.32 345.133V342.915L354.246 341.805V344.024Z" fill="white"/>
<path d="M379.622 301.884V282.348L354.939 285.645L336.451 274.968C333.215 273.104 327.946 273.104 324.71 274.968L321.829 276.801L281.754 282.148V301.915C281.754 301.931 281.754 301.931 281.754 301.946V302.039H281.77C281.816 303.225 282.617 304.411 284.189 305.32L324.926 328.847C328.161 330.712 333.431 330.712 336.666 328.847L377.188 305.274C378.759 304.365 379.545 303.194 379.607 302.008H379.622V301.884Z" fill="url(#paint23_linear)"/>
<path d="M377.187 278.82L336.45 255.293C333.214 253.428 327.945 253.428 324.71 255.293L284.188 278.85C280.953 280.715 280.953 283.75 284.188 285.63L324.925 309.157C328.161 311.021 333.43 311.021 336.666 309.157L377.187 285.599C380.423 283.719 380.423 280.684 377.187 278.82Z" fill="url(#paint24_radial)"/>
<path d="M377.187 278.82L336.45 255.293C333.214 253.428 327.945 253.428 324.71 255.293L284.188 278.85C280.953 280.715 280.953 283.75 284.188 285.63L324.925 309.157C328.161 311.021 333.43 311.021 336.666 309.157L377.187 285.599C380.423 283.719 380.423 280.684 377.187 278.82Z" fill="url(#paint25_radial)"/>
<path opacity="0.4" d="M361.488 279.96L334.494 264.368C332.353 263.135 328.87 263.135 326.713 264.368L299.858 279.975C297.717 281.208 297.717 283.226 299.858 284.459L326.852 300.051C328.994 301.284 332.476 301.284 334.633 300.051L361.488 284.443C363.645 283.211 363.645 281.208 361.488 279.96Z" fill="#06033E"/>
<path d="M377.187 284.413L336.666 307.97C333.431 309.835 328.161 309.835 324.926 307.97L284.189 284.443C282.833 283.658 282.047 282.672 281.831 281.639C281.523 283.057 282.309 284.536 284.189 285.614L324.926 309.141C328.161 311.006 333.431 311.006 336.666 309.141L377.187 285.568C379.067 284.474 379.853 283.01 379.545 281.593C379.329 282.625 378.543 283.627 377.187 284.413Z" fill="white"/>
<path d="M342.136 314.365L340.21 315.49V313.256L342.136 312.146V314.365Z" fill="white"/>
<path d="M346.173 312.038L344.247 313.148V310.929L346.173 309.82V312.038Z" fill="white"/>
<path d="M350.21 309.712L348.284 310.821V308.603L350.21 307.478V309.712Z" fill="white"/>
<path d="M346.912 316.121L344.986 317.246V315.012L346.912 313.903V316.121Z" fill="white"/>
<path d="M350.455 314.072L348.53 315.197V312.963L350.455 311.854V314.072Z" fill="white"/>
<path d="M363.151 302.239L361.225 303.349V301.13L363.151 300.005V302.239Z" fill="white"/>
<path d="M374.26 295.814L372.334 296.939V294.705L374.26 293.596V295.814Z" fill="white"/>
<path d="M354.246 307.385L352.32 308.495V306.26L354.246 305.151V307.385Z" fill="white"/>
<path d="M379.622 265.924V246.388L354.939 249.685L336.451 239.008C333.215 237.143 327.946 237.143 324.71 239.008L321.829 240.841L281.754 246.187V265.955C281.754 265.971 281.754 265.971 281.754 265.986V266.078H281.77C281.816 267.265 282.617 268.451 284.189 269.36L324.926 292.887C328.161 294.751 333.431 294.751 336.666 292.887L377.188 269.314C378.759 268.405 379.545 267.234 379.607 266.048H379.622V265.924Z" fill="url(#paint26_linear)"/>
<path d="M377.187 242.859L336.45 219.332C333.214 217.468 327.945 217.468 324.71 219.332L284.188 242.89C280.953 244.754 280.953 247.79 284.188 249.669L324.925 273.196C328.161 275.061 333.43 275.061 336.666 273.196L377.187 249.639C380.423 247.759 380.423 244.724 377.187 242.859Z" fill="url(#paint27_radial)"/>
<path opacity="0.4" d="M357.774 244.277L334.031 230.564C332.136 229.47 329.086 229.47 327.19 230.564L303.571 244.292C301.676 245.386 301.676 247.158 303.571 248.237L327.314 261.949C329.209 263.043 332.26 263.043 334.155 261.949L357.774 248.221C359.669 247.143 359.669 245.371 357.774 244.277Z" fill="#06033E"/>
<path d="M377.187 248.452L336.666 272.01C333.431 273.875 328.161 273.875 324.926 272.01L284.189 248.483C282.833 247.697 282.047 246.711 281.831 245.679C281.523 247.097 282.309 248.576 284.189 249.654L324.926 273.181C328.161 275.045 333.431 275.045 336.666 273.181L377.187 249.608C379.067 248.514 379.853 247.05 379.545 245.633C379.329 246.681 378.543 247.667 377.187 248.452Z" fill="white"/>
<path d="M342.136 278.42L340.21 279.529V277.295L342.136 276.186V278.42Z" fill="white"/>
<path d="M346.173 276.078L344.247 277.203V274.969L346.173 273.859V276.078Z" fill="white"/>
<path d="M350.21 273.751L348.284 274.876V272.642L350.21 271.533V273.751Z" fill="white"/>
<path d="M346.912 280.176L344.986 281.285V279.067L346.912 277.942V280.176Z" fill="white"/>
<path d="M350.455 278.127L348.529 279.237V277.003L350.455 275.893V278.127Z" fill="white"/>
<path d="M363.152 266.279L361.226 267.403V265.169L363.152 264.06V266.279Z" fill="white"/>
<path d="M374.26 259.869L372.334 260.979V258.745L374.26 257.635V259.869Z" fill="white"/>
<path d="M354.246 271.425L352.32 272.534V270.316L354.246 269.191V271.425Z" fill="white"/>
<path d="M379.622 229.285V209.749L354.939 213.046L336.451 202.369C333.215 200.504 327.946 200.504 324.71 202.369L321.829 204.202L281.754 209.548V229.316C281.754 229.331 281.754 229.331 281.754 229.347V229.439H281.77C281.816 230.626 282.617 231.812 284.189 232.721L324.926 256.248C328.161 258.112 333.431 258.112 336.666 256.248L377.188 232.675C378.759 231.766 379.545 230.595 379.607 229.409H379.622V229.285Z" fill="url(#paint28_linear)"/>
<path d="M377.188 206.205L336.451 182.678C333.215 180.814 327.946 180.814 324.71 182.678L284.189 206.251C280.953 208.116 280.953 211.151 284.189 213.031L324.926 236.558C328.162 238.422 333.431 238.422 336.666 236.558L377.188 212.984C380.423 211.12 380.423 208.085 377.188 206.205Z" fill="url(#paint29_radial)"/>
<path d="M377.188 206.205L336.451 182.678C333.215 180.814 327.946 180.814 324.71 182.678L284.189 206.251C280.953 208.116 280.953 211.151 284.189 213.031L324.926 236.558C328.162 238.422 333.431 238.422 336.666 236.558L377.188 212.984C380.423 211.12 380.423 208.085 377.188 206.205Z" fill="url(#paint30_radial)"/>
<path opacity="0.4" d="M330.75 228.823C329.255 228.823 327.776 228.499 326.636 227.837L299.642 212.244C298.456 211.567 297.809 210.627 297.809 209.61C297.809 208.593 298.456 207.668 299.642 206.975L326.497 191.367C328.762 190.058 332.444 190.058 334.725 191.367L361.718 206.96C362.905 207.638 363.552 208.578 363.552 209.594C363.552 210.611 362.905 211.536 361.718 212.229L334.863 227.837C333.723 228.499 332.244 228.823 330.75 228.823ZM330.611 191.275C329.286 191.275 327.961 191.568 326.944 192.153L300.089 207.761C299.195 208.285 298.702 208.947 298.702 209.625C298.702 210.303 299.195 210.966 300.089 211.49L327.083 227.082C329.101 228.253 332.398 228.253 334.417 227.082L361.272 211.474C362.165 210.95 362.658 210.288 362.658 209.61C362.658 208.932 362.165 208.269 361.272 207.746L334.278 192.153C333.261 191.568 331.936 191.275 330.611 191.275Z" fill="#06033E"/>
<path d="M377.187 211.798L336.666 235.356C333.431 237.22 328.161 237.22 324.926 235.356L284.189 211.829C282.833 211.043 282.047 210.057 281.831 209.024C281.523 210.442 282.309 211.921 284.189 213L324.926 236.527C328.161 238.391 333.431 238.391 336.666 236.527L377.187 212.953C379.067 211.859 379.853 210.396 379.545 208.978C379.329 210.026 378.543 211.012 377.187 211.798Z" fill="white"/>
<path d="M342.136 241.765L340.21 242.875V240.656L342.136 239.547V241.765Z" fill="white"/>
<path d="M346.173 239.439L344.247 240.548V238.329L346.173 237.205V239.439Z" fill="white"/>
<path d="M350.21 237.112L348.284 238.222V236.003L350.21 234.878V237.112Z" fill="white"/>
<path d="M346.912 243.521L344.986 244.646V242.412L346.912 241.303V243.521Z" fill="white"/>
<path d="M350.455 241.473L348.529 242.582V240.363L350.455 239.254V241.473Z" fill="white"/>
<path d="M363.152 229.639L361.226 230.749V228.53L363.152 227.405V229.639Z" fill="white"/>
<path d="M374.26 223.215L372.334 224.339V222.105L374.26 220.996V223.215Z" fill="white"/>
<path d="M354.246 234.786L352.32 235.895V233.661L354.246 232.552V234.786Z" fill="white"/>
<path opacity="0.3" d="M172.009 450.258V547.971H254.053V451.937L172.009 450.258Z" fill="url(#paint31_linear)"/>
<path opacity="0.6" d="M171.994 450.258V547.971H172.856V451.937L171.994 450.258Z" fill="url(#paint32_linear)"/>
<path opacity="0.6" d="M253.159 450.258V547.971H254.037V451.937L253.159 450.258Z" fill="url(#paint33_linear)"/>
<path d="M212.946 488.576C210.758 488.576 208.555 488.098 206.891 487.128L166.154 463.601C164.459 462.63 163.535 461.305 163.535 459.888C163.535 458.47 164.459 457.145 166.154 456.174L206.675 432.616C210.019 430.691 215.458 430.691 218.801 432.616L259.538 456.143C261.233 457.114 262.157 458.439 262.157 459.857C262.157 461.274 261.233 462.599 259.538 463.57L219.017 487.143C217.337 488.098 215.134 488.576 212.946 488.576ZM212.73 431.908C210.666 431.908 208.617 432.355 207.045 433.264L166.524 456.821C165.075 457.653 164.274 458.747 164.274 459.888C164.274 461.028 165.075 462.122 166.524 462.954L207.261 486.481C210.389 488.283 215.488 488.283 218.616 486.481L259.137 462.923C260.586 462.091 261.387 460.997 261.387 459.857C261.387 458.717 260.586 457.623 259.137 456.791L218.4 433.264C216.844 432.355 214.78 431.908 212.73 431.908Z" fill="#03A7D3"/>
<path d="M261.973 446.991V427.455L237.29 430.752L218.801 420.074C215.566 418.21 210.296 418.21 207.061 420.074L204.18 421.908L164.105 427.254V447.022C164.105 447.037 164.105 447.037 164.105 447.053V447.145H164.12C164.167 448.332 164.968 449.518 166.539 450.427L207.276 473.954C210.512 475.818 215.781 475.818 219.017 473.954L259.538 450.381C261.11 449.472 261.896 448.301 261.957 447.114H261.973V446.991Z" fill="url(#paint34_linear)"/>
<path d="M259.538 423.911L218.801 400.384C215.565 398.52 210.296 398.52 207.061 400.384L166.539 423.957C163.304 425.822 163.304 428.857 166.539 430.737L207.276 454.264C210.512 456.128 215.781 456.128 219.017 454.264L259.538 430.69C262.774 428.826 262.774 425.791 259.538 423.911Z" fill="url(#paint35_radial)"/>
<path d="M259.538 429.519L219.017 453.077C215.781 454.942 210.512 454.942 207.276 453.077L166.539 429.55C165.183 428.765 164.398 427.778 164.182 426.746C163.874 428.164 164.659 429.643 166.539 430.721L207.276 454.248C210.512 456.113 215.781 456.113 219.017 454.248L259.538 430.675C261.418 429.581 262.204 428.117 261.895 426.7C261.68 427.732 260.894 428.734 259.538 429.519Z" fill="white"/>
<path d="M224.486 459.471L222.56 460.596V458.362L224.486 457.253V459.471Z" fill="white"/>
<path d="M228.523 457.145L226.597 458.254V456.035L228.523 454.926V457.145Z" fill="white"/>
<path d="M232.56 454.818L230.634 455.928V453.709L232.56 452.584V454.818Z" fill="white"/>
<path d="M229.263 461.228L227.337 462.353V460.118L229.263 459.009V461.228Z" fill="white"/>
<path d="M232.806 459.179L230.88 460.303V458.069L232.806 456.96V459.179Z" fill="white"/>
<path d="M245.502 447.346L243.576 448.455V446.236L245.502 445.112V447.346Z" fill="white"/>
<path d="M256.61 440.921L254.685 442.046V439.811L256.61 438.702V440.921Z" fill="white"/>
<path d="M236.596 452.492L234.67 453.601V451.367L236.596 450.258V452.492Z" fill="white"/>
<path opacity="0.4" d="M210.727 444.326L183.317 428.503C182.208 427.856 182.347 426.731 183.625 425.991L210.403 410.522C211.698 409.783 213.639 409.706 214.748 410.337L242.158 426.161C243.267 426.808 243.129 427.933 241.85 428.672L215.072 444.141C213.793 444.881 211.836 444.973 210.727 444.326Z" fill="#06033E"/>
<path d="M199.942 461.459L177.324 448.394C176.785 448.086 176.354 447.238 176.354 446.529V444.85C176.354 444.126 176.785 443.802 177.324 444.11L199.942 457.176C200.481 457.484 200.913 458.331 200.913 459.04V460.72C200.928 461.428 200.481 461.767 199.942 461.459Z" fill="white"/>
<path d="M261.973 410.337V390.8L237.29 394.097L218.801 383.42C215.566 381.556 210.296 381.556 207.061 383.42L204.18 385.254L164.105 390.6V410.368C164.105 410.383 164.105 410.383 164.105 410.398V410.491H164.12C164.167 411.677 164.968 412.864 166.539 413.773L207.276 437.3C210.512 439.164 215.781 439.164 219.017 437.3L259.538 413.726C261.11 412.817 261.896 411.646 261.957 410.46H261.973V410.337Z" fill="url(#paint36_linear)"/>
<path d="M259.538 387.272L218.801 363.745C215.565 361.881 210.296 361.881 207.061 363.745L166.539 387.318C163.304 389.183 163.304 392.218 166.539 394.098L207.276 417.625C210.512 419.489 215.781 419.489 219.017 417.625L259.538 394.051C262.774 392.172 262.774 389.136 259.538 387.272Z" fill="url(#paint37_radial)"/>
<path opacity="0.4" d="M240.124 388.689L216.382 374.977C214.487 373.883 211.436 373.883 209.541 374.977L185.921 388.705C184.026 389.799 184.026 391.571 185.921 392.649L209.664 406.362C211.559 407.456 214.61 407.456 216.505 406.362L240.124 392.634C242.02 391.555 242.02 389.783 240.124 388.689Z" fill="#06033E"/>
<path d="M259.538 392.865L219.017 416.423C215.781 418.287 210.512 418.287 207.276 416.423L166.539 392.896C165.183 392.11 164.398 391.124 164.182 390.092C163.874 391.509 164.659 392.988 166.539 394.067L207.276 417.594C210.512 419.458 215.781 419.458 219.017 417.594L259.538 394.02C261.418 392.926 262.204 391.463 261.895 390.045C261.68 391.093 260.894 392.079 259.538 392.865Z" fill="white"/>
<path d="M224.486 422.832L222.56 423.941V421.723L224.486 420.598V422.832Z" fill="white"/>
<path d="M228.523 420.506L226.597 421.615V419.381L228.523 418.271V420.506Z" fill="white"/>
<path d="M232.56 418.163L230.634 419.288V417.054L232.56 415.945V418.163Z" fill="white"/>
<path d="M229.263 424.588L227.337 425.698V423.479L229.263 422.354V424.588Z" fill="white"/>
<path d="M232.806 422.539L230.88 423.649V421.43L232.806 420.305V422.539Z" fill="white"/>
<path d="M245.502 410.691L243.576 411.815V409.581L245.502 408.472V410.691Z" fill="white"/>
<path d="M256.611 404.281L254.685 405.391V403.172L256.611 402.047V404.281Z" fill="white"/>
<path d="M236.596 415.837L234.67 416.947V414.728L236.596 413.619V415.837Z" fill="white"/>
<path d="M261.973 373.698V354.162L237.29 357.459L218.801 346.782C215.566 344.917 210.296 344.917 207.061 346.782L204.18 348.615L164.105 353.961V373.729C164.105 373.745 164.105 373.745 164.105 373.76V373.852H164.12C164.167 375.039 164.968 376.225 166.539 377.134L207.276 400.661C210.512 402.526 215.781 402.526 219.017 400.661L259.538 377.088C261.11 376.179 261.896 375.008 261.957 373.822H261.973V373.698Z" fill="url(#paint38_linear)"/>
<path d="M259.538 350.634L218.801 327.107C215.565 325.242 210.296 325.242 207.061 327.107L166.539 350.665C163.304 352.529 163.304 355.564 166.539 357.444L207.276 380.971C210.512 382.835 215.781 382.835 219.017 380.971L259.538 357.398C262.774 355.533 262.774 352.498 259.538 350.634Z" fill="url(#paint39_radial)"/>
<path d="M259.538 350.634L218.801 327.107C215.565 325.242 210.296 325.242 207.061 327.107L166.539 350.665C163.304 352.529 163.304 355.564 166.539 357.444L207.276 380.971C210.512 382.835 215.781 382.835 219.017 380.971L259.538 357.398C262.774 355.533 262.774 352.498 259.538 350.634Z" fill="url(#paint40_radial)"/>
<path opacity="0.4" d="M243.853 351.774L216.859 336.182C214.718 334.949 211.236 334.949 209.079 336.182L182.224 351.789C180.082 353.022 180.082 355.04 182.224 356.273L209.217 371.865C211.359 373.098 214.841 373.098 216.998 371.865L243.853 356.258C245.995 355.025 245.995 353.022 243.853 351.774Z" fill="#06033E"/>
<path d="M259.538 356.227L219.017 379.785C215.781 381.649 210.512 381.649 207.276 379.785L166.539 356.258C165.183 355.472 164.398 354.486 164.182 353.453C163.874 354.871 164.659 356.35 166.539 357.429L207.276 380.956C210.512 382.82 215.781 382.82 219.017 380.956L259.538 357.382C261.418 356.288 262.204 354.825 261.895 353.407C261.68 354.44 260.894 355.441 259.538 356.227Z" fill="white"/>
<path d="M224.486 386.178L222.56 387.303V385.069L224.486 383.96V386.178Z" fill="white"/>
<path d="M228.523 383.852L226.597 384.961V382.743L228.523 381.633V383.852Z" fill="white"/>
<path d="M232.56 381.525L230.634 382.635V380.416L232.56 379.291V381.525Z" fill="white"/>
<path d="M229.263 387.935L227.337 389.059V386.825L229.263 385.716V387.935Z" fill="white"/>
<path d="M232.806 385.886L230.88 387.011V384.777L232.806 383.667V385.886Z" fill="white"/>
<path d="M245.502 374.053L243.576 375.162V372.943L245.502 371.819V374.053Z" fill="white"/>
<path d="M256.61 367.628L254.685 368.753V366.519L256.61 365.409V367.628Z" fill="white"/>
<path d="M236.596 379.199L234.67 380.308V378.074L236.596 376.965V379.199Z" fill="white"/>
<path d="M261.973 337.738V318.201L237.29 321.498L218.801 310.821C215.566 308.957 210.296 308.957 207.061 310.821L204.18 312.654L164.105 318.001V337.768C164.105 337.784 164.105 337.784 164.105 337.799V337.892H164.12C164.167 339.078 164.968 340.264 166.539 341.173L207.276 364.701C210.512 366.565 215.781 366.565 219.017 364.701L259.538 341.127C261.11 340.218 261.896 339.047 261.957 337.861H261.973V337.738Z" fill="url(#paint41_linear)"/>
<path d="M259.538 314.673L218.801 291.146C215.565 289.282 210.296 289.282 207.061 291.146L166.539 314.704C163.304 316.568 163.304 319.603 166.539 321.483L207.276 345.01C210.512 346.874 215.781 346.874 219.017 345.01L259.538 321.452C262.774 319.572 262.774 316.537 259.538 314.673Z" fill="url(#paint42_radial)"/>
<path opacity="0.4" d="M240.124 316.09L216.382 302.378C214.487 301.284 211.436 301.284 209.541 302.378L185.921 316.106C184.026 317.2 184.026 318.971 185.921 320.05L209.664 333.763C211.559 334.856 214.61 334.856 216.505 333.763L240.124 320.035C242.02 318.956 242.02 317.184 240.124 316.09Z" fill="#06033E"/>
<path d="M259.538 320.266L219.017 343.824C215.781 345.688 210.512 345.688 207.276 343.824L166.539 320.297C165.183 319.511 164.398 318.525 164.182 317.493C163.874 318.91 164.659 320.389 166.539 321.468L207.276 344.995C210.512 346.859 215.781 346.859 219.017 344.995L259.538 321.422C261.418 320.328 262.204 318.864 261.895 317.446C261.68 318.494 260.894 319.48 259.538 320.266Z" fill="white"/>
<path d="M224.486 350.233L222.56 351.342V349.108L224.486 347.999V350.233Z" fill="white"/>
<path d="M228.523 347.891L226.597 349.016V346.782L228.523 345.672V347.891Z" fill="white"/>
<path d="M232.56 345.564L230.634 346.689V344.455L232.56 343.346V345.564Z" fill="white"/>
<path d="M229.263 351.989L227.337 353.098V350.88L229.263 349.755V351.989Z" fill="white"/>
<path d="M232.806 349.941L230.88 351.05V348.816L232.806 347.707V349.941Z" fill="white"/>
<path d="M245.502 338.092L243.576 339.217V336.983L245.502 335.873V338.092Z" fill="white"/>
<path d="M256.61 331.683L254.685 332.792V330.558L256.61 329.448V331.683Z" fill="white"/>
<path d="M236.596 343.238L234.67 344.347V342.129L236.596 341.004V343.238Z" fill="white"/>
<path d="M261.972 301.099V281.562L237.29 284.859L218.801 274.182C215.565 272.318 210.296 272.318 207.06 274.182L204.179 276.016L164.105 281.362V301.13C164.105 301.145 164.105 301.145 164.105 301.16V301.253H164.12C164.166 302.439 164.968 303.626 166.539 304.535L207.276 328.062C210.512 329.926 215.781 329.926 219.017 328.062L259.538 304.488C261.11 303.579 261.895 302.408 261.957 301.222H261.972V301.099Z" fill="url(#paint43_linear)"/>
<path d="M259.538 278.019L218.801 254.492C215.565 252.627 210.296 252.627 207.06 254.492L166.539 278.049C163.303 279.914 163.303 282.949 166.539 284.829L207.276 308.356C210.512 310.22 215.781 310.22 219.016 308.356L259.538 284.798C262.773 282.934 262.773 279.898 259.538 278.019Z" fill="url(#paint44_radial)"/>
<path d="M259.538 278.019L218.801 254.492C215.565 252.627 210.296 252.627 207.06 254.492L166.539 278.049C163.303 279.914 163.303 282.949 166.539 284.829L207.276 308.356C210.512 310.22 215.781 310.22 219.016 308.356L259.538 284.798C262.773 282.934 262.773 279.898 259.538 278.019Z" fill="url(#paint45_radial)"/>
<path opacity="0.4" d="M213.1 300.636C211.605 300.636 210.126 300.313 208.986 299.65L181.992 284.058C180.806 283.38 180.159 282.44 180.159 281.423C180.159 280.407 180.806 279.482 181.992 278.789L208.847 263.181C211.112 261.871 214.795 261.871 217.075 263.181L244.069 278.789C245.255 279.467 245.902 280.407 245.902 281.423C245.902 282.44 245.255 283.365 244.069 284.058L217.214 299.666C216.089 300.313 214.594 300.636 213.1 300.636ZM212.961 263.089C211.636 263.089 210.311 263.381 209.294 263.967L182.439 279.575C181.546 280.098 181.053 280.761 181.053 281.439C181.053 282.117 181.546 282.779 182.439 283.303L209.433 298.895C211.451 300.066 214.748 300.066 216.767 298.895L243.622 283.288C244.516 282.764 245.009 282.101 245.009 281.423C245.009 280.745 244.516 280.083 243.622 279.559L216.628 263.967C215.611 263.381 214.286 263.089 212.961 263.089Z" fill="#06033E"/>
<path d="M259.538 283.612L219.016 307.17C215.781 309.034 210.512 309.034 207.276 307.17L166.539 283.642C165.183 282.857 164.397 281.871 164.182 280.838C163.873 282.256 164.659 283.735 166.539 284.813L207.276 308.34C210.512 310.205 215.781 310.205 219.016 308.34L259.538 284.767C261.417 283.673 262.203 282.21 261.895 280.792C261.679 281.84 260.894 282.826 259.538 283.612Z" fill="white"/>
<path d="M224.486 313.579L222.56 314.688V312.469L224.486 311.36V313.579Z" fill="white"/>
<path d="M228.523 311.252L226.597 312.362V310.143L228.523 309.018V311.252Z" fill="white"/>
<path d="M232.56 308.926L230.634 310.035V307.817L232.56 306.692V308.926Z" fill="white"/>
<path d="M229.263 315.335L227.337 316.46V314.226L229.263 313.116V315.335Z" fill="white"/>
<path d="M232.806 313.286L230.88 314.395V312.177L232.806 311.067V313.286Z" fill="white"/>
<path d="M245.502 301.453L243.576 302.562V300.344L245.502 299.219V301.453Z" fill="white"/>
<path d="M256.61 295.028L254.685 296.153V293.919L256.61 292.81V295.028Z" fill="white"/>
<path d="M236.596 306.599L234.67 307.708V305.474L236.596 304.365V306.599Z" fill="white"/>
<path opacity="0.3" d="M53.248 378.444V476.158H135.277V380.124L53.248 378.444Z" fill="url(#paint46_linear)"/>
<path opacity="0.6" d="M53.248 378.445V476.158H54.1109V380.124L53.248 378.445Z" fill="url(#paint47_linear)"/>
<path opacity="0.6" d="M134.414 378.444V476.158H135.277V380.124L134.414 378.444Z" fill="url(#paint48_linear)"/>
<path d="M95.0794 416.763C92.8916 416.763 90.6883 416.285 89.0243 415.314L48.2872 391.787C46.5924 390.817 45.668 389.491 45.668 388.074C45.668 386.657 46.5924 385.331 48.2872 384.361L88.8086 360.803C92.152 358.877 97.5908 358.877 100.934 360.803L141.671 384.33C143.366 385.301 144.291 386.626 144.291 388.043C144.291 389.461 143.366 390.786 141.671 391.756L101.15 415.314C99.4705 416.285 97.2827 416.763 95.0794 416.763ZM94.8791 360.094C92.8299 360.094 90.7654 360.541 89.1938 361.45L48.6724 385.008C47.2241 385.84 46.4229 386.934 46.4229 388.074C46.4229 389.214 47.2241 390.308 48.6724 391.14L89.4095 414.667C92.5372 416.47 97.637 416.47 100.765 414.667L141.286 391.109C142.734 390.277 143.536 389.183 143.536 388.043C143.536 386.903 142.734 385.825 141.286 384.977L100.549 361.45C98.9929 360.541 96.9283 360.094 94.8791 360.094Z" fill="#03A7D3"/>
<path d="M144.121 375.178V355.641L119.438 358.938L100.949 348.261C97.7136 346.397 92.4442 346.397 89.2087 348.261L86.3275 350.094L46.2529 355.441V375.208C46.2529 375.224 46.2529 375.224 46.2529 375.239V375.332H46.2683C46.3146 376.518 47.1157 377.704 48.6873 378.613L89.4244 402.14C92.6599 404.005 97.9293 404.005 101.165 402.14L141.686 378.567C143.258 377.658 144.044 376.487 144.105 375.301H144.121V375.178Z" fill="url(#paint49_linear)"/>
<path d="M141.688 352.097L100.95 328.57C97.7149 326.706 92.4456 326.706 89.21 328.57L48.6886 352.144C45.4531 354.008 45.4531 357.043 48.6886 358.923L89.4257 382.45C92.6613 384.314 97.9306 384.314 101.166 382.45L141.688 358.877C144.923 357.012 144.923 353.977 141.688 352.097Z" fill="url(#paint50_radial)"/>
<path d="M141.686 357.705L101.165 381.263C97.9293 383.128 92.66 383.128 89.4244 381.263L48.6873 357.736C47.3315 356.95 46.5457 355.964 46.33 354.932C46.0218 356.35 46.8076 357.829 48.6873 358.907L89.4244 382.434C92.66 384.299 97.9293 384.299 101.165 382.434L141.686 358.861C143.566 357.767 144.352 356.303 144.044 354.886C143.828 355.918 143.042 356.92 141.686 357.705Z" fill="white"/>
<path d="M106.634 387.658L104.708 388.782V386.548L106.634 385.439V387.658Z" fill="white"/>
<path d="M110.671 385.331L108.745 386.44V384.222L110.671 383.112V385.331Z" fill="white"/>
<path d="M114.708 383.005L112.782 384.114V381.895L114.708 380.771V383.005Z" fill="white"/>
<path d="M111.41 389.414L109.484 390.539V388.305L111.41 387.195V389.414Z" fill="white"/>
<path d="M114.954 387.365L113.028 388.49V386.256L114.954 385.146V387.365Z" fill="white"/>
<path d="M127.65 375.532L125.724 376.641V374.423L127.65 373.298V375.532Z" fill="white"/>
<path d="M138.758 369.107L136.832 370.232V367.998L138.758 366.888V369.107Z" fill="white"/>
<path d="M118.744 380.678L116.818 381.787V379.553L118.744 378.444V380.678Z" fill="white"/>
<path opacity="0.4" d="M92.8763 372.513L65.4666 356.689C64.3573 356.042 64.4959 354.917 65.7747 354.178L92.5527 338.709C93.8316 337.969 95.7883 337.892 96.8976 338.524L124.307 354.347C125.417 354.994 125.278 356.119 123.999 356.859L97.2212 372.328C95.9424 373.067 93.9856 373.16 92.8763 372.513Z" fill="#06033E"/>
<path d="M82.0909 389.645L59.4729 376.58C58.9336 376.272 58.5022 375.424 58.5022 374.716V373.036C58.5022 372.312 58.9336 371.989 59.4729 372.297L82.0909 385.362C82.6302 385.67 83.0616 386.518 83.0616 387.227V388.906C83.0616 389.615 82.6302 389.954 82.0909 389.645Z" fill="white"/>
<path d="M144.121 338.524V318.987L119.438 322.284L100.949 311.607C97.7136 309.743 92.4442 309.743 89.2087 311.607L86.3275 313.44L46.2529 318.787V338.554C46.2529 338.57 46.2529 338.57 46.2529 338.585V338.678H46.2683C46.3146 339.864 47.1157 341.05 48.6873 341.959L89.4244 365.487C92.6599 367.351 97.9293 367.351 101.165 365.487L141.686 341.913C143.258 341.004 144.044 339.833 144.105 338.647H144.121V338.524Z" fill="url(#paint51_linear)"/>
<path d="M141.688 315.459L100.95 291.932C97.7149 290.067 92.4456 290.067 89.21 291.932L48.6886 315.489C45.4531 317.354 45.4531 320.389 48.6886 322.269L89.4257 345.796C92.6613 347.66 97.9306 347.66 101.166 345.796L141.688 322.222C144.923 320.358 144.923 317.323 141.688 315.459Z" fill="url(#paint52_radial)"/>
<path opacity="0.4" d="M122.272 316.876L98.5297 303.164C96.6346 302.07 93.5839 302.07 91.6888 303.164L68.0693 316.892C66.1742 317.986 66.1742 319.757 68.0693 320.836L91.812 334.549C93.7072 335.642 96.7578 335.642 98.6529 334.549L122.272 320.821C124.168 319.742 124.168 317.97 122.272 316.876Z" fill="#06033E"/>
<path d="M141.686 321.051L101.165 344.609C97.9293 346.474 92.66 346.474 89.4244 344.609L48.6873 321.082C47.3315 320.297 46.5457 319.31 46.33 318.278C46.0218 319.696 46.8076 321.175 48.6873 322.253L89.4244 345.78C92.66 347.645 97.9293 347.645 101.165 345.78L141.686 322.207C143.566 321.113 144.352 319.649 144.044 318.232C143.828 319.28 143.042 320.266 141.686 321.051Z" fill="white"/>
<path d="M106.634 351.019L104.708 352.128V349.91L106.634 348.785V351.019Z" fill="white"/>
<path d="M110.671 348.693L108.745 349.802V347.568L110.671 346.459V348.693Z" fill="white"/>
<path d="M114.708 346.351L112.782 347.475V345.241L114.708 344.132V346.351Z" fill="white"/>
<path d="M111.41 352.775L109.484 353.885V351.666L111.41 350.541V352.775Z" fill="white"/>
<path d="M114.954 350.727L113.028 351.836V349.617L114.954 348.493V350.727Z" fill="white"/>
<path d="M127.65 338.878L125.724 340.003V337.769L127.65 336.659V338.878Z" fill="white"/>
<path d="M138.758 332.469L136.832 333.578V331.359L138.758 330.234V332.469Z" fill="white"/>
<path d="M118.744 344.024L116.818 345.134V342.915L118.744 341.806V344.024Z" fill="white"/>
<path d="M144.121 301.885V282.349L119.438 285.646L100.949 274.968C97.7136 273.104 92.4442 273.104 89.2087 274.968L86.3275 276.802L46.2529 282.148V301.916C46.2529 301.931 46.2529 301.931 46.2529 301.947V302.039H46.2683C46.3146 303.226 47.1157 304.412 48.6873 305.321L89.4244 328.848C92.6599 330.712 97.9293 330.712 101.165 328.848L141.686 305.275C143.258 304.366 144.044 303.195 144.105 302.008H144.121V301.885Z" fill="url(#paint53_linear)"/>
<path d="M141.688 278.82L100.95 255.293C97.7149 253.429 92.4456 253.429 89.21 255.293L48.6886 278.851C45.4531 280.715 45.4531 283.75 48.6886 285.63L89.4257 309.157C92.6613 311.021 97.9306 311.021 101.166 309.157L141.688 285.599C144.923 283.72 144.923 280.684 141.688 278.82Z" fill="url(#paint54_radial)"/>
<path d="M141.688 278.82L100.95 255.293C97.7149 253.429 92.4456 253.429 89.21 255.293L48.6886 278.851C45.4531 280.715 45.4531 283.75 48.6886 285.63L89.4257 309.157C92.6613 311.021 97.9306 311.021 101.166 309.157L141.688 285.599C144.923 283.72 144.923 280.684 141.688 278.82Z" fill="url(#paint55_radial)"/>
<path opacity="0.4" d="M125.986 279.96L98.9925 264.368C96.8509 263.135 93.3688 263.135 91.2118 264.368L64.3567 279.976C62.2151 281.208 62.2151 283.227 64.3567 284.459L91.3504 300.052C93.492 301.284 96.9741 301.284 99.1312 300.052L125.986 284.444C128.143 283.211 128.143 281.208 125.986 279.96Z" fill="#06033E"/>
<path d="M141.686 284.413L101.165 307.971C97.9293 309.835 92.66 309.835 89.4244 307.971L48.6873 284.444C47.3315 283.658 46.5457 282.672 46.33 281.64C46.0218 283.057 46.8076 284.536 48.6873 285.615L89.4244 309.142C92.66 311.006 97.9293 311.006 101.165 309.142L141.686 285.569C143.566 284.475 144.352 283.011 144.044 281.594C143.828 282.626 143.042 283.627 141.686 284.413Z" fill="white"/>
<path d="M106.634 314.365L104.708 315.49V313.256L106.634 312.146V314.365Z" fill="white"/>
<path d="M110.671 312.038L108.745 313.148V310.929L110.671 309.82V312.038Z" fill="white"/>
<path d="M114.708 309.712L112.782 310.821V308.603L114.708 307.478V309.712Z" fill="white"/>
<path d="M111.41 316.121L109.484 317.246V315.012L111.41 313.902V316.121Z" fill="white"/>
<path d="M114.954 314.073L113.028 315.197V312.963L114.954 311.854V314.073Z" fill="white"/>
<path d="M127.65 302.239L125.724 303.349V301.13L127.65 300.005V302.239Z" fill="white"/>
<path d="M138.758 295.814L136.832 296.939V294.705L138.758 293.596V295.814Z" fill="white"/>
<path d="M118.744 307.385L116.818 308.495V306.26L118.744 305.151V307.385Z" fill="white"/>
<path d="M144.121 265.924V246.388L119.438 249.685L100.949 239.007C97.7136 237.143 92.4442 237.143 89.2087 239.007L86.3275 240.841L46.2529 246.187V265.955C46.2529 265.97 46.2529 265.97 46.2529 265.986V266.078H46.2683C46.3146 267.265 47.1157 268.451 48.6873 269.36L89.4244 292.887C92.6599 294.751 97.9293 294.751 101.165 292.887L141.686 269.314C143.258 268.405 144.044 267.234 144.105 266.047H144.121V265.924Z" fill="url(#paint56_linear)"/>
<path d="M141.688 242.859L100.95 219.332C97.7149 217.468 92.4456 217.468 89.21 219.332L48.6886 242.89C45.4531 244.754 45.4531 247.789 48.6886 249.669L89.4257 273.196C92.6613 275.061 97.9306 275.061 101.166 273.196L141.688 249.638C144.923 247.759 144.923 244.723 141.688 242.859Z" fill="url(#paint57_radial)"/>
<path opacity="0.4" d="M122.272 244.277L98.5297 230.564C96.6346 229.47 93.5839 229.47 91.6888 230.564L68.0693 244.292C66.1742 245.386 66.1742 247.158 68.0693 248.236L91.812 261.949C93.7072 263.043 96.7578 263.043 98.6529 261.949L122.272 248.221C124.168 247.143 124.168 245.371 122.272 244.277Z" fill="#06033E"/>
<path d="M141.686 248.452L101.165 272.01C97.9293 273.874 92.66 273.874 89.4244 272.01L48.6873 248.483C47.3315 247.697 46.5457 246.711 46.33 245.679C46.0218 247.096 46.8076 248.575 48.6873 249.654L89.4244 273.181C92.66 275.045 97.9293 275.045 101.165 273.181L141.686 249.608C143.566 248.514 144.352 247.05 144.044 245.633C143.828 246.68 143.042 247.666 141.686 248.452Z" fill="white"/>
<path d="M106.634 278.42L104.708 279.529V277.295L106.634 276.186V278.42Z" fill="white"/>
<path d="M110.671 276.078L108.745 277.203V274.968L110.671 273.859V276.078Z" fill="white"/>
<path d="M114.708 273.751L112.782 274.876V272.642L114.708 271.533V273.751Z" fill="white"/>
<path d="M111.41 280.175L109.484 281.285V279.066L111.41 277.941V280.175Z" fill="white"/>
<path d="M114.954 278.127L113.028 279.236V277.002L114.954 275.893V278.127Z" fill="white"/>
<path d="M127.65 266.278L125.724 267.403V265.169L127.65 264.06V266.278Z" fill="white"/>
<path d="M138.758 259.869L136.832 260.978V258.744L138.758 257.635V259.869Z" fill="white"/>
<path d="M118.744 271.424L116.818 272.534V270.315L118.744 269.19V271.424Z" fill="white"/>
<path d="M144.121 229.285V209.749L119.438 213.046L100.949 202.369C97.7136 200.505 92.4442 200.505 89.2087 202.369L86.3275 204.202L46.2529 209.549V229.316C46.2529 229.332 46.2529 229.332 46.2529 229.347V229.44H46.2683C46.3146 230.626 47.1157 231.812 48.6873 232.721L89.4244 256.248C92.6599 258.113 97.9293 258.113 101.165 256.248L141.686 232.675C143.258 231.766 144.044 230.595 144.105 229.409H144.121V229.285Z" fill="url(#paint58_linear)"/>
<path d="M141.687 206.205L100.95 182.678C97.7141 180.814 92.4448 180.814 89.2093 182.678L48.6879 206.251C45.4523 208.116 45.4523 211.151 48.6879 213.031L89.425 236.558C92.6605 238.422 97.9299 238.422 101.165 236.558L141.687 212.984C144.922 211.12 144.922 208.085 141.687 206.205Z" fill="url(#paint59_radial)"/>
<path d="M141.687 206.205L100.95 182.678C97.7141 180.814 92.4448 180.814 89.2093 182.678L48.6879 206.251C45.4523 208.116 45.4523 211.151 48.6879 213.031L89.425 236.558C92.6605 238.422 97.9299 238.422 101.165 236.558L141.687 212.984C144.922 211.12 144.922 208.085 141.687 206.205Z" fill="url(#paint60_radial)"/>
<path d="M141.686 211.798L101.165 235.356C97.9293 237.22 92.66 237.22 89.4244 235.356L48.6873 211.829C47.3315 211.043 46.5457 210.057 46.33 209.024C46.0218 210.442 46.8076 211.921 48.6873 213L89.4244 236.527C92.66 238.391 97.9293 238.391 101.165 236.527L141.686 212.953C143.566 211.859 144.352 210.396 144.044 208.978C143.828 210.026 143.042 211.012 141.686 211.798Z" fill="white"/>
<path d="M106.634 241.765L104.708 242.875V240.656L106.634 239.547V241.765Z" fill="white"/>
<path d="M110.671 239.439L108.745 240.548V238.33L110.671 237.205V239.439Z" fill="white"/>
<path d="M114.708 237.113L112.782 238.222V236.003L114.708 234.879V237.113Z" fill="white"/>
<path d="M111.41 243.522L109.484 244.647V242.413L111.41 241.303V243.522Z" fill="white"/>
<path d="M114.954 241.473L113.028 242.582V240.364L114.954 239.254V241.473Z" fill="white"/>
<path d="M127.65 229.64L125.724 230.749V228.531L127.65 227.406V229.64Z" fill="white"/>
<path d="M138.758 223.215L136.832 224.34V222.106L138.758 220.996V223.215Z" fill="white"/>
<path d="M118.744 234.786L116.818 235.895V233.661L118.744 232.552V234.786Z" fill="white"/>
<path opacity="0.8" d="M12.2029 413.604C12.2337 416.978 9.53743 419.736 6.16321 419.767C2.789 419.798 0.0310763 417.101 0.000261513 413.727C-0.0305532 410.353 2.66573 407.595 6.03995 407.564C9.41416 407.533 12.1721 410.23 12.2029 413.604Z" fill="#01C8EF"/>
<path opacity="0.8" d="M8.56723 374.053C8.58264 375.655 7.30383 376.965 5.70147 376.98C4.0991 376.996 2.78947 375.717 2.77406 374.115C2.75866 372.512 4.03747 371.203 5.63984 371.187C7.2422 371.187 8.55183 372.466 8.56723 374.053Z" fill="#01C8EF"/>
<path opacity="0.8" d="M183.949 449.21C183.964 451.167 182.408 452.769 180.452 452.785C178.495 452.8 176.892 451.244 176.877 449.287C176.862 447.331 178.418 445.728 180.375 445.713C182.331 445.697 183.918 447.269 183.949 449.21Z" fill="#01C8EF"/>
<path d="M125.987 207.36L98.9932 191.768C96.8516 190.536 93.3695 190.536 91.2125 191.768L64.3574 207.376C62.2158 208.608 62.2158 210.627 64.3574 211.859L91.3512 227.452C93.4928 228.684 96.9748 228.684 99.1319 227.452L125.987 211.844C128.144 210.611 128.144 208.608 125.987 207.36Z" fill="white"/>
<path opacity="0.3" d="M160.345 42.1162L133.798 44.6122L127.651 145.53L103.322 163.542L62.7702 145.9L54.9124 39.6048L26.4858 37.1088L62.7548 209.625C62.7548 210.442 63.2787 211.258 64.3572 211.89L91.3509 227.482C93.4925 228.715 96.9746 228.715 99.1316 227.482L125.987 211.875C127.05 211.258 127.589 210.457 127.589 209.641H127.635L160.345 42.1162Z" fill="url(#paint61_linear)"/>
<path opacity="0.3" d="M372.335 223.508L491.295 292.302L492.466 290.299L373.983 221.782L372.335 223.508Z" fill="url(#paint62_linear)"/>
<path opacity="0.3" d="M254.792 331.868L373.752 400.662L374.908 398.659L256.425 330.142L254.792 331.868Z" fill="url(#paint63_linear)"/>
<path opacity="0.3" d="M62.7551 145.593V243.306H63.6179V147.257L62.7551 145.593Z" fill="url(#paint64_linear)"/>
<path opacity="0.3" d="M94.7402 164.266V261.964H95.6185V165.93L94.7402 164.266Z" fill="url(#paint65_linear)"/>
<path opacity="0.3" d="M126.741 146.733V244.446H127.604V148.412L126.741 146.733Z" fill="url(#paint66_linear)"/>
<path d="M127.65 149.213V145.531L111.272 147.719L99.008 140.631C96.851 139.383 93.3689 139.383 91.2119 140.631L89.3014 141.848L62.7083 145.392V149.213V149.229V149.29H62.7237C62.7545 150.076 63.2783 150.862 64.326 151.463L91.3506 167.07C93.5076 168.318 96.9897 168.318 99.1467 167.07L126.033 151.463C127.08 150.862 127.604 150.076 127.635 149.29H127.65V149.213Z" fill="url(#paint67_linear)"/>
<path d="M126.034 143.189L99.009 127.581C96.852 126.333 93.3699 126.333 91.2129 127.581L64.327 143.22C62.17 144.468 62.17 146.47 64.327 147.718L91.3515 163.326C93.5086 164.574 96.9906 164.574 99.1477 163.326L126.034 147.688C128.191 146.455 128.191 144.437 126.034 143.189Z" fill="url(#paint68_radial)"/>
<path d="M126.032 146.902L99.1464 162.54C96.9894 163.788 93.5073 163.788 91.3503 162.54L64.3257 146.933C63.4167 146.409 62.9083 145.762 62.7542 145.084C62.5539 146.024 63.0777 147.01 64.3257 147.718L91.3503 163.326C93.5073 164.574 96.9894 164.574 99.1464 163.326L126.032 147.688C127.28 146.963 127.804 145.993 127.604 145.053C127.45 145.731 126.941 146.393 126.032 146.902Z" fill="white"/>
<path opacity="0.3" d="M659.729 325.658C653.134 336.536 527.965 272.78 380.131 183.248C232.297 93.7158 117.805 12.3187 124.4 1.44108C130.994 -9.43653 256.163 54.3192 403.997 143.851C551.831 233.384 666.323 314.781 659.729 325.658Z" fill="url(#paint69_radial)"/>
<path d="M379.562 183.002C379.592 186.376 376.896 189.134 373.522 189.165C370.148 189.195 367.39 186.499 367.359 183.125C367.328 179.751 370.024 176.993 373.399 176.962C376.757 176.916 379.515 179.627 379.562 183.002Z" fill="white"/>
<path d="M393.028 187.762C393.058 189.919 391.317 191.691 389.16 191.707C387.003 191.737 385.231 189.996 385.216 187.839C385.185 185.682 386.926 183.911 389.083 183.895C391.24 183.88 392.997 185.605 393.028 187.762Z" fill="white"/>
<path d="M398.729 178.025C398.744 179.55 397.527 180.798 396.002 180.814C394.476 180.829 393.228 179.612 393.213 178.087C393.197 176.561 394.415 175.313 395.94 175.298C397.465 175.283 398.713 176.5 398.729 178.025Z" fill="white"/>
<path d="M394.969 169.212C394.984 170.183 394.198 170.968 393.228 170.984C392.257 170.999 391.471 170.213 391.456 169.243C391.44 168.272 392.226 167.486 393.197 167.471C394.152 167.471 394.953 168.241 394.969 169.212Z" fill="white"/>
<path opacity="0.8" d="M375.926 143.451C375.941 145.053 374.662 146.363 373.06 146.378C371.458 146.394 370.148 145.115 370.133 143.512C370.117 141.91 371.396 140.6 372.999 140.585C374.585 140.57 375.895 141.848 375.926 143.451Z" fill="#01C8EF"/>
<path opacity="0.8" d="M530.539 233.446C530.554 235.048 529.276 236.357 527.673 236.373C526.071 236.388 524.761 235.109 524.746 233.507C524.73 231.905 526.009 230.595 527.612 230.58C529.214 230.564 530.524 231.843 530.539 233.446Z" fill="#01C8EF"/>
<path opacity="0.8" d="M539.259 251.642C539.274 253.752 537.595 255.478 535.469 255.509C533.358 255.524 531.632 253.845 531.601 251.719C531.586 249.608 533.265 247.882 535.392 247.851C537.502 247.836 539.243 249.531 539.259 251.642Z" fill="#01C8EF"/>
<path opacity="0.8" d="M515.639 251.904C515.655 253.398 514.453 254.615 512.958 254.631C511.464 254.646 510.247 253.444 510.231 251.95C510.216 250.455 511.418 249.238 512.912 249.223C514.407 249.207 515.624 250.409 515.639 251.904Z" fill="#01C8EF"/>
<path opacity="0.8" d="M500.463 242.921C500.463 243.568 499.955 244.092 499.308 244.092C498.661 244.092 498.137 243.583 498.137 242.936C498.137 242.289 498.645 241.765 499.292 241.765C499.939 241.765 500.448 242.289 500.463 242.921Z" fill="#01C8EF"/>
<path opacity="0.8" d="M497.336 217.622C497.351 218.623 496.55 219.44 495.548 219.455C494.547 219.471 493.73 218.67 493.715 217.668C493.699 216.667 494.501 215.85 495.502 215.835C496.519 215.819 497.336 216.62 497.336 217.622Z" fill="#01C8EF"/>
<path opacity="0.8" d="M308.041 134.699C308.072 137.088 306.146 139.06 303.757 139.091C301.369 139.121 299.397 137.195 299.366 134.807C299.336 132.419 301.261 130.447 303.65 130.416C306.053 130.37 308.01 132.296 308.041 134.699Z" fill="#01C8EF"/>
<defs>
<radialGradient id="paint0_radial" cx="0" cy="0" r="1" gradientUnits="userSpaceOnUse" gradientTransform="translate(212.931 172.295) scale(167.377 158.138)">
<stop stop-color="#01C8EF"/>
<stop offset="0.0776" stop-color="#01A4CC"/>
<stop offset="0.184" stop-color="#0179A3"/>
<stop offset="0.2959" stop-color="#02547F"/>
<stop offset="0.4122" stop-color="#023663"/>
<stop offset="0.5346" stop-color="#021F4C"/>
<stop offset="0.6654" stop-color="#020F3C"/>
<stop offset="0.8108" stop-color="#020533"/>
<stop offset="1" stop-color="#020230"/>
</radialGradient>
<linearGradient id="paint1_linear" x1="172.346" y1="409.003" x2="172.346" y2="311.294" gradientUnits="userSpaceOnUse">
<stop stop-color="#020230"/>
<stop offset="0.1892" stop-color="#020533"/>
<stop offset="0.3346" stop-color="#020F3C"/>
<stop offset="0.4654" stop-color="#021F4C"/>
<stop offset="0.5878" stop-color="#023663"/>
<stop offset="0.7041" stop-color="#02547F"/>
<stop offset="0.816" stop-color="#0179A3"/>
<stop offset="0.9224" stop-color="#01A4CC"/>
<stop offset="1" stop-color="#01C8EF"/>
</linearGradient>
<linearGradient id="paint2_linear" x1="253.519" y1="409.003" x2="253.519" y2="311.294" gradientUnits="userSpaceOnUse">
<stop stop-color="#020230"/>
<stop offset="0.1892" stop-color="#020533"/>
<stop offset="0.3346" stop-color="#020F3C"/>
<stop offset="0.4654" stop-color="#021F4C"/>
<stop offset="0.5878" stop-color="#023663"/>
<stop offset="0.7041" stop-color="#02547F"/>
<stop offset="0.816" stop-color="#0179A3"/>
<stop offset="0.9224" stop-color="#01A4CC"/>
<stop offset="1" stop-color="#01C8EF"/>
</linearGradient>
<linearGradient id="paint3_linear" x1="212.932" y1="409.316" x2="212.932" y2="311.606" gradientUnits="userSpaceOnUse">
<stop stop-color="#020230"/>
<stop offset="0.1892" stop-color="#020533"/>
<stop offset="0.3346" stop-color="#020F3C"/>
<stop offset="0.4654" stop-color="#021F4C"/>
<stop offset="0.5878" stop-color="#023663"/>
<stop offset="0.7041" stop-color="#02547F"/>
<stop offset="0.816" stop-color="#0179A3"/>
<stop offset="0.9224" stop-color="#01A4CC"/>
<stop offset="1" stop-color="#01C8EF"/>
</linearGradient>
<linearGradient id="paint4_linear" x1="158.113" y1="306.191" x2="227.128" y2="306.191" gradientUnits="userSpaceOnUse">
<stop stop-color="#01C8EF"/>
<stop offset="0.1297" stop-color="#04B1DD"/>
<stop offset="0.5466" stop-color="#0E6BA7"/>
<stop offset="0.8476" stop-color="#154085"/>
<stop offset="1" stop-color="#172F78"/>
</linearGradient>
<radialGradient id="paint5_radial" cx="0" cy="0" r="1" gradientUnits="userSpaceOnUse" gradientTransform="translate(145.875 254.44) scale(154.124)">
<stop stop-color="#01C8EF"/>
<stop offset="0.1396" stop-color="#03BAE4"/>
<stop offset="0.4033" stop-color="#0895C8"/>
<stop offset="0.76" stop-color="#115A9A"/>
<stop offset="1" stop-color="#172F78"/>
</radialGradient>
<linearGradient id="paint6_linear" x1="158.113" y1="269.545" x2="227.128" y2="269.545" gradientUnits="userSpaceOnUse">
<stop stop-color="#01C8EF"/>
<stop offset="0.1297" stop-color="#04B1DD"/>
<stop offset="0.5466" stop-color="#0E6BA7"/>
<stop offset="0.8476" stop-color="#154085"/>
<stop offset="1" stop-color="#172F78"/>
</linearGradient>
<radialGradient id="paint7_radial" cx="0" cy="0" r="1" gradientUnits="userSpaceOnUse" gradientTransform="translate(145.875 217.794) scale(154.124)">
<stop stop-color="#01C8EF"/>
<stop offset="0.1396" stop-color="#03BAE4"/>
<stop offset="0.4033" stop-color="#0895C8"/>
<stop offset="0.76" stop-color="#115A9A"/>
<stop offset="1" stop-color="#172F78"/>
</radialGradient>
<linearGradient id="paint8_linear" x1="158.113" y1="232.899" x2="227.128" y2="232.899" gradientUnits="userSpaceOnUse">
<stop stop-color="#01C8EF"/>
<stop offset="0.1297" stop-color="#04B1DD"/>
<stop offset="0.5466" stop-color="#0E6BA7"/>
<stop offset="0.8476" stop-color="#154085"/>
<stop offset="1" stop-color="#172F78"/>
</linearGradient>
<radialGradient id="paint9_radial" cx="0" cy="0" r="1" gradientUnits="userSpaceOnUse" gradientTransform="translate(145.875 181.148) scale(154.124)">
<stop stop-color="#01C8EF"/>
<stop offset="0.1396" stop-color="#03BAE4"/>
<stop offset="0.4033" stop-color="#0895C8"/>
<stop offset="0.76" stop-color="#115A9A"/>
<stop offset="1" stop-color="#172F78"/>
</radialGradient>
<radialGradient id="paint10_radial" cx="0" cy="0" r="1" gradientUnits="userSpaceOnUse" gradientTransform="translate(159.475 190.435) scale(105.966)">
<stop stop-color="#01C8EF"/>
<stop offset="0.1396" stop-color="#03BAE4"/>
<stop offset="0.4033" stop-color="#0895C8"/>
<stop offset="0.76" stop-color="#115A9A"/>
<stop offset="1" stop-color="#172F78"/>
</radialGradient>
<linearGradient id="paint11_linear" x1="158.113" y1="196.943" x2="227.128" y2="196.943" gradientUnits="userSpaceOnUse">
<stop stop-color="#01C8EF"/>
<stop offset="0.1297" stop-color="#04B1DD"/>
<stop offset="0.5466" stop-color="#0E6BA7"/>
<stop offset="0.8476" stop-color="#154085"/>
<stop offset="1" stop-color="#172F78"/>
</linearGradient>
<radialGradient id="paint12_radial" cx="0" cy="0" r="1" gradientUnits="userSpaceOnUse" gradientTransform="translate(145.875 145.192) scale(154.124)">
<stop stop-color="#01C8EF"/>
<stop offset="0.1396" stop-color="#03BAE4"/>
<stop offset="0.4033" stop-color="#0895C8"/>
<stop offset="0.76" stop-color="#115A9A"/>
<stop offset="1" stop-color="#172F78"/>
</radialGradient>
<linearGradient id="paint13_linear" x1="158.113" y1="160.298" x2="227.128" y2="160.298" gradientUnits="userSpaceOnUse">
<stop stop-color="#01C8EF"/>
<stop offset="0.1297" stop-color="#04B1DD"/>
<stop offset="0.5466" stop-color="#0E6BA7"/>
<stop offset="0.8476" stop-color="#154085"/>
<stop offset="1" stop-color="#172F78"/>
</linearGradient>
<radialGradient id="paint14_radial" cx="0" cy="0" r="1" gradientUnits="userSpaceOnUse" gradientTransform="translate(145.875 108.546) scale(154.124)">
<stop stop-color="#01C8EF"/>
<stop offset="0.1396" stop-color="#03BAE4"/>
<stop offset="0.4033" stop-color="#0895C8"/>
<stop offset="0.76" stop-color="#115A9A"/>
<stop offset="1" stop-color="#172F78"/>
</radialGradient>
<radialGradient id="paint15_radial" cx="0" cy="0" r="1" gradientUnits="userSpaceOnUse" gradientTransform="translate(159.475 117.833) scale(105.966)">
<stop stop-color="#01C8EF"/>
<stop offset="0.1396" stop-color="#03BAE4"/>
<stop offset="0.4033" stop-color="#0895C8"/>
<stop offset="0.76" stop-color="#115A9A"/>
<stop offset="1" stop-color="#172F78"/>
</radialGradient>
<linearGradient id="paint16_linear" x1="330.684" y1="476.156" x2="330.684" y2="378.446" gradientUnits="userSpaceOnUse">
<stop stop-color="#020230"/>
<stop offset="0.1892" stop-color="#020533"/>
<stop offset="0.3346" stop-color="#020F3C"/>
<stop offset="0.4654" stop-color="#021F4C"/>
<stop offset="0.5878" stop-color="#023663"/>
<stop offset="0.7041" stop-color="#02547F"/>
<stop offset="0.816" stop-color="#0179A3"/>
<stop offset="0.9224" stop-color="#01A4CC"/>
<stop offset="1" stop-color="#01C8EF"/>
</linearGradient>
<linearGradient id="paint17_linear" x1="290.074" y1="476.156" x2="290.074" y2="378.446" gradientUnits="userSpaceOnUse">
<stop stop-color="#020230"/>
<stop offset="0.1892" stop-color="#020533"/>
<stop offset="0.3346" stop-color="#020F3C"/>
<stop offset="0.4654" stop-color="#021F4C"/>
<stop offset="0.5878" stop-color="#023663"/>
<stop offset="0.7041" stop-color="#02547F"/>
<stop offset="0.816" stop-color="#0179A3"/>
<stop offset="0.9224" stop-color="#01A4CC"/>
<stop offset="1" stop-color="#01C8EF"/>
</linearGradient>
<linearGradient id="paint18_linear" x1="371.246" y1="476.156" x2="371.246" y2="378.446" gradientUnits="userSpaceOnUse">
<stop stop-color="#020230"/>
<stop offset="0.1892" stop-color="#020533"/>
<stop offset="0.3346" stop-color="#020F3C"/>
<stop offset="0.4654" stop-color="#021F4C"/>
<stop offset="0.5878" stop-color="#023663"/>
<stop offset="0.7041" stop-color="#02547F"/>
<stop offset="0.816" stop-color="#0179A3"/>
<stop offset="0.9224" stop-color="#01A4CC"/>
<stop offset="1" stop-color="#01C8EF"/>
</linearGradient>
<linearGradient id="paint19_linear" x1="275.863" y1="375.195" x2="344.878" y2="375.195" gradientUnits="userSpaceOnUse">
<stop stop-color="#01C8EF"/>
<stop offset="0.1297" stop-color="#04B1DD"/>
<stop offset="0.5466" stop-color="#0E6BA7"/>
<stop offset="0.8476" stop-color="#154085"/>
<stop offset="1" stop-color="#172F78"/>
</linearGradient>
<radialGradient id="paint20_radial" cx="0" cy="0" r="1" gradientUnits="userSpaceOnUse" gradientTransform="translate(263.625 323.444) scale(154.124)">
<stop stop-color="#01C8EF"/>
<stop offset="0.1396" stop-color="#03BAE4"/>
<stop offset="0.4033" stop-color="#0895C8"/>
<stop offset="0.76" stop-color="#115A9A"/>
<stop offset="1" stop-color="#172F78"/>
</radialGradient>
<linearGradient id="paint21_linear" x1="275.863" y1="338.549" x2="344.878" y2="338.549" gradientUnits="userSpaceOnUse">
<stop stop-color="#01C8EF"/>
<stop offset="0.1297" stop-color="#04B1DD"/>
<stop offset="0.5466" stop-color="#0E6BA7"/>
<stop offset="0.8476" stop-color="#154085"/>
<stop offset="1" stop-color="#172F78"/>
</linearGradient>
<radialGradient id="paint22_radial" cx="0" cy="0" r="1" gradientUnits="userSpaceOnUse" gradientTransform="translate(263.625 286.798) scale(154.124)">
<stop stop-color="#01C8EF"/>
<stop offset="0.1396" stop-color="#03BAE4"/>
<stop offset="0.4033" stop-color="#0895C8"/>
<stop offset="0.76" stop-color="#115A9A"/>
<stop offset="1" stop-color="#172F78"/>
</radialGradient>
<linearGradient id="paint23_linear" x1="275.863" y1="301.903" x2="344.878" y2="301.903" gradientUnits="userSpaceOnUse">
<stop stop-color="#01C8EF"/>
<stop offset="0.1297" stop-color="#04B1DD"/>
<stop offset="0.5466" stop-color="#0E6BA7"/>
<stop offset="0.8476" stop-color="#154085"/>
<stop offset="1" stop-color="#172F78"/>
</linearGradient>
<radialGradient id="paint24_radial" cx="0" cy="0" r="1" gradientUnits="userSpaceOnUse" gradientTransform="translate(263.625 250.151) scale(154.124)">
<stop stop-color="#01C8EF"/>
<stop offset="0.1396" stop-color="#03BAE4"/>
<stop offset="0.4033" stop-color="#0895C8"/>
<stop offset="0.76" stop-color="#115A9A"/>
<stop offset="1" stop-color="#172F78"/>
</radialGradient>
<radialGradient id="paint25_radial" cx="0" cy="0" r="1" gradientUnits="userSpaceOnUse" gradientTransform="translate(277.225 259.438) scale(105.966)">
<stop stop-color="#01C8EF"/>
<stop offset="0.1396" stop-color="#03BAE4"/>
<stop offset="0.4033" stop-color="#0895C8"/>
<stop offset="0.76" stop-color="#115A9A"/>
<stop offset="1" stop-color="#172F78"/>
</radialGradient>
<linearGradient id="paint26_linear" x1="275.863" y1="265.947" x2="344.878" y2="265.947" gradientUnits="userSpaceOnUse">
<stop stop-color="#01C8EF"/>
<stop offset="0.1297" stop-color="#04B1DD"/>
<stop offset="0.5466" stop-color="#0E6BA7"/>
<stop offset="0.8476" stop-color="#154085"/>
<stop offset="1" stop-color="#172F78"/>
</linearGradient>
<radialGradient id="paint27_radial" cx="0" cy="0" r="1" gradientUnits="userSpaceOnUse" gradientTransform="translate(263.625 214.195) scale(154.124 154.124)">
<stop stop-color="#01C8EF"/>
<stop offset="0.1396" stop-color="#03BAE4"/>
<stop offset="0.4033" stop-color="#0895C8"/>
<stop offset="0.76" stop-color="#115A9A"/>
<stop offset="1" stop-color="#172F78"/>
</radialGradient>
<linearGradient id="paint28_linear" x1="275.863" y1="229.301" x2="344.878" y2="229.301" gradientUnits="userSpaceOnUse">
<stop stop-color="#01C8EF"/>
<stop offset="0.1297" stop-color="#04B1DD"/>
<stop offset="0.5466" stop-color="#0E6BA7"/>
<stop offset="0.8476" stop-color="#154085"/>
<stop offset="1" stop-color="#172F78"/>
</linearGradient>
<radialGradient id="paint29_radial" cx="0" cy="0" r="1" gradientUnits="userSpaceOnUse" gradientTransform="translate(263.625 177.549) scale(154.124)">
<stop stop-color="#01C8EF"/>
<stop offset="0.1396" stop-color="#03BAE4"/>
<stop offset="0.4033" stop-color="#0895C8"/>
<stop offset="0.76" stop-color="#115A9A"/>
<stop offset="1" stop-color="#172F78"/>
</radialGradient>
<radialGradient id="paint30_radial" cx="0" cy="0" r="1" gradientUnits="userSpaceOnUse" gradientTransform="translate(277.225 186.837) scale(105.966)">
<stop stop-color="#01C8EF"/>
<stop offset="0.1396" stop-color="#03BAE4"/>
<stop offset="0.4033" stop-color="#0895C8"/>
<stop offset="0.76" stop-color="#115A9A"/>
<stop offset="1" stop-color="#172F78"/>
</radialGradient>
<linearGradient id="paint31_linear" x1="213.035" y1="547.97" x2="213.035" y2="450.26" gradientUnits="userSpaceOnUse">
<stop stop-color="#020230"/>
<stop offset="0.1892" stop-color="#020533"/>
<stop offset="0.3346" stop-color="#020F3C"/>
<stop offset="0.4654" stop-color="#021F4C"/>
<stop offset="0.5878" stop-color="#023663"/>
<stop offset="0.7041" stop-color="#02547F"/>
<stop offset="0.816" stop-color="#0179A3"/>
<stop offset="0.9224" stop-color="#01A4CC"/>
<stop offset="1" stop-color="#01C8EF"/>
</linearGradient>
<linearGradient id="paint32_linear" x1="172.425" y1="547.97" x2="172.425" y2="450.26" gradientUnits="userSpaceOnUse">
<stop stop-color="#020230"/>
<stop offset="0.1892" stop-color="#020533"/>
<stop offset="0.3346" stop-color="#020F3C"/>
<stop offset="0.4654" stop-color="#021F4C"/>
<stop offset="0.5878" stop-color="#023663"/>
<stop offset="0.7041" stop-color="#02547F"/>
<stop offset="0.816" stop-color="#0179A3"/>
<stop offset="0.9224" stop-color="#01A4CC"/>
<stop offset="1" stop-color="#01C8EF"/>
</linearGradient>
<linearGradient id="paint33_linear" x1="253.597" y1="547.97" x2="253.597" y2="450.26" gradientUnits="userSpaceOnUse">
<stop stop-color="#020230"/>
<stop offset="0.1892" stop-color="#020533"/>
<stop offset="0.3346" stop-color="#020F3C"/>
<stop offset="0.4654" stop-color="#021F4C"/>
<stop offset="0.5878" stop-color="#023663"/>
<stop offset="0.7041" stop-color="#02547F"/>
<stop offset="0.816" stop-color="#0179A3"/>
<stop offset="0.9224" stop-color="#01A4CC"/>
<stop offset="1" stop-color="#01C8EF"/>
</linearGradient>
<linearGradient id="paint34_linear" x1="158.214" y1="447.009" x2="227.229" y2="447.009" gradientUnits="userSpaceOnUse">
<stop stop-color="#01C8EF"/>
<stop offset="0.1297" stop-color="#04B1DD"/>
<stop offset="0.5466" stop-color="#0E6BA7"/>
<stop offset="0.8476" stop-color="#154085"/>
<stop offset="1" stop-color="#172F78"/>
</linearGradient>
<radialGradient id="paint35_radial" cx="0" cy="0" r="1" gradientUnits="userSpaceOnUse" gradientTransform="translate(145.977 395.257) scale(154.124)">
<stop stop-color="#01C8EF"/>
<stop offset="0.1396" stop-color="#03BAE4"/>
<stop offset="0.4033" stop-color="#0895C8"/>
<stop offset="0.76" stop-color="#115A9A"/>
<stop offset="1" stop-color="#172F78"/>
</radialGradient>
<linearGradient id="paint36_linear" x1="158.214" y1="410.362" x2="227.229" y2="410.362" gradientUnits="userSpaceOnUse">
<stop stop-color="#01C8EF"/>
<stop offset="0.1297" stop-color="#04B1DD"/>
<stop offset="0.5466" stop-color="#0E6BA7"/>
<stop offset="0.8476" stop-color="#154085"/>
<stop offset="1" stop-color="#172F78"/>
</linearGradient>
<radialGradient id="paint37_radial" cx="0" cy="0" r="1" gradientUnits="userSpaceOnUse" gradientTransform="translate(145.977 358.611) scale(154.124)">
<stop stop-color="#01C8EF"/>
<stop offset="0.1396" stop-color="#03BAE4"/>
<stop offset="0.4033" stop-color="#0895C8"/>
<stop offset="0.76" stop-color="#115A9A"/>
<stop offset="1" stop-color="#172F78"/>
</radialGradient>
<linearGradient id="paint38_linear" x1="158.214" y1="373.716" x2="227.229" y2="373.716" gradientUnits="userSpaceOnUse">
<stop stop-color="#01C8EF"/>
<stop offset="0.1297" stop-color="#04B1DD"/>
<stop offset="0.5466" stop-color="#0E6BA7"/>
<stop offset="0.8476" stop-color="#154085"/>
<stop offset="1" stop-color="#172F78"/>
</linearGradient>
<radialGradient id="paint39_radial" cx="0" cy="0" r="1" gradientUnits="userSpaceOnUse" gradientTransform="translate(145.977 321.965) scale(154.124)">
<stop stop-color="#01C8EF"/>
<stop offset="0.1396" stop-color="#03BAE4"/>
<stop offset="0.4033" stop-color="#0895C8"/>
<stop offset="0.76" stop-color="#115A9A"/>
<stop offset="1" stop-color="#172F78"/>
</radialGradient>
<radialGradient id="paint40_radial" cx="0" cy="0" r="1" gradientUnits="userSpaceOnUse" gradientTransform="translate(159.577 331.252) scale(105.966)">
<stop stop-color="#01C8EF"/>
<stop offset="0.1396" stop-color="#03BAE4"/>
<stop offset="0.4033" stop-color="#0895C8"/>
<stop offset="0.76" stop-color="#115A9A"/>
<stop offset="1" stop-color="#172F78"/>
</radialGradient>
<linearGradient id="paint41_linear" x1="158.214" y1="337.76" x2="227.229" y2="337.76" gradientUnits="userSpaceOnUse">
<stop stop-color="#01C8EF"/>
<stop offset="0.1297" stop-color="#04B1DD"/>
<stop offset="0.5466" stop-color="#0E6BA7"/>
<stop offset="0.8476" stop-color="#154085"/>
<stop offset="1" stop-color="#172F78"/>
</linearGradient>
<radialGradient id="paint42_radial" cx="0" cy="0" r="1" gradientUnits="userSpaceOnUse" gradientTransform="translate(145.977 286.009) scale(154.124)">
<stop stop-color="#01C8EF"/>
<stop offset="0.1396" stop-color="#03BAE4"/>
<stop offset="0.4033" stop-color="#0895C8"/>
<stop offset="0.76" stop-color="#115A9A"/>
<stop offset="1" stop-color="#172F78"/>
</radialGradient>
<linearGradient id="paint43_linear" x1="158.214" y1="301.114" x2="227.229" y2="301.114" gradientUnits="userSpaceOnUse">
<stop stop-color="#01C8EF"/>
<stop offset="0.1297" stop-color="#04B1DD"/>
<stop offset="0.5466" stop-color="#0E6BA7"/>
<stop offset="0.8476" stop-color="#154085"/>
<stop offset="1" stop-color="#172F78"/>
</linearGradient>
<radialGradient id="paint44_radial" cx="0" cy="0" r="1" gradientUnits="userSpaceOnUse" gradientTransform="translate(145.976 249.363) scale(154.124)">
<stop stop-color="#01C8EF"/>
<stop offset="0.1396" stop-color="#03BAE4"/>
<stop offset="0.4033" stop-color="#0895C8"/>
<stop offset="0.76" stop-color="#115A9A"/>
<stop offset="1" stop-color="#172F78"/>
</radialGradient>
<radialGradient id="paint45_radial" cx="0" cy="0" r="1" gradientUnits="userSpaceOnUse" gradientTransform="translate(159.576 258.65) scale(105.966)">
<stop stop-color="#01C8EF"/>
<stop offset="0.1396" stop-color="#03BAE4"/>
<stop offset="0.4033" stop-color="#0895C8"/>
<stop offset="0.76" stop-color="#115A9A"/>
<stop offset="1" stop-color="#172F78"/>
</radialGradient>
<linearGradient id="paint46_linear" x1="94.2642" y1="476.157" x2="94.2642" y2="378.447" gradientUnits="userSpaceOnUse">
<stop stop-color="#020230"/>
<stop offset="0.1892" stop-color="#020533"/>
<stop offset="0.3346" stop-color="#020F3C"/>
<stop offset="0.4654" stop-color="#021F4C"/>
<stop offset="0.5878" stop-color="#023663"/>
<stop offset="0.7041" stop-color="#02547F"/>
<stop offset="0.816" stop-color="#0179A3"/>
<stop offset="0.9224" stop-color="#01A4CC"/>
<stop offset="1" stop-color="#01C8EF"/>
</linearGradient>
<linearGradient id="paint47_linear" x1="53.6778" y1="476.157" x2="53.6778" y2="378.447" gradientUnits="userSpaceOnUse">
<stop stop-color="#020230"/>
<stop offset="0.1892" stop-color="#020533"/>
<stop offset="0.3346" stop-color="#020F3C"/>
<stop offset="0.4654" stop-color="#021F4C"/>
<stop offset="0.5878" stop-color="#023663"/>
<stop offset="0.7041" stop-color="#02547F"/>
<stop offset="0.816" stop-color="#0179A3"/>
<stop offset="0.9224" stop-color="#01A4CC"/>
<stop offset="1" stop-color="#01C8EF"/>
</linearGradient>
<linearGradient id="paint48_linear" x1="134.851" y1="476.157" x2="134.851" y2="378.447" gradientUnits="userSpaceOnUse">
<stop stop-color="#020230"/>
<stop offset="0.1892" stop-color="#020533"/>
<stop offset="0.3346" stop-color="#020F3C"/>
<stop offset="0.4654" stop-color="#021F4C"/>
<stop offset="0.5878" stop-color="#023663"/>
<stop offset="0.7041" stop-color="#02547F"/>
<stop offset="0.816" stop-color="#0179A3"/>
<stop offset="0.9224" stop-color="#01A4CC"/>
<stop offset="1" stop-color="#01C8EF"/>
</linearGradient>
<linearGradient id="paint49_linear" x1="40.3612" y1="375.195" x2="109.376" y2="375.195" gradientUnits="userSpaceOnUse">
<stop stop-color="#01C8EF"/>
<stop offset="0.1297" stop-color="#04B1DD"/>
<stop offset="0.5466" stop-color="#0E6BA7"/>
<stop offset="0.8476" stop-color="#154085"/>
<stop offset="1" stop-color="#172F78"/>
</linearGradient>
<radialGradient id="paint50_radial" cx="0" cy="0" r="1" gradientUnits="userSpaceOnUse" gradientTransform="translate(28.1246 323.444) scale(154.124)">
<stop stop-color="#01C8EF"/>
<stop offset="0.1396" stop-color="#03BAE4"/>
<stop offset="0.4033" stop-color="#0895C8"/>
<stop offset="0.76" stop-color="#115A9A"/>
<stop offset="1" stop-color="#172F78"/>
</radialGradient>
<linearGradient id="paint51_linear" x1="40.3612" y1="338.549" x2="109.376" y2="338.549" gradientUnits="userSpaceOnUse">
<stop stop-color="#01C8EF"/>
<stop offset="0.1297" stop-color="#04B1DD"/>
<stop offset="0.5466" stop-color="#0E6BA7"/>
<stop offset="0.8476" stop-color="#154085"/>
<stop offset="1" stop-color="#172F78"/>
</linearGradient>
<radialGradient id="paint52_radial" cx="0" cy="0" r="1" gradientUnits="userSpaceOnUse" gradientTransform="translate(28.1246 286.797) scale(154.124)">
<stop stop-color="#01C8EF"/>
<stop offset="0.1396" stop-color="#03BAE4"/>
<stop offset="0.4033" stop-color="#0895C8"/>
<stop offset="0.76" stop-color="#115A9A"/>
<stop offset="1" stop-color="#172F78"/>
</radialGradient>
<linearGradient id="paint53_linear" x1="40.3612" y1="301.903" x2="109.376" y2="301.903" gradientUnits="userSpaceOnUse">
<stop stop-color="#01C8EF"/>
<stop offset="0.1297" stop-color="#04B1DD"/>
<stop offset="0.5466" stop-color="#0E6BA7"/>
<stop offset="0.8476" stop-color="#154085"/>
<stop offset="1" stop-color="#172F78"/>
</linearGradient>
<radialGradient id="paint54_radial" cx="0" cy="0" r="1" gradientUnits="userSpaceOnUse" gradientTransform="translate(28.1246 250.151) scale(154.124)">
<stop stop-color="#01C8EF"/>
<stop offset="0.1396" stop-color="#03BAE4"/>
<stop offset="0.4033" stop-color="#0895C8"/>
<stop offset="0.76" stop-color="#115A9A"/>
<stop offset="1" stop-color="#172F78"/>
</radialGradient>
<radialGradient id="paint55_radial" cx="0" cy="0" r="1" gradientUnits="userSpaceOnUse" gradientTransform="translate(41.7247 259.439) scale(105.966)">
<stop stop-color="#01C8EF"/>
<stop offset="0.1396" stop-color="#03BAE4"/>
<stop offset="0.4033" stop-color="#0895C8"/>
<stop offset="0.76" stop-color="#115A9A"/>
<stop offset="1" stop-color="#172F78"/>
</radialGradient>
<linearGradient id="paint56_linear" x1="40.3612" y1="265.947" x2="109.376" y2="265.947" gradientUnits="userSpaceOnUse">
<stop stop-color="#01C8EF"/>
<stop offset="0.1297" stop-color="#04B1DD"/>
<stop offset="0.5466" stop-color="#0E6BA7"/>
<stop offset="0.8476" stop-color="#154085"/>
<stop offset="1" stop-color="#172F78"/>
</linearGradient>
<radialGradient id="paint57_radial" cx="0" cy="0" r="1" gradientUnits="userSpaceOnUse" gradientTransform="translate(28.1246 214.195) scale(154.124)">
<stop stop-color="#01C8EF"/>
<stop offset="0.1396" stop-color="#03BAE4"/>
<stop offset="0.4033" stop-color="#0895C8"/>
<stop offset="0.76" stop-color="#115A9A"/>
<stop offset="1" stop-color="#172F78"/>
</radialGradient>
<linearGradient id="paint58_linear" x1="40.3612" y1="229.301" x2="109.376" y2="229.301" gradientUnits="userSpaceOnUse">
<stop stop-color="#01C8EF"/>
<stop offset="0.1297" stop-color="#04B1DD"/>
<stop offset="0.5466" stop-color="#0E6BA7"/>
<stop offset="0.8476" stop-color="#154085"/>
<stop offset="1" stop-color="#172F78"/>
</linearGradient>
<radialGradient id="paint59_radial" cx="0" cy="0" r="1" gradientUnits="userSpaceOnUse" gradientTransform="translate(28.1238 177.549) scale(154.124)">
<stop stop-color="#01C8EF"/>
<stop offset="0.1396" stop-color="#03BAE4"/>
<stop offset="0.4033" stop-color="#0895C8"/>
<stop offset="0.76" stop-color="#115A9A"/>
<stop offset="1" stop-color="#172F78"/>
</radialGradient>
<radialGradient id="paint60_radial" cx="0" cy="0" r="1" gradientUnits="userSpaceOnUse" gradientTransform="translate(41.7239 186.837) scale(105.966)">
<stop stop-color="#01C8EF"/>
<stop offset="0.1396" stop-color="#03BAE4"/>
<stop offset="0.4033" stop-color="#0895C8"/>
<stop offset="0.76" stop-color="#115A9A"/>
<stop offset="1" stop-color="#172F78"/>
</radialGradient>
<linearGradient id="paint61_linear" x1="93.4166" y1="228.396" x2="93.4166" y2="37.1122" gradientUnits="userSpaceOnUse">
<stop stop-color="white"/>
<stop offset="0.0681" stop-color="#D6D6DE"/>
<stop offset="0.1614" stop-color="#A5A5B5"/>
<stop offset="0.2598" stop-color="#797991"/>
<stop offset="0.3614" stop-color="#545473"/>
<stop offset="0.4669" stop-color="#36365B"/>
<stop offset="0.5779" stop-color="#1F1F48"/>
<stop offset="0.6966" stop-color="#0F0F3A"/>
<stop offset="0.8285" stop-color="#050533"/>
<stop offset="1" stop-color="#020230"/>
</linearGradient>
<linearGradient id="paint62_linear" x1="491.88" y1="291.302" x2="372.914" y2="222.507" gradientUnits="userSpaceOnUse">
<stop stop-color="#020230"/>
<stop offset="0.1715" stop-color="#050533"/>
<stop offset="0.3034" stop-color="#0F0F3A"/>
<stop offset="0.4221" stop-color="#1F1F48"/>
<stop offset="0.5331" stop-color="#36365B"/>
<stop offset="0.6386" stop-color="#545473"/>
<stop offset="0.7402" stop-color="#797991"/>
<stop offset="0.8386" stop-color="#A5A5B5"/>
<stop offset="0.9319" stop-color="#D6D6DE"/>
<stop offset="1" stop-color="white"/>
</linearGradient>
<linearGradient id="paint63_linear" x1="374.335" y1="399.669" x2="255.368" y2="330.874" gradientUnits="userSpaceOnUse">
<stop stop-color="#020230"/>
<stop offset="0.1715" stop-color="#050533"/>
<stop offset="0.3034" stop-color="#0F0F3A"/>
<stop offset="0.4221" stop-color="#1F1F48"/>
<stop offset="0.5331" stop-color="#36365B"/>
<stop offset="0.6386" stop-color="#545473"/>
<stop offset="0.7402" stop-color="#797991"/>
<stop offset="0.8386" stop-color="#A5A5B5"/>
<stop offset="0.9319" stop-color="#D6D6DE"/>
<stop offset="1" stop-color="white"/>
</linearGradient>
<linearGradient id="paint64_linear" x1="63.1902" y1="243.299" x2="63.1902" y2="145.59" gradientUnits="userSpaceOnUse">
<stop stop-color="#020230"/>
<stop offset="0.1715" stop-color="#050533"/>
<stop offset="0.3034" stop-color="#0F0F3A"/>
<stop offset="0.4221" stop-color="#1F1F48"/>
<stop offset="0.5331" stop-color="#36365B"/>
<stop offset="0.6386" stop-color="#545473"/>
<stop offset="0.7402" stop-color="#797991"/>
<stop offset="0.8386" stop-color="#A5A5B5"/>
<stop offset="0.9319" stop-color="#D6D6DE"/>
<stop offset="1" stop-color="white"/>
</linearGradient>
<linearGradient id="paint65_linear" x1="95.1812" y1="261.97" x2="95.1812" y2="164.26" gradientUnits="userSpaceOnUse">
<stop stop-color="#020230"/>
<stop offset="0.1715" stop-color="#050533"/>
<stop offset="0.3034" stop-color="#0F0F3A"/>
<stop offset="0.4221" stop-color="#1F1F48"/>
<stop offset="0.5331" stop-color="#36365B"/>
<stop offset="0.6386" stop-color="#545473"/>
<stop offset="0.7402" stop-color="#797991"/>
<stop offset="0.8386" stop-color="#A5A5B5"/>
<stop offset="0.9319" stop-color="#D6D6DE"/>
<stop offset="1" stop-color="white"/>
</linearGradient>
<linearGradient id="paint66_linear" x1="127.171" y1="244.444" x2="127.171" y2="146.734" gradientUnits="userSpaceOnUse">
<stop stop-color="#020230"/>
<stop offset="0.1715" stop-color="#050533"/>
<stop offset="0.3034" stop-color="#0F0F3A"/>
<stop offset="0.4221" stop-color="#1F1F48"/>
<stop offset="0.5331" stop-color="#36365B"/>
<stop offset="0.6386" stop-color="#545473"/>
<stop offset="0.7402" stop-color="#797991"/>
<stop offset="0.8386" stop-color="#A5A5B5"/>
<stop offset="0.9319" stop-color="#D6D6DE"/>
<stop offset="1" stop-color="white"/>
</linearGradient>
<linearGradient id="paint67_linear" x1="58.8086" y1="153.874" x2="104.599" y2="153.874" gradientUnits="userSpaceOnUse">
<stop stop-color="#01C8EF"/>
<stop offset="0.1297" stop-color="#04B1DD"/>
<stop offset="0.5466" stop-color="#0E6BA7"/>
<stop offset="0.8476" stop-color="#154085"/>
<stop offset="1" stop-color="#172F78"/>
</linearGradient>
<radialGradient id="paint68_radial" cx="0" cy="0" r="1" gradientUnits="userSpaceOnUse" gradientTransform="translate(59.7136 130.342) scale(70.3068)">
<stop stop-color="#01C8EF"/>
<stop offset="0.1396" stop-color="#03BAE4"/>
<stop offset="0.4033" stop-color="#0895C8"/>
<stop offset="0.76" stop-color="#115A9A"/>
<stop offset="1" stop-color="#172F78"/>
</radialGradient>
<radialGradient id="paint69_radial" cx="0" cy="0" r="1" gradientUnits="userSpaceOnUse" gradientTransform="translate(392.063 163.548) rotate(31.2004) scale(312.909 23.034)">
<stop stop-color="#01C8EF"/>
<stop offset="0.0776" stop-color="#01A4CC"/>
<stop offset="0.184" stop-color="#0179A3"/>
<stop offset="0.2959" stop-color="#02547F"/>
<stop offset="0.4122" stop-color="#023663"/>
<stop offset="0.5346" stop-color="#021F4C"/>
<stop offset="0.6654" stop-color="#020F3C"/>
<stop offset="0.8108" stop-color="#020533"/>
<stop offset="1" stop-color="#020230"/>
</radialGradient>
</defs>
</svg>
