<svg width="1280" height="620" viewBox="0 0 1280 620" fill="none" xmlns="http://www.w3.org/2000/svg">
<path opacity="0.8" d="M701.854 478.461C701.887 482.016 699.046 484.921 695.492 484.953C691.938 484.986 689.033 482.146 689 478.591C688.968 475.037 691.808 472.132 695.362 472.099C698.917 472.067 701.822 474.907 701.854 478.461Z" fill="#01C8EF"/>
<path opacity="0.8" d="M698.024 436.799C698.04 438.487 696.693 439.867 695.006 439.883C693.318 439.899 691.938 438.552 691.922 436.864C691.906 435.177 693.253 433.797 694.941 433.781C696.628 433.781 698.008 435.128 698.024 436.799Z" fill="#01C8EF"/>
<path opacity="0.8" d="M882.766 515.968C882.783 518.029 881.143 519.717 879.082 519.733C877.021 519.749 875.333 518.11 875.317 516.049C875.301 513.988 876.94 512.3 879.001 512.284C881.062 512.268 882.734 513.923 882.766 515.968Z" fill="#01C8EF"/>
<path d="M821.711 261.211L793.277 244.787C791.021 243.488 787.353 243.488 785.081 244.787L756.792 261.227C754.536 262.526 754.536 264.652 756.792 265.95L785.227 282.374C787.483 283.673 791.15 283.673 793.423 282.374L821.711 265.934C823.983 264.635 823.983 262.526 821.711 261.211Z" fill="white"/>
<path opacity="0.3" d="M857.903 87.1477L829.939 89.7769L823.463 196.081L797.837 215.054L755.12 196.471L746.843 84.5022L716.899 81.873L755.104 263.596C755.104 264.457 755.656 265.317 756.792 265.982L785.226 282.407C787.482 283.705 791.15 283.705 793.422 282.407L821.71 265.966C822.83 265.317 823.398 264.473 823.398 263.613H823.447L857.903 87.1477Z" fill="url(#paint0_linear)"/>
<path opacity="0.3" d="M1081.21 278.22L1206.52 350.685L1207.75 348.575L1082.94 276.402L1081.21 278.22Z" fill="url(#paint1_linear)"/>
<path opacity="0.3" d="M957.39 392.363L1082.7 464.828L1083.92 462.718L959.11 390.545L957.39 392.363Z" fill="url(#paint2_linear)"/>
<path opacity="0.3" d="M755.104 196.146V299.075H756.013V197.899L755.104 196.146Z" fill="url(#paint3_linear)"/>
<path opacity="0.3" d="M788.796 215.816V318.729H789.721V217.569L788.796 215.816Z" fill="url(#paint4_linear)"/>
<path opacity="0.3" d="M822.505 197.347V300.276H823.414V199.116L822.505 197.347Z" fill="url(#paint5_linear)"/>
<path d="M823.463 199.96V196.081L806.211 198.386L793.292 190.92C791.02 189.606 787.352 189.606 785.08 190.92L783.068 192.202L755.055 195.935V199.96V199.976V200.041H755.071C755.104 200.869 755.656 201.697 756.759 202.33L785.226 218.77C787.498 220.085 791.166 220.085 793.438 218.77L821.759 202.33C822.863 201.697 823.414 200.869 823.447 200.041H823.463V199.96Z" fill="url(#paint6_linear)"/>
<path d="M821.76 193.614L793.293 177.174C791.021 175.859 787.353 175.859 785.081 177.174L756.76 193.647C754.488 194.961 754.488 197.071 756.76 198.386L785.227 214.826C787.499 216.141 791.167 216.141 793.439 214.826L821.76 198.353C824.032 197.055 824.032 194.929 821.76 193.614Z" fill="url(#paint7_radial)"/>
<path d="M821.759 197.526L793.438 213.999C791.166 215.313 787.498 215.313 785.226 213.999L756.759 197.558C755.801 197.006 755.266 196.325 755.103 195.611C754.892 196.601 755.444 197.639 756.759 198.386L785.226 214.826C787.498 216.141 791.166 216.141 793.438 214.826L821.759 198.353C823.073 197.591 823.625 196.568 823.414 195.578C823.252 196.292 822.716 196.99 821.759 197.526Z" fill="white"/>
<rect width="1280" height="620" fill="#020616"/>
<mask id="mask0" mask-type="alpha" maskUnits="userSpaceOnUse" x="0" y="0" width="1280" height="620">
<rect width="1280" height="620" fill="#020616"/>
</mask>
<g mask="url(#mask0)">
<path opacity="0.3" d="M913.294 390.854C1010.67 390.854 1089.61 316.273 1089.61 224.272C1089.61 132.272 1010.67 57.6912 913.294 57.6912C815.916 57.6912 736.975 132.272 736.975 224.272C736.975 316.273 815.916 390.854 913.294 390.854Z" fill="url(#paint8_radial)"/>
<path opacity="0.6" d="M870.09 370.696V473.609H870.999V372.449L870.09 370.696Z" fill="url(#paint9_linear)"/>
<path opacity="0.6" d="M955.588 370.696V473.609H956.513V372.449L955.588 370.696Z" fill="url(#paint10_linear)"/>
<path opacity="0.3" d="M870.09 371.021V473.949H956.513V372.774L870.09 371.021Z" fill="url(#paint11_linear)"/>
<path d="M913.197 409.096C910.892 409.096 908.571 408.593 906.818 407.57L863.907 382.788C862.122 381.765 861.148 380.369 861.148 378.876C861.148 377.383 862.122 375.987 863.907 374.965L906.591 350.15C910.113 348.121 915.842 348.121 919.364 350.15L962.275 374.932C964.06 375.955 965.034 377.351 965.034 378.844C965.034 380.337 964.06 381.733 962.275 382.755L919.591 407.57C917.822 408.593 915.517 409.096 913.197 409.096ZM912.969 349.403C910.795 349.403 908.636 349.874 906.981 350.831L864.297 375.646C862.771 376.523 861.927 377.675 861.927 378.876C861.927 380.077 862.771 381.229 864.297 382.106L907.208 406.889C910.502 408.787 915.874 408.787 919.169 406.889L961.853 382.073C963.379 381.197 964.223 380.045 964.223 378.844C964.223 377.643 963.379 376.507 961.853 375.614L918.942 350.831C917.303 349.89 915.144 349.403 912.969 349.403Z" fill="#03A7D3"/>
<path d="M964.84 365.292V344.712L938.84 348.186L919.364 336.938C915.956 334.975 910.405 334.975 906.997 336.938L903.962 338.87L861.749 344.501V365.324C861.749 365.34 861.749 365.34 861.749 365.357V365.454H861.765C861.814 366.704 862.658 367.953 864.313 368.911L907.224 393.694C910.633 395.657 916.183 395.657 919.591 393.694L962.275 368.862C963.931 367.905 964.759 366.671 964.823 365.421H964.84V365.292Z" fill="url(#paint12_linear)"/>
<path d="M962.275 340.996L919.364 316.213C915.956 314.25 910.405 314.25 906.997 316.213L864.313 341.028C860.905 342.992 860.905 346.189 864.313 348.17L907.224 372.952C910.632 374.916 916.183 374.916 919.591 372.952L962.275 348.137C965.699 346.157 965.699 342.96 962.275 340.996Z" fill="url(#paint13_radial)"/>
<path d="M962.275 346.887L919.591 371.703C916.183 373.666 910.633 373.666 907.224 371.703L864.313 346.92C862.885 346.092 862.057 345.054 861.83 343.966C861.505 345.459 862.333 347.017 864.313 348.153L907.224 372.936C910.633 374.9 916.183 374.9 919.591 372.936L962.275 348.105C964.255 346.952 965.083 345.411 964.758 343.917C964.531 345.021 963.72 346.06 962.275 346.887Z" fill="white"/>
<path d="M925.369 378.454L923.324 379.623V377.269L925.369 376.101V378.454Z" fill="white"/>
<path d="M929.605 375.987L927.576 377.172V374.819L929.605 373.65V375.987Z" fill="white"/>
<path d="M933.857 373.537L931.829 374.721V372.368L933.857 371.199V373.537Z" fill="white"/>
<path d="M930.384 380.304L928.355 381.473V379.136L930.384 377.951V380.304Z" fill="white"/>
<path d="M934.133 378.146L932.104 379.314V376.961L934.133 375.792V378.146Z" fill="white"/>
<path d="M947.49 365.665L945.462 366.85V364.496L947.49 363.328V365.665Z" fill="white"/>
<path d="M959.207 358.913L957.179 360.082V357.745L959.207 356.56V358.913Z" fill="white"/>
<path d="M938.109 371.086L936.08 372.254V369.917L938.109 368.749V371.086Z" fill="white"/>
<path opacity="0.4" d="M910.859 362.484L881.986 345.816C880.818 345.135 880.964 343.95 882.311 343.171L910.518 326.876C911.881 326.097 913.926 326.016 915.095 326.682L943.967 343.35C945.136 344.031 944.99 345.216 943.643 345.995L915.436 362.29C914.089 363.085 912.044 363.166 910.859 362.484Z" fill="#06033E"/>
<path d="M899.515 380.532L875.69 366.769C875.122 366.444 874.667 365.552 874.667 364.805V363.036C874.667 362.273 875.122 361.932 875.69 362.257L899.515 376.02C900.083 376.344 900.537 377.237 900.537 377.984V379.753C900.537 380.515 900.083 380.856 899.515 380.532Z" fill="white"/>
<path d="M964.84 326.698V306.118L938.84 309.592L919.364 298.344C915.956 296.381 910.405 296.381 906.997 298.344L903.962 300.276L861.749 305.907V326.714C861.749 326.73 861.749 326.73 861.749 326.746V326.844H861.765C861.814 328.093 862.658 329.343 864.313 330.301L907.224 355.083C910.633 357.047 916.183 357.047 919.591 355.083L962.275 330.252C963.931 329.294 964.759 328.061 964.823 326.811H964.84V326.698Z" fill="url(#paint14_linear)"/>
<path d="M962.275 302.386L919.364 277.603C915.956 275.639 910.405 275.639 906.997 277.603L864.313 302.418C860.905 304.382 860.905 307.579 864.313 309.559L907.224 334.342C910.632 336.306 916.183 336.306 919.591 334.342L962.275 309.527C965.699 307.563 965.699 304.366 962.275 302.386Z" fill="url(#paint15_radial)"/>
<path opacity="0.4" d="M941.842 303.895L916.832 289.451C914.836 288.298 911.623 288.298 909.626 289.451L884.746 303.911C882.75 305.064 882.75 306.93 884.746 308.066L909.756 322.51C911.752 323.663 914.966 323.663 916.962 322.51L941.842 308.05C943.822 306.898 943.822 305.047 941.842 303.895Z" fill="#06033E"/>
<path d="M962.275 308.277L919.591 333.092C916.183 335.056 910.633 335.056 907.224 333.092L864.313 308.31C862.885 307.482 862.057 306.443 861.83 305.356C861.505 306.849 862.333 308.407 864.313 309.543L907.224 334.326C910.633 336.29 916.183 336.29 919.591 334.326L962.275 309.494C964.255 308.342 965.083 306.8 964.758 305.307C964.531 306.411 963.72 307.466 962.275 308.277Z" fill="white"/>
<path d="M925.369 339.844L923.324 341.012V338.675L925.369 337.507V339.844Z" fill="white"/>
<path d="M929.605 337.393L927.576 338.562V336.225L929.605 335.04V337.393Z" fill="white"/>
<path d="M933.857 334.943L931.829 336.111V333.774L933.857 332.589V334.943Z" fill="white"/>
<path d="M930.384 341.694L928.355 342.879V340.525L930.384 339.357V341.694Z" fill="white"/>
<path d="M934.133 339.536L932.104 340.704V338.367L934.133 337.199V339.536Z" fill="white"/>
<path d="M947.49 327.071L945.462 328.24V325.903L947.49 324.718V327.071Z" fill="white"/>
<path d="M959.207 320.303L957.179 321.488V319.135L959.207 317.966V320.303Z" fill="white"/>
<path d="M938.109 332.492L936.08 333.66V331.307L938.109 330.138V332.492Z" fill="white"/>
<path d="M964.84 288.087V267.508L938.84 270.981L919.364 259.734C915.956 257.77 910.405 257.77 906.997 259.734L903.962 261.665L861.749 267.297V288.12C861.749 288.136 861.749 288.136 861.749 288.152V288.25H861.765C861.814 289.499 862.658 290.749 864.313 291.706L907.224 316.489C910.633 318.453 916.183 318.453 919.591 316.489L962.275 291.658C963.931 290.7 964.759 289.467 964.823 288.217H964.84V288.087Z" fill="url(#paint16_linear)"/>
<path d="M962.275 263.792L919.364 239.009C915.956 237.045 910.405 237.045 906.997 239.009L864.313 263.84C860.905 265.804 860.905 269.001 864.313 270.981L907.224 295.764C910.632 297.728 916.183 297.728 919.591 295.764L962.275 270.949C965.699 268.953 965.699 265.755 962.275 263.792Z" fill="url(#paint17_radial)"/>
<path d="M962.275 263.792L919.364 239.009C915.956 237.045 910.405 237.045 906.997 239.009L864.313 263.84C860.905 265.804 860.905 269.001 864.313 270.981L907.224 295.764C910.632 297.728 916.183 297.728 919.591 295.764L962.275 270.949C965.699 268.953 965.699 265.755 962.275 263.792Z" fill="url(#paint18_radial)"/>
<path opacity="0.4" d="M945.753 265.009L917.319 248.584C915.063 247.286 911.395 247.286 909.123 248.584L880.835 265.025C878.579 266.323 878.579 268.449 880.835 269.748L909.269 286.172C911.525 287.487 915.193 287.487 917.465 286.172L945.753 269.732C948.009 268.433 948.009 266.307 945.753 265.009Z" fill="#06033E"/>
<path d="M962.275 269.683L919.591 294.498C916.183 296.462 910.633 296.462 907.224 294.498L864.313 269.715C862.885 268.888 862.057 267.849 861.83 266.762C861.505 268.255 862.333 269.813 864.313 270.949L907.224 295.732C910.633 297.695 916.183 297.695 919.591 295.732L962.275 270.9C964.255 269.748 965.083 268.206 964.758 266.713C964.531 267.817 963.72 268.855 962.275 269.683Z" fill="white"/>
<path d="M925.369 301.25L923.324 302.418V300.065L925.369 298.896V301.25Z" fill="white"/>
<path d="M929.605 298.799L927.576 299.967V297.614L929.605 296.446V298.799Z" fill="white"/>
<path d="M933.857 296.332L931.829 297.517V295.163L933.857 293.995V296.332Z" fill="white"/>
<path d="M930.384 303.1L928.355 304.268V301.931L930.384 300.746V303.1Z" fill="white"/>
<path d="M934.133 300.941L932.104 302.11V299.757L934.133 298.588V300.941Z" fill="white"/>
<path d="M947.49 288.46L945.462 289.645V287.292L947.49 286.123V288.46Z" fill="white"/>
<path d="M959.207 281.709L957.179 282.878V280.54L959.207 279.356V281.709Z" fill="white"/>
<path d="M938.109 293.882L936.08 295.05V292.713L938.109 291.544V293.882Z" fill="white"/>
<path d="M964.84 250.207V229.628L938.84 233.101L919.364 221.854C915.956 219.89 910.405 219.89 906.997 221.854L903.962 223.786L861.749 229.417V250.24C861.749 250.256 861.749 250.256 861.749 250.272V250.37H861.765C861.814 251.619 862.658 252.869 864.313 253.827L907.224 278.609C910.633 280.573 916.183 280.573 919.591 278.609L962.275 253.778C963.931 252.82 964.759 251.587 964.823 250.337H964.84V250.207Z" fill="url(#paint19_linear)"/>
<path d="M962.275 225.912L919.364 201.129C915.956 199.165 910.405 199.165 906.997 201.129L864.313 225.96C860.905 227.924 860.905 231.121 864.313 233.101L907.224 257.884C910.632 259.848 916.183 259.848 919.591 257.884L962.275 233.053C965.699 231.089 965.699 227.892 962.275 225.912Z" fill="url(#paint20_radial)"/>
<path opacity="0.4" d="M941.842 227.421L916.832 212.977C914.836 211.824 911.623 211.824 909.626 212.977L884.746 227.437C882.75 228.59 882.75 230.456 884.746 231.592L909.756 246.037C911.752 247.189 914.966 247.189 916.962 246.037L941.842 231.576C943.822 230.424 943.822 228.557 941.842 227.421Z" fill="#06033E"/>
<path d="M962.275 231.803L919.591 256.618C916.183 258.582 910.633 258.582 907.224 256.618L864.313 231.835C862.885 231.008 862.057 229.969 861.83 228.882C861.505 230.375 862.333 231.933 864.313 233.069L907.224 257.852C910.633 259.815 916.183 259.815 919.591 257.852L962.275 233.02C964.255 231.868 965.083 230.326 964.758 228.833C964.531 229.937 963.72 230.975 962.275 231.803Z" fill="white"/>
<path d="M925.369 263.37L923.324 264.538V262.201L925.369 261.017V263.37Z" fill="white"/>
<path d="M929.605 260.919L927.576 262.088V259.751L929.605 258.566V260.919Z" fill="white"/>
<path d="M933.857 258.469L931.829 259.637V257.284L933.857 256.115V258.469Z" fill="white"/>
<path d="M930.384 265.22L928.355 266.388V264.051L930.384 262.883V265.22Z" fill="white"/>
<path d="M934.133 263.062L932.104 264.23V261.893L934.133 260.708V263.062Z" fill="white"/>
<path d="M947.49 250.597L945.462 251.766V249.412L947.49 248.244V250.597Z" fill="white"/>
<path d="M959.207 243.829L957.179 244.998V242.661L959.207 241.492V243.829Z" fill="white"/>
<path d="M938.109 256.001L936.08 257.186V254.833L938.109 253.664V256.001Z" fill="white"/>
<path d="M964.84 211.614V191.034L938.84 194.508L919.364 183.26C915.956 181.297 910.405 181.297 906.997 183.26L903.962 185.192L861.749 190.823V211.646C861.749 211.662 861.749 211.662 861.749 211.679V211.776H861.765C861.814 213.026 862.658 214.275 864.313 215.233L907.224 240.016C910.633 241.979 916.183 241.979 919.591 240.016L962.275 215.184C963.931 214.227 964.759 212.993 964.823 211.743H964.84V211.614Z" fill="url(#paint21_linear)"/>
<path d="M962.275 187.318L919.364 162.535C915.956 160.571 910.405 160.571 906.997 162.535L864.313 187.35C860.905 189.314 860.905 192.511 864.313 194.491L907.224 219.274C910.632 221.238 916.183 221.238 919.591 219.274L962.275 194.459C965.7 192.479 965.7 189.281 962.275 187.318Z" fill="url(#paint22_radial)"/>
<path d="M962.275 187.318L919.364 162.535C915.956 160.571 910.405 160.571 906.997 162.535L864.313 187.35C860.905 189.314 860.905 192.511 864.313 194.491L907.224 219.274C910.632 221.238 916.183 221.238 919.591 219.274L962.275 194.459C965.7 192.479 965.7 189.281 962.275 187.318Z" fill="url(#paint23_radial)"/>
<path opacity="0.4" d="M913.376 211.142C911.802 211.142 910.244 210.802 909.043 210.104L880.608 193.679C879.359 192.965 878.677 191.975 878.677 190.904C878.677 189.833 879.359 188.859 880.608 188.129L908.896 171.688C911.282 170.309 915.177 170.309 917.563 171.688L945.997 188.113C947.247 188.827 947.929 189.817 947.929 190.888C947.929 191.959 947.247 192.933 945.997 193.663L917.709 210.104C916.508 210.802 914.934 211.142 913.376 211.142ZM913.214 171.591C911.818 171.591 910.422 171.899 909.351 172.516L881.063 188.957C880.121 189.508 879.602 190.206 879.602 190.92C879.602 191.634 880.121 192.332 881.063 192.884L909.497 209.309C911.623 210.542 915.096 210.542 917.222 209.309L945.511 192.868C946.452 192.316 946.971 191.618 946.971 190.904C946.971 190.19 946.452 189.492 945.511 188.94L917.076 172.516C916.021 171.899 914.626 171.591 913.214 171.591Z" fill="#06033E"/>
<path d="M962.275 193.209L919.591 218.024C916.183 219.988 910.633 219.988 907.224 218.024L864.313 193.241C862.885 192.414 862.057 191.375 861.83 190.288C861.505 191.781 862.333 193.339 864.313 194.475L907.224 219.258C910.633 221.221 916.183 221.221 919.591 219.258L962.275 194.426C964.255 193.274 965.083 191.732 964.758 190.239C964.531 191.343 963.72 192.381 962.275 193.209Z" fill="white"/>
<path d="M925.369 224.776L923.324 225.945V223.591L925.369 222.423V224.776Z" fill="white"/>
<path d="M929.605 222.309L927.576 223.494V221.141L929.605 219.972V222.309Z" fill="white"/>
<path d="M933.857 219.859L931.829 221.027V218.69L933.857 217.521V219.859Z" fill="white"/>
<path d="M930.384 226.626L928.355 227.795V225.441L930.384 224.273V226.626Z" fill="white"/>
<path d="M934.133 224.468L932.104 225.636V223.283L934.133 222.115V224.468Z" fill="white"/>
<path d="M947.49 211.987L945.462 213.155V210.818L947.49 209.65V211.987Z" fill="white"/>
<path d="M959.207 205.235L957.179 206.404V204.051L959.207 202.882V205.235Z" fill="white"/>
<path d="M938.109 217.408L936.08 218.576V216.239L938.109 215.054V217.408Z" fill="white"/>
<path opacity="0.3" d="M994.117 441.425V544.353H1080.54V443.194L994.117 441.425Z" fill="url(#paint24_linear)"/>
<path opacity="0.6" d="M994.101 441.425V544.353H995.01V443.194L994.101 441.425Z" fill="url(#paint25_linear)"/>
<path opacity="0.6" d="M1079.6 441.425V544.353H1080.52V443.194L1079.6 441.425Z" fill="url(#paint26_linear)"/>
<path d="M1037.24 481.788C1034.93 481.788 1032.61 481.285 1030.86 480.262L987.95 455.48C986.165 454.457 985.191 453.061 985.191 451.568C985.191 450.075 986.165 448.679 987.95 447.657L1030.63 422.842C1034.16 420.813 1039.88 420.813 1043.41 422.842L1086.3 447.608C1088.09 448.631 1089.06 450.027 1089.06 451.52C1089.06 453.013 1088.09 454.409 1086.3 455.431L1043.62 480.246C1041.86 481.285 1039.54 481.788 1037.24 481.788ZM1037.01 422.095C1034.84 422.095 1032.68 422.566 1031.02 423.523L988.339 448.339C986.814 449.215 985.97 450.367 985.97 451.568C985.97 452.769 986.814 453.922 988.339 454.798L1031.25 479.581C1034.55 481.48 1039.92 481.48 1043.21 479.581L1085.9 454.766C1087.42 453.889 1088.27 452.737 1088.27 451.536C1088.27 450.335 1087.42 449.199 1085.9 448.306L1042.98 423.523C1041.35 422.566 1039.17 422.095 1037.01 422.095Z" fill="#03A7D3"/>
<path d="M1088.88 437.984V417.405L1062.88 420.878L1043.41 409.631C1040 407.667 1034.45 407.667 1031.04 409.631L1028 411.562L985.791 417.194V438.016C985.791 438.033 985.791 438.033 985.791 438.049V438.146H985.807C985.856 439.396 986.7 440.646 988.355 441.603L1031.27 466.386C1034.67 468.35 1040.23 468.35 1043.63 466.386L1086.32 441.555C1087.97 440.597 1088.8 439.364 1088.87 438.114H1088.88V437.984Z" fill="url(#paint27_linear)"/>
<path d="M1086.32 413.672L1043.41 388.89C1040 386.926 1034.45 386.926 1031.04 388.89L988.355 413.721C984.947 415.685 984.947 418.882 988.355 420.862L1031.27 445.645C1034.67 447.608 1040.23 447.608 1043.63 445.645L1086.32 420.813C1089.73 418.85 1089.73 415.652 1086.32 413.672Z" fill="url(#paint28_radial)"/>
<path d="M1086.32 419.579L1043.63 444.395C1040.23 446.358 1034.67 446.358 1031.27 444.395L988.355 419.612C986.927 418.784 986.099 417.745 985.872 416.658C985.548 418.151 986.375 419.709 988.355 420.845L1031.27 445.628C1034.67 447.592 1040.23 447.592 1043.63 445.628L1086.32 420.797C1088.3 419.644 1089.13 418.103 1088.8 416.609C1088.57 417.697 1087.75 418.752 1086.32 419.579Z" fill="white"/>
<path d="M1049.39 451.13L1047.37 452.315V449.962L1049.39 448.793V451.13Z" fill="white"/>
<path d="M1053.65 448.679L1051.62 449.848V447.511L1053.65 446.342V448.679Z" fill="white"/>
<path d="M1057.9 446.229L1055.87 447.397V445.06L1057.9 443.875V446.229Z" fill="white"/>
<path d="M1054.43 452.98L1052.4 454.165V451.812L1054.43 450.643V452.98Z" fill="white"/>
<path d="M1058.16 450.822L1056.13 452.007V449.653L1058.16 448.485V450.822Z" fill="white"/>
<path d="M1071.53 438.357L1069.5 439.526V437.189L1071.53 436.004V438.357Z" fill="white"/>
<path d="M1083.23 431.59L1081.21 432.774V430.421L1083.23 429.252V431.59Z" fill="white"/>
<path d="M1062.15 443.778L1060.12 444.947V442.593L1062.15 441.425V443.778Z" fill="white"/>
<path opacity="0.4" d="M1034.9 435.176L1006.03 418.509C1004.86 417.827 1005.01 416.642 1006.35 415.863L1034.56 399.569C1035.91 398.79 1037.97 398.708 1039.14 399.374L1068.01 416.042C1069.18 416.723 1069.03 417.908 1067.69 418.687L1039.48 434.982C1038.13 435.761 1036.07 435.858 1034.9 435.176Z" fill="#06033E"/>
<path d="M1023.54 453.224L999.716 439.461C999.148 439.136 998.694 438.244 998.694 437.497V435.728C998.694 434.965 999.148 434.625 999.716 434.949L1023.54 448.712C1024.11 449.037 1024.56 449.929 1024.56 450.676V452.445C1024.58 453.191 1024.11 453.548 1023.54 453.224Z" fill="white"/>
<path d="M1088.88 399.374V378.795L1062.88 382.268L1043.41 371.021C1040 369.057 1034.45 369.057 1031.04 371.021L1028 372.952L985.791 378.584V399.407C985.791 399.423 985.791 399.423 985.791 399.439V399.536H985.807C985.856 400.786 986.7 402.036 988.355 402.993L1031.27 427.776C1034.67 429.74 1040.23 429.74 1043.63 427.776L1086.32 402.945C1087.97 401.987 1088.8 400.754 1088.87 399.504H1088.88V399.374Z" fill="url(#paint29_linear)"/>
<path d="M1086.32 375.078L1043.41 350.295C1040 348.332 1034.45 348.332 1031.04 350.295L988.355 375.111C984.947 377.074 984.947 380.272 988.355 382.252L1031.27 407.034C1034.67 408.998 1040.23 408.998 1043.63 407.034L1086.32 382.203C1089.73 380.239 1089.73 377.042 1086.32 375.078Z" fill="url(#paint30_radial)"/>
<path opacity="0.4" d="M1065.87 376.571L1040.86 362.127C1038.86 360.975 1035.65 360.975 1033.65 362.127L1008.77 376.588C1006.78 377.74 1006.78 379.606 1008.77 380.742L1033.78 395.187C1035.78 396.339 1038.99 396.339 1040.99 395.187L1065.87 380.726C1067.86 379.59 1067.86 377.724 1065.87 376.571Z" fill="#06033E"/>
<path d="M1086.32 380.97L1043.63 405.785C1040.23 407.748 1034.67 407.748 1031.27 405.785L988.355 381.002C986.927 380.174 986.099 379.136 985.872 378.048C985.548 379.541 986.375 381.099 988.355 382.235L1031.27 407.018C1034.67 408.982 1040.23 408.982 1043.63 407.018L1086.32 382.187C1088.3 381.034 1089.13 379.493 1088.8 378C1088.57 379.103 1087.75 380.142 1086.32 380.97Z" fill="white"/>
<path d="M1049.39 412.536L1047.37 413.705V411.368L1049.39 410.183V412.536Z" fill="white"/>
<path d="M1053.65 410.086L1051.62 411.254V408.901L1053.65 407.733V410.086Z" fill="white"/>
<path d="M1057.9 407.619L1055.87 408.804V406.451L1057.9 405.282V407.619Z" fill="white"/>
<path d="M1054.43 414.386L1052.4 415.555V413.218L1054.43 412.033V414.386Z" fill="white"/>
<path d="M1058.16 412.228L1056.13 413.397V411.06L1058.16 409.875V412.228Z" fill="white"/>
<path d="M1071.53 399.747L1069.5 400.932V398.579L1071.53 397.41V399.747Z" fill="white"/>
<path d="M1083.23 392.996L1081.21 394.164V391.827L1083.23 390.643V392.996Z" fill="white"/>
<path d="M1062.15 405.168L1060.12 406.337V404L1062.15 402.831V405.168Z" fill="white"/>
<path d="M1088.88 360.779V340.2L1062.88 343.673L1043.41 332.426C1040 330.462 1034.45 330.462 1031.04 332.426L1028 334.358L985.791 339.989V360.812C985.791 360.828 985.791 360.828 985.791 360.844V360.942H985.807C985.856 362.191 986.7 363.441 988.355 364.399L1031.27 389.181C1034.67 391.145 1040.23 391.145 1043.63 389.181L1086.32 364.35C1087.97 363.392 1088.8 362.159 1088.87 360.909H1088.88V360.779Z" fill="url(#paint31_linear)"/>
<path d="M1086.32 336.484L1043.41 311.701C1040 309.737 1034.45 309.737 1031.04 311.701L988.355 336.516C984.947 338.48 984.947 341.677 988.355 343.657L1031.27 368.44C1034.67 370.404 1040.23 370.404 1043.63 368.44L1086.32 343.625C1089.73 341.645 1089.73 338.447 1086.32 336.484Z" fill="url(#paint32_radial)"/>
<path d="M1086.32 336.484L1043.41 311.701C1040 309.737 1034.45 309.737 1031.04 311.701L988.355 336.516C984.947 338.48 984.947 341.677 988.355 343.657L1031.27 368.44C1034.67 370.404 1040.23 370.404 1043.63 368.44L1086.32 343.625C1089.73 341.645 1089.73 338.447 1086.32 336.484Z" fill="url(#paint33_radial)"/>
<path opacity="0.4" d="M1069.78 337.685L1041.35 321.26C1039.09 319.962 1035.42 319.962 1033.15 321.26L1004.86 337.701C1002.61 338.999 1002.61 341.125 1004.86 342.424L1033.3 358.848C1035.55 360.146 1039.22 360.146 1041.49 358.848L1069.78 342.407C1072.05 341.109 1072.05 338.999 1069.78 337.685Z" fill="#06033E"/>
<path d="M1086.32 342.375L1043.63 367.19C1040.23 369.154 1034.67 369.154 1031.27 367.19L988.355 342.408C986.927 341.58 986.099 340.541 985.872 339.454C985.548 340.947 986.375 342.505 988.355 343.641L1031.27 368.424C1034.67 370.387 1040.23 370.387 1043.63 368.424L1086.32 343.592C1088.3 342.44 1089.13 340.898 1088.8 339.405C1088.57 340.492 1087.75 341.547 1086.32 342.375Z" fill="white"/>
<path d="M1049.39 373.926L1047.37 375.11V372.757L1049.39 371.589V373.926Z" fill="white"/>
<path d="M1053.65 371.475L1051.62 372.644V370.306L1053.65 369.138V371.475Z" fill="white"/>
<path d="M1057.9 369.024L1055.87 370.193V367.856L1057.9 366.671V369.024Z" fill="white"/>
<path d="M1054.43 375.776L1052.4 376.961V374.607L1054.43 373.439V375.776Z" fill="white"/>
<path d="M1058.16 373.618L1056.13 374.802V372.449L1058.16 371.281V373.618Z" fill="white"/>
<path d="M1071.53 361.153L1069.5 362.321V359.984L1071.53 358.8V361.153Z" fill="white"/>
<path d="M1083.23 354.385L1081.21 355.57V353.217L1083.23 352.048V354.385Z" fill="white"/>
<path d="M1062.15 366.574L1060.12 367.742V365.389L1062.15 364.22V366.574Z" fill="white"/>
<path d="M1088.88 322.9V302.321L1062.88 305.794L1043.41 294.547C1040 292.583 1034.45 292.583 1031.04 294.547L1028 296.478L985.791 302.11V322.932C985.791 322.948 985.791 322.948 985.791 322.965V323.062H985.807C985.856 324.312 986.7 325.561 988.355 326.519L1031.27 351.302C1034.67 353.265 1040.23 353.265 1043.63 351.302L1086.32 326.47C1087.97 325.513 1088.8 324.279 1088.87 323.03H1088.88V322.9Z" fill="url(#paint34_linear)"/>
<path d="M1086.32 298.604L1043.41 273.821C1040 271.857 1034.45 271.857 1031.04 273.821L988.355 298.636C984.947 300.6 984.947 303.797 988.355 305.777L1031.27 330.56C1034.67 332.524 1040.23 332.524 1043.63 330.56L1086.32 305.745C1089.73 303.765 1089.73 300.568 1086.32 298.604Z" fill="url(#paint35_radial)"/>
<path opacity="0.4" d="M1065.87 300.097L1040.86 285.653C1038.86 284.5 1035.65 284.5 1033.65 285.653L1008.77 300.113C1006.78 301.266 1006.78 303.132 1008.77 304.268L1033.78 318.713C1035.78 319.865 1038.99 319.865 1040.99 318.713L1065.87 304.252C1067.86 303.116 1067.86 301.25 1065.87 300.097Z" fill="#06033E"/>
<path d="M1086.32 304.495L1043.63 329.311C1040.23 331.274 1034.67 331.274 1031.27 329.311L988.355 304.528C986.927 303.7 986.099 302.661 985.872 301.574C985.548 303.067 986.375 304.625 988.355 305.761L1031.27 330.544C1034.67 332.508 1040.23 332.508 1043.63 330.544L1086.32 305.713C1088.3 304.56 1089.13 303.019 1088.8 301.525C1088.57 302.629 1087.75 303.668 1086.32 304.495Z" fill="white"/>
<path d="M1049.39 336.062L1047.37 337.231V334.877L1049.39 333.709V336.062Z" fill="white"/>
<path d="M1053.65 333.595L1051.62 334.78V332.427L1053.65 331.258V333.595Z" fill="white"/>
<path d="M1057.9 331.145L1055.87 332.329V329.976L1057.9 328.808V331.145Z" fill="white"/>
<path d="M1054.43 337.912L1052.4 339.081V336.744L1054.43 335.559V337.912Z" fill="white"/>
<path d="M1058.16 335.754L1056.13 336.922V334.569L1058.16 333.401V335.754Z" fill="white"/>
<path d="M1071.53 323.273L1069.5 324.458V322.105L1071.53 320.936V323.273Z" fill="white"/>
<path d="M1083.23 316.522L1081.21 317.69V315.337L1083.23 314.168V316.522Z" fill="white"/>
<path d="M1062.15 328.694L1060.12 329.862V327.525L1062.15 326.341V328.694Z" fill="white"/>
<path d="M1088.88 284.305V263.726L1062.88 267.199L1043.41 255.952C1040 253.988 1034.45 253.988 1031.04 255.952L1028 257.883L985.791 263.515V284.338C985.791 284.354 985.791 284.354 985.791 284.37V284.468H985.807C985.856 285.717 986.7 286.967 988.355 287.925L1031.27 312.707C1034.67 314.671 1040.23 314.671 1043.63 312.707L1086.32 287.876C1087.97 286.918 1088.8 285.685 1088.87 284.435H1088.88V284.305Z" fill="url(#paint36_linear)"/>
<path d="M1086.32 259.994L1043.41 235.211C1040 233.247 1034.45 233.247 1031.04 235.211L988.356 260.042C984.947 262.006 984.947 265.203 988.356 267.183L1031.27 291.966C1034.68 293.93 1040.23 293.93 1043.63 291.966L1086.32 267.135C1089.73 265.171 1089.73 261.974 1086.32 259.994Z" fill="url(#paint37_radial)"/>
<path d="M1086.32 259.994L1043.41 235.211C1040 233.247 1034.45 233.247 1031.04 235.211L988.356 260.042C984.947 262.006 984.947 265.203 988.356 267.183L1031.27 291.966C1034.68 293.93 1040.23 293.93 1043.63 291.966L1086.32 267.135C1089.73 265.171 1089.73 261.974 1086.32 259.994Z" fill="url(#paint38_radial)"/>
<path opacity="0.4" d="M1037.4 283.818C1035.83 283.818 1034.27 283.477 1033.07 282.78L1004.63 266.355C1003.38 265.641 1002.7 264.651 1002.7 263.58C1002.7 262.509 1003.38 261.535 1004.63 260.805L1032.92 244.364C1035.31 242.984 1039.19 242.984 1041.59 244.364L1070.02 260.788C1071.27 261.503 1071.95 262.493 1071.95 263.564C1071.95 264.635 1071.27 265.609 1070.02 266.339L1041.73 282.78C1040.53 283.477 1038.98 283.818 1037.4 283.818ZM1037.26 244.267C1035.86 244.267 1034.46 244.575 1033.39 245.192L1005.1 261.632C1004.16 262.184 1003.64 262.882 1003.64 263.596C1003.64 264.31 1004.16 265.008 1005.1 265.56L1033.54 281.984C1035.66 283.218 1039.14 283.218 1041.26 281.984L1069.55 265.544C1070.49 264.992 1071.01 264.294 1071.01 263.58C1071.01 262.866 1070.49 262.168 1069.55 261.616L1041.12 245.192C1040.05 244.575 1038.65 244.267 1037.26 244.267Z" fill="#06033E"/>
<path d="M1086.32 265.885L1043.63 290.7C1040.23 292.664 1034.67 292.664 1031.27 290.7L988.355 265.917C986.927 265.089 986.099 264.051 985.872 262.963C985.548 264.456 986.375 266.014 988.355 267.15L1031.27 291.933C1034.67 293.897 1040.23 293.897 1043.63 291.933L1086.32 267.102C1088.3 265.949 1089.13 264.408 1088.8 262.915C1088.57 264.018 1087.75 265.057 1086.32 265.885Z" fill="white"/>
<path d="M1049.39 297.451L1047.37 298.62V296.283L1049.39 295.114V297.451Z" fill="white"/>
<path d="M1053.65 295.001L1051.62 296.169V293.832L1053.65 292.647V295.001Z" fill="white"/>
<path d="M1057.9 292.55L1055.87 293.719V291.382L1057.9 290.197V292.55Z" fill="white"/>
<path d="M1054.43 299.301L1052.4 300.486V298.133L1054.43 296.964V299.301Z" fill="white"/>
<path d="M1058.16 297.143L1056.13 298.312V295.975L1058.16 294.806V297.143Z" fill="white"/>
<path d="M1071.53 284.679L1069.5 285.847V283.51L1071.53 282.325V284.679Z" fill="white"/>
<path d="M1083.23 277.911L1081.21 279.096V276.742L1083.23 275.574V277.911Z" fill="white"/>
<path d="M1062.15 290.099L1060.12 291.268V288.915L1062.15 287.746V290.099Z" fill="white"/>
<path opacity="0.3" d="M870.188 517.071V620H956.611V518.84L870.188 517.071Z" fill="url(#paint39_linear)"/>
<path opacity="0.6" d="M870.172 517.071V620H871.081V518.84L870.172 517.071Z" fill="url(#paint40_linear)"/>
<path opacity="0.6" d="M955.669 517.071V620H956.594V518.84L955.669 517.071Z" fill="url(#paint41_linear)"/>
<path d="M913.31 557.435C911.006 557.435 908.685 556.932 906.932 555.909L864.021 531.126C862.236 530.104 861.262 528.708 861.262 527.215C861.262 525.722 862.236 524.326 864.021 523.304L906.705 498.489C910.227 496.46 915.956 496.46 919.478 498.489L962.389 523.271C964.174 524.294 965.148 525.689 965.148 527.183C965.148 528.676 964.174 530.071 962.389 531.094L919.705 555.925C917.936 556.932 915.615 557.435 913.31 557.435ZM913.083 497.742C910.908 497.742 908.75 498.213 907.094 499.17L864.41 523.985C862.885 524.862 862.041 526.014 862.041 527.215C862.041 528.416 862.885 529.568 864.41 530.445L907.322 555.227C910.616 557.126 915.988 557.126 919.283 555.227L961.967 530.412C963.492 529.536 964.336 528.384 964.336 527.183C964.336 525.982 963.492 524.829 961.967 523.953L919.056 499.17C917.416 498.213 915.242 497.742 913.083 497.742Z" fill="#03A7D3"/>
<path d="M964.953 513.63V493.051L938.953 496.524L919.478 485.277C916.07 483.313 910.519 483.313 907.111 485.277L904.076 487.209L861.863 492.84V513.663C861.863 513.679 861.863 513.679 861.863 513.695V513.793H861.879C861.928 515.042 862.771 516.292 864.427 517.25L907.338 542.032C910.746 543.996 916.297 543.996 919.705 542.032L962.389 517.201C964.045 516.243 964.872 515.01 964.937 513.76H964.953V513.63Z" fill="url(#paint42_linear)"/>
<path d="M962.388 489.318L919.477 464.536C916.069 462.572 910.518 462.572 907.11 464.536L864.426 489.367C861.018 491.331 861.018 494.528 864.426 496.508L907.337 521.291C910.746 523.255 916.296 523.255 919.704 521.291L962.388 496.46C965.797 494.496 965.797 491.299 962.388 489.318Z" fill="url(#paint43_radial)"/>
<path d="M962.389 495.226L919.705 520.042C916.297 522.005 910.746 522.005 907.338 520.042L864.427 495.259C862.999 494.431 862.171 493.392 861.944 492.305C861.619 493.798 862.447 495.356 864.427 496.492L907.338 521.275C910.746 523.239 916.297 523.239 919.705 521.275L962.389 496.444C964.369 495.291 965.197 493.749 964.872 492.256C964.645 493.344 963.817 494.399 962.389 495.226Z" fill="white"/>
<path d="M925.467 526.777L923.438 527.962V525.608L925.467 524.44V526.777Z" fill="white"/>
<path d="M929.719 524.326L927.69 525.494V523.157L929.719 521.989V524.326Z" fill="white"/>
<path d="M933.971 521.875L931.943 523.044V520.707L933.971 519.522V521.875Z" fill="white"/>
<path d="M930.498 528.627L928.469 529.812V527.458L930.498 526.29V528.627Z" fill="white"/>
<path d="M934.231 526.468L932.202 527.653V525.3L934.231 524.131V526.468Z" fill="white"/>
<path d="M947.604 514.004L945.576 515.172V512.835L947.604 511.65V514.004Z" fill="white"/>
<path d="M959.306 507.236L957.277 508.421V506.067L959.306 504.899V507.236Z" fill="white"/>
<path d="M938.223 519.424L936.194 520.593V518.24L938.223 517.071V519.424Z" fill="white"/>
<path opacity="0.4" d="M910.973 510.823L882.1 494.155C880.932 493.474 881.078 492.289 882.425 491.51L910.632 475.215C911.995 474.436 914.04 474.355 915.209 475.021L944.081 491.688C945.25 492.37 945.104 493.555 943.757 494.334L915.55 510.628C914.202 511.407 912.141 511.505 910.973 510.823Z" fill="#06033E"/>
<path d="M899.612 528.871L875.787 515.108C875.219 514.783 874.765 513.891 874.765 513.144V511.375C874.765 510.612 875.219 510.271 875.787 510.596L899.612 524.359C900.18 524.683 900.635 525.576 900.635 526.322V528.091C900.651 528.838 900.18 529.195 899.612 528.871Z" fill="white"/>
<path d="M964.953 475.02V454.441L938.953 457.914L919.478 446.667C916.07 444.703 910.519 444.703 907.111 446.667L904.076 448.598L861.863 454.23V475.052C861.863 475.069 861.863 475.069 861.863 475.085V475.182H861.879C861.928 476.432 862.771 477.682 864.427 478.639L907.338 503.422C910.746 505.386 916.297 505.386 919.705 503.422L962.389 478.59C964.045 477.633 964.872 476.399 964.937 475.15H964.953V475.02Z" fill="url(#paint44_linear)"/>
<path d="M962.388 450.724L919.477 425.942C916.069 423.978 910.518 423.978 907.11 425.942L864.426 450.773C861.018 452.737 861.018 455.934 864.426 457.914L907.337 482.697C910.746 484.66 916.296 484.66 919.704 482.697L962.388 457.865C965.797 455.885 965.797 452.688 962.388 450.724Z" fill="url(#paint45_radial)"/>
<path opacity="0.4" d="M941.939 452.217L916.93 437.773C914.933 436.621 911.72 436.621 909.724 437.773L884.843 452.234C882.847 453.386 882.847 455.252 884.843 456.388L909.853 470.833C911.85 471.985 915.063 471.985 917.059 470.833L941.939 456.372C943.936 455.236 943.936 453.37 941.939 452.217Z" fill="#06033E"/>
<path d="M962.389 456.616L919.705 481.431C916.297 483.395 910.746 483.395 907.338 481.431L864.427 456.648C862.999 455.821 862.171 454.782 861.944 453.694C861.619 455.188 862.447 456.746 864.427 457.882L907.338 482.664C910.746 484.628 916.297 484.628 919.705 482.664L962.389 457.833C964.369 456.681 965.197 455.139 964.872 453.646C964.645 454.749 963.817 455.788 962.389 456.616Z" fill="white"/>
<path d="M925.467 488.182L923.438 489.351V487.014L925.467 485.829V488.182Z" fill="white"/>
<path d="M929.719 485.731L927.69 486.9V484.547L929.719 483.378V485.731Z" fill="white"/>
<path d="M933.971 483.265L931.943 484.449V482.096L933.971 480.927V483.265Z" fill="white"/>
<path d="M930.498 490.032L928.469 491.201V488.864L930.498 487.679V490.032Z" fill="white"/>
<path d="M934.23 487.874L932.201 489.043V486.705L934.23 485.521V487.874Z" fill="white"/>
<path d="M947.604 475.393L945.576 476.578V474.224L947.604 473.056V475.393Z" fill="white"/>
<path d="M959.306 468.642L957.277 469.81V467.473L959.306 466.288V468.642Z" fill="white"/>
<path d="M938.223 480.814L936.194 481.983V479.646L938.223 478.477V480.814Z" fill="white"/>
<path d="M964.953 436.426V415.847L938.953 419.32L919.478 408.073C916.07 406.109 910.519 406.109 907.111 408.073L904.076 410.004L861.863 415.636V436.459C861.863 436.475 861.863 436.475 861.863 436.491V436.588H861.879C861.928 437.838 862.771 439.088 864.427 440.045L907.338 464.828C910.746 466.792 916.297 466.792 919.705 464.828L962.389 439.997C964.045 439.039 964.872 437.806 964.937 436.556H964.953V436.426Z" fill="url(#paint46_linear)"/>
<path d="M962.388 412.131L919.477 387.348C916.069 385.384 910.518 385.384 907.11 387.348L864.426 412.163C861.018 414.127 861.018 417.324 864.426 419.304L907.337 444.087C910.746 446.051 916.296 446.051 919.704 444.087L962.388 419.255C965.797 417.292 965.797 414.094 962.388 412.131Z" fill="url(#paint47_radial)"/>
<path d="M962.388 412.131L919.477 387.348C916.069 385.384 910.518 385.384 907.11 387.348L864.426 412.163C861.018 414.127 861.018 417.324 864.426 419.304L907.337 444.087C910.746 446.051 916.296 446.051 919.704 444.087L962.388 419.255C965.797 417.292 965.797 414.094 962.388 412.131Z" fill="url(#paint48_radial)"/>
<path opacity="0.4" d="M945.867 413.332L917.433 396.907C915.177 395.609 911.509 395.609 909.237 396.907L880.948 413.348C878.693 414.646 878.693 416.772 880.948 418.071L909.383 434.495C911.639 435.793 915.307 435.793 917.579 434.495L945.867 418.054C948.123 416.756 948.123 414.646 945.867 413.332Z" fill="#06033E"/>
<path d="M962.389 418.022L919.705 442.837C916.297 444.801 910.746 444.801 907.338 442.837L864.427 418.054C862.999 417.227 862.171 416.188 861.944 415.101C861.619 416.594 862.447 418.152 864.427 419.288L907.338 444.071C910.746 446.034 916.297 446.034 919.705 444.071L962.389 419.239C964.369 418.087 965.197 416.545 964.872 415.052C964.645 416.139 963.817 417.194 962.389 418.022Z" fill="white"/>
<path d="M925.467 449.572L923.438 450.757V448.404L925.467 447.235V449.572Z" fill="white"/>
<path d="M929.719 447.121L927.69 448.29V445.953L929.719 444.784V447.121Z" fill="white"/>
<path d="M933.971 444.671L931.943 445.839V443.502L933.971 442.318V444.671Z" fill="white"/>
<path d="M930.498 451.422L928.469 452.607V450.254L930.498 449.085V451.422Z" fill="white"/>
<path d="M934.23 449.264L932.201 450.449V448.096L934.23 446.927V449.264Z" fill="white"/>
<path d="M947.604 436.799L945.576 437.968V435.631L947.604 434.446V436.799Z" fill="white"/>
<path d="M959.306 430.032L957.277 431.216V428.863L959.306 427.695V430.032Z" fill="white"/>
<path d="M938.223 442.22L936.194 443.389V441.035L938.223 439.867V442.22Z" fill="white"/>
<path d="M964.953 398.546V377.967L938.953 381.44L919.478 370.193C916.07 368.229 910.519 368.229 907.111 370.193L904.076 372.124L861.863 377.756V398.578C861.863 398.595 861.863 398.595 861.863 398.611V398.708H861.879C861.928 399.958 862.771 401.208 864.427 402.165L907.338 426.948C910.746 428.912 916.297 428.912 919.705 426.948L962.389 402.117C964.045 401.159 964.872 399.926 964.937 398.676H964.953V398.546Z" fill="url(#paint49_linear)"/>
<path d="M962.388 374.25L919.477 349.468C916.069 347.504 910.518 347.504 907.11 349.468L864.426 374.283C861.018 376.247 861.018 379.444 864.426 381.424L907.337 406.207C910.746 408.17 916.296 408.17 919.704 406.207L962.388 381.391C965.797 379.411 965.797 376.214 962.388 374.25Z" fill="url(#paint50_radial)"/>
<path opacity="0.4" d="M941.939 375.743L916.93 361.299C914.933 360.147 911.72 360.147 909.724 361.299L884.843 375.76C882.847 376.912 882.847 378.778 884.843 379.914L909.853 394.359C911.85 395.511 915.063 395.511 917.059 394.359L941.939 379.898C943.936 378.762 943.936 376.896 941.939 375.743Z" fill="#06033E"/>
<path d="M962.389 380.142L919.705 404.957C916.297 406.921 910.746 406.921 907.338 404.957L864.427 380.174C862.999 379.347 862.171 378.308 861.944 377.221C861.619 378.714 862.447 380.272 864.427 381.408L907.338 406.191C910.746 408.154 916.297 408.154 919.705 406.191L962.389 381.359C964.369 380.207 965.197 378.665 964.872 377.172C964.645 378.275 963.817 379.314 962.389 380.142Z" fill="white"/>
<path d="M925.467 411.708L923.438 412.877V410.524L925.467 409.355V411.708Z" fill="white"/>
<path d="M929.719 409.241L927.69 410.426V408.073L929.719 406.904V409.241Z" fill="white"/>
<path d="M933.971 406.791L931.943 407.975V405.622L933.971 404.454V406.791Z" fill="white"/>
<path d="M930.498 413.558L928.469 414.727V412.39L930.498 411.205V413.558Z" fill="white"/>
<path d="M934.23 411.4L932.201 412.569V410.215L934.23 409.047V411.4Z" fill="white"/>
<path d="M947.604 398.919L945.576 400.104V397.751L947.604 396.582V398.919Z" fill="white"/>
<path d="M959.306 392.168L957.277 393.336V390.983L959.306 389.814V392.168Z" fill="white"/>
<path d="M938.223 404.34L936.194 405.508V403.171L938.223 401.987V404.34Z" fill="white"/>
<path d="M964.953 359.952V339.373L938.953 342.846L919.478 331.599C916.07 329.635 910.519 329.635 907.111 331.599L904.076 333.53L861.863 339.162V359.984C861.863 360.001 861.863 360.001 861.863 360.017V360.114H861.879C861.928 361.364 862.771 362.614 864.427 363.571L907.338 388.354C910.746 390.318 916.297 390.318 919.705 388.354L962.389 363.523C964.045 362.565 964.872 361.332 964.937 360.082H964.953V359.952Z" fill="url(#paint51_linear)"/>
<path d="M962.388 335.64L919.477 310.857C916.069 308.894 910.518 308.894 907.11 310.857L864.426 335.673C861.018 337.636 861.018 340.834 864.426 342.814L907.337 367.596C910.746 369.56 916.296 369.56 919.704 367.596L962.388 342.781C965.797 340.817 965.797 337.62 962.388 335.64Z" fill="url(#paint52_radial)"/>
<path d="M962.388 335.64L919.477 310.857C916.069 308.894 910.518 308.894 907.11 310.857L864.426 335.673C861.018 337.636 861.018 340.834 864.426 342.814L907.337 367.596C910.746 369.56 916.296 369.56 919.704 367.596L962.388 342.781C965.797 340.817 965.797 337.62 962.388 335.64Z" fill="url(#paint53_radial)"/>
<path opacity="0.4" d="M913.473 359.465C911.898 359.465 910.34 359.124 909.139 358.426L880.705 342.002C879.455 341.288 878.774 340.298 878.774 339.227C878.774 338.155 879.455 337.182 880.705 336.451L908.993 320.011C911.379 318.631 915.258 318.631 917.66 320.011L946.094 336.451C947.344 337.165 948.026 338.155 948.026 339.227C948.026 340.298 947.344 341.272 946.094 342.002L917.806 358.443C916.621 359.124 915.047 359.465 913.473 359.465ZM913.327 319.913C911.931 319.913 910.535 320.222 909.464 320.838L881.176 337.279C880.234 337.831 879.715 338.529 879.715 339.243C879.715 339.957 880.234 340.655 881.176 341.207L909.61 357.631C911.736 358.865 915.209 358.865 917.335 357.631L945.624 341.19C946.565 340.639 947.084 339.941 947.084 339.227C947.084 338.513 946.565 337.815 945.624 337.263L917.189 320.838C916.118 320.222 914.722 319.913 913.327 319.913Z" fill="#06033E"/>
<path d="M962.389 341.532L919.705 366.347C916.297 368.31 910.746 368.31 907.338 366.347L864.427 341.564C862.999 340.736 862.171 339.698 861.944 338.61C861.619 340.103 862.447 341.661 864.427 342.797L907.338 367.58C910.746 369.544 916.297 369.544 919.705 367.58L962.389 342.749C964.369 341.596 965.197 340.055 964.872 338.562C964.645 339.665 963.817 340.704 962.389 341.532Z" fill="white"/>
<path d="M925.467 373.098L923.438 374.267V371.93L925.467 370.761V373.098Z" fill="white"/>
<path d="M929.719 370.648L927.69 371.816V369.479L929.719 368.294V370.648Z" fill="white"/>
<path d="M933.971 368.197L931.943 369.365V367.028L933.971 365.844V368.197Z" fill="white"/>
<path d="M930.498 374.948L928.469 376.133V373.78L930.498 372.611V374.948Z" fill="white"/>
<path d="M934.231 372.79L932.202 373.958V371.621L934.231 370.453V372.79Z" fill="white"/>
<path d="M947.604 360.325L945.576 361.494V359.157L947.604 357.972V360.325Z" fill="white"/>
<path d="M959.306 353.558L957.277 354.742V352.389L959.306 351.22V353.558Z" fill="white"/>
<path d="M938.223 365.746L936.194 366.914V364.561L938.223 363.393V365.746Z" fill="white"/>
<path opacity="0.3" d="M745.089 441.425V544.354H831.496V443.194L745.089 441.425Z" fill="url(#paint54_linear)"/>
<path opacity="0.6" d="M745.089 441.425V544.354H745.998V443.194L745.089 441.425Z" fill="url(#paint55_linear)"/>
<path opacity="0.6" d="M830.587 441.425V544.354H831.496V443.194L830.587 441.425Z" fill="url(#paint56_linear)"/>
<path d="M789.153 481.788C786.849 481.788 784.528 481.285 782.775 480.263L739.864 455.48C738.079 454.458 737.105 453.062 737.105 451.569C737.105 450.076 738.079 448.68 739.864 447.657L782.548 422.842C786.07 420.814 791.799 420.814 795.32 422.842L838.232 447.625C840.017 448.647 840.991 450.043 840.991 451.536C840.991 453.03 840.017 454.425 838.232 455.448L795.548 480.263C793.779 481.285 791.474 481.788 789.153 481.788ZM788.942 422.096C786.784 422.096 784.609 422.566 782.953 423.524L740.27 448.339C738.744 449.216 737.9 450.368 737.9 451.569C737.9 452.77 738.744 453.922 740.27 454.799L783.181 479.581C786.475 481.48 791.847 481.48 795.142 479.581L837.826 454.766C839.352 453.89 840.196 452.737 840.196 451.536C840.196 450.335 839.352 449.199 837.826 448.307L794.915 423.524C793.276 422.566 791.101 422.096 788.942 422.096Z" fill="#03A7D3"/>
<path d="M840.812 437.984V417.405L814.812 420.878L795.336 409.631C791.928 407.667 786.377 407.667 782.969 409.631L779.934 411.562L737.721 417.194V438.017C737.721 438.033 737.721 438.033 737.721 438.049V438.147H737.737C737.786 439.396 738.63 440.646 740.285 441.603L783.196 466.386C786.605 468.35 792.155 468.35 795.563 466.386L838.247 441.555C839.903 440.597 840.73 439.364 840.795 438.114H840.812V437.984Z" fill="url(#paint57_linear)"/>
<path d="M838.247 413.672L795.336 388.89C791.927 386.926 786.377 386.926 782.969 388.89L740.285 413.721C736.876 415.685 736.876 418.882 740.285 420.862L783.196 445.645C786.604 447.608 792.155 447.608 795.563 445.645L838.247 420.813C841.655 418.85 841.655 415.652 838.247 413.672Z" fill="url(#paint58_radial)"/>
<path d="M838.247 419.58L795.563 444.395C792.155 446.359 786.604 446.359 783.196 444.395L740.285 419.612C738.857 418.784 738.029 417.746 737.802 416.658C737.477 418.151 738.305 419.709 740.285 420.846L783.196 445.628C786.604 447.592 792.155 447.592 795.563 445.628L838.247 420.797C840.227 419.645 841.055 418.103 840.73 416.61C840.503 417.697 839.675 418.752 838.247 419.58Z" fill="white"/>
<path d="M801.324 451.13L799.296 452.315V449.962L801.324 448.793V451.13Z" fill="white"/>
<path d="M805.577 448.68L803.548 449.848V447.511L805.577 446.343V448.68Z" fill="white"/>
<path d="M809.829 446.229L807.801 447.398V445.061L809.829 443.876V446.229Z" fill="white"/>
<path d="M806.356 452.98L804.327 454.165V451.812L806.356 450.643V452.98Z" fill="white"/>
<path d="M810.088 450.822L808.059 452.007V449.654L810.088 448.485V450.822Z" fill="white"/>
<path d="M823.462 438.357L821.433 439.526V437.189L823.462 436.004V438.357Z" fill="white"/>
<path d="M835.163 431.59L833.135 432.775V430.421L835.163 429.253V431.59Z" fill="white"/>
<path d="M814.081 443.778L812.052 444.947V442.593L814.081 441.425V443.778Z" fill="white"/>
<path opacity="0.4" d="M786.833 435.177L757.96 418.509C756.792 417.827 756.938 416.642 758.285 415.863L786.492 399.569C787.839 398.79 789.9 398.709 791.069 399.374L819.941 416.042C821.11 416.724 820.964 417.908 819.617 418.687L791.409 434.982C790.062 435.761 788.001 435.858 786.833 435.177Z" fill="#06033E"/>
<path d="M775.472 453.224L751.646 439.462C751.078 439.137 750.624 438.244 750.624 437.498V435.729C750.624 434.966 751.078 434.625 751.646 434.95L775.472 448.712C776.04 449.037 776.494 449.93 776.494 450.676V452.445C776.494 453.192 776.04 453.549 775.472 453.224Z" fill="white"/>
<path d="M840.812 399.374V378.795L814.812 382.268L795.336 371.021C791.928 369.057 786.377 369.057 782.969 371.021L779.934 372.952L737.721 378.584V399.407C737.721 399.423 737.721 399.423 737.721 399.439V399.536H737.737C737.786 400.786 738.63 402.036 740.285 402.993L783.196 427.776C786.605 429.74 792.155 429.74 795.563 427.776L838.247 402.945C839.903 401.987 840.73 400.754 840.795 399.504H840.812V399.374Z" fill="url(#paint59_linear)"/>
<path d="M838.247 375.078L795.336 350.295C791.927 348.332 786.377 348.332 782.969 350.295L740.285 375.111C736.876 377.074 736.876 380.272 740.285 382.252L783.196 407.034C786.604 408.998 792.155 408.998 795.563 407.034L838.247 382.203C841.655 380.239 841.655 377.042 838.247 375.078Z" fill="url(#paint60_radial)"/>
<path opacity="0.4" d="M817.798 376.571L792.788 362.127C790.792 360.975 787.578 360.975 785.582 362.127L760.702 376.588C758.705 377.74 758.705 379.606 760.702 380.742L785.712 395.187C787.708 396.339 790.921 396.339 792.918 395.187L817.798 380.726C819.794 379.59 819.794 377.724 817.798 376.571Z" fill="#06033E"/>
<path d="M838.247 380.97L795.563 405.785C792.155 407.748 786.604 407.748 783.196 405.785L740.285 381.002C738.857 380.174 738.029 379.136 737.802 378.048C737.477 379.541 738.305 381.099 740.285 382.235L783.196 407.018C786.604 408.982 792.155 408.982 795.563 407.018L838.247 382.187C840.227 381.034 841.055 379.493 840.73 378C840.503 379.103 839.675 380.142 838.247 380.97Z" fill="white"/>
<path d="M801.324 412.536L799.296 413.705V411.368L801.324 410.183V412.536Z" fill="white"/>
<path d="M805.577 410.086L803.548 411.254V408.901L805.577 407.733V410.086Z" fill="white"/>
<path d="M809.829 407.619L807.801 408.804V406.451L809.829 405.282V407.619Z" fill="white"/>
<path d="M806.356 414.386L804.327 415.555V413.218L806.356 412.033V414.386Z" fill="white"/>
<path d="M810.088 412.228L808.059 413.397V411.06L810.088 409.875V412.228Z" fill="white"/>
<path d="M823.462 399.747L821.433 400.932V398.579L823.462 397.41V399.747Z" fill="white"/>
<path d="M835.163 392.996L833.135 394.164V391.827L835.163 390.643V392.996Z" fill="white"/>
<path d="M814.081 405.168L812.052 406.337V404L814.081 402.831V405.168Z" fill="white"/>
<path d="M840.812 360.78V340.201L814.812 343.674L795.336 332.427C791.928 330.463 786.377 330.463 782.969 332.427L779.934 334.358L737.721 339.99V360.812C737.721 360.829 737.721 360.829 737.721 360.845V360.942H737.737C737.786 362.192 738.63 363.442 740.285 364.399L783.196 389.182C786.605 391.146 792.155 391.146 795.563 389.182L838.247 364.35C839.903 363.393 840.73 362.159 840.795 360.91H840.812V360.78Z" fill="url(#paint61_linear)"/>
<path d="M838.247 336.484L795.336 311.701C791.927 309.738 786.377 309.738 782.969 311.701L740.285 336.516C736.876 338.48 736.876 341.678 740.285 343.658L783.196 368.44C786.604 370.404 792.155 370.404 795.563 368.44L838.247 343.625C841.655 341.645 841.655 338.448 838.247 336.484Z" fill="url(#paint62_radial)"/>
<path d="M838.247 336.484L795.336 311.701C791.927 309.738 786.377 309.738 782.969 311.701L740.285 336.516C736.876 338.48 736.876 341.678 740.285 343.658L783.196 368.44C786.604 370.404 792.155 370.404 795.563 368.44L838.247 343.625C841.655 341.645 841.655 338.448 838.247 336.484Z" fill="url(#paint63_radial)"/>
<path opacity="0.4" d="M821.71 337.685L793.275 321.261C791.019 319.962 787.351 319.962 785.079 321.261L756.791 337.701C754.535 339 754.535 341.126 756.791 342.424L785.225 358.849C787.481 360.147 791.149 360.147 793.421 358.849L821.71 342.408C823.982 341.11 823.982 339 821.71 337.685Z" fill="#06033E"/>
<path d="M838.247 342.376L795.563 367.191C792.155 369.154 786.604 369.154 783.196 367.191L740.285 342.408C738.857 341.58 738.029 340.542 737.802 339.454C737.477 340.947 738.305 342.505 740.285 343.641L783.196 368.424C786.604 370.388 792.155 370.388 795.563 368.424L838.247 343.593C840.227 342.44 841.055 340.899 840.73 339.406C840.503 340.493 839.675 341.548 838.247 342.376Z" fill="white"/>
<path d="M801.324 373.926L799.296 375.111V372.757L801.324 371.589V373.926Z" fill="white"/>
<path d="M805.577 371.475L803.548 372.644V370.307L805.577 369.138V371.475Z" fill="white"/>
<path d="M809.829 369.025L807.801 370.193V367.856L809.829 366.671V369.025Z" fill="white"/>
<path d="M806.356 375.776L804.327 376.961V374.608L806.356 373.439V375.776Z" fill="white"/>
<path d="M810.088 373.618L808.059 374.803V372.449L810.088 371.281V373.618Z" fill="white"/>
<path d="M823.462 361.153L821.433 362.322V359.985L823.462 358.8V361.153Z" fill="white"/>
<path d="M835.163 354.385L833.135 355.57V353.217L835.163 352.048V354.385Z" fill="white"/>
<path d="M814.081 366.574L812.052 367.742V365.389L814.081 364.22V366.574Z" fill="white"/>
<path d="M840.812 322.9V302.321L814.812 305.794L795.336 294.547C791.928 292.583 786.377 292.583 782.969 294.547L779.934 296.478L737.721 302.11V322.932C737.721 322.949 737.721 322.949 737.721 322.965V323.062H737.737C737.786 324.312 738.63 325.562 740.285 326.519L783.196 351.302C786.605 353.266 792.155 353.266 795.563 351.302L838.247 326.471C839.903 325.513 840.73 324.28 840.795 323.03H840.812V322.9Z" fill="url(#paint64_linear)"/>
<path d="M838.247 298.604L795.336 273.821C791.927 271.858 786.377 271.858 782.969 273.821L740.285 298.637C736.876 300.6 736.876 303.798 740.285 305.778L783.196 330.56C786.604 332.524 792.155 332.524 795.563 330.56L838.247 305.745C841.655 303.765 841.655 300.568 838.247 298.604Z" fill="url(#paint65_radial)"/>
<path opacity="0.4" d="M817.798 300.097L792.788 285.653C790.792 284.501 787.578 284.501 785.582 285.653L760.702 300.114C758.705 301.266 758.705 303.132 760.702 304.268L785.712 318.713C787.708 319.865 790.921 319.865 792.918 318.713L817.798 304.252C819.794 303.116 819.794 301.25 817.798 300.097Z" fill="#06033E"/>
<path d="M838.247 304.496L795.563 329.311C792.155 331.275 786.604 331.275 783.196 329.311L740.285 304.528C738.857 303.7 738.029 302.662 737.802 301.574C737.477 303.067 738.305 304.625 740.285 305.762L783.196 330.544C786.604 332.508 792.155 332.508 795.563 330.544L838.247 305.713C840.227 304.561 841.055 303.019 840.73 301.526C840.503 302.629 839.675 303.668 838.247 304.496Z" fill="white"/>
<path d="M801.324 336.062L799.296 337.231V334.878L801.324 333.709V336.062Z" fill="white"/>
<path d="M805.577 333.596L803.548 334.78V332.427L805.577 331.259V333.596Z" fill="white"/>
<path d="M809.829 331.145L807.801 332.33V329.976L809.829 328.808V331.145Z" fill="white"/>
<path d="M806.356 337.912L804.327 339.081V336.744L806.356 335.559V337.912Z" fill="white"/>
<path d="M810.088 335.754L808.059 336.923V334.569L810.088 333.401V335.754Z" fill="white"/>
<path d="M823.462 323.273L821.433 324.458V322.105L823.462 320.936V323.273Z" fill="white"/>
<path d="M835.163 316.522L833.135 317.69V315.337L835.163 314.168V316.522Z" fill="white"/>
<path d="M814.081 328.694L812.052 329.862V327.525L814.081 326.341V328.694Z" fill="white"/>
<path d="M840.812 284.306V263.727L814.812 267.2L795.336 255.953C791.928 253.989 786.377 253.989 782.969 255.953L779.934 257.884L737.721 263.516V284.338C737.721 284.354 737.721 284.354 737.721 284.371V284.468H737.737C737.786 285.718 738.63 286.967 740.285 287.925L783.196 312.708C786.605 314.671 792.155 314.671 795.563 312.708L838.247 287.876C839.903 286.919 840.73 285.685 840.795 284.436H840.812V284.306Z" fill="url(#paint66_linear)"/>
<path d="M838.246 259.994L795.335 235.211C791.927 233.247 786.376 233.247 782.968 235.211L740.284 260.042C736.876 262.006 736.876 265.204 740.284 267.184L783.195 291.966C786.604 293.93 792.154 293.93 795.562 291.966L838.246 267.135C841.655 265.171 841.655 261.974 838.246 259.994Z" fill="url(#paint67_radial)"/>
<path d="M838.246 259.994L795.335 235.211C791.927 233.247 786.376 233.247 782.968 235.211L740.284 260.042C736.876 262.006 736.876 265.204 740.284 267.184L783.195 291.966C786.604 293.93 792.154 293.93 795.562 291.966L838.246 267.135C841.655 265.171 841.655 261.974 838.246 259.994Z" fill="url(#paint68_radial)"/>
<path d="M838.247 265.885L795.563 290.7C792.155 292.664 786.604 292.664 783.196 290.7L740.285 265.917C738.857 265.09 738.029 264.051 737.802 262.963C737.477 264.457 738.305 266.015 740.285 267.151L783.196 291.933C786.604 293.897 792.155 293.897 795.563 291.933L838.247 267.102C840.227 265.95 841.055 264.408 840.73 262.915C840.503 264.018 839.675 265.057 838.247 265.885Z" fill="white"/>
<path d="M801.324 297.452L799.296 298.62V296.283L801.324 295.115V297.452Z" fill="white"/>
<path d="M805.577 295.001L803.548 296.17V293.833L805.577 292.648V295.001Z" fill="white"/>
<path d="M809.829 292.551L807.801 293.719V291.382L809.829 290.197V292.551Z" fill="white"/>
<path d="M806.356 299.302L804.327 300.487V298.133L806.356 296.965V299.302Z" fill="white"/>
<path d="M810.088 297.144L808.059 298.312V295.975L810.088 294.807V297.144Z" fill="white"/>
<path d="M823.462 284.679L821.433 285.848V283.51L823.462 282.326V284.679Z" fill="white"/>
<path d="M835.163 277.911L833.135 279.096V276.743L835.163 275.574V277.911Z" fill="white"/>
<path d="M814.081 290.1L812.052 291.268V288.915L814.081 287.746V290.1Z" fill="white"/>
<path opacity="0.3" d="M1354.53 326.95C1348.95 336.141 1243.2 282.274 1118.29 206.629C993.391 130.984 896.658 62.2116 902.229 53.0212C907.801 43.8308 1013.56 97.6975 1138.46 173.343C1263.36 248.988 1360.1 317.76 1354.53 326.95Z" fill="url(#paint69_radial)"/>
<path d="M1117.81 206.42C1117.84 209.271 1115.56 211.601 1112.71 211.627C1109.86 211.653 1107.53 209.375 1107.5 206.524C1107.48 203.674 1109.76 201.343 1112.61 201.317C1115.44 201.278 1117.77 203.569 1117.81 206.42Z" fill="white"/>
<path d="M1129.19 210.443C1129.22 212.265 1127.75 213.762 1125.92 213.775C1124.1 213.801 1122.6 212.33 1122.59 210.508C1122.56 208.685 1124.04 207.188 1125.86 207.175C1127.68 207.162 1129.16 208.62 1129.19 210.443Z" fill="white"/>
<path d="M1134.01 202.216C1134.02 203.505 1132.99 204.559 1131.7 204.572C1130.41 204.585 1129.36 203.557 1129.35 202.268C1129.33 200.979 1130.36 199.925 1131.65 199.912C1132.94 199.899 1133.99 200.927 1134.01 202.216Z" fill="white"/>
<path d="M1130.83 194.77C1130.84 195.59 1130.18 196.254 1129.36 196.267C1128.54 196.28 1127.88 195.616 1127.86 194.796C1127.85 193.976 1128.51 193.312 1129.33 193.299C1130.14 193.299 1130.82 193.949 1130.83 194.77Z" fill="white"/>
<path opacity="0.8" d="M1114.74 173.004C1114.75 174.358 1113.67 175.464 1112.32 175.477C1110.97 175.491 1109.86 174.41 1109.85 173.056C1109.83 171.702 1110.91 170.596 1112.27 170.583C1113.61 170.57 1114.72 171.65 1114.74 173.004Z" fill="#01C8EF"/>
<path opacity="0.8" d="M1245.37 249.04C1245.39 250.394 1244.31 251.5 1242.95 251.513C1241.6 251.526 1240.49 250.446 1240.48 249.092C1240.47 247.738 1241.55 246.632 1242.9 246.619C1244.25 246.606 1245.36 247.686 1245.37 249.04Z" fill="#01C8EF"/>
<path opacity="0.8" d="M1252.74 264.414C1252.75 266.197 1251.34 267.655 1249.54 267.681C1247.76 267.694 1246.3 266.275 1246.27 264.479C1246.26 262.696 1247.68 261.238 1249.47 261.212C1251.26 261.198 1252.73 262.63 1252.74 264.414Z" fill="#01C8EF"/>
<path opacity="0.8" d="M1232.78 264.635C1232.8 265.898 1231.78 266.926 1230.52 266.939C1229.26 266.952 1228.23 265.937 1228.22 264.674C1228.2 263.412 1229.22 262.383 1230.48 262.37C1231.74 262.357 1232.77 263.373 1232.78 264.635Z" fill="#01C8EF"/>
<path opacity="0.8" d="M1219.96 257.046C1219.96 257.592 1219.53 258.035 1218.99 258.035C1218.44 258.035 1218 257.605 1218 257.059C1218 256.512 1218.43 256.069 1218.97 256.069C1219.52 256.069 1219.95 256.512 1219.96 257.046Z" fill="#01C8EF"/>
<path opacity="0.8" d="M1217.32 235.671C1217.33 236.517 1216.66 237.207 1215.81 237.22C1214.96 237.233 1214.27 236.556 1214.26 235.71C1214.25 234.864 1214.92 234.174 1215.77 234.161C1216.63 234.148 1217.32 234.825 1217.32 235.671Z" fill="#01C8EF"/>
<path opacity="0.8" d="M1057.39 165.61C1057.41 167.628 1055.79 169.294 1053.77 169.32C1051.75 169.346 1050.08 167.719 1050.06 165.701C1050.03 163.684 1051.66 162.017 1053.68 161.991C1055.71 161.952 1057.36 163.58 1057.39 165.61Z" fill="#01C8EF"/>
<path opacity="0.3" d="M822.525 603.95C816.954 613.141 711.199 559.274 586.295 483.629C461.391 407.984 364.658 339.212 370.229 330.021C375.801 320.831 481.555 374.698 606.459 450.343C731.363 525.988 828.097 594.76 822.525 603.95Z" fill="url(#paint70_radial)"/>
<path d="M585.814 483.42C585.84 486.271 583.562 488.601 580.711 488.627C577.86 488.653 575.53 486.375 575.504 483.524C575.478 480.674 577.756 478.343 580.607 478.317C583.444 478.278 585.775 480.569 585.814 483.42Z" fill="white"/>
<path d="M597.191 487.443C597.217 489.265 595.746 490.762 593.923 490.775C592.101 490.801 590.604 489.33 590.591 487.508C590.565 485.685 592.036 484.188 593.858 484.175C595.681 484.162 597.165 485.62 597.191 487.443Z" fill="white"/>
<path d="M602.008 479.216C602.021 480.505 600.992 481.559 599.704 481.572C598.415 481.585 597.36 480.557 597.347 479.268C597.334 477.979 598.363 476.925 599.652 476.912C600.94 476.899 601.995 477.927 602.008 479.216Z" fill="white"/>
<path d="M598.831 471.77C598.844 472.59 598.18 473.254 597.36 473.267C596.54 473.28 595.876 472.616 595.863 471.796C595.85 470.976 596.514 470.312 597.334 470.299C598.141 470.299 598.818 470.949 598.831 471.77Z" fill="white"/>
<path opacity="0.8" d="M582.742 450.004C582.755 451.358 581.674 452.464 580.32 452.477C578.967 452.491 577.86 451.41 577.847 450.056C577.834 448.702 578.915 447.596 580.268 447.583C581.609 447.57 582.716 448.65 582.742 450.004Z" fill="#01C8EF"/>
<path opacity="0.8" d="M713.373 526.04C713.386 527.394 712.306 528.5 710.952 528.513C709.598 528.526 708.492 527.446 708.479 526.092C708.466 524.738 709.546 523.632 710.9 523.619C712.254 523.606 713.36 524.686 713.373 526.04Z" fill="#01C8EF"/>
<path opacity="0.8" d="M720.741 541.414C720.754 543.197 719.335 544.655 717.539 544.681C715.755 544.694 714.297 543.275 714.271 541.479C714.258 539.696 715.677 538.238 717.473 538.212C719.257 538.198 720.728 539.63 720.741 541.414Z" fill="#01C8EF"/>
<path opacity="0.8" d="M700.785 541.635C700.798 542.898 699.782 543.926 698.52 543.939C697.257 543.952 696.229 542.937 696.216 541.674C696.203 540.412 697.218 539.383 698.481 539.37C699.743 539.357 700.772 540.373 700.785 541.635Z" fill="#01C8EF"/>
<path opacity="0.8" d="M687.963 534.046C687.963 534.592 687.533 535.035 686.987 535.035C686.44 535.035 685.997 534.605 685.997 534.059C685.997 533.512 686.427 533.069 686.974 533.069C687.52 533.069 687.95 533.512 687.963 534.046Z" fill="#01C8EF"/>
<path opacity="0.8" d="M685.32 512.671C685.333 513.517 684.656 514.207 683.81 514.22C682.964 514.233 682.274 513.556 682.261 512.71C682.248 511.864 682.925 511.174 683.771 511.161C684.63 511.148 685.32 511.825 685.32 512.671Z" fill="#01C8EF"/>
<path opacity="0.8" d="M525.386 442.61C525.412 444.628 523.785 446.294 521.767 446.32C519.75 446.346 518.083 444.719 518.057 442.701C518.031 440.684 519.658 439.017 521.676 438.991C523.707 438.952 525.36 440.58 525.386 442.61Z" fill="#01C8EF"/>
</g>
<rect y="340" width="1280" height="280" fill="url(#paint71_linear)"/>
<defs>
<linearGradient id="paint0_linear" x1="787.402" y1="283.369" x2="787.402" y2="81.8766" gradientUnits="userSpaceOnUse">
<stop stop-color="white"/>
<stop offset="0.0681" stop-color="#D6D6DE"/>
<stop offset="0.1614" stop-color="#A5A5B5"/>
<stop offset="0.2598" stop-color="#797991"/>
<stop offset="0.3614" stop-color="#545473"/>
<stop offset="0.4669" stop-color="#36365B"/>
<stop offset="0.5779" stop-color="#1F1F48"/>
<stop offset="0.6966" stop-color="#0F0F3A"/>
<stop offset="0.8285" stop-color="#050533"/>
<stop offset="1" stop-color="#020230"/>
</linearGradient>
<linearGradient id="paint1_linear" x1="1207.13" y1="349.633" x2="1081.82" y2="277.166" gradientUnits="userSpaceOnUse">
<stop stop-color="#020230"/>
<stop offset="0.1715" stop-color="#050533"/>
<stop offset="0.3034" stop-color="#0F0F3A"/>
<stop offset="0.4221" stop-color="#1F1F48"/>
<stop offset="0.5331" stop-color="#36365B"/>
<stop offset="0.6386" stop-color="#545473"/>
<stop offset="0.7402" stop-color="#797991"/>
<stop offset="0.8386" stop-color="#A5A5B5"/>
<stop offset="0.9319" stop-color="#D6D6DE"/>
<stop offset="1" stop-color="white"/>
</linearGradient>
<linearGradient id="paint2_linear" x1="1083.31" y1="463.783" x2="957.997" y2="391.316" gradientUnits="userSpaceOnUse">
<stop stop-color="#020230"/>
<stop offset="0.1715" stop-color="#050533"/>
<stop offset="0.3034" stop-color="#0F0F3A"/>
<stop offset="0.4221" stop-color="#1F1F48"/>
<stop offset="0.5331" stop-color="#36365B"/>
<stop offset="0.6386" stop-color="#545473"/>
<stop offset="0.7402" stop-color="#797991"/>
<stop offset="0.8386" stop-color="#A5A5B5"/>
<stop offset="0.9319" stop-color="#D6D6DE"/>
<stop offset="1" stop-color="white"/>
</linearGradient>
<linearGradient id="paint3_linear" x1="755.563" y1="299.068" x2="755.563" y2="196.143" gradientUnits="userSpaceOnUse">
<stop stop-color="#020230"/>
<stop offset="0.1715" stop-color="#050533"/>
<stop offset="0.3034" stop-color="#0F0F3A"/>
<stop offset="0.4221" stop-color="#1F1F48"/>
<stop offset="0.5331" stop-color="#36365B"/>
<stop offset="0.6386" stop-color="#545473"/>
<stop offset="0.7402" stop-color="#797991"/>
<stop offset="0.8386" stop-color="#A5A5B5"/>
<stop offset="0.9319" stop-color="#D6D6DE"/>
<stop offset="1" stop-color="white"/>
</linearGradient>
<linearGradient id="paint4_linear" x1="789.261" y1="318.735" x2="789.261" y2="215.81" gradientUnits="userSpaceOnUse">
<stop stop-color="#020230"/>
<stop offset="0.1715" stop-color="#050533"/>
<stop offset="0.3034" stop-color="#0F0F3A"/>
<stop offset="0.4221" stop-color="#1F1F48"/>
<stop offset="0.5331" stop-color="#36365B"/>
<stop offset="0.6386" stop-color="#545473"/>
<stop offset="0.7402" stop-color="#797991"/>
<stop offset="0.8386" stop-color="#A5A5B5"/>
<stop offset="0.9319" stop-color="#D6D6DE"/>
<stop offset="1" stop-color="white"/>
</linearGradient>
<linearGradient id="paint5_linear" x1="822.958" y1="300.274" x2="822.958" y2="197.349" gradientUnits="userSpaceOnUse">
<stop stop-color="#020230"/>
<stop offset="0.1715" stop-color="#050533"/>
<stop offset="0.3034" stop-color="#0F0F3A"/>
<stop offset="0.4221" stop-color="#1F1F48"/>
<stop offset="0.5331" stop-color="#36365B"/>
<stop offset="0.6386" stop-color="#545473"/>
<stop offset="0.7402" stop-color="#797991"/>
<stop offset="0.8386" stop-color="#A5A5B5"/>
<stop offset="0.9319" stop-color="#D6D6DE"/>
<stop offset="1" stop-color="white"/>
</linearGradient>
<linearGradient id="paint6_linear" x1="750.947" y1="204.87" x2="799.182" y2="204.87" gradientUnits="userSpaceOnUse">
<stop stop-color="#01C8EF"/>
<stop offset="0.1297" stop-color="#04B1DD"/>
<stop offset="0.5466" stop-color="#0E6BA7"/>
<stop offset="0.8476" stop-color="#154085"/>
<stop offset="1" stop-color="#172F78"/>
</linearGradient>
<radialGradient id="paint7_radial" cx="0" cy="0" r="1" gradientUnits="userSpaceOnUse" gradientTransform="translate(751.901 180.082) scale(74.059)">
<stop stop-color="#01C8EF"/>
<stop offset="0.1396" stop-color="#03BAE4"/>
<stop offset="0.4033" stop-color="#0895C8"/>
<stop offset="0.76" stop-color="#115A9A"/>
<stop offset="1" stop-color="#172F78"/>
</radialGradient>
<radialGradient id="paint8_radial" cx="0" cy="0" r="1" gradientUnits="userSpaceOnUse" gradientTransform="translate(913.295 224.274) scale(176.31 166.578)">
<stop stop-color="#01C8EF"/>
<stop offset="0.0776" stop-color="#01A4CC"/>
<stop offset="0.184" stop-color="#0179A3"/>
<stop offset="0.2959" stop-color="#02547F"/>
<stop offset="0.4122" stop-color="#023663"/>
<stop offset="0.5346" stop-color="#021F4C"/>
<stop offset="0.6654" stop-color="#020F3C"/>
<stop offset="0.8108" stop-color="#020533"/>
<stop offset="1" stop-color="#020230"/>
</radialGradient>
<linearGradient id="paint9_linear" x1="870.544" y1="473.615" x2="870.544" y2="370.691" gradientUnits="userSpaceOnUse">
<stop stop-color="#020230"/>
<stop offset="0.1892" stop-color="#020533"/>
<stop offset="0.3346" stop-color="#020F3C"/>
<stop offset="0.4654" stop-color="#021F4C"/>
<stop offset="0.5878" stop-color="#023663"/>
<stop offset="0.7041" stop-color="#02547F"/>
<stop offset="0.816" stop-color="#0179A3"/>
<stop offset="0.9224" stop-color="#01A4CC"/>
<stop offset="1" stop-color="#01C8EF"/>
</linearGradient>
<linearGradient id="paint10_linear" x1="956.049" y1="473.615" x2="956.049" y2="370.691" gradientUnits="userSpaceOnUse">
<stop stop-color="#020230"/>
<stop offset="0.1892" stop-color="#020533"/>
<stop offset="0.3346" stop-color="#020F3C"/>
<stop offset="0.4654" stop-color="#021F4C"/>
<stop offset="0.5878" stop-color="#023663"/>
<stop offset="0.7041" stop-color="#02547F"/>
<stop offset="0.816" stop-color="#0179A3"/>
<stop offset="0.9224" stop-color="#01A4CC"/>
<stop offset="1" stop-color="#01C8EF"/>
</linearGradient>
<linearGradient id="paint11_linear" x1="913.296" y1="473.944" x2="913.296" y2="371.019" gradientUnits="userSpaceOnUse">
<stop stop-color="#020230"/>
<stop offset="0.1892" stop-color="#020533"/>
<stop offset="0.3346" stop-color="#020F3C"/>
<stop offset="0.4654" stop-color="#021F4C"/>
<stop offset="0.5878" stop-color="#023663"/>
<stop offset="0.7041" stop-color="#02547F"/>
<stop offset="0.816" stop-color="#0179A3"/>
<stop offset="0.9224" stop-color="#01A4CC"/>
<stop offset="1" stop-color="#01C8EF"/>
</linearGradient>
<linearGradient id="paint12_linear" x1="855.551" y1="365.316" x2="928.249" y2="365.316" gradientUnits="userSpaceOnUse">
<stop stop-color="#01C8EF"/>
<stop offset="0.1297" stop-color="#04B1DD"/>
<stop offset="0.5466" stop-color="#0E6BA7"/>
<stop offset="0.8476" stop-color="#154085"/>
<stop offset="1" stop-color="#172F78"/>
</linearGradient>
<radialGradient id="paint13_radial" cx="0" cy="0" r="1" gradientUnits="userSpaceOnUse" gradientTransform="translate(842.66 310.803) scale(162.35)">
<stop stop-color="#01C8EF"/>
<stop offset="0.1396" stop-color="#03BAE4"/>
<stop offset="0.4033" stop-color="#0895C8"/>
<stop offset="0.76" stop-color="#115A9A"/>
<stop offset="1" stop-color="#172F78"/>
</radialGradient>
<linearGradient id="paint14_linear" x1="855.551" y1="326.715" x2="928.249" y2="326.715" gradientUnits="userSpaceOnUse">
<stop stop-color="#01C8EF"/>
<stop offset="0.1297" stop-color="#04B1DD"/>
<stop offset="0.5466" stop-color="#0E6BA7"/>
<stop offset="0.8476" stop-color="#154085"/>
<stop offset="1" stop-color="#172F78"/>
</linearGradient>
<radialGradient id="paint15_radial" cx="0" cy="0" r="1" gradientUnits="userSpaceOnUse" gradientTransform="translate(842.66 272.201) scale(162.35)">
<stop stop-color="#01C8EF"/>
<stop offset="0.1396" stop-color="#03BAE4"/>
<stop offset="0.4033" stop-color="#0895C8"/>
<stop offset="0.76" stop-color="#115A9A"/>
<stop offset="1" stop-color="#172F78"/>
</radialGradient>
<linearGradient id="paint16_linear" x1="855.551" y1="288.112" x2="928.249" y2="288.112" gradientUnits="userSpaceOnUse">
<stop stop-color="#01C8EF"/>
<stop offset="0.1297" stop-color="#04B1DD"/>
<stop offset="0.5466" stop-color="#0E6BA7"/>
<stop offset="0.8476" stop-color="#154085"/>
<stop offset="1" stop-color="#172F78"/>
</linearGradient>
<radialGradient id="paint17_radial" cx="0" cy="0" r="1" gradientUnits="userSpaceOnUse" gradientTransform="translate(842.66 233.599) scale(162.35)">
<stop stop-color="#01C8EF"/>
<stop offset="0.1396" stop-color="#03BAE4"/>
<stop offset="0.4033" stop-color="#0895C8"/>
<stop offset="0.76" stop-color="#115A9A"/>
<stop offset="1" stop-color="#172F78"/>
</radialGradient>
<radialGradient id="paint18_radial" cx="0" cy="0" r="1" gradientUnits="userSpaceOnUse" gradientTransform="translate(856.986 243.382) scale(111.621)">
<stop stop-color="#01C8EF"/>
<stop offset="0.1396" stop-color="#03BAE4"/>
<stop offset="0.4033" stop-color="#0895C8"/>
<stop offset="0.76" stop-color="#115A9A"/>
<stop offset="1" stop-color="#172F78"/>
</radialGradient>
<linearGradient id="paint19_linear" x1="855.551" y1="250.238" x2="928.249" y2="250.238" gradientUnits="userSpaceOnUse">
<stop stop-color="#01C8EF"/>
<stop offset="0.1297" stop-color="#04B1DD"/>
<stop offset="0.5466" stop-color="#0E6BA7"/>
<stop offset="0.8476" stop-color="#154085"/>
<stop offset="1" stop-color="#172F78"/>
</linearGradient>
<radialGradient id="paint20_radial" cx="0" cy="0" r="1" gradientUnits="userSpaceOnUse" gradientTransform="translate(842.66 195.724) scale(162.35)">
<stop stop-color="#01C8EF"/>
<stop offset="0.1396" stop-color="#03BAE4"/>
<stop offset="0.4033" stop-color="#0895C8"/>
<stop offset="0.76" stop-color="#115A9A"/>
<stop offset="1" stop-color="#172F78"/>
</radialGradient>
<linearGradient id="paint21_linear" x1="855.551" y1="211.636" x2="928.249" y2="211.636" gradientUnits="userSpaceOnUse">
<stop stop-color="#01C8EF"/>
<stop offset="0.1297" stop-color="#04B1DD"/>
<stop offset="0.5466" stop-color="#0E6BA7"/>
<stop offset="0.8476" stop-color="#154085"/>
<stop offset="1" stop-color="#172F78"/>
</linearGradient>
<radialGradient id="paint22_radial" cx="0" cy="0" r="1" gradientUnits="userSpaceOnUse" gradientTransform="translate(842.66 157.122) scale(162.35)">
<stop stop-color="#01C8EF"/>
<stop offset="0.1396" stop-color="#03BAE4"/>
<stop offset="0.4033" stop-color="#0895C8"/>
<stop offset="0.76" stop-color="#115A9A"/>
<stop offset="1" stop-color="#172F78"/>
</radialGradient>
<radialGradient id="paint23_radial" cx="0" cy="0" r="1" gradientUnits="userSpaceOnUse" gradientTransform="translate(856.986 166.905) scale(111.621)">
<stop stop-color="#01C8EF"/>
<stop offset="0.1396" stop-color="#03BAE4"/>
<stop offset="0.4033" stop-color="#0895C8"/>
<stop offset="0.76" stop-color="#115A9A"/>
<stop offset="1" stop-color="#172F78"/>
</radialGradient>
<linearGradient id="paint24_linear" x1="1037.33" y1="544.352" x2="1037.33" y2="441.427" gradientUnits="userSpaceOnUse">
<stop stop-color="#020230"/>
<stop offset="0.1892" stop-color="#020533"/>
<stop offset="0.3346" stop-color="#020F3C"/>
<stop offset="0.4654" stop-color="#021F4C"/>
<stop offset="0.5878" stop-color="#023663"/>
<stop offset="0.7041" stop-color="#02547F"/>
<stop offset="0.816" stop-color="#0179A3"/>
<stop offset="0.9224" stop-color="#01A4CC"/>
<stop offset="1" stop-color="#01C8EF"/>
</linearGradient>
<linearGradient id="paint25_linear" x1="994.555" y1="544.352" x2="994.555" y2="441.427" gradientUnits="userSpaceOnUse">
<stop stop-color="#020230"/>
<stop offset="0.1892" stop-color="#020533"/>
<stop offset="0.3346" stop-color="#020F3C"/>
<stop offset="0.4654" stop-color="#021F4C"/>
<stop offset="0.5878" stop-color="#023663"/>
<stop offset="0.7041" stop-color="#02547F"/>
<stop offset="0.816" stop-color="#0179A3"/>
<stop offset="0.9224" stop-color="#01A4CC"/>
<stop offset="1" stop-color="#01C8EF"/>
</linearGradient>
<linearGradient id="paint26_linear" x1="1080.06" y1="544.352" x2="1080.06" y2="441.427" gradientUnits="userSpaceOnUse">
<stop stop-color="#020230"/>
<stop offset="0.1892" stop-color="#020533"/>
<stop offset="0.3346" stop-color="#020F3C"/>
<stop offset="0.4654" stop-color="#021F4C"/>
<stop offset="0.5878" stop-color="#023663"/>
<stop offset="0.7041" stop-color="#02547F"/>
<stop offset="0.816" stop-color="#0179A3"/>
<stop offset="0.9224" stop-color="#01A4CC"/>
<stop offset="1" stop-color="#01C8EF"/>
</linearGradient>
<linearGradient id="paint27_linear" x1="979.585" y1="438.003" x2="1052.28" y2="438.003" gradientUnits="userSpaceOnUse">
<stop stop-color="#01C8EF"/>
<stop offset="0.1297" stop-color="#04B1DD"/>
<stop offset="0.5466" stop-color="#0E6BA7"/>
<stop offset="0.8476" stop-color="#154085"/>
<stop offset="1" stop-color="#172F78"/>
</linearGradient>
<radialGradient id="paint28_radial" cx="0" cy="0" r="1" gradientUnits="userSpaceOnUse" gradientTransform="translate(966.694 383.489) scale(162.35)">
<stop stop-color="#01C8EF"/>
<stop offset="0.1396" stop-color="#03BAE4"/>
<stop offset="0.4033" stop-color="#0895C8"/>
<stop offset="0.76" stop-color="#115A9A"/>
<stop offset="1" stop-color="#172F78"/>
</radialGradient>
<linearGradient id="paint29_linear" x1="979.585" y1="399.401" x2="1052.28" y2="399.401" gradientUnits="userSpaceOnUse">
<stop stop-color="#01C8EF"/>
<stop offset="0.1297" stop-color="#04B1DD"/>
<stop offset="0.5466" stop-color="#0E6BA7"/>
<stop offset="0.8476" stop-color="#154085"/>
<stop offset="1" stop-color="#172F78"/>
</linearGradient>
<radialGradient id="paint30_radial" cx="0" cy="0" r="1" gradientUnits="userSpaceOnUse" gradientTransform="translate(966.694 344.887) scale(162.35)">
<stop stop-color="#01C8EF"/>
<stop offset="0.1396" stop-color="#03BAE4"/>
<stop offset="0.4033" stop-color="#0895C8"/>
<stop offset="0.76" stop-color="#115A9A"/>
<stop offset="1" stop-color="#172F78"/>
</radialGradient>
<linearGradient id="paint31_linear" x1="979.585" y1="360.798" x2="1052.28" y2="360.798" gradientUnits="userSpaceOnUse">
<stop stop-color="#01C8EF"/>
<stop offset="0.1297" stop-color="#04B1DD"/>
<stop offset="0.5466" stop-color="#0E6BA7"/>
<stop offset="0.8476" stop-color="#154085"/>
<stop offset="1" stop-color="#172F78"/>
</linearGradient>
<radialGradient id="paint32_radial" cx="0" cy="0" r="1" gradientUnits="userSpaceOnUse" gradientTransform="translate(966.694 306.285) scale(162.35)">
<stop stop-color="#01C8EF"/>
<stop offset="0.1396" stop-color="#03BAE4"/>
<stop offset="0.4033" stop-color="#0895C8"/>
<stop offset="0.76" stop-color="#115A9A"/>
<stop offset="1" stop-color="#172F78"/>
</radialGradient>
<radialGradient id="paint33_radial" cx="0" cy="0" r="1" gradientUnits="userSpaceOnUse" gradientTransform="translate(981.02 316.068) scale(111.621)">
<stop stop-color="#01C8EF"/>
<stop offset="0.1396" stop-color="#03BAE4"/>
<stop offset="0.4033" stop-color="#0895C8"/>
<stop offset="0.76" stop-color="#115A9A"/>
<stop offset="1" stop-color="#172F78"/>
</radialGradient>
<linearGradient id="paint34_linear" x1="979.585" y1="322.924" x2="1052.28" y2="322.924" gradientUnits="userSpaceOnUse">
<stop stop-color="#01C8EF"/>
<stop offset="0.1297" stop-color="#04B1DD"/>
<stop offset="0.5466" stop-color="#0E6BA7"/>
<stop offset="0.8476" stop-color="#154085"/>
<stop offset="1" stop-color="#172F78"/>
</linearGradient>
<radialGradient id="paint35_radial" cx="0" cy="0" r="1" gradientUnits="userSpaceOnUse" gradientTransform="translate(966.694 268.41) scale(162.35)">
<stop stop-color="#01C8EF"/>
<stop offset="0.1396" stop-color="#03BAE4"/>
<stop offset="0.4033" stop-color="#0895C8"/>
<stop offset="0.76" stop-color="#115A9A"/>
<stop offset="1" stop-color="#172F78"/>
</radialGradient>
<linearGradient id="paint36_linear" x1="979.585" y1="284.322" x2="1052.28" y2="284.322" gradientUnits="userSpaceOnUse">
<stop stop-color="#01C8EF"/>
<stop offset="0.1297" stop-color="#04B1DD"/>
<stop offset="0.5466" stop-color="#0E6BA7"/>
<stop offset="0.8476" stop-color="#154085"/>
<stop offset="1" stop-color="#172F78"/>
</linearGradient>
<radialGradient id="paint37_radial" cx="0" cy="0" r="1" gradientUnits="userSpaceOnUse" gradientTransform="translate(966.695 229.808) scale(162.35)">
<stop stop-color="#01C8EF"/>
<stop offset="0.1396" stop-color="#03BAE4"/>
<stop offset="0.4033" stop-color="#0895C8"/>
<stop offset="0.76" stop-color="#115A9A"/>
<stop offset="1" stop-color="#172F78"/>
</radialGradient>
<radialGradient id="paint38_radial" cx="0" cy="0" r="1" gradientUnits="userSpaceOnUse" gradientTransform="translate(981.021 239.591) scale(111.621)">
<stop stop-color="#01C8EF"/>
<stop offset="0.1396" stop-color="#03BAE4"/>
<stop offset="0.4033" stop-color="#0895C8"/>
<stop offset="0.76" stop-color="#115A9A"/>
<stop offset="1" stop-color="#172F78"/>
</radialGradient>
<linearGradient id="paint39_linear" x1="913.403" y1="619.998" x2="913.403" y2="517.074" gradientUnits="userSpaceOnUse">
<stop stop-color="#020230"/>
<stop offset="0.1892" stop-color="#020533"/>
<stop offset="0.3346" stop-color="#020F3C"/>
<stop offset="0.4654" stop-color="#021F4C"/>
<stop offset="0.5878" stop-color="#023663"/>
<stop offset="0.7041" stop-color="#02547F"/>
<stop offset="0.816" stop-color="#0179A3"/>
<stop offset="0.9224" stop-color="#01A4CC"/>
<stop offset="1" stop-color="#01C8EF"/>
</linearGradient>
<linearGradient id="paint40_linear" x1="870.627" y1="619.998" x2="870.627" y2="517.074" gradientUnits="userSpaceOnUse">
<stop stop-color="#020230"/>
<stop offset="0.1892" stop-color="#020533"/>
<stop offset="0.3346" stop-color="#020F3C"/>
<stop offset="0.4654" stop-color="#021F4C"/>
<stop offset="0.5878" stop-color="#023663"/>
<stop offset="0.7041" stop-color="#02547F"/>
<stop offset="0.816" stop-color="#0179A3"/>
<stop offset="0.9224" stop-color="#01A4CC"/>
<stop offset="1" stop-color="#01C8EF"/>
</linearGradient>
<linearGradient id="paint41_linear" x1="956.131" y1="619.998" x2="956.131" y2="517.074" gradientUnits="userSpaceOnUse">
<stop stop-color="#020230"/>
<stop offset="0.1892" stop-color="#020533"/>
<stop offset="0.3346" stop-color="#020F3C"/>
<stop offset="0.4654" stop-color="#021F4C"/>
<stop offset="0.5878" stop-color="#023663"/>
<stop offset="0.7041" stop-color="#02547F"/>
<stop offset="0.816" stop-color="#0179A3"/>
<stop offset="0.9224" stop-color="#01A4CC"/>
<stop offset="1" stop-color="#01C8EF"/>
</linearGradient>
<linearGradient id="paint42_linear" x1="855.658" y1="513.649" x2="928.356" y2="513.649" gradientUnits="userSpaceOnUse">
<stop stop-color="#01C8EF"/>
<stop offset="0.1297" stop-color="#04B1DD"/>
<stop offset="0.5466" stop-color="#0E6BA7"/>
<stop offset="0.8476" stop-color="#154085"/>
<stop offset="1" stop-color="#172F78"/>
</linearGradient>
<radialGradient id="paint43_radial" cx="0" cy="0" r="1" gradientUnits="userSpaceOnUse" gradientTransform="translate(842.766 459.135) scale(162.35)">
<stop stop-color="#01C8EF"/>
<stop offset="0.1396" stop-color="#03BAE4"/>
<stop offset="0.4033" stop-color="#0895C8"/>
<stop offset="0.76" stop-color="#115A9A"/>
<stop offset="1" stop-color="#172F78"/>
</radialGradient>
<linearGradient id="paint44_linear" x1="855.658" y1="475.047" x2="928.356" y2="475.047" gradientUnits="userSpaceOnUse">
<stop stop-color="#01C8EF"/>
<stop offset="0.1297" stop-color="#04B1DD"/>
<stop offset="0.5466" stop-color="#0E6BA7"/>
<stop offset="0.8476" stop-color="#154085"/>
<stop offset="1" stop-color="#172F78"/>
</linearGradient>
<radialGradient id="paint45_radial" cx="0" cy="0" r="1" gradientUnits="userSpaceOnUse" gradientTransform="translate(842.766 420.533) scale(162.35)">
<stop stop-color="#01C8EF"/>
<stop offset="0.1396" stop-color="#03BAE4"/>
<stop offset="0.4033" stop-color="#0895C8"/>
<stop offset="0.76" stop-color="#115A9A"/>
<stop offset="1" stop-color="#172F78"/>
</radialGradient>
<linearGradient id="paint46_linear" x1="855.658" y1="436.445" x2="928.356" y2="436.445" gradientUnits="userSpaceOnUse">
<stop stop-color="#01C8EF"/>
<stop offset="0.1297" stop-color="#04B1DD"/>
<stop offset="0.5466" stop-color="#0E6BA7"/>
<stop offset="0.8476" stop-color="#154085"/>
<stop offset="1" stop-color="#172F78"/>
</linearGradient>
<radialGradient id="paint47_radial" cx="0" cy="0" r="1" gradientUnits="userSpaceOnUse" gradientTransform="translate(842.766 381.932) scale(162.35)">
<stop stop-color="#01C8EF"/>
<stop offset="0.1396" stop-color="#03BAE4"/>
<stop offset="0.4033" stop-color="#0895C8"/>
<stop offset="0.76" stop-color="#115A9A"/>
<stop offset="1" stop-color="#172F78"/>
</radialGradient>
<radialGradient id="paint48_radial" cx="0" cy="0" r="1" gradientUnits="userSpaceOnUse" gradientTransform="translate(857.092 391.715) scale(111.621)">
<stop stop-color="#01C8EF"/>
<stop offset="0.1396" stop-color="#03BAE4"/>
<stop offset="0.4033" stop-color="#0895C8"/>
<stop offset="0.76" stop-color="#115A9A"/>
<stop offset="1" stop-color="#172F78"/>
</radialGradient>
<linearGradient id="paint49_linear" x1="855.658" y1="398.57" x2="928.356" y2="398.57" gradientUnits="userSpaceOnUse">
<stop stop-color="#01C8EF"/>
<stop offset="0.1297" stop-color="#04B1DD"/>
<stop offset="0.5466" stop-color="#0E6BA7"/>
<stop offset="0.8476" stop-color="#154085"/>
<stop offset="1" stop-color="#172F78"/>
</linearGradient>
<radialGradient id="paint50_radial" cx="0" cy="0" r="1" gradientUnits="userSpaceOnUse" gradientTransform="translate(842.766 344.057) scale(162.35)">
<stop stop-color="#01C8EF"/>
<stop offset="0.1396" stop-color="#03BAE4"/>
<stop offset="0.4033" stop-color="#0895C8"/>
<stop offset="0.76" stop-color="#115A9A"/>
<stop offset="1" stop-color="#172F78"/>
</radialGradient>
<linearGradient id="paint51_linear" x1="855.658" y1="359.968" x2="928.356" y2="359.968" gradientUnits="userSpaceOnUse">
<stop stop-color="#01C8EF"/>
<stop offset="0.1297" stop-color="#04B1DD"/>
<stop offset="0.5466" stop-color="#0E6BA7"/>
<stop offset="0.8476" stop-color="#154085"/>
<stop offset="1" stop-color="#172F78"/>
</linearGradient>
<radialGradient id="paint52_radial" cx="0" cy="0" r="1" gradientUnits="userSpaceOnUse" gradientTransform="translate(842.766 305.455) scale(162.35)">
<stop stop-color="#01C8EF"/>
<stop offset="0.1396" stop-color="#03BAE4"/>
<stop offset="0.4033" stop-color="#0895C8"/>
<stop offset="0.76" stop-color="#115A9A"/>
<stop offset="1" stop-color="#172F78"/>
</radialGradient>
<radialGradient id="paint53_radial" cx="0" cy="0" r="1" gradientUnits="userSpaceOnUse" gradientTransform="translate(857.092 315.238) scale(111.621)">
<stop stop-color="#01C8EF"/>
<stop offset="0.1396" stop-color="#03BAE4"/>
<stop offset="0.4033" stop-color="#0895C8"/>
<stop offset="0.76" stop-color="#115A9A"/>
<stop offset="1" stop-color="#172F78"/>
</radialGradient>
<linearGradient id="paint54_linear" x1="788.295" y1="544.352" x2="788.295" y2="441.428" gradientUnits="userSpaceOnUse">
<stop stop-color="#020230"/>
<stop offset="0.1892" stop-color="#020533"/>
<stop offset="0.3346" stop-color="#020F3C"/>
<stop offset="0.4654" stop-color="#021F4C"/>
<stop offset="0.5878" stop-color="#023663"/>
<stop offset="0.7041" stop-color="#02547F"/>
<stop offset="0.816" stop-color="#0179A3"/>
<stop offset="0.9224" stop-color="#01A4CC"/>
<stop offset="1" stop-color="#01C8EF"/>
</linearGradient>
<linearGradient id="paint55_linear" x1="745.542" y1="544.352" x2="745.542" y2="441.428" gradientUnits="userSpaceOnUse">
<stop stop-color="#020230"/>
<stop offset="0.1892" stop-color="#020533"/>
<stop offset="0.3346" stop-color="#020F3C"/>
<stop offset="0.4654" stop-color="#021F4C"/>
<stop offset="0.5878" stop-color="#023663"/>
<stop offset="0.7041" stop-color="#02547F"/>
<stop offset="0.816" stop-color="#0179A3"/>
<stop offset="0.9224" stop-color="#01A4CC"/>
<stop offset="1" stop-color="#01C8EF"/>
</linearGradient>
<linearGradient id="paint56_linear" x1="831.047" y1="544.352" x2="831.047" y2="441.428" gradientUnits="userSpaceOnUse">
<stop stop-color="#020230"/>
<stop offset="0.1892" stop-color="#020533"/>
<stop offset="0.3346" stop-color="#020F3C"/>
<stop offset="0.4654" stop-color="#021F4C"/>
<stop offset="0.5878" stop-color="#023663"/>
<stop offset="0.7041" stop-color="#02547F"/>
<stop offset="0.816" stop-color="#0179A3"/>
<stop offset="0.9224" stop-color="#01A4CC"/>
<stop offset="1" stop-color="#01C8EF"/>
</linearGradient>
<linearGradient id="paint57_linear" x1="731.515" y1="438.003" x2="804.213" y2="438.003" gradientUnits="userSpaceOnUse">
<stop stop-color="#01C8EF"/>
<stop offset="0.1297" stop-color="#04B1DD"/>
<stop offset="0.5466" stop-color="#0E6BA7"/>
<stop offset="0.8476" stop-color="#154085"/>
<stop offset="1" stop-color="#172F78"/>
</linearGradient>
<radialGradient id="paint58_radial" cx="0" cy="0" r="1" gradientUnits="userSpaceOnUse" gradientTransform="translate(718.623 383.489) scale(162.35)">
<stop stop-color="#01C8EF"/>
<stop offset="0.1396" stop-color="#03BAE4"/>
<stop offset="0.4033" stop-color="#0895C8"/>
<stop offset="0.76" stop-color="#115A9A"/>
<stop offset="1" stop-color="#172F78"/>
</radialGradient>
<linearGradient id="paint59_linear" x1="731.515" y1="399.401" x2="804.213" y2="399.401" gradientUnits="userSpaceOnUse">
<stop stop-color="#01C8EF"/>
<stop offset="0.1297" stop-color="#04B1DD"/>
<stop offset="0.5466" stop-color="#0E6BA7"/>
<stop offset="0.8476" stop-color="#154085"/>
<stop offset="1" stop-color="#172F78"/>
</linearGradient>
<radialGradient id="paint60_radial" cx="0" cy="0" r="1" gradientUnits="userSpaceOnUse" gradientTransform="translate(718.623 344.887) scale(162.35)">
<stop stop-color="#01C8EF"/>
<stop offset="0.1396" stop-color="#03BAE4"/>
<stop offset="0.4033" stop-color="#0895C8"/>
<stop offset="0.76" stop-color="#115A9A"/>
<stop offset="1" stop-color="#172F78"/>
</radialGradient>
<linearGradient id="paint61_linear" x1="731.515" y1="360.799" x2="804.213" y2="360.799" gradientUnits="userSpaceOnUse">
<stop stop-color="#01C8EF"/>
<stop offset="0.1297" stop-color="#04B1DD"/>
<stop offset="0.5466" stop-color="#0E6BA7"/>
<stop offset="0.8476" stop-color="#154085"/>
<stop offset="1" stop-color="#172F78"/>
</linearGradient>
<radialGradient id="paint62_radial" cx="0" cy="0" r="1" gradientUnits="userSpaceOnUse" gradientTransform="translate(718.623 306.285) scale(162.35)">
<stop stop-color="#01C8EF"/>
<stop offset="0.1396" stop-color="#03BAE4"/>
<stop offset="0.4033" stop-color="#0895C8"/>
<stop offset="0.76" stop-color="#115A9A"/>
<stop offset="1" stop-color="#172F78"/>
</radialGradient>
<radialGradient id="paint63_radial" cx="0" cy="0" r="1" gradientUnits="userSpaceOnUse" gradientTransform="translate(732.949 316.068) scale(111.621)">
<stop stop-color="#01C8EF"/>
<stop offset="0.1396" stop-color="#03BAE4"/>
<stop offset="0.4033" stop-color="#0895C8"/>
<stop offset="0.76" stop-color="#115A9A"/>
<stop offset="1" stop-color="#172F78"/>
</radialGradient>
<linearGradient id="paint64_linear" x1="731.515" y1="322.924" x2="804.213" y2="322.924" gradientUnits="userSpaceOnUse">
<stop stop-color="#01C8EF"/>
<stop offset="0.1297" stop-color="#04B1DD"/>
<stop offset="0.5466" stop-color="#0E6BA7"/>
<stop offset="0.8476" stop-color="#154085"/>
<stop offset="1" stop-color="#172F78"/>
</linearGradient>
<radialGradient id="paint65_radial" cx="0" cy="0" r="1" gradientUnits="userSpaceOnUse" gradientTransform="translate(718.623 268.411) scale(162.35)">
<stop stop-color="#01C8EF"/>
<stop offset="0.1396" stop-color="#03BAE4"/>
<stop offset="0.4033" stop-color="#0895C8"/>
<stop offset="0.76" stop-color="#115A9A"/>
<stop offset="1" stop-color="#172F78"/>
</radialGradient>
<linearGradient id="paint66_linear" x1="731.515" y1="284.322" x2="804.213" y2="284.322" gradientUnits="userSpaceOnUse">
<stop stop-color="#01C8EF"/>
<stop offset="0.1297" stop-color="#04B1DD"/>
<stop offset="0.5466" stop-color="#0E6BA7"/>
<stop offset="0.8476" stop-color="#154085"/>
<stop offset="1" stop-color="#172F78"/>
</linearGradient>
<radialGradient id="paint67_radial" cx="0" cy="0" r="1" gradientUnits="userSpaceOnUse" gradientTransform="translate(718.623 229.809) scale(162.35)">
<stop stop-color="#01C8EF"/>
<stop offset="0.1396" stop-color="#03BAE4"/>
<stop offset="0.4033" stop-color="#0895C8"/>
<stop offset="0.76" stop-color="#115A9A"/>
<stop offset="1" stop-color="#172F78"/>
</radialGradient>
<radialGradient id="paint68_radial" cx="0" cy="0" r="1" gradientUnits="userSpaceOnUse" gradientTransform="translate(732.949 239.592) scale(111.621)">
<stop stop-color="#01C8EF"/>
<stop offset="0.1396" stop-color="#03BAE4"/>
<stop offset="0.4033" stop-color="#0895C8"/>
<stop offset="0.76" stop-color="#115A9A"/>
<stop offset="1" stop-color="#172F78"/>
</radialGradient>
<radialGradient id="paint69_radial" cx="0" cy="0" r="1" gradientUnits="userSpaceOnUse" gradientTransform="translate(1128.38 189.985) rotate(31.2004) scale(264.375 19.4613)">
<stop stop-color="#01C8EF"/>
<stop offset="0.0776" stop-color="#01A4CC"/>
<stop offset="0.184" stop-color="#0179A3"/>
<stop offset="0.2959" stop-color="#02547F"/>
<stop offset="0.4122" stop-color="#023663"/>
<stop offset="0.5346" stop-color="#021F4C"/>
<stop offset="0.6654" stop-color="#020F3C"/>
<stop offset="0.8108" stop-color="#020533"/>
<stop offset="1" stop-color="#020230"/>
</radialGradient>
<radialGradient id="paint70_radial" cx="0" cy="0" r="1" gradientUnits="userSpaceOnUse" gradientTransform="translate(596.376 466.985) rotate(31.2004) scale(264.375 19.4613)">
<stop stop-color="#01C8EF"/>
<stop offset="0.0776" stop-color="#01A4CC"/>
<stop offset="0.184" stop-color="#0179A3"/>
<stop offset="0.2959" stop-color="#02547F"/>
<stop offset="0.4122" stop-color="#023663"/>
<stop offset="0.5346" stop-color="#021F4C"/>
<stop offset="0.6654" stop-color="#020F3C"/>
<stop offset="0.8108" stop-color="#020533"/>
<stop offset="1" stop-color="#020230"/>
</radialGradient>
<linearGradient id="paint71_linear" x1="640" y1="340" x2="640" y2="620" gradientUnits="userSpaceOnUse">
<stop stop-color="#0C0F30" stop-opacity="0"/>
<stop offset="1" stop-color="#02071A"/>
</linearGradient>
</defs>
</svg>
