<svg width="1280" height="400" viewBox="0 0 1280 400" fill="none" xmlns="http://www.w3.org/2000/svg">
<rect width="1280" height="400" fill="#030925"/>
<path opacity="0.3" d="M835.225 342.634C840.688 351.647 944.398 298.821 1066.89 224.639C1189.38 150.456 1284.24 83.0142 1278.78 74.0014C1273.31 64.9887 1169.6 117.814 1047.11 191.997C924.624 266.179 829.761 333.621 835.225 342.634Z" fill="url(#paint0_radial)"/>
<path d="M1067.36 224.435C1067.33 227.23 1069.57 229.515 1072.36 229.541C1075.16 229.566 1077.44 227.332 1077.47 224.537C1077.5 221.741 1075.26 219.456 1072.47 219.43C1069.68 219.392 1067.4 221.639 1067.36 224.435Z" fill="white"/>
<path d="M1056.2 228.379C1056.18 230.166 1057.62 231.634 1059.41 231.647C1061.19 231.673 1062.66 230.23 1062.67 228.443C1062.7 226.656 1061.26 225.188 1059.47 225.175C1057.68 225.162 1056.23 226.592 1056.2 228.379Z" fill="white"/>
<path d="M1051.48 220.311C1051.47 221.575 1052.47 222.609 1053.74 222.622C1055 222.635 1056.04 221.626 1056.05 220.362C1056.06 219.098 1055.05 218.064 1053.79 218.052C1052.53 218.039 1051.49 219.047 1051.48 220.311Z" fill="white"/>
<path d="M1054.59 213.009C1054.58 213.813 1055.23 214.464 1056.04 214.477C1056.84 214.49 1057.49 213.839 1057.5 213.035C1057.52 212.23 1056.87 211.579 1056.06 211.567C1055.27 211.567 1054.61 212.205 1054.59 213.009Z" fill="white"/>
<path opacity="0.8" d="M1070.37 191.665C1070.36 192.992 1071.42 194.077 1072.75 194.09C1074.07 194.103 1075.16 193.043 1075.17 191.716C1075.18 190.388 1074.12 189.303 1072.8 189.29C1071.48 189.277 1070.4 190.337 1070.37 191.665Z" fill="#01C8EF"/>
<path opacity="0.8" d="M942.266 266.23C942.253 267.558 943.313 268.643 944.64 268.656C945.968 268.669 947.053 267.609 947.066 266.281C947.079 264.954 946.019 263.869 944.691 263.856C943.364 263.843 942.279 264.903 942.266 266.23Z" fill="#01C8EF"/>
<path opacity="0.8" d="M935.041 281.307C935.028 283.056 936.42 284.485 938.181 284.511C939.93 284.524 941.36 283.132 941.386 281.37C941.398 279.622 940.007 278.192 938.245 278.166C936.496 278.153 935.054 279.558 935.041 281.307Z" fill="#01C8EF"/>
<path opacity="0.8" d="M954.611 281.524C954.598 282.762 955.594 283.771 956.832 283.783C958.071 283.796 959.079 282.8 959.092 281.562C959.105 280.324 958.109 279.315 956.871 279.303C955.632 279.29 954.624 280.286 954.611 281.524Z" fill="#01C8EF"/>
<path opacity="0.8" d="M967.185 274.081C967.185 274.617 967.606 275.051 968.143 275.051C968.679 275.051 969.113 274.63 969.113 274.094C969.113 273.558 968.691 273.124 968.155 273.124C967.619 273.124 967.198 273.558 967.185 274.081Z" fill="#01C8EF"/>
<path opacity="0.8" d="M969.777 253.12C969.764 253.949 970.428 254.626 971.258 254.639C972.087 254.651 972.764 253.988 972.777 253.158C972.789 252.328 972.126 251.651 971.296 251.639C970.453 251.626 969.777 252.29 969.777 253.12Z" fill="#01C8EF"/>
<path opacity="0.8" d="M1126.62 184.413C1126.59 186.392 1128.19 188.026 1130.17 188.052C1132.15 188.077 1133.78 186.482 1133.81 184.503C1133.83 182.524 1132.24 180.89 1130.26 180.865C1128.27 180.826 1126.64 182.422 1126.62 184.413Z" fill="#01C8EF"/>
<path opacity="0.3" d="M4.22461 74.3661C9.68842 65.3533 113.398 118.179 235.887 192.361C358.376 266.544 453.239 333.986 447.775 342.999C442.312 352.011 338.601 299.186 216.113 225.003C93.6241 150.821 -1.2392 83.3788 4.22461 74.3661Z" fill="url(#paint1_radial)"/>
<path d="M236.359 192.565C236.334 189.77 238.568 187.485 241.363 187.459C244.159 187.434 246.444 189.668 246.47 192.463C246.495 195.259 244.261 197.544 241.466 197.57C238.683 197.608 236.398 195.361 236.359 192.565Z" fill="white"/>
<path d="M225.202 188.621C225.176 186.834 226.619 185.366 228.406 185.353C230.193 185.327 231.661 186.77 231.674 188.557C231.7 190.344 230.257 191.812 228.47 191.825C226.683 191.838 225.227 190.408 225.202 188.621Z" fill="white"/>
<path d="M220.478 196.689C220.465 195.425 221.474 194.391 222.738 194.378C224.002 194.365 225.036 195.374 225.048 196.638C225.061 197.902 224.053 198.936 222.789 198.948C221.525 198.961 220.491 197.953 220.478 196.689Z" fill="white"/>
<path d="M223.593 203.991C223.581 203.187 224.232 202.536 225.036 202.523C225.84 202.51 226.491 203.161 226.504 203.965C226.517 204.77 225.866 205.421 225.061 205.433C224.27 205.433 223.606 204.795 223.593 203.991Z" fill="white"/>
<path opacity="0.8" d="M239.372 225.335C239.359 224.008 240.419 222.923 241.746 222.91C243.074 222.897 244.159 223.957 244.172 225.284C244.184 226.612 243.125 227.697 241.797 227.71C240.482 227.723 239.397 226.663 239.372 225.335Z" fill="#01C8EF"/>
<path opacity="0.8" d="M111.266 150.77C111.253 149.442 112.313 148.357 113.64 148.344C114.968 148.331 116.053 149.391 116.066 150.719C116.079 152.046 115.019 153.131 113.691 153.144C112.364 153.157 111.279 152.097 111.266 150.77Z" fill="#01C8EF"/>
<path opacity="0.8" d="M104.041 135.693C104.028 133.944 105.42 132.515 107.181 132.489C108.93 132.476 110.36 133.868 110.386 135.63C110.398 137.378 109.007 138.808 107.245 138.834C105.496 138.846 104.054 137.442 104.041 135.693Z" fill="#01C8EF"/>
<path opacity="0.8" d="M123.611 135.476C123.598 134.238 124.594 133.229 125.832 133.217C127.071 133.204 128.079 134.2 128.092 135.438C128.105 136.676 127.109 137.685 125.871 137.697C124.632 137.71 123.624 136.714 123.611 135.476Z" fill="#01C8EF"/>
<path opacity="0.8" d="M136.185 142.919C136.185 142.383 136.606 141.949 137.143 141.949C137.679 141.949 138.113 142.37 138.113 142.906C138.113 143.442 137.691 143.876 137.155 143.876C136.619 143.876 136.198 143.442 136.185 142.919Z" fill="#01C8EF"/>
<path opacity="0.8" d="M138.777 163.88C138.764 163.051 139.428 162.374 140.258 162.361C141.087 162.349 141.764 163.012 141.777 163.842C141.789 164.672 141.126 165.349 140.296 165.361C139.453 165.374 138.777 164.71 138.777 163.88Z" fill="#01C8EF"/>
<path opacity="0.8" d="M295.618 232.587C295.593 230.608 297.188 228.974 299.167 228.948C301.146 228.923 302.78 230.518 302.805 232.497C302.831 234.476 301.235 236.11 299.257 236.135C297.265 236.174 295.644 234.578 295.618 232.587Z" fill="#01C8EF"/>
<defs>
<radialGradient id="paint0_radial" cx="0" cy="0" r="1" gradientUnits="userSpaceOnUse" gradientTransform="translate(1057 208.317) rotate(148.8) scale(259.263 19.085)">
<stop stop-color="#01C8EF"/>
<stop offset="0.0776" stop-color="#01A4CC"/>
<stop offset="0.184" stop-color="#0179A3"/>
<stop offset="0.2959" stop-color="#02547F"/>
<stop offset="0.4122" stop-color="#023663"/>
<stop offset="0.5346" stop-color="#021F4C"/>
<stop offset="0.6654" stop-color="#020F3C"/>
<stop offset="0.8108" stop-color="#020533"/>
<stop offset="1" stop-color="#020230"/>
</radialGradient>
<radialGradient id="paint1_radial" cx="0" cy="0" r="1" gradientUnits="userSpaceOnUse" gradientTransform="translate(226.001 208.683) rotate(-148.8) scale(259.263 19.085)">
<stop stop-color="#01C8EF"/>
<stop offset="0.0776" stop-color="#01A4CC"/>
<stop offset="0.184" stop-color="#0179A3"/>
<stop offset="0.2959" stop-color="#02547F"/>
<stop offset="0.4122" stop-color="#023663"/>
<stop offset="0.5346" stop-color="#021F4C"/>
<stop offset="0.6654" stop-color="#020F3C"/>
<stop offset="0.8108" stop-color="#020533"/>
<stop offset="1" stop-color="#020230"/>
</radialGradient>
</defs>
</svg>
