<svg width="24" height="24" viewBox="0 0 24 24" fill="none" xmlns="http://www.w3.org/2000/svg">
<g opacity="0.5">
<circle cx="12" cy="12" r="12" fill="#D4D4D4"/>
</g>
<path d="M13.1737 12.4745L16.1575 9.49063C16.3517 9.29654 16.3517 8.98273 16.1575 8.78863C15.9634 8.59454 15.6496 8.59454 15.4555 8.78863L12.4716 11.7725L9.48777 8.78863C9.29359 8.59454 8.97986 8.59454 8.78577 8.78863C8.59159 8.98273 8.59159 9.29654 8.78577 9.49063L11.7696 12.4745L8.78577 15.4585C8.59159 15.6525 8.59159 15.9664 8.78577 16.1605C8.8825 16.2573 9.00968 16.3059 9.13677 16.3059C9.26386 16.3059 9.39095 16.2573 9.48777 16.1605L12.4716 13.1765L15.4555 16.1605C15.5523 16.2573 15.6794 16.3059 15.8065 16.3059C15.9336 16.3059 16.0607 16.2573 16.1575 16.1605C16.3517 15.9664 16.3517 15.6525 16.1575 15.4585L13.1737 12.4745Z" fill="black"/>
</svg>
