<svg width="20" height="20" viewBox="0 0 20 20" fill="none" xmlns="http://www.w3.org/2000/svg">
<path d="M14.6667 4.33325H10H5.33333L3 7.99992L10 16.9999L17 7.99992L14.6667 4.33325Z" fill="#DF4D60"/>
<path d="M1.33333 10.3334H0.333333C0.149238 10.3334 0 10.1842 0 10.0001C0 9.81599 0.149238 9.66675 0.333333 9.66675H1.33333C1.51743 9.66675 1.66667 9.81599 1.66667 10.0001C1.66667 10.1842 1.51743 10.3334 1.33333 10.3334Z" fill="#F0C419"/>
<path d="M19.6668 10.3334H18.6668C18.4827 10.3334 18.3335 10.1842 18.3335 10.0001C18.3335 9.81599 18.4827 9.66675 18.6668 9.66675H19.6668C19.8509 9.66675 20.0002 9.81599 20.0002 10.0001C20.0002 10.1842 19.8509 10.3334 19.6668 10.3334Z" fill="#F0C419"/>
<path d="M9.99984 19.9999C9.81574 19.9999 9.6665 19.8507 9.6665 19.6666V18.6666C9.6665 18.4825 9.81574 18.3333 9.99984 18.3333C10.1839 18.3333 10.3332 18.4825 10.3332 18.6666V19.6666C10.3332 19.8507 10.1839 19.9999 9.99984 19.9999Z" fill="#F0C419"/>
<path d="M9.99984 1.66667C9.81574 1.66667 9.6665 1.51743 9.6665 1.33333V0.333333C9.6665 0.149238 9.81574 0 9.99984 0C10.1839 0 10.3332 0.149238 10.3332 0.333333V1.33333C10.3332 1.51743 10.1839 1.66667 9.99984 1.66667Z" fill="#F0C419"/>
<path d="M3.16473 17.1686C3.03007 17.1684 2.90874 17.0872 2.85719 16.9628C2.80564 16.8384 2.83399 16.6952 2.92906 16.5999L3.63606 15.8929C3.76685 15.7666 3.97475 15.7684 4.10333 15.8969C4.23191 16.0255 4.23372 16.2334 4.10739 16.3642L3.40006 17.0709C3.33764 17.1333 3.25301 17.1684 3.16473 17.1686Z" fill="#F0C419"/>
<path d="M16.1282 4.20489C15.9934 4.20487 15.8719 4.12365 15.8203 3.99911C15.7687 3.87457 15.7972 3.73123 15.8925 3.63589L16.5999 2.92889C16.6827 2.83885 16.8083 2.80146 16.9269 2.8315C17.0456 2.86154 17.1382 2.95417 17.1683 3.07281C17.1983 3.19145 17.1609 3.31701 17.0709 3.39989L16.3639 4.10689C16.3014 4.16953 16.2166 4.20479 16.1282 4.20489Z" fill="#F0C419"/>
<path d="M16.8356 17.1686C16.7472 17.1686 16.6624 17.1335 16.5999 17.071L15.8929 16.364C15.7666 16.2332 15.7684 16.0253 15.8969 15.8967C16.0255 15.7681 16.2334 15.7663 16.3642 15.8926L17.0712 16.6C17.1665 16.6953 17.195 16.8387 17.1434 16.9632C17.0919 17.0877 16.9704 17.1689 16.8356 17.169V17.1686Z" fill="#F0C419"/>
<path d="M3.87156 4.20489C3.78316 4.20488 3.69839 4.16974 3.63589 4.10723L2.92889 3.39989C2.83885 3.31701 2.80146 3.19145 2.8315 3.07281C2.86154 2.95417 2.95417 2.86154 3.07281 2.8315C3.19145 2.80146 3.31701 2.83885 3.39989 2.92889L4.10689 3.63589C4.2022 3.73123 4.2307 3.87457 4.17912 3.99911C4.12754 4.12365 4.00603 4.20487 3.87123 4.20489H3.87156Z" fill="#F0C419"/>
<path d="M7.66667 7.99992H3L5.33333 4.33325L7.66667 7.99992Z" fill="#FB7B76"/>
<path d="M17.0002 7.99992H12.3335L14.6668 4.33325L17.0002 7.99992Z" fill="#FB7B76"/>
<path d="M14.6667 4.33325L12.3333 7.99992L10 4.33325H14.6667Z" fill="#FF5364"/>
<path d="M10.0002 4.33325L7.66683 7.99992L5.3335 4.33325H10.0002Z" fill="#FF5364"/>
<path d="M12.3332 7.99992H7.6665L9.99984 4.33325L12.3332 7.99992Z" fill="#FB7B76"/>
<path d="M12.3332 8L11.8132 10L11.3798 11.68L9.99984 17L7.6665 8H12.3332Z" fill="#FF5364"/>
</svg>
