<svg width="25" height="23" viewBox="0 0 25 23" fill="none" xmlns="http://www.w3.org/2000/svg">
<path d="M12.8125 0C6.1825 0 0.8125 5.28 0.8125 11.792C0.8125 17.003 4.2505 21.422 9.0175 22.98C9.6175 23.091 9.8375 22.726 9.8375 22.413C9.8375 22.133 9.8275 21.391 9.8225 20.408C6.4845 21.119 5.7805 18.826 5.7805 18.826C5.2345 17.465 4.4455 17.101 4.4455 17.101C3.3585 16.37 4.5295 16.385 4.5295 16.385C5.7345 16.467 6.3675 17.6 6.3675 17.6C7.4375 19.403 9.1765 18.882 9.8625 18.581C9.9705 17.818 10.2795 17.299 10.6225 17.004C7.9575 16.709 5.1565 15.695 5.1565 11.177C5.1565 9.89 5.6215 8.838 6.3915 8.013C6.2565 7.715 5.8515 6.516 6.4965 4.892C6.4965 4.892 7.5015 4.576 9.7965 6.101C10.7565 5.839 11.7765 5.709 12.7965 5.703C13.8165 5.709 14.8365 5.839 15.7965 6.101C18.0765 4.576 19.0815 4.892 19.0815 4.892C19.7265 6.516 19.3215 7.715 19.2015 8.013C19.9665 8.838 20.4315 9.89 20.4315 11.177C20.4315 15.707 17.6265 16.704 14.9565 16.994C15.3765 17.348 15.7665 18.071 15.7665 19.176C15.7665 20.754 15.7515 22.022 15.7515 22.405C15.7515 22.714 15.9615 23.083 16.5765 22.965C21.3775 21.417 24.8125 16.995 24.8125 11.792C24.8125 5.28 19.4395 0 12.8125 0Z" fill="#9F9F9F"/>
</svg>
