<svg width="12" height="16" viewBox="0 0 12 16" fill="none" xmlns="http://www.w3.org/2000/svg">
<path d="M3.17799 8.53906L3.16748 15.9915L5.83523 14.2492L8.49848 15.9996L8.50898 8.54657L3.17799 8.53906Z" fill="#FFD686"/>
<path d="M6.8823 14.6859C6.8703 14.4537 6.6622 14.2792 6.42959 14.2787L6.20148 14.2782C5.96987 14.2712 5.78379 14.0816 5.78379 13.8485C5.78429 13.6114 5.97738 13.4183 6.21499 13.4188L6.85829 13.4198C7.05688 13.4203 7.21996 13.2577 7.21746 13.0591V13.0286C7.23147 12.8325 7.07439 12.6669 6.8788 12.6664L4.9539 12.6634C4.71929 12.6629 4.51269 12.4888 4.49918 12.2572C4.48868 12.0091 4.68477 11.805 4.93038 11.8055L6.71522 11.808C6.91382 11.8085 7.07689 11.6459 7.07739 11.4468L7.07489 11.4218V11.4163C7.07789 11.2067 6.90731 11.0351 6.69722 11.0351L5.69575 11.0336C5.46113 11.0331 5.25454 10.8591 5.24103 10.6245C5.23053 10.3788 5.42662 10.1722 5.67223 10.1727L6.77825 10.1742C6.98535 10.1747 7.13992 10.0012 7.13742 9.79407C7.13742 9.79107 7.13742 9.79107 7.13742 9.78856C7.13742 9.78556 7.13742 9.78556 7.13742 9.78306C7.14042 9.57596 6.98635 9.40188 6.77925 9.40188L5.58669 9.40038C5.35508 9.39988 5.14849 9.2258 5.13498 8.99419C5.12448 8.74558 5.32057 8.54198 5.56618 8.54248L8.50957 8.54698L8.49856 16L6.82928 14.903C6.86279 14.8369 6.8863 14.7654 6.8823 14.6859Z" fill="#FFB628"/>
<path d="M5.83824 11.6765C9.0626 11.6765 11.6765 9.06261 11.6765 5.83824C11.6765 2.61387 9.0626 0 5.83824 0C2.61387 0 0 2.61387 0 5.83824C0 9.06261 2.61387 11.6765 5.83824 11.6765Z" fill="#FFB628"/>
<path d="M6.63019 5.16845H2.93046C2.64282 5.16845 2.40671 4.93234 2.40671 4.6447C2.45423 4.2205 2.66783 4.04892 2.95847 4.04892H5.52267C5.86233 4.04892 6.16247 3.79731 6.18248 3.45715C6.19849 3.10148 5.91486 2.80134 5.55869 2.80134H2.84241C2.54277 2.80134 2.31867 2.54972 2.32267 2.24958C2.32767 1.88691 2.56979 1.68182 2.84241 1.68182H5.68475C6.0204 1.68182 6.32055 1.4302 6.34055 1.09404C6.35656 0.734371 6.07293 0.438232 5.71676 0.438232H3.63529C1.51279 1.31314 0.0170898 3.40012 0.0170898 5.83826C0.0170898 8.27641 1.51279 10.3629 3.63579 11.2368H6.27853C6.61418 11.2368 6.91432 10.9852 6.93433 10.649C6.95034 10.2893 6.66671 9.99371 6.31054 9.99371L3.30413 9.99321C2.94946 9.99321 2.66383 9.69657 2.68284 9.3374C2.70035 9.00125 3.00249 8.74863 3.33915 8.74863H4.50469C4.83985 8.73912 5.11048 8.46449 5.11048 8.12684C5.11048 7.78317 4.83085 7.50304 4.48669 7.50304H2.71986C2.43222 7.50304 2.19611 7.26743 2.20011 6.9793C2.20011 6.59262 2.42372 6.41153 2.69184 6.41153H6.59417C6.93383 6.41153 7.23397 6.15991 7.25398 5.82376C7.26999 5.46459 6.98586 5.16845 6.63019 5.16845Z" fill="#FFD686"/>
<path d="M5.83835 10.0058C3.54027 10.0058 1.6709 8.13593 1.6709 5.83835C1.6709 3.54077 3.54027 1.6709 5.83835 1.6709C8.13643 1.6709 10.0058 3.54077 10.0058 5.83835C10.0058 8.13593 8.13643 10.0058 5.83835 10.0058Z" fill="#F3F3F3"/>
<path opacity="0.5" d="M10.0057 5.83806C10.0057 3.62103 8.26387 1.80768 6.07734 1.68262H5.68916C5.43304 1.68262 5.20443 1.87471 5.18893 2.13083C5.17692 2.40496 5.39302 2.63106 5.66465 2.63106L7.95772 2.63156C8.22835 2.63156 8.44595 2.85767 8.43145 3.1318C8.41794 3.38842 8.18783 3.58101 7.93071 3.58101H7.0418C6.78618 3.58851 6.57958 3.79761 6.57958 4.05523C6.57958 4.31735 6.79318 4.53095 7.0553 4.53095H8.40293C8.62254 4.53095 8.80212 4.71104 8.79912 4.93014V4.96315C8.81413 5.17976 8.64054 5.36234 8.42394 5.36234H5.44805C5.18893 5.36234 4.96032 5.55443 4.94481 5.81055C4.93281 6.08468 5.14891 6.31079 5.42054 6.31079H8.24186C8.46146 6.31079 8.64104 6.49087 8.64104 6.70997L8.63804 6.73749V6.74349C8.64104 6.9751 8.45196 7.16419 8.22035 7.16419H6.26443C6.00531 7.16419 5.7767 7.35628 5.7612 7.6154C5.74919 7.88653 5.96529 8.11563 6.23692 8.11563H8.30839C8.537 8.11563 8.70758 8.30772 8.70457 8.53633C8.70457 8.53933 8.70457 8.53933 8.70457 8.54233C8.70457 8.54533 8.70457 8.54533 8.70457 8.54834C8.70758 8.77694 8.537 8.96903 8.30839 8.96903H6.14087C5.88475 8.96903 5.65615 9.16112 5.64064 9.41724C5.62863 9.69187 5.84473 9.91748 6.11636 9.91748H6.68813C8.58052 9.52329 10.0057 7.84401 10.0057 5.83806Z" fill="white"/>
<path d="M8.74752 4.91537H6.72058L6.09378 2.98747C6.01324 2.73985 5.66258 2.73985 5.58204 2.98747L4.95575 4.91537H2.9288C2.66818 4.91537 2.55963 5.24903 2.77073 5.4021L4.41049 6.59366L3.7842 8.52157C3.70366 8.76918 3.9873 8.97528 4.19839 8.82221L5.83816 7.63065L7.47793 8.82221C7.68903 8.97528 7.97266 8.76918 7.89212 8.52157L7.26583 6.59366L8.9056 5.4021C9.1162 5.24903 9.00815 4.91537 8.74752 4.91537Z" fill="#FFB628"/>
</svg>
