<svg width="8" height="12" viewBox="0 0 8 12" fill="none" xmlns="http://www.w3.org/2000/svg">
<path d="M7.59681 6.50739L2.29445 11.8097C2.17181 11.9324 2.0081 12 1.83354 12C1.65898 12 1.49527 11.9324 1.37264 11.8097L0.982155 11.4193C0.728065 11.1649 0.728065 10.7514 0.982155 10.4975L5.43467 6.04493L0.977214 1.58748C0.854577 1.46474 0.786865 1.30113 0.786865 1.12667C0.786865 0.95201 0.854577 0.788398 0.977214 0.665567L1.3677 0.275278C1.49043 0.152544 1.65404 0.0849295 1.8286 0.0849295C2.00316 0.0849295 2.16687 0.152544 2.28951 0.275278L7.59681 5.58238C7.71973 5.7055 7.78725 5.86989 7.78686 6.04464C7.78725 6.22008 7.71973 6.38437 7.59681 6.50739Z" fill="white"/>
</svg>
