<svg width="12" height="12" viewBox="0 0 12 12" fill="none" xmlns="http://www.w3.org/2000/svg">
<path d="M6.02344 0C2.72789 0 0 2.68102 0 5.97656C0 9.27211 2.72789 12 6.02344 12C9.31898 12 12 9.27211 12 5.97656C12 2.68102 9.31898 0 6.02344 0ZM6.72656 9.1875C6.72656 9.57516 6.41086 9.89062 6.02344 9.89062C5.63578 9.89062 5.32031 9.57516 5.32031 9.1875V5.625C5.32031 5.23734 5.63578 4.92188 6.02344 4.92188C6.41086 4.92188 6.72656 5.23734 6.72656 5.625V9.1875ZM6.02344 3.51562C5.63578 3.51562 5.32031 3.20016 5.32031 2.8125C5.32031 2.42484 5.63578 2.10938 6.02344 2.10938C6.41086 2.10938 6.72656 2.42484 6.72656 2.8125C6.72656 3.20016 6.41086 3.51562 6.02344 3.51562Z" fill="white"/>
</svg>
