<svg width="20" height="24" viewBox="0 0 20 24" fill="none" xmlns="http://www.w3.org/2000/svg">
<path d="M11.6762 20.5712C11.6762 19.0667 10.4547 17.8472 8.94771 17.8472C7.44076 17.8472 6.21924 19.0667 6.21924 20.5712C6.21924 22.0757 7.44076 23.2952 8.94771 23.2952C10.4547 23.2952 11.6762 22.0757 11.6762 20.5712Z" fill="#F7C92B"/>
<path d="M8.9478 17.8472C8.67197 17.8472 8.40574 17.8884 8.15479 17.9645C9.27482 18.3036 10.0902 19.342 10.0902 20.5712C10.0902 21.8002 9.27482 22.8388 8.15479 23.1779C8.40574 23.254 8.67197 23.2952 8.9478 23.2952C10.4548 23.2952 11.6763 22.0757 11.6763 20.5712C11.6763 19.0667 10.4548 17.8472 8.9478 17.8472Z" fill="#F2B51D"/>
<path d="M9.26656 4.67262C8.39018 4.84839 7.53727 4.2818 7.36114 3.40684C7.18502 2.53207 7.75268 1.6804 8.62887 1.50463C9.50507 1.32886 10.3582 1.89545 10.5343 2.7704C10.7102 3.64518 10.1428 4.49685 9.26656 4.67262Z" fill="#F7C92B"/>
<path d="M10.5342 2.7704C10.3581 1.89545 9.50497 1.32886 8.62878 1.50463C8.5472 1.52098 8.46847 1.54337 8.39258 1.57074C8.90408 1.75771 9.30912 2.19812 9.42428 2.7704C9.58406 3.56378 9.13192 4.33814 8.39276 4.6065C8.66326 4.70532 8.96344 4.7334 9.26646 4.67262C10.1427 4.49685 10.7101 3.64518 10.5342 2.7704Z" fill="#F2B51D"/>
<path d="M15.7056 20.1153H2.18978C0.980343 20.1153 0 19.1365 0 17.9292C0 17.2608 0.303025 16.6283 0.824121 16.2086L1.25831 15.8589C2.26265 15.0502 2.84666 13.8312 2.84666 12.543V10.2455C2.84666 6.85575 5.59894 4.10791 8.99424 4.10791C12.3894 4.10791 15.1418 6.85575 15.1418 10.2455V12.5855C15.1418 13.8493 15.704 15.0481 16.6763 15.8575L17.0991 16.2094C17.6037 16.6293 17.8954 17.2514 17.8954 17.9072V17.9292C17.8954 19.1365 16.915 20.1153 15.7056 20.1153Z" fill="#F7E249"/>
<path d="M17.0992 16.2093L16.6764 15.8574C15.7041 15.0478 15.1419 13.8493 15.1419 12.5853V10.2453C15.1419 6.85568 12.3895 4.10767 8.99434 4.10767C8.39273 4.10767 7.81156 4.1944 7.26221 4.35524C9.81401 5.10187 11.6777 7.45622 11.6777 10.2453V12.5853C11.6777 13.8493 12.2398 15.0478 13.2122 15.8574L13.6351 16.2093C14.1395 16.6293 14.4314 17.2513 14.4314 17.9071V17.9292C14.4314 19.1365 13.451 20.1152 12.2416 20.1152H15.7058C16.9151 20.1152 17.8954 19.1365 17.8954 17.9292V17.9071C17.8954 17.2513 17.6038 16.6293 17.0992 16.2093Z" fill="#F7C92B"/>
<path d="M20.0001 5.26766C20.0001 2.35844 17.6379 0 14.7239 0C11.8099 0 9.44751 2.35844 9.44751 5.26766C9.44751 8.17687 11.8099 10.5353 14.7239 10.5353C17.6379 10.5353 20.0001 8.17687 20.0001 5.26766Z" fill="#FC476E"/>
<path d="M16.1395 0.192139C17.4851 1.14671 18.3629 2.71551 18.3629 4.48905C18.3629 7.39827 16.0007 9.75671 13.0867 9.75671C12.5961 9.75671 12.1214 9.6897 11.6709 9.56458C12.5325 10.176 13.5861 10.5353 14.7237 10.5353C17.6376 10.5353 19.9999 8.17689 19.9999 5.26767C19.9999 2.84809 18.3659 0.809919 16.1395 0.192139Z" fill="#CC2B5A"/>
<path d="M14.7239 7.72793C14.5204 7.72793 14.3555 7.56336 14.3555 7.36022V3.81314L14.2181 3.93843C14.0678 4.07528 13.8348 4.06462 13.6977 3.91444C13.5607 3.76444 13.5714 3.53179 13.7217 3.39494L14.4756 2.70856C14.5835 2.61046 14.739 2.58504 14.8727 2.64387C15.0062 2.7027 15.0922 2.83457 15.0922 2.98031V7.36022C15.0922 7.56336 14.9272 7.72793 14.7239 7.72793Z" fill="#E3FAFF"/>
</svg>
