<svg width="16" height="16" viewBox="0 0 16 16" fill="none" xmlns="http://www.w3.org/2000/svg">
<path d="M1.53906 10.9248L5.07418 14.4599L3.5352 15.9989L8.78861e-05 12.4638L1.53906 10.9248Z" fill="#E7E9F2"/>
<path d="M1.76392 14.2324L3.30289 12.6934L5.07056 14.4611L3.53158 16.0001L1.76392 14.2324Z" fill="#E0E3EE"/>
<path d="M7.91708 3.27019L6.45695 2.99204C5.17044 2.74698 3.84605 3.1546 2.91996 4.08064L1.34229 5.65832L3.9386 7.24867L7.91708 3.27019Z" fill="#CC0E45"/>
<path d="M12.7297 8.08276L13.0078 9.5429C13.2529 10.8294 12.8453 12.1538 11.9192 13.0799L10.3416 14.6576L8.75122 12.0612L12.7297 8.08276Z" fill="#A5003C"/>
<path d="M15.8967 0.103193C15.8967 0.103193 11.1286 -0.57252 9.0218 1.53424L6.68347 4.51406L2.38427 8.17177C1.32366 9.23238 0.383301 10.1727 0.383301 10.1727L5.82713 15.6166C5.82713 15.6166 6.7675 14.6762 7.82811 13.6156C8.70556 12.7382 10.4091 10.3315 11.455 9.28558C12.6318 8.10886 13.7547 7.68901 14.4656 6.97803C16.5724 4.87127 15.8967 0.103193 15.8967 0.103193Z" fill="#ED2F54"/>
<path d="M11.455 9.28588C10.4093 10.3316 8.70568 12.7383 7.82836 13.6157C6.76753 14.6765 5.82739 15.6167 5.82739 15.6167L3.10547 12.8947L15.8969 0.103271C15.8969 0.103271 16.5726 4.87144 14.4658 6.97829C13.7549 7.68909 12.6319 8.10899 11.455 9.28588Z" fill="#CC0E45"/>
<path d="M2.38281 8.17163L9.01936 1.53508L14.4624 6.97809L7.82583 13.6146L2.38281 8.17163Z" fill="#C3CADD"/>
<path d="M5.10449 10.8933L11.7409 4.25695L14.4624 6.97847L7.82601 13.6148L5.10449 10.8933Z" fill="#A1ACC4"/>
<path d="M8.54523 9.20643C9.51271 9.20643 10.297 8.42213 10.297 7.45466C10.297 6.48718 9.51271 5.70288 8.54523 5.70288C7.57775 5.70288 6.79346 6.48718 6.79346 7.45466C6.79346 8.42213 7.57775 9.20643 8.54523 9.20643Z" fill="#3381FB"/>
<path d="M9.78391 8.69357C9.09988 9.3776 7.99042 9.3776 7.3064 8.69357L9.78391 6.21606C10.4679 6.90009 10.4679 8.00955 9.78391 8.69357Z" fill="#115ACE"/>
<path d="M6.76708 9.23282C5.78662 8.25236 5.78662 6.65697 6.76708 5.67651C7.74754 4.69605 9.34289 4.69605 10.3234 5.67651C11.3039 6.65697 11.3039 8.25236 10.3234 9.23282C9.34289 10.2133 7.74754 10.2133 6.76708 9.23282ZM9.39988 6.60002C8.92866 6.1288 8.16187 6.1288 7.69064 6.60002C7.21937 7.07129 7.21937 7.83808 7.69064 8.30931C8.16187 8.78053 8.92866 8.78053 9.39993 8.30931C9.87111 7.83804 9.87111 7.07129 9.39988 6.60002Z" fill="#E7E9F2"/>
<path d="M10.3233 5.67651L9.39976 6.60003C9.87107 7.07134 9.87107 7.83787 9.39976 8.30918C8.92845 8.7805 8.16192 8.7805 7.69061 8.30918L6.76709 9.2327C7.74755 10.2132 9.34282 10.2132 10.3233 9.2327C11.3037 8.25224 11.3037 6.65702 10.3233 5.67651Z" fill="#C3CADD"/>
</svg>
