<svg width="12" height="16" viewBox="0 0 12 16" fill="none" xmlns="http://www.w3.org/2000/svg">
<path d="M3.33961 8.53906L3.3291 15.9915L5.99685 14.2492L8.6601 15.9996L8.6706 8.54657L3.33961 8.53906Z" fill="#4B9FD8"/>
<path d="M7.04392 14.6859C7.03192 14.4537 6.82382 14.2792 6.59121 14.2787L6.3631 14.2782C6.13149 14.2712 5.94541 14.0816 5.94541 13.8485C5.94591 13.6114 6.139 13.4183 6.37661 13.4188L7.01991 13.4198C7.21851 13.4203 7.38158 13.2577 7.37908 13.0591V13.0286C7.39309 12.8325 7.23601 12.6669 7.04042 12.6664L5.11552 12.6634C4.88091 12.6629 4.67431 12.4888 4.6608 12.2572C4.6503 12.0091 4.84639 11.805 5.09201 11.8055L6.87685 11.808C7.07544 11.8085 7.23851 11.6459 7.23902 11.4468L7.23651 11.4218V11.4163C7.23952 11.2067 7.06893 11.0351 6.85884 11.0351L5.85737 11.0336C5.62276 11.0331 5.41616 10.8591 5.40265 10.6245C5.39215 10.3788 5.58824 10.1722 5.83385 10.1727L6.93987 10.1742C7.14697 10.1747 7.30154 10.0012 7.29904 9.79407C7.29904 9.79107 7.29904 9.79107 7.29904 9.78856C7.29904 9.78556 7.29904 9.78556 7.29904 9.78306C7.30205 9.57596 7.14797 9.40188 6.94088 9.40188L5.74831 9.40038C5.51671 9.39988 5.31011 9.2258 5.2966 8.99419C5.2861 8.74558 5.48219 8.54198 5.7278 8.54248L8.67119 8.54698L8.66018 16L6.9909 14.903C7.02441 14.8369 7.04793 14.7654 7.04392 14.6859Z" fill="#3789C9"/>
<path d="M5.99986 11.6765C9.22423 11.6765 11.8381 9.06261 11.8381 5.83824C11.8381 2.61387 9.22423 0 5.99986 0C2.77549 0 0.161621 2.61387 0.161621 5.83824C0.161621 9.06261 2.77549 11.6765 5.99986 11.6765Z" fill="#D8D9D8"/>
<path d="M6.79181 5.16845H3.09208C2.80444 5.16845 2.56833 4.93234 2.56833 4.6447C2.61585 4.2205 2.82945 4.04892 3.12009 4.04892H5.68429C6.02395 4.04892 6.32409 3.79731 6.3441 3.45715C6.36011 3.10148 6.07648 2.80134 5.72031 2.80134H3.00404C2.7044 2.80134 2.48029 2.54972 2.48429 2.24958C2.48929 1.88691 2.73141 1.68182 3.00404 1.68182H5.84637C6.18203 1.68182 6.48217 1.4302 6.50218 1.09404C6.51818 0.734371 6.23455 0.438232 5.87838 0.438232H3.79691C1.67441 1.31314 0.178711 3.40012 0.178711 5.83826C0.178711 8.27641 1.67441 10.3629 3.79741 11.2368H6.44015C6.7758 11.2368 7.07594 10.9852 7.09595 10.649C7.11196 10.2893 6.82833 9.99371 6.47216 9.99371L3.46575 9.99321C3.11109 9.99321 2.82545 9.69657 2.84446 9.3374C2.86197 9.00125 3.16411 8.74863 3.50077 8.74863H4.66632C5.00147 8.73912 5.2721 8.46449 5.2721 8.12684C5.2721 7.78317 4.99247 7.50304 4.64831 7.50304H2.88148C2.59384 7.50304 2.35773 7.26743 2.36173 6.9793C2.36173 6.59262 2.58534 6.41153 2.85347 6.41153H6.75579C7.09545 6.41153 7.39559 6.15991 7.4156 5.82376C7.43161 5.46459 7.14748 5.16845 6.79181 5.16845Z" fill="#E5E5E5"/>
<path d="M5.99997 10.0058C3.7019 10.0058 1.83252 8.13593 1.83252 5.83835C1.83252 3.54077 3.7019 1.6709 5.99997 1.6709C8.29805 1.6709 10.1674 3.54077 10.1674 5.83835C10.1674 8.13593 8.29805 10.0058 5.99997 10.0058Z" fill="#F3F3F3"/>
<path opacity="0.5" d="M10.1673 5.83806C10.1673 3.62103 8.42549 1.80768 6.23897 1.68262H5.85078C5.59466 1.68262 5.36606 1.87471 5.35055 2.13083C5.33854 2.40496 5.55464 2.63106 5.82627 2.63106L8.11935 2.63156C8.38997 2.63156 8.60757 2.85767 8.59307 3.1318C8.57956 3.38842 8.34945 3.58101 8.09233 3.58101H7.20342C6.9478 3.58851 6.7412 3.79761 6.7412 4.05523C6.7412 4.31735 6.9548 4.53095 7.21692 4.53095H8.56455C8.78416 4.53095 8.96374 4.71104 8.96074 4.93014V4.96315C8.97575 5.17976 8.80217 5.36234 8.58556 5.36234H5.60967C5.35055 5.36234 5.12194 5.55443 5.10643 5.81055C5.09443 6.08468 5.31053 6.31079 5.58216 6.31079H8.40348C8.62308 6.31079 8.80267 6.49087 8.80267 6.70997L8.79966 6.73749V6.74349C8.80267 6.9751 8.61358 7.16419 8.38197 7.16419H6.42605C6.16693 7.16419 5.93832 7.35628 5.92282 7.6154C5.91081 7.88653 6.12691 8.11563 6.39854 8.11563H8.47001C8.69862 8.11563 8.8692 8.30772 8.86619 8.53633C8.86619 8.53933 8.86619 8.53933 8.86619 8.54233C8.86619 8.54533 8.86619 8.54533 8.86619 8.54834C8.8692 8.77694 8.69862 8.96903 8.47001 8.96903H6.30249C6.04637 8.96903 5.81777 9.16112 5.80226 9.41724C5.79025 9.69187 6.00636 9.91748 6.27798 9.91748H6.84975C8.74214 9.52329 10.1673 7.84401 10.1673 5.83806Z" fill="white"/>
<path d="M8.90915 4.91537H6.8822L6.2554 2.98747C6.17487 2.73985 5.8242 2.73985 5.74366 2.98747L5.11737 4.91537H3.09042C2.8298 4.91537 2.72125 5.24903 2.93235 5.4021L4.57211 6.59366L3.94582 8.52157C3.86528 8.76918 4.14892 8.97528 4.36002 8.82221L5.99978 7.63065L7.63955 8.82221C7.85065 8.97528 8.13428 8.76918 8.05374 8.52157L7.42745 6.59366L9.06722 5.4021C9.27782 5.24903 9.16977 4.91537 8.90915 4.91537Z" fill="#3789C9"/>
</svg>
