<svg width="20" height="20" viewBox="0 0 20 20" fill="none" xmlns="http://www.w3.org/2000/svg">
<path d="M15.2689 8.78234C15.2264 8.65129 15.113 8.55574 14.9766 8.5359L11.7622 8.06879L10.3245 5.15602C10.2636 5.03234 10.1377 4.9541 9.99996 4.9541C9.86215 4.9541 9.73621 5.03234 9.67528 5.15602L8.23766 8.06879L5.02317 8.5359C4.88692 8.5557 4.77348 8.65121 4.73086 8.78234C4.68832 8.91328 4.72387 9.05719 4.82254 9.15348L7.14863 11.4207L6.59949 14.6222C6.57613 14.758 6.63195 14.8953 6.74344 14.9763C6.85488 15.0573 7.00281 15.068 7.12473 15.0039L10 13.4923L12.875 15.0038C12.928 15.0316 12.9859 15.0454 13.0435 15.0454C13.1186 15.0454 13.1934 15.0221 13.2564 14.9763C13.3678 14.8953 13.4236 14.758 13.4004 14.6222L13.1943 13.4204L13.0248 12.4322L12.8513 11.4207L15.1773 9.15348C15.276 9.05719 15.3115 8.91328 15.2689 8.78234Z" fill="#FFD960"/>
<g opacity="0.1">
<path opacity="0.1" d="M7.42423 14.738C7.31278 14.6569 7.25688 14.5196 7.28028 14.3838L7.82942 11.1823L5.50333 8.9151C5.40465 8.81881 5.36919 8.67494 5.41165 8.54396C5.41962 8.51951 5.43071 8.49682 5.44333 8.4751L5.02329 8.53615C4.88704 8.55596 4.7736 8.65146 4.73098 8.7826C4.68844 8.91353 4.72399 9.05744 4.82266 9.15373L7.14876 11.421L6.59962 14.6225C6.57626 14.7583 6.63208 14.8955 6.74356 14.9766C6.85501 15.0576 7.00294 15.0683 7.12485 15.0041L7.53118 14.7905C7.49348 14.7789 7.45715 14.7619 7.42423 14.738Z" fill="#231F20"/>
</g>
<path d="M1.8157 10.3159H0.315781C0.141406 10.3159 0 10.1745 0 10.0001C0 9.82569 0.141406 9.68433 0.315781 9.68433H1.8157C1.99012 9.68433 2.13148 9.82573 2.13148 10.0001C2.13148 10.1745 1.99012 10.3159 1.8157 10.3159Z" fill="#FFD960"/>
<path d="M19.6842 10.3159H18.1843C18.0099 10.3159 17.8685 10.1745 17.8685 10.0001C17.8685 9.82569 18.0099 9.68433 18.1843 9.68433H19.6842C19.8586 9.68433 20 9.82573 20 10.0001C20 10.1745 19.8586 10.3159 19.6842 10.3159Z" fill="#FFD960"/>
<path d="M3.15226 17.1635C3.0714 17.1635 2.99062 17.1327 2.92894 17.071C2.80562 16.9477 2.80562 16.7478 2.92898 16.6245L3.98957 15.5639C4.11289 15.4406 4.31285 15.4406 4.43613 15.5639C4.55945 15.6872 4.55945 15.8872 4.43609 16.0105L3.3755 17.0711C3.3139 17.1327 3.23304 17.1635 3.15226 17.1635Z" fill="#FFD960"/>
<path d="M15.7871 4.52858C15.7062 4.52858 15.6254 4.49776 15.5637 4.43608C15.4404 4.31276 15.4404 4.1128 15.5637 3.98948L16.6244 2.92893C16.7477 2.80557 16.9477 2.80561 17.071 2.92893C17.1943 3.05225 17.1943 3.25221 17.071 3.37549L16.0104 4.43604C15.9487 4.49776 15.8679 4.52858 15.7871 4.52858Z" fill="#FFD960"/>
<path d="M9.99999 19.9999C9.82557 19.9999 9.6842 19.8584 9.6842 19.6841V18.1842C9.6842 18.0098 9.82561 17.8684 9.99999 17.8684C10.1744 17.8684 10.3158 18.0098 10.3158 18.1842V19.6841C10.3158 19.8584 10.1744 19.9999 9.99999 19.9999Z" fill="#FFD960"/>
<path d="M9.99999 2.13148C9.82557 2.13148 9.6842 1.99008 9.6842 1.8157V0.315781C9.6842 0.141367 9.82561 0 9.99999 0C10.1744 0 10.3158 0.141406 10.3158 0.315781V1.8157C10.3158 1.99012 10.1744 2.13148 9.99999 2.13148Z" fill="#FFD960"/>
<path d="M16.8477 17.1636C16.7669 17.1636 16.686 17.1328 16.6244 17.0711L15.5637 16.0105C15.4404 15.8872 15.4404 15.6872 15.5637 15.5639C15.6871 15.4406 15.887 15.4406 16.0103 15.5639L17.0709 16.6245C17.1942 16.7478 17.1942 16.9478 17.0709 17.071C17.0093 17.1328 16.9285 17.1636 16.8477 17.1636Z" fill="#FFD960"/>
<path d="M4.21288 4.52856C4.13202 4.52856 4.05124 4.49774 3.98956 4.43606L2.92897 3.37548C2.80565 3.25216 2.80565 3.0522 2.92901 2.92892C3.05233 2.8056 3.25225 2.8056 3.37557 2.92892L4.43616 3.98954C4.55948 4.11286 4.55948 4.31282 4.43612 4.43614C4.37452 4.49774 4.29366 4.52856 4.21288 4.52856Z" fill="#FFD960"/>
</svg>
