<svg width="19" height="15" viewBox="0 0 19 15" fill="none" xmlns="http://www.w3.org/2000/svg">
<path d="M1.21704 14.7485H17.4402C18.1117 14.7485 18.6573 14.2029 18.6573 13.5315V10.785H12.8337C12.3976 10.785 11.9717 10.6999 11.5721 10.5295C11.1867 10.3672 10.8398 10.1319 10.5437 9.83576C10.2475 9.53961 10.0122 9.19273 9.84994 8.80734C9.68158 8.40774 9.59436 7.98178 9.59436 7.54567V7.20287C9.59436 6.76676 9.67955 6.3408 9.84994 5.9412C10.0122 5.5558 10.2475 5.20895 10.5437 4.9128C10.8398 4.61665 11.1867 4.38136 11.5721 4.21908C11.9717 4.05073 12.3976 3.9635 12.8337 3.9635H18.6573V1.21704C18.6573 0.545641 18.1117 0 17.4402 0H1.21704C0.545641 0 0 0.545641 0 1.21704V13.5315C0 14.2029 0.545641 14.7485 1.21704 14.7485Z" fill="white"/>
</svg>
