<svg width="14" height="14" viewBox="0 0 14 14" fill="none" xmlns="http://www.w3.org/2000/svg">
<path d="M7 0C10.8658 0 14 3.13425 14 7C14 10.8657 10.8658 14 7 14C3.13425 14 0 10.8657 0 7C0 3.13425 3.13425 0 7 0ZM7 11.4683C7.54717 11.4683 7.92167 11.0466 7.92167 10.5C7.92167 9.93767 7.53142 9.53167 7 9.53167C6.43825 9.53167 6.07833 9.93767 6.07833 10.5C6.07833 11.0472 6.43825 11.4683 7 11.4683ZM6.63717 7.77058C6.77658 8.246 7.21583 8.25417 7.36225 7.77058C7.53083 7.21292 8.12992 5.096 8.12992 3.72108C8.12992 1.90692 5.86017 1.89817 5.86017 3.72108C5.86075 5.10417 6.49192 7.27592 6.63717 7.77058Z" fill="#D01F36"/>
</svg>
