<svg width="76" height="37" viewBox="0 0 76 37" fill="none" xmlns="http://www.w3.org/2000/svg">
<path d="M70.9437 1.99202C69.5343 1.0119 67.9682 0.276814 66.0889 0.0317851C63.7397 -0.213244 61.3906 1.0119 59.8245 1.8695C58.2584 2.7271 55.1263 4.93236 53.8734 5.78997C52.6205 6.64757 49.4883 7.13763 44.3203 9.58792C39.1522 12.0382 19.1063 22.0844 19.1063 22.0844H24.2743L0.939638 31.518H3.28877L0 33.4782C1.8793 33.8458 3.75861 33.6008 5.4813 32.8657V33.4782C5.4813 33.4782 33.201 24.9022 38.5257 27.1075L35.2369 27.8426C35.5501 27.8426 40.7182 28.0876 40.7182 28.0876C41.0315 29.8028 42.2843 31.3955 44.1636 32.2531C47.2958 33.8458 47.4524 34.8259 47.4524 34.8259C47.4524 34.8259 45.8863 35.316 45.8863 36.0511C48.8619 35.316 51.9941 35.316 54.813 36.0511C54.813 36.0511 54.6564 35.316 52.4639 34.8259C50.2714 34.0908 48.3921 32.9882 46.9826 31.3955C45.7297 30.0478 45.2599 28.3326 46.043 26.7399C46.826 25.1473 49.4883 24.2897 54.9696 22.0844C61.3906 19.5116 62.9567 17.5514 63.7397 15.9587C64.5228 14.366 66.0889 11.4256 66.7153 9.95546C67.3417 8.6078 68.438 7.50517 69.8475 6.52505C71.5702 5.78997 73.4494 5.17739 75.1721 4.68734C75.4854 4.80985 72.04 2.60459 70.9437 1.99202Z" fill="white"/>
</svg>
