<svg width="32" height="32" viewBox="0 0 32 32" fill="none" xmlns="http://www.w3.org/2000/svg">
<circle cx="16" cy="16" r="16" fill="#D4D4D4"/>
<path d="M17.5652 16.6328L21.5437 12.6543C21.8026 12.3955 21.8026 11.977 21.5437 11.7183C21.2849 11.4595 20.8664 11.4595 20.6077 11.7183L16.6291 15.6968L12.6507 11.7183C12.3918 11.4595 11.9735 11.4595 11.7147 11.7183C11.4558 11.977 11.4558 12.3955 11.7147 12.6543L15.6931 16.6328L11.7147 20.6114C11.4558 20.8701 11.4558 21.2886 11.7147 21.5474C11.8437 21.6764 12.0132 21.7413 12.1827 21.7413C12.3521 21.7413 12.5216 21.6764 12.6507 21.5474L16.6291 17.5688L20.6077 21.5474C20.7367 21.6764 20.9062 21.7413 21.0757 21.7413C21.2451 21.7413 21.4146 21.6764 21.5437 21.5474C21.8026 21.2886 21.8026 20.8701 21.5437 20.6114L17.5652 16.6328Z" fill="black"/>
</svg>
