<svg width="25" height="24" viewBox="0 0 25 24" fill="none" xmlns="http://www.w3.org/2000/svg">
<path d="M12.9971 23.9992C19.6243 23.9992 24.9967 18.6268 24.9967 11.9996C24.9967 5.3724 19.6243 0 12.9971 0C6.36995 0 0.997559 5.3724 0.997559 11.9996C0.997559 18.6268 6.36995 23.9992 12.9971 23.9992Z" fill="url(#paint0_linear)"/>
<path d="M20.1664 12.9658V17.913H17.2981V13.2973C17.2981 12.1384 16.884 11.347 15.8455 11.347C15.053 11.347 14.5822 11.8798 14.3743 12.3957C14.2988 12.5801 14.2793 12.8362 14.2793 13.0948V17.9128H11.4109C11.4109 17.9128 11.4494 10.0954 11.4109 9.28622H14.2795V10.5087C14.2737 10.5183 14.2656 10.5277 14.2605 10.5369H14.2795V10.5087C14.6607 9.92216 15.3405 9.08366 16.8646 9.08366C18.7516 9.08366 20.1664 10.3166 20.1664 12.9658ZM8.41021 5.12793C7.42903 5.12793 6.78711 5.77199 6.78711 6.6182C6.78711 7.44643 7.41043 8.10911 8.37256 8.10911H8.39118C9.3916 8.10911 10.0136 7.44643 10.0136 6.6182C9.9946 5.77199 9.3916 5.12793 8.41021 5.12793ZM6.95759 17.913H9.82497V9.28622H6.95759V17.913Z" fill="#F1F2F2"/>
<defs>
<linearGradient id="paint0_linear" x1="24.9967" y1="23.9992" x2="-0.359436" y2="22.4677" gradientUnits="userSpaceOnUse">
<stop stop-color="#D52D6F"/>
<stop offset="0.0001" stop-color="#FF2D79"/>
<stop offset="0.486607" stop-color="#F98395"/>
<stop offset="1" stop-color="#1DCAFF"/>
</linearGradient>
</defs>
</svg>
