<svg width="25" height="17" viewBox="0 0 25 17" fill="none" xmlns="http://www.w3.org/2000/svg">
<path d="M23.3975 9.5H1.60259C0.717285 9.5 0 8.94052 0 8.25002C0 7.55952 0.717285 7 1.60259 7H23.3975C24.2827 7 25 7.55948 25 8.25002C25 8.94056 24.2827 9.5 23.3975 9.5Z" fill="white"/>
<path d="M11.7 2.5H1.30002C0.58186 2.5 0 1.94049 0 1.25C0 0.559512 0.58186 0 1.30002 0H11.7C12.4181 0 13 0.559474 13 1.25C13 1.94053 12.4181 2.5 11.7 2.5Z" fill="white"/>
<path d="M23.7 16.5H13.3C12.5819 16.5 12 15.9405 12 15.25C12 14.5595 12.5819 14 13.3 14H23.7C24.4181 14 25 14.5595 25 15.25C25 15.9405 24.4181 16.5 23.7 16.5Z" fill="white"/>
</svg>
