<svg width="14" height="14" viewBox="0 0 14 14" fill="none" xmlns="http://www.w3.org/2000/svg">
<path d="M6.99999 0C3.134 0 0 3.134 0 6.99999C0 10.866 3.134 14 6.99999 14C10.866 14 14 10.866 14 6.99999C13.9959 3.13573 10.8643 0.00413086 6.99999 0ZM10.8535 4.85349L5.85348 9.8535C5.65822 10.0487 5.34172 10.0487 5.14649 9.8535L3.14648 7.85349C2.94785 7.66165 2.94234 7.34513 3.13418 7.1465C3.32601 6.94787 3.64254 6.94236 3.84117 7.13419C3.84533 7.13824 3.84943 7.14231 3.85347 7.1465L5.49999 8.79301L10.1465 4.1465C10.3451 3.95467 10.6617 3.96017 10.8535 4.15878C11.0406 4.35255 11.0406 4.65972 10.8535 4.85349Z" fill="white"/>
</svg>
