<svg width="332" height="180" viewBox="0 0 332 180" fill="none" xmlns="http://www.w3.org/2000/svg">
<g opacity="0.3">
<path opacity="0.78" d="M239.751 134.158H142.766C137.691 134.158 133.58 129.329 133.58 123.371V53.8062C133.58 47.8475 137.691 43.0192 142.766 43.0192H239.751C244.825 43.0192 248.937 47.8475 248.937 53.8062V123.371C248.937 129.329 244.825 134.158 239.751 134.158Z" fill="#246A70"/>
</g>
<g opacity="0.5">
<path opacity="0.78" d="M230.206 148.405H107.399C100.973 148.405 95.7666 142.291 95.7666 134.745V46.6591C95.7666 39.1139 100.973 33 107.399 33H230.206C236.632 33 241.838 39.1139 241.838 46.6591V134.745C241.838 142.291 236.632 148.405 230.206 148.405Z" fill="#246A70"/>
</g>
<path opacity="0.78" d="M218.9 157H94.7585C88.2632 157 83 150.82 83 143.192V54.1491C83 46.5219 88.2632 40.3416 94.7585 40.3416H218.9C225.395 40.3416 230.659 46.5219 230.659 54.1491V143.192C230.659 150.82 225.395 157 218.9 157Z" fill="#267478"/>
<path d="M98.7685 119.579H94.3379V135.686H98.7685V119.579Z" fill="#76F9FF"/>
<path d="M105.071 117.954H100.64V135.686H105.071V117.954Z" fill="#76F9FF"/>
<path d="M111.462 121.324H107.031V135.685H111.462V121.324Z" fill="#76F9FF"/>
<path d="M117.847 114.672H113.416V135.686H117.847V114.672Z" fill="#76F9FF"/>
<path d="M124.556 116.762H120.126V135.686H124.556V116.762Z" fill="#76F9FF"/>
<path d="M131.349 119.579H126.918V135.686H131.349V119.579Z" fill="#76F9FF"/>
<path d="M137.651 117.954H133.22V135.686H137.651V117.954Z" fill="#76F9FF"/>
<path d="M144.042 121.324H139.612V135.685H144.042V121.324Z" fill="#76F9FF"/>
<path d="M209.042 97.7408H104.863C99.1061 97.7408 94.4211 95.4024 94.4211 92.5288V60.76C94.4211 57.8864 99.1061 55.548 104.863 55.548H209.042C214.799 55.548 219.484 57.8864 219.484 60.76V92.5288C219.484 95.4024 214.799 97.7408 209.042 97.7408ZM104.863 56.1214C99.7443 56.1214 95.57 58.2049 95.57 60.76V92.5288C95.57 95.0839 99.7316 97.1674 104.863 97.1674H209.042C214.161 97.1674 218.335 95.0839 218.335 92.5288V60.76C218.335 58.2049 214.161 56.1214 209.042 56.1214H104.863Z" fill="#76F9FF"/>
<path d="M112.283 64.7831C112.283 64.6917 112.283 64.6069 112.277 64.5155C112.277 64.4828 112.277 64.4567 112.277 64.4241C112.25 63.8887 112.139 63.3795 111.963 62.8964C111.232 60.8792 109.306 59.4233 107.028 59.3907C105.8 59.3776 104.664 59.7759 103.757 60.4613C102.491 61.421 101.661 62.9291 101.635 64.646C101.603 67.0093 103.124 69.0331 105.252 69.7577C105.768 69.934 106.316 70.0319 106.891 70.0385C107.543 70.045 108.164 69.9405 108.745 69.7316C109.711 69.3856 110.547 68.7719 111.167 67.9755C111.767 67.1986 112.166 66.2455 112.257 65.2075C112.277 65.0704 112.283 64.9267 112.283 64.7831ZM102.974 64.6656C102.987 63.3926 103.6 62.2632 104.54 61.5451C105.226 61.0228 106.081 60.7159 107.015 60.729C108.719 60.7486 110.161 61.8388 110.716 63.3534C110.847 63.7125 110.925 64.0976 110.951 64.4959C110.958 64.5873 110.958 64.6721 110.958 64.7635C110.951 65.1487 110.893 65.5208 110.782 65.8734C110.638 66.3434 110.416 66.7743 110.122 67.1529C110.018 67.29 109.9 67.4206 109.776 67.5446C109.045 68.2693 108.033 68.7132 106.917 68.7001C106.623 68.6936 106.336 68.661 106.062 68.5957C105.938 68.5696 105.807 68.5304 105.689 68.4912C104.09 67.9559 102.954 66.4413 102.974 64.6656Z" fill="#76F9FF"/>
<path d="M196.16 113.538H158.302C157.805 113.538 157.404 113.137 157.404 112.64V111.557C157.404 111.06 157.805 110.658 158.302 110.658H196.16C196.656 110.658 197.057 111.06 197.057 111.557V112.64C197.064 113.137 196.656 113.538 196.16 113.538Z" fill="#76F9FF"/>
<path d="M196.16 124.013H158.302C157.805 124.013 157.404 123.611 157.404 123.114V122.031C157.404 121.534 157.805 121.126 158.302 121.126H196.16C196.656 121.126 197.057 121.528 197.057 122.031V123.114C197.064 123.611 196.656 124.013 196.16 124.013Z" fill="#76F9FF"/>
<path d="M212.049 114.449L208.758 111.576C208.49 111.34 208.459 110.932 208.694 110.658C208.93 110.391 209.337 110.359 209.611 110.595L211.941 112.627L215.257 108.925C215.499 108.658 215.907 108.639 216.174 108.874C216.441 109.116 216.46 109.524 216.225 109.792L212.049 114.449Z" fill="#76F9FF"/>
<path d="M212.049 125.574L208.758 122.701C208.49 122.465 208.459 122.057 208.694 121.783C208.93 121.516 209.337 121.484 209.611 121.72L211.941 123.752L215.257 120.05C215.499 119.783 215.907 119.764 216.174 119.999C216.441 120.241 216.46 120.649 216.225 120.917L212.049 125.574Z" fill="#76F9FF"/>
<path d="M196.16 135.144H158.302C157.805 135.144 157.404 134.743 157.404 134.246V133.163C157.404 132.666 157.805 132.264 158.302 132.264H196.16C196.656 132.264 197.057 132.666 197.057 133.163V134.246C197.064 134.736 196.656 135.144 196.16 135.144Z" fill="#76F9FF"/>
<path d="M212.049 136.699L208.758 133.825C208.49 133.589 208.459 133.182 208.694 132.908C208.93 132.64 209.337 132.608 209.611 132.844L211.941 134.877L215.257 131.168C215.499 130.901 215.907 130.882 216.174 131.117C216.441 131.359 216.46 131.767 216.225 132.035L212.049 136.699Z" fill="#76F9FF"/>
</svg>
