<svg width="332" height="180" viewBox="0 0 332 180" fill="none" xmlns="http://www.w3.org/2000/svg">
<g filter="url(#filter0_d)">
<path d="M114.914 66.1936L118.601 73.5421C118.737 73.8128 118.999 73.9986 119.302 74.0396L127.358 75.131C128.098 75.231 128.393 76.1397 127.858 76.6698L122.062 82.4144C121.845 82.6296 121.746 82.9347 121.797 83.2302L123.177 91.1865C123.305 91.927 122.519 92.5276 121.844 92.202L114.506 88.6667C114.231 88.534 113.901 88.5449 113.625 88.6962L106.073 92.8357C105.358 93.2276 104.52 92.6747 104.658 91.8993L106.122 83.6125C106.176 83.3062 106.072 82.9974 105.842 82.787L99.5807 77.0364C98.9895 76.4937 99.3159 75.5313 100.132 75.4095L108.734 74.1264C109.048 74.0794 109.319 73.8864 109.459 73.609L113.217 66.1845C113.564 65.4965 114.568 65.5032 114.914 66.1936Z" fill="#75C9FF"/>
</g>
<g filter="url(#filter1_d)">
<path d="M169.018 27.1889L176.972 43.9549C177.265 44.5725 177.831 44.9973 178.485 45.0901L195.886 47.5896C197.486 47.8202 198.123 49.8949 196.966 51.1041L184.443 64.2092C183.974 64.6992 183.76 65.3952 183.872 66.0708L186.853 84.2373C187.13 85.9278 185.431 87.2951 183.974 86.5498L168.139 78.451C167.545 78.1465 166.835 78.1712 166.239 78.5148L149.965 87.9214C148.426 88.8101 146.622 87.5459 146.918 85.78L150.071 66.8987C150.188 66.2013 149.962 65.4967 149.469 65.0168L135.994 51.9C134.722 50.6633 135.424 48.4712 137.179 48.1942L155.698 45.2786C156.374 45.1728 156.958 44.732 157.259 44.0999L165.358 27.1686C166.107 25.5999 168.271 25.6144 169.018 27.1889Z" fill="#75C9FF"/>
</g>
<g filter="url(#filter2_d)">
<path d="M220.371 69.8487L224.062 77.8905C224.198 78.1865 224.461 78.3905 224.764 78.4358L232.846 79.6389C233.59 79.7493 233.886 80.7456 233.349 81.3259L227.53 87.6098C227.313 87.8452 227.213 88.1785 227.265 88.5023L228.649 97.2216C228.778 98.033 227.988 98.6879 227.311 98.3283L219.962 94.4302C219.687 94.284 219.358 94.295 219.082 94.4594L211.539 98.954C210.826 99.3786 209.99 98.7712 210.127 97.9248L211.588 88.8794C211.642 88.5454 211.538 88.2077 211.309 87.9767L205.071 81.687C204.483 81.0942 204.807 80.0446 205.619 79.9123L214.194 78.5199C214.508 78.4687 214.779 78.2574 214.918 77.9556L218.673 69.8385C219.021 69.0871 220.024 69.0937 220.371 69.8487Z" fill="#75C9FF"/>
</g>
<g filter="url(#filter3_d)">
<path d="M85.4321 99.3225L87.2782 103.411C87.3462 103.562 87.4778 103.666 87.6296 103.689L91.6764 104.302C92.0488 104.359 92.1974 104.866 91.9282 105.161L89.0143 108.355C88.9054 108.474 88.8556 108.644 88.8815 108.809L89.5745 113.245C89.6388 113.658 89.2438 113.99 88.905 113.807L85.2285 111.819C85.0909 111.744 84.9261 111.749 84.7877 111.833L81.0185 114.11C80.6623 114.325 80.2454 114.016 80.3138 113.586L81.0432 108.992C81.0703 108.822 81.0181 108.651 80.9036 108.533L77.7893 105.336C77.4958 105.035 77.6577 104.502 78.0629 104.435L82.3449 103.73C82.5016 103.704 82.6368 103.597 82.7068 103.443L84.5833 99.3178C84.7569 98.9355 85.2589 98.9386 85.4321 99.3225Z" fill="#75C9FF"/>
</g>
<g filter="url(#filter4_d)">
<path d="M248.629 99.3225L250.475 103.411C250.543 103.562 250.674 103.666 250.826 103.689L254.873 104.302C255.245 104.359 255.394 104.866 255.125 105.161L252.211 108.355C252.102 108.474 252.052 108.644 252.078 108.809L252.771 113.245C252.835 113.658 252.44 113.99 252.102 113.807L248.425 111.819C248.287 111.744 248.123 111.749 247.984 111.833L244.215 114.11C243.859 114.325 243.442 114.016 243.51 113.586L244.24 108.992C244.267 108.822 244.215 108.651 244.1 108.533L240.986 105.336C240.692 105.035 240.854 104.502 241.259 104.435L245.541 103.73C245.698 103.704 245.833 103.597 245.903 103.443L247.78 99.3178C247.953 98.9355 248.455 98.9386 248.629 99.3225Z" fill="#75C9FF"/>
</g>
<rect x="56.9016" y="136" width="216.393" height="3.86417" rx="1.93208" fill="#2C5C7A"/>
<path d="M56.9016 136H240.45C241.517 136 242.382 136.865 242.382 137.932C242.382 138.999 241.517 139.864 240.45 139.864H56.9016V136Z" fill="#75C9FF"/>
<circle cx="61.4098" cy="137.803" r="5.40984" fill="#75C9FF"/>
<circle cx="270.59" cy="137.803" r="5.40984" fill="#2C5C7A"/>
<circle cx="166" cy="137.803" r="5.40984" fill="#75C9FF"/>
<circle cx="113.705" cy="137.803" r="5.40984" fill="#75C9FF"/>
<circle cx="218.295" cy="137.803" r="5.40984" fill="#75C9FF"/>
<defs>
<filter id="filter0_d" x="87.2788" y="57.6721" width="52.8525" height="51.2929" filterUnits="userSpaceOnUse" color-interpolation-filters="sRGB">
<feFlood flood-opacity="0" result="BackgroundImageFix"/>
<feColorMatrix in="SourceAlpha" type="matrix" values="0 0 0 0 0 0 0 0 0 0 0 0 0 0 0 0 0 0 127 0"/>
<feOffset dy="4"/>
<feGaussianBlur stdDeviation="6"/>
<feColorMatrix type="matrix" values="0 0 0 0 0.458824 0 0 0 0 0.788235 0 0 0 0 1 0 0 0 0.4 0"/>
<feBlend mode="normal" in2="BackgroundImageFix" result="effect1_dropShadow"/>
<feBlend mode="normal" in="SourceGraphic" in2="effect1_dropShadow" result="shape"/>
</filter>
<filter id="filter1_d" x="127.344" y="20" width="78.2131" height="78.2131" filterUnits="userSpaceOnUse" color-interpolation-filters="sRGB">
<feFlood flood-opacity="0" result="BackgroundImageFix"/>
<feColorMatrix in="SourceAlpha" type="matrix" values="0 0 0 0 0 0 0 0 0 0 0 0 0 0 0 0 0 0 127 0"/>
<feOffset dy="2"/>
<feGaussianBlur stdDeviation="4"/>
<feColorMatrix type="matrix" values="0 0 0 0 0.458824 0 0 0 0 0.788235 0 0 0 0 1 0 0 0 0.39 0"/>
<feBlend mode="normal" in2="BackgroundImageFix" result="effect1_dropShadow"/>
<feBlend mode="normal" in="SourceGraphic" in2="effect1_dropShadow" result="shape"/>
</filter>
<filter id="filter2_d" x="192.771" y="61.2787" width="52.8525" height="53.8142" filterUnits="userSpaceOnUse" color-interpolation-filters="sRGB">
<feFlood flood-opacity="0" result="BackgroundImageFix"/>
<feColorMatrix in="SourceAlpha" type="matrix" values="0 0 0 0 0 0 0 0 0 0 0 0 0 0 0 0 0 0 127 0"/>
<feOffset dy="4"/>
<feGaussianBlur stdDeviation="6"/>
<feColorMatrix type="matrix" values="0 0 0 0 0.458824 0 0 0 0 0.788235 0 0 0 0 1 0 0 0 0.4 0"/>
<feBlend mode="normal" in2="BackgroundImageFix" result="effect1_dropShadow"/>
<feBlend mode="normal" in="SourceGraphic" in2="effect1_dropShadow" result="shape"/>
</filter>
<filter id="filter3_d" x="75.6394" y="99.0328" width="18.4262" height="19.1475" filterUnits="userSpaceOnUse" color-interpolation-filters="sRGB">
<feFlood flood-opacity="0" result="BackgroundImageFix"/>
<feColorMatrix in="SourceAlpha" type="matrix" values="0 0 0 0 0 0 0 0 0 0 0 0 0 0 0 0 0 0 127 0"/>
<feOffset dy="2"/>
<feGaussianBlur stdDeviation="1"/>
<feColorMatrix type="matrix" values="0 0 0 0 0.458824 0 0 0 0 0.788235 0 0 0 0 1 0 0 0 0.23 0"/>
<feBlend mode="normal" in2="BackgroundImageFix" result="effect1_dropShadow"/>
<feBlend mode="normal" in="SourceGraphic" in2="effect1_dropShadow" result="shape"/>
</filter>
<filter id="filter4_d" x="238.836" y="99.0328" width="18.4262" height="19.1475" filterUnits="userSpaceOnUse" color-interpolation-filters="sRGB">
<feFlood flood-opacity="0" result="BackgroundImageFix"/>
<feColorMatrix in="SourceAlpha" type="matrix" values="0 0 0 0 0 0 0 0 0 0 0 0 0 0 0 0 0 0 127 0"/>
<feOffset dy="2"/>
<feGaussianBlur stdDeviation="1"/>
<feColorMatrix type="matrix" values="0 0 0 0 0.458824 0 0 0 0 0.788235 0 0 0 0 1 0 0 0 0.23 0"/>
<feBlend mode="normal" in2="BackgroundImageFix" result="effect1_dropShadow"/>
<feBlend mode="normal" in="SourceGraphic" in2="effect1_dropShadow" result="shape"/>
</filter>
</defs>
</svg>
